%TF.GenerationSoftware,KiCad,Pcbnew,(6.0.7)*%
%TF.CreationDate,2023-02-08T20:34:56+01:00*%
%TF.ProjectId,udemy,7564656d-792e-46b6-9963-61645f706362,rev?*%
%TF.SameCoordinates,Original*%
%TF.FileFunction,Legend,Top*%
%TF.FilePolarity,Positive*%
%FSLAX46Y46*%
G04 Gerber Fmt 4.6, Leading zero omitted, Abs format (unit mm)*
G04 Created by KiCad (PCBNEW (6.0.7)) date 2023-02-08 20:34:56*
%MOMM*%
%LPD*%
G01*
G04 APERTURE LIST*
%ADD10C,0.150000*%
%ADD11C,0.120000*%
G04 APERTURE END LIST*
D10*
%TO.C,D1*%
X133866904Y-74987380D02*
X133866904Y-73987380D01*
X134105000Y-73987380D01*
X134247857Y-74035000D01*
X134343095Y-74130238D01*
X134390714Y-74225476D01*
X134438333Y-74415952D01*
X134438333Y-74558809D01*
X134390714Y-74749285D01*
X134343095Y-74844523D01*
X134247857Y-74939761D01*
X134105000Y-74987380D01*
X133866904Y-74987380D01*
X135390714Y-74987380D02*
X134819285Y-74987380D01*
X135105000Y-74987380D02*
X135105000Y-73987380D01*
X135009761Y-74130238D01*
X134914523Y-74225476D01*
X134819285Y-74273095D01*
%TO.C,R2*%
X137333333Y-81147380D02*
X137000000Y-80671190D01*
X136761904Y-81147380D02*
X136761904Y-80147380D01*
X137142857Y-80147380D01*
X137238095Y-80195000D01*
X137285714Y-80242619D01*
X137333333Y-80337857D01*
X137333333Y-80480714D01*
X137285714Y-80575952D01*
X137238095Y-80623571D01*
X137142857Y-80671190D01*
X136761904Y-80671190D01*
X137714285Y-80242619D02*
X137761904Y-80195000D01*
X137857142Y-80147380D01*
X138095238Y-80147380D01*
X138190476Y-80195000D01*
X138238095Y-80242619D01*
X138285714Y-80337857D01*
X138285714Y-80433095D01*
X138238095Y-80575952D01*
X137666666Y-81147380D01*
X138285714Y-81147380D01*
%TO.C,C4*%
X147283333Y-76132142D02*
X147235714Y-76179761D01*
X147092857Y-76227380D01*
X146997619Y-76227380D01*
X146854761Y-76179761D01*
X146759523Y-76084523D01*
X146711904Y-75989285D01*
X146664285Y-75798809D01*
X146664285Y-75655952D01*
X146711904Y-75465476D01*
X146759523Y-75370238D01*
X146854761Y-75275000D01*
X146997619Y-75227380D01*
X147092857Y-75227380D01*
X147235714Y-75275000D01*
X147283333Y-75322619D01*
X148140476Y-75560714D02*
X148140476Y-76227380D01*
X147902380Y-75179761D02*
X147664285Y-75894047D01*
X148283333Y-75894047D01*
%TO.C,R1*%
X153833333Y-76432380D02*
X153500000Y-75956190D01*
X153261904Y-76432380D02*
X153261904Y-75432380D01*
X153642857Y-75432380D01*
X153738095Y-75480000D01*
X153785714Y-75527619D01*
X153833333Y-75622857D01*
X153833333Y-75765714D01*
X153785714Y-75860952D01*
X153738095Y-75908571D01*
X153642857Y-75956190D01*
X153261904Y-75956190D01*
X154785714Y-76432380D02*
X154214285Y-76432380D01*
X154500000Y-76432380D02*
X154500000Y-75432380D01*
X154404761Y-75575238D01*
X154309523Y-75670476D01*
X154214285Y-75718095D01*
%TO.C,J2*%
X148271666Y-65757380D02*
X148271666Y-66471666D01*
X148224047Y-66614523D01*
X148128809Y-66709761D01*
X147985952Y-66757380D01*
X147890714Y-66757380D01*
X148700238Y-65852619D02*
X148747857Y-65805000D01*
X148843095Y-65757380D01*
X149081190Y-65757380D01*
X149176428Y-65805000D01*
X149224047Y-65852619D01*
X149271666Y-65947857D01*
X149271666Y-66043095D01*
X149224047Y-66185952D01*
X148652619Y-66757380D01*
X149271666Y-66757380D01*
%TO.C,J3*%
X159596666Y-65707380D02*
X159596666Y-66421666D01*
X159549047Y-66564523D01*
X159453809Y-66659761D01*
X159310952Y-66707380D01*
X159215714Y-66707380D01*
X159977619Y-65707380D02*
X160596666Y-65707380D01*
X160263333Y-66088333D01*
X160406190Y-66088333D01*
X160501428Y-66135952D01*
X160549047Y-66183571D01*
X160596666Y-66278809D01*
X160596666Y-66516904D01*
X160549047Y-66612142D01*
X160501428Y-66659761D01*
X160406190Y-66707380D01*
X160120476Y-66707380D01*
X160025238Y-66659761D01*
X159977619Y-66612142D01*
%TO.C,D2*%
X140041904Y-74962380D02*
X140041904Y-73962380D01*
X140280000Y-73962380D01*
X140422857Y-74010000D01*
X140518095Y-74105238D01*
X140565714Y-74200476D01*
X140613333Y-74390952D01*
X140613333Y-74533809D01*
X140565714Y-74724285D01*
X140518095Y-74819523D01*
X140422857Y-74914761D01*
X140280000Y-74962380D01*
X140041904Y-74962380D01*
X140994285Y-74057619D02*
X141041904Y-74010000D01*
X141137142Y-73962380D01*
X141375238Y-73962380D01*
X141470476Y-74010000D01*
X141518095Y-74057619D01*
X141565714Y-74152857D01*
X141565714Y-74248095D01*
X141518095Y-74390952D01*
X140946666Y-74962380D01*
X141565714Y-74962380D01*
%TO.C,J1*%
X123396666Y-65757380D02*
X123396666Y-66471666D01*
X123349047Y-66614523D01*
X123253809Y-66709761D01*
X123110952Y-66757380D01*
X123015714Y-66757380D01*
X124396666Y-66757380D02*
X123825238Y-66757380D01*
X124110952Y-66757380D02*
X124110952Y-65757380D01*
X124015714Y-65900238D01*
X123920476Y-65995476D01*
X123825238Y-66043095D01*
%TO.C,U1*%
X122188095Y-66952380D02*
X122188095Y-67761904D01*
X122235714Y-67857142D01*
X122283333Y-67904761D01*
X122378571Y-67952380D01*
X122569047Y-67952380D01*
X122664285Y-67904761D01*
X122711904Y-67857142D01*
X122759523Y-67761904D01*
X122759523Y-66952380D01*
X123759523Y-67952380D02*
X123188095Y-67952380D01*
X123473809Y-67952380D02*
X123473809Y-66952380D01*
X123378571Y-67095238D01*
X123283333Y-67190476D01*
X123188095Y-67238095D01*
%TO.C,U2*%
X153463095Y-66877380D02*
X153463095Y-67686904D01*
X153510714Y-67782142D01*
X153558333Y-67829761D01*
X153653571Y-67877380D01*
X153844047Y-67877380D01*
X153939285Y-67829761D01*
X153986904Y-67782142D01*
X154034523Y-67686904D01*
X154034523Y-66877380D01*
X154463095Y-66972619D02*
X154510714Y-66925000D01*
X154605952Y-66877380D01*
X154844047Y-66877380D01*
X154939285Y-66925000D01*
X154986904Y-66972619D01*
X155034523Y-67067857D01*
X155034523Y-67163095D01*
X154986904Y-67305952D01*
X154415476Y-67877380D01*
X155034523Y-67877380D01*
%TO.C,C3*%
X120308333Y-80432142D02*
X120260714Y-80479761D01*
X120117857Y-80527380D01*
X120022619Y-80527380D01*
X119879761Y-80479761D01*
X119784523Y-80384523D01*
X119736904Y-80289285D01*
X119689285Y-80098809D01*
X119689285Y-79955952D01*
X119736904Y-79765476D01*
X119784523Y-79670238D01*
X119879761Y-79575000D01*
X120022619Y-79527380D01*
X120117857Y-79527380D01*
X120260714Y-79575000D01*
X120308333Y-79622619D01*
X120641666Y-79527380D02*
X121260714Y-79527380D01*
X120927380Y-79908333D01*
X121070238Y-79908333D01*
X121165476Y-79955952D01*
X121213095Y-80003571D01*
X121260714Y-80098809D01*
X121260714Y-80336904D01*
X121213095Y-80432142D01*
X121165476Y-80479761D01*
X121070238Y-80527380D01*
X120784523Y-80527380D01*
X120689285Y-80479761D01*
X120641666Y-80432142D01*
%TO.C,C1*%
X127383333Y-76207142D02*
X127335714Y-76254761D01*
X127192857Y-76302380D01*
X127097619Y-76302380D01*
X126954761Y-76254761D01*
X126859523Y-76159523D01*
X126811904Y-76064285D01*
X126764285Y-75873809D01*
X126764285Y-75730952D01*
X126811904Y-75540476D01*
X126859523Y-75445238D01*
X126954761Y-75350000D01*
X127097619Y-75302380D01*
X127192857Y-75302380D01*
X127335714Y-75350000D01*
X127383333Y-75397619D01*
X128335714Y-76302380D02*
X127764285Y-76302380D01*
X128050000Y-76302380D02*
X128050000Y-75302380D01*
X127954761Y-75445238D01*
X127859523Y-75540476D01*
X127764285Y-75588095D01*
%TO.C,C2*%
X161433333Y-80607142D02*
X161385714Y-80654761D01*
X161242857Y-80702380D01*
X161147619Y-80702380D01*
X161004761Y-80654761D01*
X160909523Y-80559523D01*
X160861904Y-80464285D01*
X160814285Y-80273809D01*
X160814285Y-80130952D01*
X160861904Y-79940476D01*
X160909523Y-79845238D01*
X161004761Y-79750000D01*
X161147619Y-79702380D01*
X161242857Y-79702380D01*
X161385714Y-79750000D01*
X161433333Y-79797619D01*
X161814285Y-79797619D02*
X161861904Y-79750000D01*
X161957142Y-79702380D01*
X162195238Y-79702380D01*
X162290476Y-79750000D01*
X162338095Y-79797619D01*
X162385714Y-79892857D01*
X162385714Y-79988095D01*
X162338095Y-80130952D01*
X161766666Y-80702380D01*
X162385714Y-80702380D01*
D11*
%TO.C,D1*%
X136665000Y-72474000D02*
X136665000Y-72155000D01*
X136665000Y-69995000D02*
X136665000Y-69676000D01*
X132361758Y-72155724D02*
G75*
G03*
X136665000Y-72473749I2243242J1080724D01*
G01*
X132922287Y-72155961D02*
G75*
G03*
X136288330Y-72155000I1682713J1080961D01*
G01*
X136288330Y-69995000D02*
G75*
G03*
X132922287Y-69994039I-1683330J-1080000D01*
G01*
X136665000Y-69676251D02*
G75*
G03*
X132361758Y-69994276I-2060000J-1398749D01*
G01*
%TO.C,R2*%
X140770000Y-79695000D02*
X134230000Y-79695000D01*
X134230000Y-76955000D02*
X134230000Y-77285000D01*
X134230000Y-79695000D02*
X134230000Y-79365000D01*
X140770000Y-79365000D02*
X140770000Y-79695000D01*
X140770000Y-77285000D02*
X140770000Y-76955000D01*
X140770000Y-76955000D02*
X134230000Y-76955000D01*
%TO.C,C4*%
X145830000Y-79080000D02*
X145830000Y-79145000D01*
X149070000Y-76905000D02*
X149070000Y-76970000D01*
X145830000Y-76905000D02*
X149070000Y-76905000D01*
X145830000Y-79145000D02*
X149070000Y-79145000D01*
X149070000Y-79080000D02*
X149070000Y-79145000D01*
X145830000Y-76905000D02*
X145830000Y-76970000D01*
%TO.C,R1*%
X152080000Y-76980000D02*
X155920000Y-76980000D01*
X152080000Y-78820000D02*
X155920000Y-78820000D01*
%TO.C,J2*%
X144790000Y-61114000D02*
X144837000Y-61068000D01*
X153745000Y-65306000D02*
X143465000Y-65306000D01*
X153985000Y-55885000D02*
X153985000Y-55145000D01*
X143465000Y-65306000D02*
X143465000Y-55385000D01*
X153745000Y-57445000D02*
X143465000Y-57445000D01*
X153745000Y-62346000D02*
X143465000Y-62346000D01*
X153745000Y-55385000D02*
X143465000Y-55385000D01*
X153745000Y-65306000D02*
X153745000Y-55385000D01*
X153745000Y-55945000D02*
X143465000Y-55945000D01*
X147099000Y-58806000D02*
X147134000Y-58771000D01*
X144995000Y-61320000D02*
X145030000Y-61284000D01*
X147292000Y-59022000D02*
X147339000Y-58976000D01*
X153985000Y-55145000D02*
X153485000Y-55145000D01*
X151829000Y-58510000D02*
G75*
G03*
X151116195Y-58364747I-683999J-1535001D01*
G01*
X149609999Y-59361000D02*
G75*
G03*
X149609573Y-60728042I1535001J-684000D01*
G01*
X150461000Y-61580000D02*
G75*
G03*
X151828042Y-61580427I684001J1534993D01*
G01*
X152680000Y-60729000D02*
G75*
G03*
X152680427Y-59361958I-1534993J684001D01*
G01*
X151145000Y-58365000D02*
G75*
G03*
X150461682Y-58510244I0J-1680000D01*
G01*
X147745000Y-60045000D02*
G75*
G03*
X147745000Y-60045000I-1680000J0D01*
G01*
%TO.C,J3*%
X158424000Y-58756000D02*
X158459000Y-58721000D01*
X158617000Y-58972000D02*
X158664000Y-58926000D01*
X165310000Y-55835000D02*
X165310000Y-55095000D01*
X165070000Y-55895000D02*
X154790000Y-55895000D01*
X154790000Y-65256000D02*
X154790000Y-55335000D01*
X165070000Y-55335000D02*
X154790000Y-55335000D01*
X156115000Y-61064000D02*
X156162000Y-61018000D01*
X165310000Y-55095000D02*
X164810000Y-55095000D01*
X165070000Y-65256000D02*
X154790000Y-65256000D01*
X165070000Y-62296000D02*
X154790000Y-62296000D01*
X165070000Y-65256000D02*
X165070000Y-55335000D01*
X156320000Y-61270000D02*
X156355000Y-61234000D01*
X165070000Y-57395000D02*
X154790000Y-57395000D01*
X164005000Y-60679000D02*
G75*
G03*
X164005427Y-59311958I-1534993J684001D01*
G01*
X161786000Y-61530000D02*
G75*
G03*
X163153042Y-61530427I684001J1534993D01*
G01*
X160934999Y-59311000D02*
G75*
G03*
X160934573Y-60678042I1535001J-684000D01*
G01*
X163154000Y-58460000D02*
G75*
G03*
X162441195Y-58314747I-683999J-1535001D01*
G01*
X162470000Y-58315000D02*
G75*
G03*
X161786682Y-58460244I0J-1680000D01*
G01*
X159070000Y-59995000D02*
G75*
G03*
X159070000Y-59995000I-1680000J0D01*
G01*
%TO.C,D2*%
X142840000Y-69970000D02*
X142840000Y-69651000D01*
X142840000Y-72449000D02*
X142840000Y-72130000D01*
X142840000Y-69651251D02*
G75*
G03*
X138536758Y-69969276I-2060000J-1398749D01*
G01*
X138536758Y-72130724D02*
G75*
G03*
X142840000Y-72448749I2243242J1080724D01*
G01*
X139097287Y-72130961D02*
G75*
G03*
X142463330Y-72130000I1682713J1080961D01*
G01*
X142463330Y-69970000D02*
G75*
G03*
X139097287Y-69969039I-1683330J-1080000D01*
G01*
%TO.C,J1*%
X128870000Y-55945000D02*
X118590000Y-55945000D01*
X129110000Y-55885000D02*
X129110000Y-55145000D01*
X129110000Y-55145000D02*
X128610000Y-55145000D01*
X128870000Y-55385000D02*
X118590000Y-55385000D01*
X122417000Y-59022000D02*
X122464000Y-58976000D01*
X128870000Y-62346000D02*
X118590000Y-62346000D01*
X122224000Y-58806000D02*
X122259000Y-58771000D01*
X128870000Y-57445000D02*
X118590000Y-57445000D01*
X120120000Y-61320000D02*
X120155000Y-61284000D01*
X128870000Y-65306000D02*
X118590000Y-65306000D01*
X128870000Y-65306000D02*
X128870000Y-55385000D01*
X118590000Y-65306000D02*
X118590000Y-55385000D01*
X119915000Y-61114000D02*
X119962000Y-61068000D01*
X125586000Y-61580000D02*
G75*
G03*
X126953042Y-61580427I684001J1534993D01*
G01*
X124734999Y-59361000D02*
G75*
G03*
X124734573Y-60728042I1535001J-684000D01*
G01*
X126270000Y-58365000D02*
G75*
G03*
X125586682Y-58510244I0J-1680000D01*
G01*
X126954000Y-58510000D02*
G75*
G03*
X126241195Y-58364747I-683999J-1535001D01*
G01*
X127805000Y-60729000D02*
G75*
G03*
X127805427Y-59361958I-1534993J684001D01*
G01*
X122870000Y-60045000D02*
G75*
G03*
X122870000Y-60045000I-1680000J0D01*
G01*
%TO.C,U1*%
X117830000Y-70010000D02*
X128070000Y-70010000D01*
X124801000Y-68500000D02*
X124801000Y-70010000D01*
X117830000Y-68500000D02*
X117830000Y-73141000D01*
X117830000Y-73141000D02*
X128070000Y-73141000D01*
X117830000Y-68500000D02*
X128070000Y-68500000D01*
X128070000Y-68500000D02*
X128070000Y-73141000D01*
X121100000Y-68500000D02*
X121100000Y-70010000D01*
%TO.C,U2*%
X156076000Y-68425000D02*
X156076000Y-69935000D01*
X159345000Y-68425000D02*
X159345000Y-73066000D01*
X152375000Y-68425000D02*
X152375000Y-69935000D01*
X149105000Y-68425000D02*
X149105000Y-73066000D01*
X149105000Y-68425000D02*
X159345000Y-68425000D01*
X149105000Y-69935000D02*
X159345000Y-69935000D01*
X149105000Y-73066000D02*
X159345000Y-73066000D01*
%TO.C,C3*%
X122095000Y-76705000D02*
X118855000Y-76705000D01*
X118855000Y-76770000D02*
X118855000Y-76705000D01*
X122095000Y-76770000D02*
X122095000Y-76705000D01*
X118855000Y-78945000D02*
X118855000Y-78880000D01*
X122095000Y-78945000D02*
X118855000Y-78945000D01*
X122095000Y-78945000D02*
X122095000Y-78880000D01*
%TO.C,C1*%
X125080000Y-79720000D02*
X130020000Y-79720000D01*
X125080000Y-76980000D02*
X125080000Y-77295000D01*
X130020000Y-76980000D02*
X130020000Y-77295000D01*
X130020000Y-79405000D02*
X130020000Y-79720000D01*
X125080000Y-76980000D02*
X130020000Y-76980000D01*
X125080000Y-79405000D02*
X125080000Y-79720000D01*
%TO.C,C2*%
X164070000Y-79120000D02*
X159130000Y-79120000D01*
X159130000Y-76695000D02*
X159130000Y-76380000D01*
X164070000Y-76380000D02*
X159130000Y-76380000D01*
X164070000Y-79120000D02*
X164070000Y-78805000D01*
X159130000Y-79120000D02*
X159130000Y-78805000D01*
X164070000Y-76695000D02*
X164070000Y-76380000D01*
%TD*%
M02*
