%TF.GenerationSoftware,KiCad,Pcbnew,(6.0.7)*%
%TF.CreationDate,2023-02-08T20:37:21+01:00*%
%TF.ProjectId,udemy,7564656d-792e-46b6-9963-61645f706362,rev?*%
%TF.SameCoordinates,Original*%
%TF.FileFunction,Drillmap*%
%TF.FilePolarity,Positive*%
%FSLAX45Y45*%
G04 Gerber Fmt 4.5, Leading zero omitted, Abs format (unit mm)*
G04 Created by KiCad (PCBNEW (6.0.7)) date 2023-02-08 20:37:21*
%MOMM*%
%LPD*%
G01*
G04 APERTURE LIST*
%ADD10C,0.100000*%
%ADD11C,0.200000*%
%ADD12C,0.040000*%
%ADD13C,0.070000*%
%ADD14C,0.080000*%
%ADD15C,0.090000*%
%ADD16C,0.110000*%
%ADD17C,0.130000*%
G04 APERTURE END LIST*
D10*
X16532500Y-5476055D02*
X11761989Y-5477500D01*
X11617589Y-5619987D02*
X11617513Y-8138100D01*
X11760000Y-8282500D02*
X16530000Y-8285000D01*
X11617513Y-8138100D02*
G75*
G03*
X11760000Y-8282500I142487J-1900D01*
G01*
X16530000Y-8284997D02*
G75*
G03*
X16674400Y-8142513I1900J142487D01*
G01*
X16674982Y-5620455D02*
G75*
G03*
X16532500Y-5476055I-142482J1905D01*
G01*
X11761989Y-5477501D02*
G75*
G03*
X11617589Y-5619987I-1899J-142489D01*
G01*
X16674400Y-8142513D02*
X16674987Y-5620455D01*
D11*
D12*
X12420000Y-7512500D02*
X12460000Y-7552500D01*
X12460000Y-7512500D02*
X12420000Y-7552500D01*
X14192500Y-6452500D02*
X14232500Y-6492500D01*
X14232500Y-6452500D02*
X14192500Y-6492500D01*
D13*
X15181000Y-7790000D02*
G75*
G03*
X15181000Y-7790000I-35000J0D01*
G01*
X15689000Y-7790000D02*
G75*
G03*
X15689000Y-7790000I-35000J0D01*
G01*
D14*
X11922500Y-7742500D02*
X11922500Y-7822500D01*
X11882500Y-7782500D02*
X11962500Y-7782500D01*
X12172500Y-7742500D02*
X12172500Y-7822500D01*
X12132500Y-7782500D02*
X12212500Y-7782500D01*
X12505000Y-7795000D02*
X12505000Y-7875000D01*
X12465000Y-7835000D02*
X12545000Y-7835000D01*
X13005000Y-7795000D02*
X13005000Y-7875000D01*
X12965000Y-7835000D02*
X13045000Y-7835000D01*
X13369000Y-7792500D02*
X13369000Y-7872500D01*
X13329000Y-7832500D02*
X13409000Y-7832500D01*
X14131000Y-7792500D02*
X14131000Y-7872500D01*
X14091000Y-7832500D02*
X14171000Y-7832500D01*
X14620000Y-7762500D02*
X14620000Y-7842500D01*
X14580000Y-7802500D02*
X14660000Y-7802500D01*
X14870000Y-7762500D02*
X14870000Y-7842500D01*
X14830000Y-7802500D02*
X14910000Y-7802500D01*
X15910000Y-7735000D02*
X15910000Y-7815000D01*
X15870000Y-7775000D02*
X15950000Y-7775000D01*
X16410000Y-7735000D02*
X16410000Y-7815000D01*
X16370000Y-7775000D02*
X16450000Y-7775000D01*
D15*
X13365320Y-7139320D02*
X13365320Y-7075680D01*
X13301680Y-7075680D01*
X13301680Y-7139320D01*
X13365320Y-7139320D01*
X13619320Y-7139320D02*
X13619320Y-7075680D01*
X13555680Y-7075680D01*
X13555680Y-7139320D01*
X13619320Y-7139320D01*
X13982820Y-7136820D02*
X13982820Y-7073180D01*
X13919180Y-7073180D01*
X13919180Y-7136820D01*
X13982820Y-7136820D01*
X14236820Y-7136820D02*
X14236820Y-7073180D01*
X14173180Y-7073180D01*
X14173180Y-7136820D01*
X14236820Y-7136820D01*
D16*
X12041000Y-7232000D02*
X12096000Y-7177000D01*
X12041000Y-7122000D01*
X11986000Y-7177000D01*
X12041000Y-7232000D01*
X12295000Y-7232000D02*
X12350000Y-7177000D01*
X12295000Y-7122000D01*
X12240000Y-7177000D01*
X12295000Y-7232000D01*
X12549000Y-7232000D02*
X12604000Y-7177000D01*
X12549000Y-7122000D01*
X12494000Y-7177000D01*
X12549000Y-7232000D01*
X15168500Y-7224500D02*
X15223500Y-7169500D01*
X15168500Y-7114500D01*
X15113500Y-7169500D01*
X15168500Y-7224500D01*
X15422500Y-7224500D02*
X15477500Y-7169500D01*
X15422500Y-7114500D01*
X15367500Y-7169500D01*
X15422500Y-7224500D01*
X15676500Y-7224500D02*
X15731500Y-7169500D01*
X15676500Y-7114500D01*
X15621500Y-7169500D01*
X15676500Y-7224500D01*
D17*
X12054000Y-5939500D02*
X12184000Y-6069500D01*
X12184000Y-5939500D02*
X12054000Y-6069500D01*
X12184000Y-6004500D02*
G75*
G03*
X12184000Y-6004500I-65000J0D01*
G01*
X12562000Y-5939500D02*
X12692000Y-6069500D01*
X12692000Y-5939500D02*
X12562000Y-6069500D01*
X12692000Y-6004500D02*
G75*
G03*
X12692000Y-6004500I-65000J0D01*
G01*
X14541500Y-5939500D02*
X14671500Y-6069500D01*
X14671500Y-5939500D02*
X14541500Y-6069500D01*
X14671500Y-6004500D02*
G75*
G03*
X14671500Y-6004500I-65000J0D01*
G01*
X15049500Y-5939500D02*
X15179500Y-6069500D01*
X15179500Y-5939500D02*
X15049500Y-6069500D01*
X15179500Y-6004500D02*
G75*
G03*
X15179500Y-6004500I-65000J0D01*
G01*
X15674000Y-5934500D02*
X15804000Y-6064500D01*
X15804000Y-5934500D02*
X15674000Y-6064500D01*
X15804000Y-5999500D02*
G75*
G03*
X15804000Y-5999500I-65000J0D01*
G01*
X16182000Y-5934500D02*
X16312000Y-6064500D01*
X16312000Y-5934500D02*
X16182000Y-6064500D01*
X16312000Y-5999500D02*
G75*
G03*
X16312000Y-5999500I-65000J0D01*
G01*
D11*
X11870119Y-8600486D02*
X11870119Y-8400486D01*
X11917738Y-8400486D01*
X11946309Y-8410010D01*
X11965357Y-8429057D01*
X11974881Y-8448105D01*
X11984405Y-8486200D01*
X11984405Y-8514772D01*
X11974881Y-8552867D01*
X11965357Y-8571915D01*
X11946309Y-8590962D01*
X11917738Y-8600486D01*
X11870119Y-8600486D01*
X12070119Y-8600486D02*
X12070119Y-8467153D01*
X12070119Y-8505248D02*
X12079643Y-8486200D01*
X12089167Y-8476676D01*
X12108214Y-8467153D01*
X12127262Y-8467153D01*
X12193928Y-8600486D02*
X12193928Y-8467153D01*
X12193928Y-8400486D02*
X12184405Y-8410010D01*
X12193928Y-8419534D01*
X12203452Y-8410010D01*
X12193928Y-8400486D01*
X12193928Y-8419534D01*
X12317738Y-8600486D02*
X12298690Y-8590962D01*
X12289167Y-8571915D01*
X12289167Y-8400486D01*
X12422500Y-8600486D02*
X12403452Y-8590962D01*
X12393928Y-8571915D01*
X12393928Y-8400486D01*
X12651071Y-8600486D02*
X12651071Y-8400486D01*
X12717738Y-8543343D01*
X12784405Y-8400486D01*
X12784405Y-8600486D01*
X12965357Y-8600486D02*
X12965357Y-8495724D01*
X12955833Y-8476676D01*
X12936786Y-8467153D01*
X12898690Y-8467153D01*
X12879643Y-8476676D01*
X12965357Y-8590962D02*
X12946309Y-8600486D01*
X12898690Y-8600486D01*
X12879643Y-8590962D01*
X12870119Y-8571915D01*
X12870119Y-8552867D01*
X12879643Y-8533819D01*
X12898690Y-8524296D01*
X12946309Y-8524296D01*
X12965357Y-8514772D01*
X13060595Y-8467153D02*
X13060595Y-8667153D01*
X13060595Y-8476676D02*
X13079643Y-8467153D01*
X13117738Y-8467153D01*
X13136786Y-8476676D01*
X13146309Y-8486200D01*
X13155833Y-8505248D01*
X13155833Y-8562391D01*
X13146309Y-8581438D01*
X13136786Y-8590962D01*
X13117738Y-8600486D01*
X13079643Y-8600486D01*
X13060595Y-8590962D01*
X13241548Y-8581438D02*
X13251071Y-8590962D01*
X13241548Y-8600486D01*
X13232024Y-8590962D01*
X13241548Y-8581438D01*
X13241548Y-8600486D01*
X13241548Y-8476676D02*
X13251071Y-8486200D01*
X13241548Y-8495724D01*
X13232024Y-8486200D01*
X13241548Y-8476676D01*
X13241548Y-8495724D01*
D12*
X11572500Y-8910010D02*
X11612500Y-8950010D01*
X11612500Y-8910010D02*
X11572500Y-8950010D01*
D11*
X11908214Y-8820486D02*
X11927262Y-8820486D01*
X11946309Y-8830010D01*
X11955833Y-8839534D01*
X11965357Y-8858581D01*
X11974881Y-8896676D01*
X11974881Y-8944296D01*
X11965357Y-8982391D01*
X11955833Y-9001438D01*
X11946309Y-9010962D01*
X11927262Y-9020486D01*
X11908214Y-9020486D01*
X11889167Y-9010962D01*
X11879643Y-9001438D01*
X11870119Y-8982391D01*
X11860595Y-8944296D01*
X11860595Y-8896676D01*
X11870119Y-8858581D01*
X11879643Y-8839534D01*
X11889167Y-8830010D01*
X11908214Y-8820486D01*
X12060595Y-9001438D02*
X12070119Y-9010962D01*
X12060595Y-9020486D01*
X12051071Y-9010962D01*
X12060595Y-9001438D01*
X12060595Y-9020486D01*
X12241548Y-8887153D02*
X12241548Y-9020486D01*
X12193928Y-8810962D02*
X12146309Y-8953819D01*
X12270119Y-8953819D01*
X12384405Y-8820486D02*
X12403452Y-8820486D01*
X12422500Y-8830010D01*
X12432024Y-8839534D01*
X12441548Y-8858581D01*
X12451071Y-8896676D01*
X12451071Y-8944296D01*
X12441548Y-8982391D01*
X12432024Y-9001438D01*
X12422500Y-9010962D01*
X12403452Y-9020486D01*
X12384405Y-9020486D01*
X12365357Y-9010962D01*
X12355833Y-9001438D01*
X12346309Y-8982391D01*
X12336786Y-8944296D01*
X12336786Y-8896676D01*
X12346309Y-8858581D01*
X12355833Y-8839534D01*
X12365357Y-8830010D01*
X12384405Y-8820486D01*
X12574881Y-8820486D02*
X12593928Y-8820486D01*
X12612976Y-8830010D01*
X12622500Y-8839534D01*
X12632024Y-8858581D01*
X12641548Y-8896676D01*
X12641548Y-8944296D01*
X12632024Y-8982391D01*
X12622500Y-9001438D01*
X12612976Y-9010962D01*
X12593928Y-9020486D01*
X12574881Y-9020486D01*
X12555833Y-9010962D01*
X12546309Y-9001438D01*
X12536786Y-8982391D01*
X12527262Y-8944296D01*
X12527262Y-8896676D01*
X12536786Y-8858581D01*
X12546309Y-8839534D01*
X12555833Y-8830010D01*
X12574881Y-8820486D01*
X12727262Y-9020486D02*
X12727262Y-8887153D01*
X12727262Y-8906200D02*
X12736786Y-8896676D01*
X12755833Y-8887153D01*
X12784405Y-8887153D01*
X12803452Y-8896676D01*
X12812976Y-8915724D01*
X12812976Y-9020486D01*
X12812976Y-8915724D02*
X12822500Y-8896676D01*
X12841548Y-8887153D01*
X12870119Y-8887153D01*
X12889167Y-8896676D01*
X12898690Y-8915724D01*
X12898690Y-9020486D01*
X12993928Y-9020486D02*
X12993928Y-8887153D01*
X12993928Y-8906200D02*
X13003452Y-8896676D01*
X13022500Y-8887153D01*
X13051071Y-8887153D01*
X13070119Y-8896676D01*
X13079643Y-8915724D01*
X13079643Y-9020486D01*
X13079643Y-8915724D02*
X13089167Y-8896676D01*
X13108214Y-8887153D01*
X13136786Y-8887153D01*
X13155833Y-8896676D01*
X13165357Y-8915724D01*
X13165357Y-9020486D01*
X13555833Y-8810962D02*
X13384405Y-9068105D01*
X13812976Y-8820486D02*
X13832024Y-8820486D01*
X13851071Y-8830010D01*
X13860595Y-8839534D01*
X13870119Y-8858581D01*
X13879643Y-8896676D01*
X13879643Y-8944296D01*
X13870119Y-8982391D01*
X13860595Y-9001438D01*
X13851071Y-9010962D01*
X13832024Y-9020486D01*
X13812976Y-9020486D01*
X13793928Y-9010962D01*
X13784405Y-9001438D01*
X13774881Y-8982391D01*
X13765357Y-8944296D01*
X13765357Y-8896676D01*
X13774881Y-8858581D01*
X13784405Y-8839534D01*
X13793928Y-8830010D01*
X13812976Y-8820486D01*
X13965357Y-9001438D02*
X13974881Y-9010962D01*
X13965357Y-9020486D01*
X13955833Y-9010962D01*
X13965357Y-9001438D01*
X13965357Y-9020486D01*
X14098690Y-8820486D02*
X14117738Y-8820486D01*
X14136786Y-8830010D01*
X14146309Y-8839534D01*
X14155833Y-8858581D01*
X14165357Y-8896676D01*
X14165357Y-8944296D01*
X14155833Y-8982391D01*
X14146309Y-9001438D01*
X14136786Y-9010962D01*
X14117738Y-9020486D01*
X14098690Y-9020486D01*
X14079643Y-9010962D01*
X14070119Y-9001438D01*
X14060595Y-8982391D01*
X14051071Y-8944296D01*
X14051071Y-8896676D01*
X14060595Y-8858581D01*
X14070119Y-8839534D01*
X14079643Y-8830010D01*
X14098690Y-8820486D01*
X14355833Y-9020486D02*
X14241548Y-9020486D01*
X14298690Y-9020486D02*
X14298690Y-8820486D01*
X14279643Y-8849057D01*
X14260595Y-8868105D01*
X14241548Y-8877629D01*
X14536786Y-8820486D02*
X14441548Y-8820486D01*
X14432024Y-8915724D01*
X14441548Y-8906200D01*
X14460595Y-8896676D01*
X14508214Y-8896676D01*
X14527262Y-8906200D01*
X14536786Y-8915724D01*
X14546309Y-8934772D01*
X14546309Y-8982391D01*
X14536786Y-9001438D01*
X14527262Y-9010962D01*
X14508214Y-9020486D01*
X14460595Y-9020486D01*
X14441548Y-9010962D01*
X14432024Y-9001438D01*
X14612976Y-8820486D02*
X14746309Y-8820486D01*
X14660595Y-9020486D01*
X14812976Y-8820486D02*
X14812976Y-8858581D01*
X14889167Y-8820486D02*
X14889167Y-8858581D01*
X15184405Y-9096676D02*
X15174881Y-9087153D01*
X15155833Y-9058581D01*
X15146309Y-9039534D01*
X15136786Y-9010962D01*
X15127262Y-8963343D01*
X15127262Y-8925248D01*
X15136786Y-8877629D01*
X15146309Y-8849057D01*
X15155833Y-8830010D01*
X15174881Y-8801438D01*
X15184405Y-8791915D01*
X15251071Y-8839534D02*
X15260595Y-8830010D01*
X15279643Y-8820486D01*
X15327262Y-8820486D01*
X15346309Y-8830010D01*
X15355833Y-8839534D01*
X15365357Y-8858581D01*
X15365357Y-8877629D01*
X15355833Y-8906200D01*
X15241548Y-9020486D01*
X15365357Y-9020486D01*
X15603452Y-9020486D02*
X15603452Y-8820486D01*
X15689167Y-9020486D02*
X15689167Y-8915724D01*
X15679643Y-8896676D01*
X15660595Y-8887153D01*
X15632024Y-8887153D01*
X15612976Y-8896676D01*
X15603452Y-8906200D01*
X15812976Y-9020486D02*
X15793928Y-9010962D01*
X15784405Y-9001438D01*
X15774881Y-8982391D01*
X15774881Y-8925248D01*
X15784405Y-8906200D01*
X15793928Y-8896676D01*
X15812976Y-8887153D01*
X15841548Y-8887153D01*
X15860595Y-8896676D01*
X15870119Y-8906200D01*
X15879643Y-8925248D01*
X15879643Y-8982391D01*
X15870119Y-9001438D01*
X15860595Y-9010962D01*
X15841548Y-9020486D01*
X15812976Y-9020486D01*
X15993928Y-9020486D02*
X15974881Y-9010962D01*
X15965357Y-8991915D01*
X15965357Y-8820486D01*
X16146309Y-9010962D02*
X16127262Y-9020486D01*
X16089167Y-9020486D01*
X16070119Y-9010962D01*
X16060595Y-8991915D01*
X16060595Y-8915724D01*
X16070119Y-8896676D01*
X16089167Y-8887153D01*
X16127262Y-8887153D01*
X16146309Y-8896676D01*
X16155833Y-8915724D01*
X16155833Y-8934772D01*
X16060595Y-8953819D01*
X16232024Y-9010962D02*
X16251071Y-9020486D01*
X16289167Y-9020486D01*
X16308214Y-9010962D01*
X16317738Y-8991915D01*
X16317738Y-8982391D01*
X16308214Y-8963343D01*
X16289167Y-8953819D01*
X16260595Y-8953819D01*
X16241548Y-8944296D01*
X16232024Y-8925248D01*
X16232024Y-8915724D01*
X16241548Y-8896676D01*
X16260595Y-8887153D01*
X16289167Y-8887153D01*
X16308214Y-8896676D01*
X16384405Y-9096676D02*
X16393928Y-9087153D01*
X16412976Y-9058581D01*
X16422500Y-9039534D01*
X16432024Y-9010962D01*
X16441548Y-8963343D01*
X16441548Y-8925248D01*
X16432024Y-8877629D01*
X16422500Y-8849057D01*
X16412976Y-8830010D01*
X16393928Y-8801438D01*
X16384405Y-8791915D01*
D13*
X11612500Y-9194010D02*
G75*
G03*
X11612500Y-9194010I-35000J0D01*
G01*
D11*
X11908214Y-9084486D02*
X11927262Y-9084486D01*
X11946309Y-9094010D01*
X11955833Y-9103534D01*
X11965357Y-9122581D01*
X11974881Y-9160676D01*
X11974881Y-9208296D01*
X11965357Y-9246391D01*
X11955833Y-9265438D01*
X11946309Y-9274962D01*
X11927262Y-9284486D01*
X11908214Y-9284486D01*
X11889167Y-9274962D01*
X11879643Y-9265438D01*
X11870119Y-9246391D01*
X11860595Y-9208296D01*
X11860595Y-9160676D01*
X11870119Y-9122581D01*
X11879643Y-9103534D01*
X11889167Y-9094010D01*
X11908214Y-9084486D01*
X12060595Y-9265438D02*
X12070119Y-9274962D01*
X12060595Y-9284486D01*
X12051071Y-9274962D01*
X12060595Y-9265438D01*
X12060595Y-9284486D01*
X12136786Y-9084486D02*
X12270119Y-9084486D01*
X12184405Y-9284486D01*
X12384405Y-9084486D02*
X12403452Y-9084486D01*
X12422500Y-9094010D01*
X12432024Y-9103534D01*
X12441548Y-9122581D01*
X12451071Y-9160676D01*
X12451071Y-9208296D01*
X12441548Y-9246391D01*
X12432024Y-9265438D01*
X12422500Y-9274962D01*
X12403452Y-9284486D01*
X12384405Y-9284486D01*
X12365357Y-9274962D01*
X12355833Y-9265438D01*
X12346309Y-9246391D01*
X12336786Y-9208296D01*
X12336786Y-9160676D01*
X12346309Y-9122581D01*
X12355833Y-9103534D01*
X12365357Y-9094010D01*
X12384405Y-9084486D01*
X12574881Y-9084486D02*
X12593928Y-9084486D01*
X12612976Y-9094010D01*
X12622500Y-9103534D01*
X12632024Y-9122581D01*
X12641548Y-9160676D01*
X12641548Y-9208296D01*
X12632024Y-9246391D01*
X12622500Y-9265438D01*
X12612976Y-9274962D01*
X12593928Y-9284486D01*
X12574881Y-9284486D01*
X12555833Y-9274962D01*
X12546309Y-9265438D01*
X12536786Y-9246391D01*
X12527262Y-9208296D01*
X12527262Y-9160676D01*
X12536786Y-9122581D01*
X12546309Y-9103534D01*
X12555833Y-9094010D01*
X12574881Y-9084486D01*
X12727262Y-9284486D02*
X12727262Y-9151153D01*
X12727262Y-9170200D02*
X12736786Y-9160676D01*
X12755833Y-9151153D01*
X12784405Y-9151153D01*
X12803452Y-9160676D01*
X12812976Y-9179724D01*
X12812976Y-9284486D01*
X12812976Y-9179724D02*
X12822500Y-9160676D01*
X12841548Y-9151153D01*
X12870119Y-9151153D01*
X12889167Y-9160676D01*
X12898690Y-9179724D01*
X12898690Y-9284486D01*
X12993928Y-9284486D02*
X12993928Y-9151153D01*
X12993928Y-9170200D02*
X13003452Y-9160676D01*
X13022500Y-9151153D01*
X13051071Y-9151153D01*
X13070119Y-9160676D01*
X13079643Y-9179724D01*
X13079643Y-9284486D01*
X13079643Y-9179724D02*
X13089167Y-9160676D01*
X13108214Y-9151153D01*
X13136786Y-9151153D01*
X13155833Y-9160676D01*
X13165357Y-9179724D01*
X13165357Y-9284486D01*
X13555833Y-9074962D02*
X13384405Y-9332105D01*
X13812976Y-9084486D02*
X13832024Y-9084486D01*
X13851071Y-9094010D01*
X13860595Y-9103534D01*
X13870119Y-9122581D01*
X13879643Y-9160676D01*
X13879643Y-9208296D01*
X13870119Y-9246391D01*
X13860595Y-9265438D01*
X13851071Y-9274962D01*
X13832024Y-9284486D01*
X13812976Y-9284486D01*
X13793928Y-9274962D01*
X13784405Y-9265438D01*
X13774881Y-9246391D01*
X13765357Y-9208296D01*
X13765357Y-9160676D01*
X13774881Y-9122581D01*
X13784405Y-9103534D01*
X13793928Y-9094010D01*
X13812976Y-9084486D01*
X13965357Y-9265438D02*
X13974881Y-9274962D01*
X13965357Y-9284486D01*
X13955833Y-9274962D01*
X13965357Y-9265438D01*
X13965357Y-9284486D01*
X14098690Y-9084486D02*
X14117738Y-9084486D01*
X14136786Y-9094010D01*
X14146309Y-9103534D01*
X14155833Y-9122581D01*
X14165357Y-9160676D01*
X14165357Y-9208296D01*
X14155833Y-9246391D01*
X14146309Y-9265438D01*
X14136786Y-9274962D01*
X14117738Y-9284486D01*
X14098690Y-9284486D01*
X14079643Y-9274962D01*
X14070119Y-9265438D01*
X14060595Y-9246391D01*
X14051071Y-9208296D01*
X14051071Y-9160676D01*
X14060595Y-9122581D01*
X14070119Y-9103534D01*
X14079643Y-9094010D01*
X14098690Y-9084486D01*
X14241548Y-9103534D02*
X14251071Y-9094010D01*
X14270119Y-9084486D01*
X14317738Y-9084486D01*
X14336786Y-9094010D01*
X14346309Y-9103534D01*
X14355833Y-9122581D01*
X14355833Y-9141629D01*
X14346309Y-9170200D01*
X14232024Y-9284486D01*
X14355833Y-9284486D01*
X14422500Y-9084486D02*
X14555833Y-9084486D01*
X14470119Y-9284486D01*
X14717738Y-9084486D02*
X14679643Y-9084486D01*
X14660595Y-9094010D01*
X14651071Y-9103534D01*
X14632024Y-9132105D01*
X14622500Y-9170200D01*
X14622500Y-9246391D01*
X14632024Y-9265438D01*
X14641548Y-9274962D01*
X14660595Y-9284486D01*
X14698690Y-9284486D01*
X14717738Y-9274962D01*
X14727262Y-9265438D01*
X14736786Y-9246391D01*
X14736786Y-9198772D01*
X14727262Y-9179724D01*
X14717738Y-9170200D01*
X14698690Y-9160676D01*
X14660595Y-9160676D01*
X14641548Y-9170200D01*
X14632024Y-9179724D01*
X14622500Y-9198772D01*
X14812976Y-9084486D02*
X14812976Y-9122581D01*
X14889167Y-9084486D02*
X14889167Y-9122581D01*
X15184405Y-9360676D02*
X15174881Y-9351153D01*
X15155833Y-9322581D01*
X15146309Y-9303534D01*
X15136786Y-9274962D01*
X15127262Y-9227343D01*
X15127262Y-9189248D01*
X15136786Y-9141629D01*
X15146309Y-9113057D01*
X15155833Y-9094010D01*
X15174881Y-9065438D01*
X15184405Y-9055915D01*
X15251071Y-9103534D02*
X15260595Y-9094010D01*
X15279643Y-9084486D01*
X15327262Y-9084486D01*
X15346309Y-9094010D01*
X15355833Y-9103534D01*
X15365357Y-9122581D01*
X15365357Y-9141629D01*
X15355833Y-9170200D01*
X15241548Y-9284486D01*
X15365357Y-9284486D01*
X15603452Y-9284486D02*
X15603452Y-9084486D01*
X15689167Y-9284486D02*
X15689167Y-9179724D01*
X15679643Y-9160676D01*
X15660595Y-9151153D01*
X15632024Y-9151153D01*
X15612976Y-9160676D01*
X15603452Y-9170200D01*
X15812976Y-9284486D02*
X15793928Y-9274962D01*
X15784405Y-9265438D01*
X15774881Y-9246391D01*
X15774881Y-9189248D01*
X15784405Y-9170200D01*
X15793928Y-9160676D01*
X15812976Y-9151153D01*
X15841548Y-9151153D01*
X15860595Y-9160676D01*
X15870119Y-9170200D01*
X15879643Y-9189248D01*
X15879643Y-9246391D01*
X15870119Y-9265438D01*
X15860595Y-9274962D01*
X15841548Y-9284486D01*
X15812976Y-9284486D01*
X15993928Y-9284486D02*
X15974881Y-9274962D01*
X15965357Y-9255915D01*
X15965357Y-9084486D01*
X16146309Y-9274962D02*
X16127262Y-9284486D01*
X16089167Y-9284486D01*
X16070119Y-9274962D01*
X16060595Y-9255915D01*
X16060595Y-9179724D01*
X16070119Y-9160676D01*
X16089167Y-9151153D01*
X16127262Y-9151153D01*
X16146309Y-9160676D01*
X16155833Y-9179724D01*
X16155833Y-9198772D01*
X16060595Y-9217819D01*
X16232024Y-9274962D02*
X16251071Y-9284486D01*
X16289167Y-9284486D01*
X16308214Y-9274962D01*
X16317738Y-9255915D01*
X16317738Y-9246391D01*
X16308214Y-9227343D01*
X16289167Y-9217819D01*
X16260595Y-9217819D01*
X16241548Y-9208296D01*
X16232024Y-9189248D01*
X16232024Y-9179724D01*
X16241548Y-9160676D01*
X16260595Y-9151153D01*
X16289167Y-9151153D01*
X16308214Y-9160676D01*
X16384405Y-9360676D02*
X16393928Y-9351153D01*
X16412976Y-9322581D01*
X16422500Y-9303534D01*
X16432024Y-9274962D01*
X16441548Y-9227343D01*
X16441548Y-9189248D01*
X16432024Y-9141629D01*
X16422500Y-9113057D01*
X16412976Y-9094010D01*
X16393928Y-9065438D01*
X16384405Y-9055915D01*
D14*
X11572500Y-9418010D02*
X11572500Y-9498010D01*
X11532500Y-9458010D02*
X11612500Y-9458010D01*
D11*
X11908214Y-9348486D02*
X11927262Y-9348486D01*
X11946309Y-9358010D01*
X11955833Y-9367534D01*
X11965357Y-9386581D01*
X11974881Y-9424676D01*
X11974881Y-9472296D01*
X11965357Y-9510391D01*
X11955833Y-9529438D01*
X11946309Y-9538962D01*
X11927262Y-9548486D01*
X11908214Y-9548486D01*
X11889167Y-9538962D01*
X11879643Y-9529438D01*
X11870119Y-9510391D01*
X11860595Y-9472296D01*
X11860595Y-9424676D01*
X11870119Y-9386581D01*
X11879643Y-9367534D01*
X11889167Y-9358010D01*
X11908214Y-9348486D01*
X12060595Y-9529438D02*
X12070119Y-9538962D01*
X12060595Y-9548486D01*
X12051071Y-9538962D01*
X12060595Y-9529438D01*
X12060595Y-9548486D01*
X12184405Y-9434200D02*
X12165357Y-9424676D01*
X12155833Y-9415153D01*
X12146309Y-9396105D01*
X12146309Y-9386581D01*
X12155833Y-9367534D01*
X12165357Y-9358010D01*
X12184405Y-9348486D01*
X12222500Y-9348486D01*
X12241548Y-9358010D01*
X12251071Y-9367534D01*
X12260595Y-9386581D01*
X12260595Y-9396105D01*
X12251071Y-9415153D01*
X12241548Y-9424676D01*
X12222500Y-9434200D01*
X12184405Y-9434200D01*
X12165357Y-9443724D01*
X12155833Y-9453248D01*
X12146309Y-9472296D01*
X12146309Y-9510391D01*
X12155833Y-9529438D01*
X12165357Y-9538962D01*
X12184405Y-9548486D01*
X12222500Y-9548486D01*
X12241548Y-9538962D01*
X12251071Y-9529438D01*
X12260595Y-9510391D01*
X12260595Y-9472296D01*
X12251071Y-9453248D01*
X12241548Y-9443724D01*
X12222500Y-9434200D01*
X12384405Y-9348486D02*
X12403452Y-9348486D01*
X12422500Y-9358010D01*
X12432024Y-9367534D01*
X12441548Y-9386581D01*
X12451071Y-9424676D01*
X12451071Y-9472296D01*
X12441548Y-9510391D01*
X12432024Y-9529438D01*
X12422500Y-9538962D01*
X12403452Y-9548486D01*
X12384405Y-9548486D01*
X12365357Y-9538962D01*
X12355833Y-9529438D01*
X12346309Y-9510391D01*
X12336786Y-9472296D01*
X12336786Y-9424676D01*
X12346309Y-9386581D01*
X12355833Y-9367534D01*
X12365357Y-9358010D01*
X12384405Y-9348486D01*
X12574881Y-9348486D02*
X12593928Y-9348486D01*
X12612976Y-9358010D01*
X12622500Y-9367534D01*
X12632024Y-9386581D01*
X12641548Y-9424676D01*
X12641548Y-9472296D01*
X12632024Y-9510391D01*
X12622500Y-9529438D01*
X12612976Y-9538962D01*
X12593928Y-9548486D01*
X12574881Y-9548486D01*
X12555833Y-9538962D01*
X12546309Y-9529438D01*
X12536786Y-9510391D01*
X12527262Y-9472296D01*
X12527262Y-9424676D01*
X12536786Y-9386581D01*
X12546309Y-9367534D01*
X12555833Y-9358010D01*
X12574881Y-9348486D01*
X12727262Y-9548486D02*
X12727262Y-9415153D01*
X12727262Y-9434200D02*
X12736786Y-9424676D01*
X12755833Y-9415153D01*
X12784405Y-9415153D01*
X12803452Y-9424676D01*
X12812976Y-9443724D01*
X12812976Y-9548486D01*
X12812976Y-9443724D02*
X12822500Y-9424676D01*
X12841548Y-9415153D01*
X12870119Y-9415153D01*
X12889167Y-9424676D01*
X12898690Y-9443724D01*
X12898690Y-9548486D01*
X12993928Y-9548486D02*
X12993928Y-9415153D01*
X12993928Y-9434200D02*
X13003452Y-9424676D01*
X13022500Y-9415153D01*
X13051071Y-9415153D01*
X13070119Y-9424676D01*
X13079643Y-9443724D01*
X13079643Y-9548486D01*
X13079643Y-9443724D02*
X13089167Y-9424676D01*
X13108214Y-9415153D01*
X13136786Y-9415153D01*
X13155833Y-9424676D01*
X13165357Y-9443724D01*
X13165357Y-9548486D01*
X13555833Y-9338962D02*
X13384405Y-9596105D01*
X13812976Y-9348486D02*
X13832024Y-9348486D01*
X13851071Y-9358010D01*
X13860595Y-9367534D01*
X13870119Y-9386581D01*
X13879643Y-9424676D01*
X13879643Y-9472296D01*
X13870119Y-9510391D01*
X13860595Y-9529438D01*
X13851071Y-9538962D01*
X13832024Y-9548486D01*
X13812976Y-9548486D01*
X13793928Y-9538962D01*
X13784405Y-9529438D01*
X13774881Y-9510391D01*
X13765357Y-9472296D01*
X13765357Y-9424676D01*
X13774881Y-9386581D01*
X13784405Y-9367534D01*
X13793928Y-9358010D01*
X13812976Y-9348486D01*
X13965357Y-9529438D02*
X13974881Y-9538962D01*
X13965357Y-9548486D01*
X13955833Y-9538962D01*
X13965357Y-9529438D01*
X13965357Y-9548486D01*
X14098690Y-9348486D02*
X14117738Y-9348486D01*
X14136786Y-9358010D01*
X14146309Y-9367534D01*
X14155833Y-9386581D01*
X14165357Y-9424676D01*
X14165357Y-9472296D01*
X14155833Y-9510391D01*
X14146309Y-9529438D01*
X14136786Y-9538962D01*
X14117738Y-9548486D01*
X14098690Y-9548486D01*
X14079643Y-9538962D01*
X14070119Y-9529438D01*
X14060595Y-9510391D01*
X14051071Y-9472296D01*
X14051071Y-9424676D01*
X14060595Y-9386581D01*
X14070119Y-9367534D01*
X14079643Y-9358010D01*
X14098690Y-9348486D01*
X14232024Y-9348486D02*
X14355833Y-9348486D01*
X14289167Y-9424676D01*
X14317738Y-9424676D01*
X14336786Y-9434200D01*
X14346309Y-9443724D01*
X14355833Y-9462772D01*
X14355833Y-9510391D01*
X14346309Y-9529438D01*
X14336786Y-9538962D01*
X14317738Y-9548486D01*
X14260595Y-9548486D01*
X14241548Y-9538962D01*
X14232024Y-9529438D01*
X14546309Y-9548486D02*
X14432024Y-9548486D01*
X14489167Y-9548486D02*
X14489167Y-9348486D01*
X14470119Y-9377057D01*
X14451071Y-9396105D01*
X14432024Y-9405629D01*
X14727262Y-9348486D02*
X14632024Y-9348486D01*
X14622500Y-9443724D01*
X14632024Y-9434200D01*
X14651071Y-9424676D01*
X14698690Y-9424676D01*
X14717738Y-9434200D01*
X14727262Y-9443724D01*
X14736786Y-9462772D01*
X14736786Y-9510391D01*
X14727262Y-9529438D01*
X14717738Y-9538962D01*
X14698690Y-9548486D01*
X14651071Y-9548486D01*
X14632024Y-9538962D01*
X14622500Y-9529438D01*
X14812976Y-9348486D02*
X14812976Y-9386581D01*
X14889167Y-9348486D02*
X14889167Y-9386581D01*
X15184405Y-9624676D02*
X15174881Y-9615153D01*
X15155833Y-9586581D01*
X15146309Y-9567534D01*
X15136786Y-9538962D01*
X15127262Y-9491343D01*
X15127262Y-9453248D01*
X15136786Y-9405629D01*
X15146309Y-9377057D01*
X15155833Y-9358010D01*
X15174881Y-9329438D01*
X15184405Y-9319915D01*
X15365357Y-9548486D02*
X15251071Y-9548486D01*
X15308214Y-9548486D02*
X15308214Y-9348486D01*
X15289167Y-9377057D01*
X15270119Y-9396105D01*
X15251071Y-9405629D01*
X15489167Y-9348486D02*
X15508214Y-9348486D01*
X15527262Y-9358010D01*
X15536786Y-9367534D01*
X15546309Y-9386581D01*
X15555833Y-9424676D01*
X15555833Y-9472296D01*
X15546309Y-9510391D01*
X15536786Y-9529438D01*
X15527262Y-9538962D01*
X15508214Y-9548486D01*
X15489167Y-9548486D01*
X15470119Y-9538962D01*
X15460595Y-9529438D01*
X15451071Y-9510391D01*
X15441548Y-9472296D01*
X15441548Y-9424676D01*
X15451071Y-9386581D01*
X15460595Y-9367534D01*
X15470119Y-9358010D01*
X15489167Y-9348486D01*
X15793928Y-9548486D02*
X15793928Y-9348486D01*
X15879643Y-9548486D02*
X15879643Y-9443724D01*
X15870119Y-9424676D01*
X15851071Y-9415153D01*
X15822500Y-9415153D01*
X15803452Y-9424676D01*
X15793928Y-9434200D01*
X16003452Y-9548486D02*
X15984405Y-9538962D01*
X15974881Y-9529438D01*
X15965357Y-9510391D01*
X15965357Y-9453248D01*
X15974881Y-9434200D01*
X15984405Y-9424676D01*
X16003452Y-9415153D01*
X16032024Y-9415153D01*
X16051071Y-9424676D01*
X16060595Y-9434200D01*
X16070119Y-9453248D01*
X16070119Y-9510391D01*
X16060595Y-9529438D01*
X16051071Y-9538962D01*
X16032024Y-9548486D01*
X16003452Y-9548486D01*
X16184405Y-9548486D02*
X16165357Y-9538962D01*
X16155833Y-9519915D01*
X16155833Y-9348486D01*
X16336786Y-9538962D02*
X16317738Y-9548486D01*
X16279643Y-9548486D01*
X16260595Y-9538962D01*
X16251071Y-9519915D01*
X16251071Y-9443724D01*
X16260595Y-9424676D01*
X16279643Y-9415153D01*
X16317738Y-9415153D01*
X16336786Y-9424676D01*
X16346309Y-9443724D01*
X16346309Y-9462772D01*
X16251071Y-9481819D01*
X16422500Y-9538962D02*
X16441548Y-9548486D01*
X16479643Y-9548486D01*
X16498690Y-9538962D01*
X16508214Y-9519915D01*
X16508214Y-9510391D01*
X16498690Y-9491343D01*
X16479643Y-9481819D01*
X16451071Y-9481819D01*
X16432024Y-9472296D01*
X16422500Y-9453248D01*
X16422500Y-9443724D01*
X16432024Y-9424676D01*
X16451071Y-9415153D01*
X16479643Y-9415153D01*
X16498690Y-9424676D01*
X16574881Y-9624676D02*
X16584405Y-9615153D01*
X16603452Y-9586581D01*
X16612976Y-9567534D01*
X16622500Y-9538962D01*
X16632024Y-9491343D01*
X16632024Y-9453248D01*
X16622500Y-9405629D01*
X16612976Y-9377057D01*
X16603452Y-9358010D01*
X16584405Y-9329438D01*
X16574881Y-9319915D01*
D15*
X11599320Y-9753830D02*
X11599320Y-9690190D01*
X11535680Y-9690190D01*
X11535680Y-9753830D01*
X11599320Y-9753830D01*
D11*
X11908214Y-9612486D02*
X11927262Y-9612486D01*
X11946309Y-9622010D01*
X11955833Y-9631534D01*
X11965357Y-9650581D01*
X11974881Y-9688676D01*
X11974881Y-9736296D01*
X11965357Y-9774391D01*
X11955833Y-9793438D01*
X11946309Y-9802962D01*
X11927262Y-9812486D01*
X11908214Y-9812486D01*
X11889167Y-9802962D01*
X11879643Y-9793438D01*
X11870119Y-9774391D01*
X11860595Y-9736296D01*
X11860595Y-9688676D01*
X11870119Y-9650581D01*
X11879643Y-9631534D01*
X11889167Y-9622010D01*
X11908214Y-9612486D01*
X12060595Y-9793438D02*
X12070119Y-9802962D01*
X12060595Y-9812486D01*
X12051071Y-9802962D01*
X12060595Y-9793438D01*
X12060595Y-9812486D01*
X12165357Y-9812486D02*
X12203452Y-9812486D01*
X12222500Y-9802962D01*
X12232024Y-9793438D01*
X12251071Y-9764867D01*
X12260595Y-9726772D01*
X12260595Y-9650581D01*
X12251071Y-9631534D01*
X12241548Y-9622010D01*
X12222500Y-9612486D01*
X12184405Y-9612486D01*
X12165357Y-9622010D01*
X12155833Y-9631534D01*
X12146309Y-9650581D01*
X12146309Y-9698200D01*
X12155833Y-9717248D01*
X12165357Y-9726772D01*
X12184405Y-9736296D01*
X12222500Y-9736296D01*
X12241548Y-9726772D01*
X12251071Y-9717248D01*
X12260595Y-9698200D01*
X12384405Y-9612486D02*
X12403452Y-9612486D01*
X12422500Y-9622010D01*
X12432024Y-9631534D01*
X12441548Y-9650581D01*
X12451071Y-9688676D01*
X12451071Y-9736296D01*
X12441548Y-9774391D01*
X12432024Y-9793438D01*
X12422500Y-9802962D01*
X12403452Y-9812486D01*
X12384405Y-9812486D01*
X12365357Y-9802962D01*
X12355833Y-9793438D01*
X12346309Y-9774391D01*
X12336786Y-9736296D01*
X12336786Y-9688676D01*
X12346309Y-9650581D01*
X12355833Y-9631534D01*
X12365357Y-9622010D01*
X12384405Y-9612486D01*
X12574881Y-9612486D02*
X12593928Y-9612486D01*
X12612976Y-9622010D01*
X12622500Y-9631534D01*
X12632024Y-9650581D01*
X12641548Y-9688676D01*
X12641548Y-9736296D01*
X12632024Y-9774391D01*
X12622500Y-9793438D01*
X12612976Y-9802962D01*
X12593928Y-9812486D01*
X12574881Y-9812486D01*
X12555833Y-9802962D01*
X12546309Y-9793438D01*
X12536786Y-9774391D01*
X12527262Y-9736296D01*
X12527262Y-9688676D01*
X12536786Y-9650581D01*
X12546309Y-9631534D01*
X12555833Y-9622010D01*
X12574881Y-9612486D01*
X12727262Y-9812486D02*
X12727262Y-9679153D01*
X12727262Y-9698200D02*
X12736786Y-9688676D01*
X12755833Y-9679153D01*
X12784405Y-9679153D01*
X12803452Y-9688676D01*
X12812976Y-9707724D01*
X12812976Y-9812486D01*
X12812976Y-9707724D02*
X12822500Y-9688676D01*
X12841548Y-9679153D01*
X12870119Y-9679153D01*
X12889167Y-9688676D01*
X12898690Y-9707724D01*
X12898690Y-9812486D01*
X12993928Y-9812486D02*
X12993928Y-9679153D01*
X12993928Y-9698200D02*
X13003452Y-9688676D01*
X13022500Y-9679153D01*
X13051071Y-9679153D01*
X13070119Y-9688676D01*
X13079643Y-9707724D01*
X13079643Y-9812486D01*
X13079643Y-9707724D02*
X13089167Y-9688676D01*
X13108214Y-9679153D01*
X13136786Y-9679153D01*
X13155833Y-9688676D01*
X13165357Y-9707724D01*
X13165357Y-9812486D01*
X13555833Y-9602962D02*
X13384405Y-9860105D01*
X13812976Y-9612486D02*
X13832024Y-9612486D01*
X13851071Y-9622010D01*
X13860595Y-9631534D01*
X13870119Y-9650581D01*
X13879643Y-9688676D01*
X13879643Y-9736296D01*
X13870119Y-9774391D01*
X13860595Y-9793438D01*
X13851071Y-9802962D01*
X13832024Y-9812486D01*
X13812976Y-9812486D01*
X13793928Y-9802962D01*
X13784405Y-9793438D01*
X13774881Y-9774391D01*
X13765357Y-9736296D01*
X13765357Y-9688676D01*
X13774881Y-9650581D01*
X13784405Y-9631534D01*
X13793928Y-9622010D01*
X13812976Y-9612486D01*
X13965357Y-9793438D02*
X13974881Y-9802962D01*
X13965357Y-9812486D01*
X13955833Y-9802962D01*
X13965357Y-9793438D01*
X13965357Y-9812486D01*
X14098690Y-9612486D02*
X14117738Y-9612486D01*
X14136786Y-9622010D01*
X14146309Y-9631534D01*
X14155833Y-9650581D01*
X14165357Y-9688676D01*
X14165357Y-9736296D01*
X14155833Y-9774391D01*
X14146309Y-9793438D01*
X14136786Y-9802962D01*
X14117738Y-9812486D01*
X14098690Y-9812486D01*
X14079643Y-9802962D01*
X14070119Y-9793438D01*
X14060595Y-9774391D01*
X14051071Y-9736296D01*
X14051071Y-9688676D01*
X14060595Y-9650581D01*
X14070119Y-9631534D01*
X14079643Y-9622010D01*
X14098690Y-9612486D01*
X14232024Y-9612486D02*
X14355833Y-9612486D01*
X14289167Y-9688676D01*
X14317738Y-9688676D01*
X14336786Y-9698200D01*
X14346309Y-9707724D01*
X14355833Y-9726772D01*
X14355833Y-9774391D01*
X14346309Y-9793438D01*
X14336786Y-9802962D01*
X14317738Y-9812486D01*
X14260595Y-9812486D01*
X14241548Y-9802962D01*
X14232024Y-9793438D01*
X14536786Y-9612486D02*
X14441548Y-9612486D01*
X14432024Y-9707724D01*
X14441548Y-9698200D01*
X14460595Y-9688676D01*
X14508214Y-9688676D01*
X14527262Y-9698200D01*
X14536786Y-9707724D01*
X14546309Y-9726772D01*
X14546309Y-9774391D01*
X14536786Y-9793438D01*
X14527262Y-9802962D01*
X14508214Y-9812486D01*
X14460595Y-9812486D01*
X14441548Y-9802962D01*
X14432024Y-9793438D01*
X14717738Y-9679153D02*
X14717738Y-9812486D01*
X14670119Y-9602962D02*
X14622500Y-9745819D01*
X14746309Y-9745819D01*
X14812976Y-9612486D02*
X14812976Y-9650581D01*
X14889167Y-9612486D02*
X14889167Y-9650581D01*
X15184405Y-9888676D02*
X15174881Y-9879153D01*
X15155833Y-9850581D01*
X15146309Y-9831534D01*
X15136786Y-9802962D01*
X15127262Y-9755343D01*
X15127262Y-9717248D01*
X15136786Y-9669629D01*
X15146309Y-9641057D01*
X15155833Y-9622010D01*
X15174881Y-9593438D01*
X15184405Y-9583915D01*
X15346309Y-9679153D02*
X15346309Y-9812486D01*
X15298690Y-9602962D02*
X15251071Y-9745819D01*
X15374881Y-9745819D01*
X15603452Y-9812486D02*
X15603452Y-9612486D01*
X15689167Y-9812486D02*
X15689167Y-9707724D01*
X15679643Y-9688676D01*
X15660595Y-9679153D01*
X15632024Y-9679153D01*
X15612976Y-9688676D01*
X15603452Y-9698200D01*
X15812976Y-9812486D02*
X15793928Y-9802962D01*
X15784405Y-9793438D01*
X15774881Y-9774391D01*
X15774881Y-9717248D01*
X15784405Y-9698200D01*
X15793928Y-9688676D01*
X15812976Y-9679153D01*
X15841548Y-9679153D01*
X15860595Y-9688676D01*
X15870119Y-9698200D01*
X15879643Y-9717248D01*
X15879643Y-9774391D01*
X15870119Y-9793438D01*
X15860595Y-9802962D01*
X15841548Y-9812486D01*
X15812976Y-9812486D01*
X15993928Y-9812486D02*
X15974881Y-9802962D01*
X15965357Y-9783915D01*
X15965357Y-9612486D01*
X16146309Y-9802962D02*
X16127262Y-9812486D01*
X16089167Y-9812486D01*
X16070119Y-9802962D01*
X16060595Y-9783915D01*
X16060595Y-9707724D01*
X16070119Y-9688676D01*
X16089167Y-9679153D01*
X16127262Y-9679153D01*
X16146309Y-9688676D01*
X16155833Y-9707724D01*
X16155833Y-9726772D01*
X16060595Y-9745819D01*
X16232024Y-9802962D02*
X16251071Y-9812486D01*
X16289167Y-9812486D01*
X16308214Y-9802962D01*
X16317738Y-9783915D01*
X16317738Y-9774391D01*
X16308214Y-9755343D01*
X16289167Y-9745819D01*
X16260595Y-9745819D01*
X16241548Y-9736296D01*
X16232024Y-9717248D01*
X16232024Y-9707724D01*
X16241548Y-9688676D01*
X16260595Y-9679153D01*
X16289167Y-9679153D01*
X16308214Y-9688676D01*
X16384405Y-9888676D02*
X16393928Y-9879153D01*
X16412976Y-9850581D01*
X16422500Y-9831534D01*
X16432024Y-9802962D01*
X16441548Y-9755343D01*
X16441548Y-9717248D01*
X16432024Y-9669629D01*
X16422500Y-9641057D01*
X16412976Y-9622010D01*
X16393928Y-9593438D01*
X16384405Y-9583915D01*
D16*
X11557500Y-10041010D02*
X11612500Y-9986010D01*
X11557500Y-9931010D01*
X11502500Y-9986010D01*
X11557500Y-10041010D01*
D11*
X11974881Y-10076486D02*
X11860595Y-10076486D01*
X11917738Y-10076486D02*
X11917738Y-9876486D01*
X11898690Y-9905057D01*
X11879643Y-9924105D01*
X11860595Y-9933629D01*
X12060595Y-10057438D02*
X12070119Y-10066962D01*
X12060595Y-10076486D01*
X12051071Y-10066962D01*
X12060595Y-10057438D01*
X12060595Y-10076486D01*
X12260595Y-10076486D02*
X12146309Y-10076486D01*
X12203452Y-10076486D02*
X12203452Y-9876486D01*
X12184405Y-9905057D01*
X12165357Y-9924105D01*
X12146309Y-9933629D01*
X12384405Y-9876486D02*
X12403452Y-9876486D01*
X12422500Y-9886010D01*
X12432024Y-9895534D01*
X12441548Y-9914581D01*
X12451071Y-9952676D01*
X12451071Y-10000296D01*
X12441548Y-10038391D01*
X12432024Y-10057438D01*
X12422500Y-10066962D01*
X12403452Y-10076486D01*
X12384405Y-10076486D01*
X12365357Y-10066962D01*
X12355833Y-10057438D01*
X12346309Y-10038391D01*
X12336786Y-10000296D01*
X12336786Y-9952676D01*
X12346309Y-9914581D01*
X12355833Y-9895534D01*
X12365357Y-9886010D01*
X12384405Y-9876486D01*
X12574881Y-9876486D02*
X12593928Y-9876486D01*
X12612976Y-9886010D01*
X12622500Y-9895534D01*
X12632024Y-9914581D01*
X12641548Y-9952676D01*
X12641548Y-10000296D01*
X12632024Y-10038391D01*
X12622500Y-10057438D01*
X12612976Y-10066962D01*
X12593928Y-10076486D01*
X12574881Y-10076486D01*
X12555833Y-10066962D01*
X12546309Y-10057438D01*
X12536786Y-10038391D01*
X12527262Y-10000296D01*
X12527262Y-9952676D01*
X12536786Y-9914581D01*
X12546309Y-9895534D01*
X12555833Y-9886010D01*
X12574881Y-9876486D01*
X12727262Y-10076486D02*
X12727262Y-9943153D01*
X12727262Y-9962200D02*
X12736786Y-9952676D01*
X12755833Y-9943153D01*
X12784405Y-9943153D01*
X12803452Y-9952676D01*
X12812976Y-9971724D01*
X12812976Y-10076486D01*
X12812976Y-9971724D02*
X12822500Y-9952676D01*
X12841548Y-9943153D01*
X12870119Y-9943153D01*
X12889167Y-9952676D01*
X12898690Y-9971724D01*
X12898690Y-10076486D01*
X12993928Y-10076486D02*
X12993928Y-9943153D01*
X12993928Y-9962200D02*
X13003452Y-9952676D01*
X13022500Y-9943153D01*
X13051071Y-9943153D01*
X13070119Y-9952676D01*
X13079643Y-9971724D01*
X13079643Y-10076486D01*
X13079643Y-9971724D02*
X13089167Y-9952676D01*
X13108214Y-9943153D01*
X13136786Y-9943153D01*
X13155833Y-9952676D01*
X13165357Y-9971724D01*
X13165357Y-10076486D01*
X13555833Y-9866962D02*
X13384405Y-10124105D01*
X13812976Y-9876486D02*
X13832024Y-9876486D01*
X13851071Y-9886010D01*
X13860595Y-9895534D01*
X13870119Y-9914581D01*
X13879643Y-9952676D01*
X13879643Y-10000296D01*
X13870119Y-10038391D01*
X13860595Y-10057438D01*
X13851071Y-10066962D01*
X13832024Y-10076486D01*
X13812976Y-10076486D01*
X13793928Y-10066962D01*
X13784405Y-10057438D01*
X13774881Y-10038391D01*
X13765357Y-10000296D01*
X13765357Y-9952676D01*
X13774881Y-9914581D01*
X13784405Y-9895534D01*
X13793928Y-9886010D01*
X13812976Y-9876486D01*
X13965357Y-10057438D02*
X13974881Y-10066962D01*
X13965357Y-10076486D01*
X13955833Y-10066962D01*
X13965357Y-10057438D01*
X13965357Y-10076486D01*
X14098690Y-9876486D02*
X14117738Y-9876486D01*
X14136786Y-9886010D01*
X14146309Y-9895534D01*
X14155833Y-9914581D01*
X14165357Y-9952676D01*
X14165357Y-10000296D01*
X14155833Y-10038391D01*
X14146309Y-10057438D01*
X14136786Y-10066962D01*
X14117738Y-10076486D01*
X14098690Y-10076486D01*
X14079643Y-10066962D01*
X14070119Y-10057438D01*
X14060595Y-10038391D01*
X14051071Y-10000296D01*
X14051071Y-9952676D01*
X14060595Y-9914581D01*
X14070119Y-9895534D01*
X14079643Y-9886010D01*
X14098690Y-9876486D01*
X14336786Y-9943153D02*
X14336786Y-10076486D01*
X14289167Y-9866962D02*
X14241548Y-10009819D01*
X14365357Y-10009819D01*
X14422500Y-9876486D02*
X14546309Y-9876486D01*
X14479643Y-9952676D01*
X14508214Y-9952676D01*
X14527262Y-9962200D01*
X14536786Y-9971724D01*
X14546309Y-9990772D01*
X14546309Y-10038391D01*
X14536786Y-10057438D01*
X14527262Y-10066962D01*
X14508214Y-10076486D01*
X14451071Y-10076486D01*
X14432024Y-10066962D01*
X14422500Y-10057438D01*
X14612976Y-9876486D02*
X14736786Y-9876486D01*
X14670119Y-9952676D01*
X14698690Y-9952676D01*
X14717738Y-9962200D01*
X14727262Y-9971724D01*
X14736786Y-9990772D01*
X14736786Y-10038391D01*
X14727262Y-10057438D01*
X14717738Y-10066962D01*
X14698690Y-10076486D01*
X14641548Y-10076486D01*
X14622500Y-10066962D01*
X14612976Y-10057438D01*
X14812976Y-9876486D02*
X14812976Y-9914581D01*
X14889167Y-9876486D02*
X14889167Y-9914581D01*
X15184405Y-10152676D02*
X15174881Y-10143153D01*
X15155833Y-10114581D01*
X15146309Y-10095534D01*
X15136786Y-10066962D01*
X15127262Y-10019343D01*
X15127262Y-9981248D01*
X15136786Y-9933629D01*
X15146309Y-9905057D01*
X15155833Y-9886010D01*
X15174881Y-9857438D01*
X15184405Y-9847915D01*
X15346309Y-9876486D02*
X15308214Y-9876486D01*
X15289167Y-9886010D01*
X15279643Y-9895534D01*
X15260595Y-9924105D01*
X15251071Y-9962200D01*
X15251071Y-10038391D01*
X15260595Y-10057438D01*
X15270119Y-10066962D01*
X15289167Y-10076486D01*
X15327262Y-10076486D01*
X15346309Y-10066962D01*
X15355833Y-10057438D01*
X15365357Y-10038391D01*
X15365357Y-9990772D01*
X15355833Y-9971724D01*
X15346309Y-9962200D01*
X15327262Y-9952676D01*
X15289167Y-9952676D01*
X15270119Y-9962200D01*
X15260595Y-9971724D01*
X15251071Y-9990772D01*
X15603452Y-10076486D02*
X15603452Y-9876486D01*
X15689167Y-10076486D02*
X15689167Y-9971724D01*
X15679643Y-9952676D01*
X15660595Y-9943153D01*
X15632024Y-9943153D01*
X15612976Y-9952676D01*
X15603452Y-9962200D01*
X15812976Y-10076486D02*
X15793928Y-10066962D01*
X15784405Y-10057438D01*
X15774881Y-10038391D01*
X15774881Y-9981248D01*
X15784405Y-9962200D01*
X15793928Y-9952676D01*
X15812976Y-9943153D01*
X15841548Y-9943153D01*
X15860595Y-9952676D01*
X15870119Y-9962200D01*
X15879643Y-9981248D01*
X15879643Y-10038391D01*
X15870119Y-10057438D01*
X15860595Y-10066962D01*
X15841548Y-10076486D01*
X15812976Y-10076486D01*
X15993928Y-10076486D02*
X15974881Y-10066962D01*
X15965357Y-10047915D01*
X15965357Y-9876486D01*
X16146309Y-10066962D02*
X16127262Y-10076486D01*
X16089167Y-10076486D01*
X16070119Y-10066962D01*
X16060595Y-10047915D01*
X16060595Y-9971724D01*
X16070119Y-9952676D01*
X16089167Y-9943153D01*
X16127262Y-9943153D01*
X16146309Y-9952676D01*
X16155833Y-9971724D01*
X16155833Y-9990772D01*
X16060595Y-10009819D01*
X16232024Y-10066962D02*
X16251071Y-10076486D01*
X16289167Y-10076486D01*
X16308214Y-10066962D01*
X16317738Y-10047915D01*
X16317738Y-10038391D01*
X16308214Y-10019343D01*
X16289167Y-10009819D01*
X16260595Y-10009819D01*
X16241548Y-10000296D01*
X16232024Y-9981248D01*
X16232024Y-9971724D01*
X16241548Y-9952676D01*
X16260595Y-9943153D01*
X16289167Y-9943153D01*
X16308214Y-9952676D01*
X16384405Y-10152676D02*
X16393928Y-10143153D01*
X16412976Y-10114581D01*
X16422500Y-10095534D01*
X16432024Y-10066962D01*
X16441548Y-10019343D01*
X16441548Y-9981248D01*
X16432024Y-9933629D01*
X16422500Y-9905057D01*
X16412976Y-9886010D01*
X16393928Y-9857438D01*
X16384405Y-9847915D01*
D17*
X11482500Y-10185010D02*
X11612500Y-10315010D01*
X11612500Y-10185010D02*
X11482500Y-10315010D01*
X11612500Y-10250010D02*
G75*
G03*
X11612500Y-10250010I-65000J0D01*
G01*
D11*
X11974881Y-10340486D02*
X11860595Y-10340486D01*
X11917738Y-10340486D02*
X11917738Y-10140486D01*
X11898690Y-10169057D01*
X11879643Y-10188105D01*
X11860595Y-10197629D01*
X12060595Y-10321438D02*
X12070119Y-10330962D01*
X12060595Y-10340486D01*
X12051071Y-10330962D01*
X12060595Y-10321438D01*
X12060595Y-10340486D01*
X12136786Y-10140486D02*
X12260595Y-10140486D01*
X12193928Y-10216676D01*
X12222500Y-10216676D01*
X12241548Y-10226200D01*
X12251071Y-10235724D01*
X12260595Y-10254772D01*
X12260595Y-10302391D01*
X12251071Y-10321438D01*
X12241548Y-10330962D01*
X12222500Y-10340486D01*
X12165357Y-10340486D01*
X12146309Y-10330962D01*
X12136786Y-10321438D01*
X12384405Y-10140486D02*
X12403452Y-10140486D01*
X12422500Y-10150010D01*
X12432024Y-10159534D01*
X12441548Y-10178581D01*
X12451071Y-10216676D01*
X12451071Y-10264296D01*
X12441548Y-10302391D01*
X12432024Y-10321438D01*
X12422500Y-10330962D01*
X12403452Y-10340486D01*
X12384405Y-10340486D01*
X12365357Y-10330962D01*
X12355833Y-10321438D01*
X12346309Y-10302391D01*
X12336786Y-10264296D01*
X12336786Y-10216676D01*
X12346309Y-10178581D01*
X12355833Y-10159534D01*
X12365357Y-10150010D01*
X12384405Y-10140486D01*
X12574881Y-10140486D02*
X12593928Y-10140486D01*
X12612976Y-10150010D01*
X12622500Y-10159534D01*
X12632024Y-10178581D01*
X12641548Y-10216676D01*
X12641548Y-10264296D01*
X12632024Y-10302391D01*
X12622500Y-10321438D01*
X12612976Y-10330962D01*
X12593928Y-10340486D01*
X12574881Y-10340486D01*
X12555833Y-10330962D01*
X12546309Y-10321438D01*
X12536786Y-10302391D01*
X12527262Y-10264296D01*
X12527262Y-10216676D01*
X12536786Y-10178581D01*
X12546309Y-10159534D01*
X12555833Y-10150010D01*
X12574881Y-10140486D01*
X12727262Y-10340486D02*
X12727262Y-10207153D01*
X12727262Y-10226200D02*
X12736786Y-10216676D01*
X12755833Y-10207153D01*
X12784405Y-10207153D01*
X12803452Y-10216676D01*
X12812976Y-10235724D01*
X12812976Y-10340486D01*
X12812976Y-10235724D02*
X12822500Y-10216676D01*
X12841548Y-10207153D01*
X12870119Y-10207153D01*
X12889167Y-10216676D01*
X12898690Y-10235724D01*
X12898690Y-10340486D01*
X12993928Y-10340486D02*
X12993928Y-10207153D01*
X12993928Y-10226200D02*
X13003452Y-10216676D01*
X13022500Y-10207153D01*
X13051071Y-10207153D01*
X13070119Y-10216676D01*
X13079643Y-10235724D01*
X13079643Y-10340486D01*
X13079643Y-10235724D02*
X13089167Y-10216676D01*
X13108214Y-10207153D01*
X13136786Y-10207153D01*
X13155833Y-10216676D01*
X13165357Y-10235724D01*
X13165357Y-10340486D01*
X13555833Y-10130962D02*
X13384405Y-10388105D01*
X13812976Y-10140486D02*
X13832024Y-10140486D01*
X13851071Y-10150010D01*
X13860595Y-10159534D01*
X13870119Y-10178581D01*
X13879643Y-10216676D01*
X13879643Y-10264296D01*
X13870119Y-10302391D01*
X13860595Y-10321438D01*
X13851071Y-10330962D01*
X13832024Y-10340486D01*
X13812976Y-10340486D01*
X13793928Y-10330962D01*
X13784405Y-10321438D01*
X13774881Y-10302391D01*
X13765357Y-10264296D01*
X13765357Y-10216676D01*
X13774881Y-10178581D01*
X13784405Y-10159534D01*
X13793928Y-10150010D01*
X13812976Y-10140486D01*
X13965357Y-10321438D02*
X13974881Y-10330962D01*
X13965357Y-10340486D01*
X13955833Y-10330962D01*
X13965357Y-10321438D01*
X13965357Y-10340486D01*
X14098690Y-10140486D02*
X14117738Y-10140486D01*
X14136786Y-10150010D01*
X14146309Y-10159534D01*
X14155833Y-10178581D01*
X14165357Y-10216676D01*
X14165357Y-10264296D01*
X14155833Y-10302391D01*
X14146309Y-10321438D01*
X14136786Y-10330962D01*
X14117738Y-10340486D01*
X14098690Y-10340486D01*
X14079643Y-10330962D01*
X14070119Y-10321438D01*
X14060595Y-10302391D01*
X14051071Y-10264296D01*
X14051071Y-10216676D01*
X14060595Y-10178581D01*
X14070119Y-10159534D01*
X14079643Y-10150010D01*
X14098690Y-10140486D01*
X14346309Y-10140486D02*
X14251071Y-10140486D01*
X14241548Y-10235724D01*
X14251071Y-10226200D01*
X14270119Y-10216676D01*
X14317738Y-10216676D01*
X14336786Y-10226200D01*
X14346309Y-10235724D01*
X14355833Y-10254772D01*
X14355833Y-10302391D01*
X14346309Y-10321438D01*
X14336786Y-10330962D01*
X14317738Y-10340486D01*
X14270119Y-10340486D01*
X14251071Y-10330962D01*
X14241548Y-10321438D01*
X14546309Y-10340486D02*
X14432024Y-10340486D01*
X14489167Y-10340486D02*
X14489167Y-10140486D01*
X14470119Y-10169057D01*
X14451071Y-10188105D01*
X14432024Y-10197629D01*
X14622500Y-10159534D02*
X14632024Y-10150010D01*
X14651071Y-10140486D01*
X14698690Y-10140486D01*
X14717738Y-10150010D01*
X14727262Y-10159534D01*
X14736786Y-10178581D01*
X14736786Y-10197629D01*
X14727262Y-10226200D01*
X14612976Y-10340486D01*
X14736786Y-10340486D01*
X14812976Y-10140486D02*
X14812976Y-10178581D01*
X14889167Y-10140486D02*
X14889167Y-10178581D01*
X15184405Y-10416676D02*
X15174881Y-10407153D01*
X15155833Y-10378581D01*
X15146309Y-10359534D01*
X15136786Y-10330962D01*
X15127262Y-10283343D01*
X15127262Y-10245248D01*
X15136786Y-10197629D01*
X15146309Y-10169057D01*
X15155833Y-10150010D01*
X15174881Y-10121438D01*
X15184405Y-10111915D01*
X15346309Y-10140486D02*
X15308214Y-10140486D01*
X15289167Y-10150010D01*
X15279643Y-10159534D01*
X15260595Y-10188105D01*
X15251071Y-10226200D01*
X15251071Y-10302391D01*
X15260595Y-10321438D01*
X15270119Y-10330962D01*
X15289167Y-10340486D01*
X15327262Y-10340486D01*
X15346309Y-10330962D01*
X15355833Y-10321438D01*
X15365357Y-10302391D01*
X15365357Y-10254772D01*
X15355833Y-10235724D01*
X15346309Y-10226200D01*
X15327262Y-10216676D01*
X15289167Y-10216676D01*
X15270119Y-10226200D01*
X15260595Y-10235724D01*
X15251071Y-10254772D01*
X15603452Y-10340486D02*
X15603452Y-10140486D01*
X15689167Y-10340486D02*
X15689167Y-10235724D01*
X15679643Y-10216676D01*
X15660595Y-10207153D01*
X15632024Y-10207153D01*
X15612976Y-10216676D01*
X15603452Y-10226200D01*
X15812976Y-10340486D02*
X15793928Y-10330962D01*
X15784405Y-10321438D01*
X15774881Y-10302391D01*
X15774881Y-10245248D01*
X15784405Y-10226200D01*
X15793928Y-10216676D01*
X15812976Y-10207153D01*
X15841548Y-10207153D01*
X15860595Y-10216676D01*
X15870119Y-10226200D01*
X15879643Y-10245248D01*
X15879643Y-10302391D01*
X15870119Y-10321438D01*
X15860595Y-10330962D01*
X15841548Y-10340486D01*
X15812976Y-10340486D01*
X15993928Y-10340486D02*
X15974881Y-10330962D01*
X15965357Y-10311915D01*
X15965357Y-10140486D01*
X16146309Y-10330962D02*
X16127262Y-10340486D01*
X16089167Y-10340486D01*
X16070119Y-10330962D01*
X16060595Y-10311915D01*
X16060595Y-10235724D01*
X16070119Y-10216676D01*
X16089167Y-10207153D01*
X16127262Y-10207153D01*
X16146309Y-10216676D01*
X16155833Y-10235724D01*
X16155833Y-10254772D01*
X16060595Y-10273819D01*
X16232024Y-10330962D02*
X16251071Y-10340486D01*
X16289167Y-10340486D01*
X16308214Y-10330962D01*
X16317738Y-10311915D01*
X16317738Y-10302391D01*
X16308214Y-10283343D01*
X16289167Y-10273819D01*
X16260595Y-10273819D01*
X16241548Y-10264296D01*
X16232024Y-10245248D01*
X16232024Y-10235724D01*
X16241548Y-10216676D01*
X16260595Y-10207153D01*
X16289167Y-10207153D01*
X16308214Y-10216676D01*
X16384405Y-10416676D02*
X16393928Y-10407153D01*
X16412976Y-10378581D01*
X16422500Y-10359534D01*
X16432024Y-10330962D01*
X16441548Y-10283343D01*
X16441548Y-10245248D01*
X16432024Y-10197629D01*
X16422500Y-10169057D01*
X16412976Y-10150010D01*
X16393928Y-10121438D01*
X16384405Y-10111915D01*
M02*
