M48
; DRILL file {KiCad (6.0.7)} date Wed Feb  8 20:37:19 2023
; FORMAT={-:-/ absolute / inch / decimal}
; #@! TF.CreationDate,2023-02-08T20:37:19+01:00
; #@! TF.GenerationSoftware,Kicad,Pcbnew,(6.0.7)
; #@! TF.FileFunction,Plated,1,2,PTH
FMAT,2
INCH
; #@! TA.AperFunction,Plated,PTH,ViaDrill
T1C0.0157
; #@! TA.AperFunction,Plated,PTH,ComponentDrill
T2C0.0276
; #@! TA.AperFunction,Plated,PTH,ComponentDrill
T3C0.0315
; #@! TA.AperFunction,Plated,PTH,ComponentDrill
T4C0.0354
; #@! TA.AperFunction,Plated,PTH,ComponentDrill
T5C0.0433
; #@! TA.AperFunction,Plated,PTH,ComponentDrill
T6C0.0512
%
G90
G05
T1
X4.8976Y-2.9656
X5.5955Y-2.5482
T2
X5.963Y-3.0669
X6.163Y-3.0669
T3
X4.6939Y-3.064
X4.7923Y-3.064
X4.9232Y-3.0846
X5.1201Y-3.0846
X5.2634Y-3.0837
X5.5634Y-3.0837
X5.7559Y-3.0719
X5.8543Y-3.0719
X6.2638Y-3.061
X6.4606Y-3.061
T4
X5.2494Y-2.7982
X5.3494Y-2.7982
X5.4925Y-2.7972
X5.5925Y-2.7972
T5
X4.7406Y-2.8256
X4.8406Y-2.8256
X4.9406Y-2.8256
X5.9719Y-2.8226
X6.0719Y-2.8226
X6.1719Y-2.8226
T6
X4.7713Y-2.364
X4.9713Y-2.364
X5.7506Y-2.364
X5.9506Y-2.364
X6.1965Y-2.362
X6.3965Y-2.362
T0
M30
