%TF.GenerationSoftware,KiCad,Pcbnew,(6.0.7)*%
%TF.CreationDate,2023-02-08T20:34:56+01:00*%
%TF.ProjectId,udemy,7564656d-792e-46b6-9963-61645f706362,rev?*%
%TF.SameCoordinates,Original*%
%TF.FileFunction,Copper,L1,Top*%
%TF.FilePolarity,Positive*%
%FSLAX46Y46*%
G04 Gerber Fmt 4.6, Leading zero omitted, Abs format (unit mm)*
G04 Created by KiCad (PCBNEW (6.0.7)) date 2023-02-08 20:34:56*
%MOMM*%
%LPD*%
G01*
G04 APERTURE LIST*
%TA.AperFunction,ComponentPad*%
%ADD10R,1.800000X1.800000*%
%TD*%
%TA.AperFunction,ComponentPad*%
%ADD11C,1.800000*%
%TD*%
%TA.AperFunction,ComponentPad*%
%ADD12C,1.600000*%
%TD*%
%TA.AperFunction,ComponentPad*%
%ADD13O,1.600000X1.600000*%
%TD*%
%TA.AperFunction,ComponentPad*%
%ADD14C,1.400000*%
%TD*%
%TA.AperFunction,ComponentPad*%
%ADD15O,1.400000X1.400000*%
%TD*%
%TA.AperFunction,ComponentPad*%
%ADD16R,2.600000X2.600000*%
%TD*%
%TA.AperFunction,ComponentPad*%
%ADD17C,2.600000*%
%TD*%
%TA.AperFunction,ComponentPad*%
%ADD18R,1.905000X2.000000*%
%TD*%
%TA.AperFunction,ComponentPad*%
%ADD19O,1.905000X2.000000*%
%TD*%
%TA.AperFunction,ViaPad*%
%ADD20C,0.800000*%
%TD*%
%TA.AperFunction,Conductor*%
%ADD21C,0.800000*%
%TD*%
G04 APERTURE END LIST*
D10*
%TO.P,D1,1,K*%
%TO.N,Net-(D1-Pad1)*%
X135875000Y-71075000D03*
D11*
%TO.P,D1,2,A*%
%TO.N,/9v out*%
X133335000Y-71075000D03*
%TD*%
D12*
%TO.P,R2,1*%
%TO.N,Net-(D1-Pad1)*%
X141310000Y-78325000D03*
D13*
%TO.P,R2,2*%
%TO.N,GND*%
X133690000Y-78325000D03*
%TD*%
D12*
%TO.P,C4,1*%
%TO.N,/5v out*%
X146200000Y-78025000D03*
%TO.P,C4,2*%
%TO.N,GND*%
X148700000Y-78025000D03*
%TD*%
D14*
%TO.P,R1,1*%
%TO.N,Net-(D2-Pad1)*%
X151460000Y-77900000D03*
D15*
%TO.P,R1,2*%
%TO.N,GND*%
X156540000Y-77900000D03*
%TD*%
D16*
%TO.P,J2,1,Pin_1*%
%TO.N,/9v out*%
X151145000Y-60045000D03*
D17*
%TO.P,J2,2,Pin_2*%
%TO.N,GND*%
X146065000Y-60045000D03*
%TD*%
D16*
%TO.P,J3,1,Pin_1*%
%TO.N,/5v out*%
X162470000Y-59995000D03*
D17*
%TO.P,J3,2,Pin_2*%
%TO.N,GND*%
X157390000Y-59995000D03*
%TD*%
D10*
%TO.P,D2,1,K*%
%TO.N,Net-(D2-Pad1)*%
X142050000Y-71050000D03*
D11*
%TO.P,D2,2,A*%
%TO.N,/5v out*%
X139510000Y-71050000D03*
%TD*%
D16*
%TO.P,J1,1,Pin_1*%
%TO.N,+12V*%
X126270000Y-60045000D03*
D17*
%TO.P,J1,2,Pin_2*%
%TO.N,GND*%
X121190000Y-60045000D03*
%TD*%
D18*
%TO.P,U1,1,IN*%
%TO.N,+12V*%
X120410000Y-71770000D03*
D19*
%TO.P,U1,2,GND*%
%TO.N,GND*%
X122950000Y-71770000D03*
%TO.P,U1,3,OUT*%
%TO.N,/9v out*%
X125490000Y-71770000D03*
%TD*%
D18*
%TO.P,U2,1,IN*%
%TO.N,+12V*%
X151685000Y-71695000D03*
D19*
%TO.P,U2,2,GND*%
%TO.N,GND*%
X154225000Y-71695000D03*
%TO.P,U2,3,OUT*%
%TO.N,/5v out*%
X156765000Y-71695000D03*
%TD*%
D12*
%TO.P,C3,1*%
%TO.N,/9v out*%
X121725000Y-77825000D03*
%TO.P,C3,2*%
%TO.N,GND*%
X119225000Y-77825000D03*
%TD*%
%TO.P,C1,1*%
%TO.N,+12V*%
X125050000Y-78350000D03*
%TO.P,C1,2*%
%TO.N,GND*%
X130050000Y-78350000D03*
%TD*%
%TO.P,C2,1*%
%TO.N,+12V*%
X164100000Y-77750000D03*
%TO.P,C2,2*%
%TO.N,GND*%
X159100000Y-77750000D03*
%TD*%
D20*
%TO.N,/9v out*%
X142125000Y-64725000D03*
X124400000Y-75325000D03*
%TD*%
D21*
%TO.N,/5v out*%
X156765000Y-71695000D02*
X160024899Y-71695000D01*
X139510000Y-71050000D02*
X139510000Y-71335000D01*
X139510000Y-71335000D02*
X146200000Y-78025000D01*
X147600000Y-79425000D02*
X146200000Y-78025000D01*
X162470000Y-65990000D02*
X156765000Y-71695000D01*
X165500000Y-78800000D02*
X164875000Y-79425000D01*
X160024899Y-71695000D02*
X165500000Y-77170101D01*
X165500000Y-77170101D02*
X165500000Y-78800000D01*
X162470000Y-59995000D02*
X162470000Y-65990000D01*
X164875000Y-79425000D02*
X147600000Y-79425000D01*
%TO.N,Net-(D1-Pad1)*%
X135875000Y-72890000D02*
X141310000Y-78325000D01*
X135875000Y-71075000D02*
X135875000Y-72890000D01*
%TO.N,Net-(D2-Pad1)*%
X151460000Y-77900000D02*
X144610000Y-71050000D01*
X144610000Y-71050000D02*
X142050000Y-71050000D01*
%TO.N,+12V*%
X164100000Y-77750000D02*
X160275682Y-73925682D01*
X153915682Y-73925682D02*
X151685000Y-71695000D01*
X140035000Y-60045000D02*
X151685000Y-71695000D01*
X120410000Y-71770000D02*
X120410000Y-73710000D01*
X120410000Y-73710000D02*
X125050000Y-78350000D01*
X126270000Y-60045000D02*
X126270000Y-65910000D01*
X126270000Y-65910000D02*
X120410000Y-71770000D01*
X160275682Y-73925682D02*
X153915682Y-73925682D01*
X126270000Y-60045000D02*
X140035000Y-60045000D01*
%TO.N,/9v out*%
X126185000Y-71075000D02*
X125490000Y-71770000D01*
X133335000Y-70615000D02*
X139225000Y-64725000D01*
X139225000Y-64725000D02*
X142125000Y-64725000D01*
X124400000Y-75325000D02*
X124400000Y-72860000D01*
X124400000Y-72860000D02*
X125490000Y-71770000D01*
X133335000Y-71075000D02*
X126185000Y-71075000D01*
X133335000Y-71075000D02*
X133335000Y-70615000D01*
%TD*%
%TA.AperFunction,NonConductor*%
G36*
X139674618Y-60973502D02*
G01*
X139695592Y-60990405D01*
X142306592Y-63601405D01*
X142340618Y-63663717D01*
X142335553Y-63734532D01*
X142293006Y-63791368D01*
X142226486Y-63816179D01*
X142217497Y-63816500D01*
X139306417Y-63816500D01*
X139286708Y-63814949D01*
X139272810Y-63812748D01*
X139266223Y-63813093D01*
X139266218Y-63813093D01*
X139204520Y-63816327D01*
X139197926Y-63816500D01*
X139177390Y-63816500D01*
X139174118Y-63816844D01*
X139174116Y-63816844D01*
X139156958Y-63818647D01*
X139150384Y-63819164D01*
X139088696Y-63822397D01*
X139088694Y-63822397D01*
X139082097Y-63822743D01*
X139068504Y-63826385D01*
X139049075Y-63829986D01*
X139035072Y-63831458D01*
X138970025Y-63852593D01*
X138963712Y-63854463D01*
X138957208Y-63856206D01*
X138904003Y-63870462D01*
X138904000Y-63870463D01*
X138897630Y-63872170D01*
X138885085Y-63878562D01*
X138866826Y-63886125D01*
X138853444Y-63890473D01*
X138847723Y-63893776D01*
X138794223Y-63924664D01*
X138788426Y-63927812D01*
X138733351Y-63955874D01*
X138733348Y-63955876D01*
X138727470Y-63958871D01*
X138722342Y-63963024D01*
X138722340Y-63963025D01*
X138716534Y-63967727D01*
X138700237Y-63978927D01*
X138693776Y-63982657D01*
X138693772Y-63982660D01*
X138688056Y-63985960D01*
X138683150Y-63990377D01*
X138683145Y-63990381D01*
X138637231Y-64031722D01*
X138632216Y-64036006D01*
X138623718Y-64042888D01*
X138616259Y-64048928D01*
X138601744Y-64063443D01*
X138596959Y-64067984D01*
X138546134Y-64113747D01*
X138542255Y-64119086D01*
X138542254Y-64119087D01*
X138537860Y-64125135D01*
X138525019Y-64140168D01*
X132965745Y-69699442D01*
X132915795Y-69730112D01*
X132870734Y-69744840D01*
X132787314Y-69772106D01*
X132782726Y-69774494D01*
X132782722Y-69774496D01*
X132586461Y-69876663D01*
X132581872Y-69879052D01*
X132577739Y-69882155D01*
X132577736Y-69882157D01*
X132400790Y-70015012D01*
X132396655Y-70018117D01*
X132292733Y-70126866D01*
X132292078Y-70127551D01*
X132230554Y-70162981D01*
X132200984Y-70166500D01*
X126266416Y-70166500D01*
X126246707Y-70164949D01*
X126232809Y-70162748D01*
X126226222Y-70163093D01*
X126226217Y-70163093D01*
X126164519Y-70166327D01*
X126157925Y-70166500D01*
X126137390Y-70166500D01*
X126131222Y-70167148D01*
X126116960Y-70168647D01*
X126110385Y-70169164D01*
X126048696Y-70172397D01*
X126048695Y-70172397D01*
X126042096Y-70172743D01*
X126028508Y-70176384D01*
X126009061Y-70179988D01*
X126001644Y-70180767D01*
X126001640Y-70180768D01*
X125995072Y-70181458D01*
X125958764Y-70193255D01*
X125930009Y-70202598D01*
X125923685Y-70204471D01*
X125864010Y-70220461D01*
X125864006Y-70220462D01*
X125857630Y-70222171D01*
X125851748Y-70225168D01*
X125845093Y-70228559D01*
X125826826Y-70236125D01*
X125819728Y-70238431D01*
X125819726Y-70238432D01*
X125813444Y-70240473D01*
X125779715Y-70259946D01*
X125710721Y-70276683D01*
X125694624Y-70274873D01*
X125652681Y-70267402D01*
X125633050Y-70263905D01*
X125633048Y-70263905D01*
X125627963Y-70262999D01*
X125547962Y-70262022D01*
X125392907Y-70260127D01*
X125392905Y-70260127D01*
X125387737Y-70260064D01*
X125150256Y-70296404D01*
X125058611Y-70326358D01*
X124926817Y-70369434D01*
X124926811Y-70369437D01*
X124921899Y-70371042D01*
X124917313Y-70373429D01*
X124917309Y-70373431D01*
X124757339Y-70456707D01*
X124708800Y-70481975D01*
X124704657Y-70485085D01*
X124704658Y-70485085D01*
X124572005Y-70584684D01*
X124516680Y-70626223D01*
X124513108Y-70629961D01*
X124366772Y-70783093D01*
X124350699Y-70799912D01*
X124325465Y-70836903D01*
X124270556Y-70881904D01*
X124200032Y-70890075D01*
X124136284Y-70858821D01*
X124115589Y-70834340D01*
X124114311Y-70832365D01*
X124111502Y-70828023D01*
X123949814Y-70650330D01*
X123850793Y-70572128D01*
X123765330Y-70504633D01*
X123765325Y-70504630D01*
X123761276Y-70501432D01*
X123756760Y-70498939D01*
X123756757Y-70498937D01*
X123555474Y-70387823D01*
X123555470Y-70387821D01*
X123550950Y-70385326D01*
X123546081Y-70383602D01*
X123546077Y-70383600D01*
X123469794Y-70356587D01*
X123391022Y-70328692D01*
X123333487Y-70287099D01*
X123307571Y-70221001D01*
X123321505Y-70151385D01*
X123343988Y-70120825D01*
X124312313Y-69152500D01*
X127095628Y-69152500D01*
X128621628Y-69152500D01*
X129635628Y-69152500D01*
X131161628Y-69152500D01*
X131161628Y-68221066D01*
X129635628Y-68221066D01*
X129635628Y-69152500D01*
X128621628Y-69152500D01*
X128621628Y-68221066D01*
X127095628Y-68221066D01*
X127095628Y-69152500D01*
X124312313Y-69152500D01*
X126257747Y-67207066D01*
X127690354Y-67207066D01*
X128621628Y-67207066D01*
X129635628Y-67207066D01*
X131161628Y-67207066D01*
X132175628Y-67207066D01*
X133701628Y-67207066D01*
X133701628Y-65681066D01*
X132175628Y-65681066D01*
X132175628Y-67207066D01*
X131161628Y-67207066D01*
X131161628Y-65681066D01*
X129635628Y-65681066D01*
X129635628Y-67207066D01*
X128621628Y-67207066D01*
X128621628Y-65681066D01*
X128192500Y-65681066D01*
X128192500Y-65784994D01*
X128192968Y-65789447D01*
X128193485Y-65796025D01*
X128194863Y-65822330D01*
X128195036Y-65828924D01*
X128195035Y-65908668D01*
X128194862Y-65915260D01*
X128192444Y-65961390D01*
X128191413Y-66000774D01*
X128191283Y-66004067D01*
X128190593Y-66017238D01*
X128190378Y-66020530D01*
X128187286Y-66059824D01*
X128184867Y-66105976D01*
X128184350Y-66112551D01*
X128176013Y-66191872D01*
X128175152Y-66198412D01*
X128171031Y-66224431D01*
X128169828Y-66230921D01*
X128163446Y-66260943D01*
X128158650Y-66291227D01*
X128157448Y-66297716D01*
X128151971Y-66323484D01*
X128150431Y-66329898D01*
X128129788Y-66406942D01*
X128127915Y-66413267D01*
X128113957Y-66456226D01*
X128102275Y-66499822D01*
X128100402Y-66506145D01*
X128075762Y-66581979D01*
X128073561Y-66588195D01*
X128064122Y-66612786D01*
X128061597Y-66618883D01*
X128049112Y-66646924D01*
X128038113Y-66675579D01*
X128035588Y-66681675D01*
X128024874Y-66705739D01*
X128022034Y-66711692D01*
X127985826Y-66782756D01*
X127982679Y-66788553D01*
X127960112Y-66827642D01*
X127939611Y-66867876D01*
X127936463Y-66873674D01*
X127896574Y-66942763D01*
X127893126Y-66948389D01*
X127878778Y-66970482D01*
X127875040Y-66975920D01*
X127857003Y-67000744D01*
X127840316Y-67026441D01*
X127836580Y-67031877D01*
X127821096Y-67053190D01*
X127817080Y-67058425D01*
X127766875Y-67120425D01*
X127762590Y-67125442D01*
X127731637Y-67159819D01*
X127706074Y-67189749D01*
X127703900Y-67192228D01*
X127695075Y-67202029D01*
X127692835Y-67204452D01*
X127690354Y-67207066D01*
X126257747Y-67207066D01*
X126854832Y-66609981D01*
X126869865Y-66597140D01*
X126875913Y-66592746D01*
X126875914Y-66592745D01*
X126881253Y-66588866D01*
X126927016Y-66538041D01*
X126931557Y-66533256D01*
X126946072Y-66518741D01*
X126958997Y-66502780D01*
X126963269Y-66497779D01*
X127004619Y-66451855D01*
X127004623Y-66451850D01*
X127009040Y-66446944D01*
X127016073Y-66434763D01*
X127027267Y-66418474D01*
X127036129Y-66407531D01*
X127039836Y-66400257D01*
X127067188Y-66346574D01*
X127070336Y-66340777D01*
X127071116Y-66339427D01*
X127104527Y-66281556D01*
X127108875Y-66268173D01*
X127116441Y-66249907D01*
X127119832Y-66243252D01*
X127122829Y-66237370D01*
X127126984Y-66221867D01*
X127140529Y-66171315D01*
X127142402Y-66164991D01*
X127147153Y-66150368D01*
X127163542Y-66099928D01*
X127165012Y-66085939D01*
X127168617Y-66066486D01*
X127169119Y-66064615D01*
X127172257Y-66052904D01*
X127172887Y-66040882D01*
X127175836Y-65984615D01*
X127176353Y-65978040D01*
X127178156Y-65960882D01*
X127178500Y-65957610D01*
X127178500Y-65937075D01*
X127178673Y-65930481D01*
X127181907Y-65868783D01*
X127181907Y-65868778D01*
X127182252Y-65862191D01*
X127180051Y-65848293D01*
X127178500Y-65828584D01*
X127178500Y-64667066D01*
X128192500Y-64667066D01*
X128621628Y-64667066D01*
X129635628Y-64667066D01*
X131161628Y-64667066D01*
X132175628Y-64667066D01*
X133701628Y-64667066D01*
X134715628Y-64667066D01*
X136241628Y-64667066D01*
X136241628Y-63141066D01*
X134715628Y-63141066D01*
X134715628Y-64667066D01*
X133701628Y-64667066D01*
X133701628Y-63141066D01*
X132175628Y-63141066D01*
X132175628Y-64667066D01*
X131161628Y-64667066D01*
X131161628Y-63141066D01*
X129635628Y-63141066D01*
X129635628Y-64667066D01*
X128621628Y-64667066D01*
X128621628Y-63141066D01*
X128192500Y-63141066D01*
X128192500Y-64667066D01*
X127178500Y-64667066D01*
X127178500Y-61979500D01*
X127198502Y-61911379D01*
X127252158Y-61864886D01*
X127304500Y-61853500D01*
X127618134Y-61853500D01*
X127680316Y-61846745D01*
X127816705Y-61795615D01*
X127933261Y-61708261D01*
X128020615Y-61591705D01*
X128071745Y-61455316D01*
X128078500Y-61393134D01*
X128078500Y-61079500D01*
X128098502Y-61011379D01*
X128152158Y-60964886D01*
X128204500Y-60953500D01*
X139606497Y-60953500D01*
X139674618Y-60973502D01*
G37*
%TD.AperFunction*%
%TA.AperFunction,NonConductor*%
G36*
X155578716Y-72606179D02*
G01*
X155599411Y-72630660D01*
X155603498Y-72636977D01*
X155606978Y-72640802D01*
X155606980Y-72640804D01*
X155757644Y-72806382D01*
X155788696Y-72870228D01*
X155780301Y-72940727D01*
X155735125Y-72995495D01*
X155664451Y-73017182D01*
X155322522Y-73017182D01*
X155254401Y-72997180D01*
X155207908Y-72943524D01*
X155197804Y-72873250D01*
X155231428Y-72804131D01*
X155232848Y-72802646D01*
X155364301Y-72665088D01*
X155389535Y-72628097D01*
X155444444Y-72583096D01*
X155514968Y-72574925D01*
X155578716Y-72606179D01*
G37*
%TD.AperFunction*%
%TA.AperFunction,NonConductor*%
G36*
X159664517Y-72623502D02*
G01*
X159685491Y-72640405D01*
X159847173Y-72802087D01*
X159881199Y-72864399D01*
X159876134Y-72935214D01*
X159833587Y-72992050D01*
X159767067Y-73016861D01*
X159758078Y-73017182D01*
X157862522Y-73017182D01*
X157794401Y-72997180D01*
X157747908Y-72943524D01*
X157737804Y-72873250D01*
X157771428Y-72804131D01*
X157772848Y-72802646D01*
X157904301Y-72665088D01*
X157908796Y-72658498D01*
X157909676Y-72657777D01*
X157910469Y-72656798D01*
X157910671Y-72656962D01*
X157963704Y-72613495D01*
X158012886Y-72603500D01*
X159596396Y-72603500D01*
X159664517Y-72623502D01*
G37*
%TD.AperFunction*%
%TA.AperFunction,NonConductor*%
G36*
X121999123Y-72930553D02*
G01*
X122016647Y-72942158D01*
X122134670Y-73035367D01*
X122134675Y-73035370D01*
X122138724Y-73038568D01*
X122143240Y-73041061D01*
X122143243Y-73041063D01*
X122344526Y-73152177D01*
X122344530Y-73152179D01*
X122349050Y-73154674D01*
X122353919Y-73156398D01*
X122353923Y-73156400D01*
X122570640Y-73233144D01*
X122570644Y-73233145D01*
X122575515Y-73234870D01*
X122580608Y-73235777D01*
X122580611Y-73235778D01*
X122806948Y-73276095D01*
X122806954Y-73276096D01*
X122812037Y-73277001D01*
X122896014Y-73278027D01*
X123047093Y-73279873D01*
X123047095Y-73279873D01*
X123052263Y-73279936D01*
X123289744Y-73243596D01*
X123304598Y-73238741D01*
X123326356Y-73231630D01*
X123397320Y-73229479D01*
X123458181Y-73266036D01*
X123489617Y-73329694D01*
X123491500Y-73351395D01*
X123491500Y-75202497D01*
X123471498Y-75270618D01*
X123417842Y-75317111D01*
X123347568Y-75327215D01*
X123282988Y-75297721D01*
X123276405Y-75291592D01*
X121453905Y-73469092D01*
X121419879Y-73406780D01*
X121424944Y-73335965D01*
X121467491Y-73279129D01*
X121498771Y-73262015D01*
X121600795Y-73223768D01*
X121600796Y-73223767D01*
X121609205Y-73220615D01*
X121725761Y-73133261D01*
X121813115Y-73016705D01*
X121820573Y-72996811D01*
X121863213Y-72940047D01*
X121929774Y-72915346D01*
X121999123Y-72930553D01*
G37*
%TD.AperFunction*%
%TA.AperFunction,NonConductor*%
G36*
X144249618Y-71978502D02*
G01*
X144270592Y-71995405D01*
X148772559Y-76497372D01*
X148806585Y-76559684D01*
X148801520Y-76630499D01*
X148758973Y-76687335D01*
X148694446Y-76711988D01*
X148471913Y-76731457D01*
X148466600Y-76732881D01*
X148466598Y-76732881D01*
X148256067Y-76789293D01*
X148256065Y-76789294D01*
X148250757Y-76790716D01*
X148245776Y-76793039D01*
X148245775Y-76793039D01*
X148048238Y-76885151D01*
X148048233Y-76885154D01*
X148043251Y-76887477D01*
X147990960Y-76924092D01*
X147860211Y-77015643D01*
X147860208Y-77015645D01*
X147855700Y-77018802D01*
X147693802Y-77180700D01*
X147690645Y-77185208D01*
X147690643Y-77185211D01*
X147655929Y-77234788D01*
X147562477Y-77368251D01*
X147560154Y-77373233D01*
X147559118Y-77375027D01*
X147507734Y-77424019D01*
X147438021Y-77437454D01*
X147372110Y-77411066D01*
X147340882Y-77375027D01*
X147339846Y-77373233D01*
X147337523Y-77368251D01*
X147244071Y-77234788D01*
X147209357Y-77185211D01*
X147209355Y-77185208D01*
X147206198Y-77180700D01*
X147044300Y-77018802D01*
X147039792Y-77015645D01*
X147039789Y-77015643D01*
X146909040Y-76924092D01*
X146856749Y-76887477D01*
X146851767Y-76885154D01*
X146851762Y-76885151D01*
X146654225Y-76793039D01*
X146654224Y-76793039D01*
X146649243Y-76790716D01*
X146643935Y-76789294D01*
X146643933Y-76789293D01*
X146433402Y-76732881D01*
X146433400Y-76732881D01*
X146428087Y-76731457D01*
X146422611Y-76730978D01*
X146422606Y-76730977D01*
X146292904Y-76719630D01*
X146214249Y-76712749D01*
X146148131Y-76686886D01*
X146136136Y-76676323D01*
X142133408Y-72673595D01*
X142099382Y-72611283D01*
X142104447Y-72540468D01*
X142146994Y-72483632D01*
X142213514Y-72458821D01*
X142222503Y-72458500D01*
X142998134Y-72458500D01*
X143001826Y-72458099D01*
X143007873Y-72457442D01*
X143060316Y-72451745D01*
X143196705Y-72400615D01*
X143313261Y-72313261D01*
X143400615Y-72196705D01*
X143439599Y-72092715D01*
X143448972Y-72067714D01*
X143448973Y-72067711D01*
X143451745Y-72060316D01*
X143452372Y-72054547D01*
X143487126Y-71993709D01*
X143550081Y-71960887D01*
X143574493Y-71958500D01*
X144181497Y-71958500D01*
X144249618Y-71978502D01*
G37*
%TD.AperFunction*%
%TA.AperFunction,NonConductor*%
G36*
X150226157Y-77986715D02*
G01*
X150259189Y-78049559D01*
X150261180Y-78063404D01*
X150265314Y-78110655D01*
X150266738Y-78115968D01*
X150266738Y-78115970D01*
X150303479Y-78253087D01*
X150320044Y-78314910D01*
X150322366Y-78319889D01*
X150322369Y-78319898D01*
X150330461Y-78337251D01*
X150341122Y-78407443D01*
X150312141Y-78472256D01*
X150252721Y-78511111D01*
X150216266Y-78516500D01*
X150087168Y-78516500D01*
X150019047Y-78496498D01*
X149972554Y-78442842D01*
X149962450Y-78372568D01*
X149965461Y-78357888D01*
X149967575Y-78350000D01*
X149993543Y-78253087D01*
X150010138Y-78063404D01*
X150036001Y-77997286D01*
X150093505Y-77955647D01*
X150164392Y-77951706D01*
X150226157Y-77986715D01*
G37*
%TD.AperFunction*%
%TA.AperFunction,NonConductor*%
G36*
X165295114Y-55270566D02*
G01*
X165309851Y-55272861D01*
X165309855Y-55272861D01*
X165318724Y-55274242D01*
X165331291Y-55272599D01*
X165358692Y-55272024D01*
X165474402Y-55282234D01*
X165496205Y-55286111D01*
X165541106Y-55298249D01*
X165630274Y-55322355D01*
X165651064Y-55329993D01*
X165776696Y-55389145D01*
X165795829Y-55400305D01*
X165909168Y-55480547D01*
X165926051Y-55494885D01*
X166023588Y-55593735D01*
X166037699Y-55610808D01*
X166116419Y-55725210D01*
X166127322Y-55744490D01*
X166184792Y-55870906D01*
X166192148Y-55891786D01*
X166226598Y-56026336D01*
X166230182Y-56048181D01*
X166238345Y-56157339D01*
X166237588Y-56173571D01*
X166238041Y-56173583D01*
X166237811Y-56182557D01*
X166236312Y-56191407D01*
X166237357Y-56200323D01*
X166240508Y-56227215D01*
X166241364Y-56241909D01*
X166238811Y-67202029D01*
X166236689Y-76315237D01*
X166236688Y-76317815D01*
X166216670Y-76385931D01*
X166163004Y-76432412D01*
X166092727Y-76442499D01*
X166028153Y-76412991D01*
X166021593Y-76406881D01*
X161221618Y-71606906D01*
X162655628Y-71606906D01*
X163335788Y-72287066D01*
X164181628Y-72287066D01*
X164181628Y-70761066D01*
X162655628Y-70761066D01*
X162655628Y-71606906D01*
X161221618Y-71606906D01*
X160724880Y-71110168D01*
X160712039Y-71095135D01*
X160707645Y-71089087D01*
X160707644Y-71089086D01*
X160703765Y-71083747D01*
X160652940Y-71037984D01*
X160648155Y-71033443D01*
X160633640Y-71018928D01*
X160623030Y-71010336D01*
X160617683Y-71006006D01*
X160612668Y-71001722D01*
X160566754Y-70960381D01*
X160566749Y-70960377D01*
X160561843Y-70955960D01*
X160556127Y-70952660D01*
X160556123Y-70952657D01*
X160549662Y-70948927D01*
X160533365Y-70937727D01*
X160527559Y-70933025D01*
X160527557Y-70933024D01*
X160522429Y-70928871D01*
X160461476Y-70897814D01*
X160455681Y-70894667D01*
X160447728Y-70890075D01*
X160396455Y-70860473D01*
X160390173Y-70858432D01*
X160390171Y-70858431D01*
X160383073Y-70856125D01*
X160364806Y-70848559D01*
X160352269Y-70842171D01*
X160286198Y-70824467D01*
X160279896Y-70822600D01*
X160214827Y-70801458D01*
X160208262Y-70800768D01*
X160208253Y-70800766D01*
X160200824Y-70799985D01*
X160181390Y-70796383D01*
X160174185Y-70794453D01*
X160174183Y-70794453D01*
X160167802Y-70792743D01*
X160161211Y-70792398D01*
X160161207Y-70792397D01*
X160099515Y-70789164D01*
X160092941Y-70788647D01*
X160075783Y-70786844D01*
X160075781Y-70786844D01*
X160072509Y-70786500D01*
X160051973Y-70786500D01*
X160045379Y-70786327D01*
X159983681Y-70783093D01*
X159983676Y-70783093D01*
X159977089Y-70782748D01*
X159963191Y-70784949D01*
X159943482Y-70786500D01*
X159262503Y-70786500D01*
X159194382Y-70766498D01*
X159147889Y-70712842D01*
X159137785Y-70642568D01*
X159167279Y-70577988D01*
X159173408Y-70571405D01*
X159997747Y-69747066D01*
X162655628Y-69747066D01*
X164181628Y-69747066D01*
X164181628Y-68221066D01*
X162957757Y-68221066D01*
X162655628Y-68523195D01*
X162655628Y-69747066D01*
X159997747Y-69747066D01*
X163054832Y-66689981D01*
X163069865Y-66677140D01*
X163075913Y-66672746D01*
X163075914Y-66672745D01*
X163081253Y-66668866D01*
X163127016Y-66618041D01*
X163131557Y-66613256D01*
X163146072Y-66598741D01*
X163158994Y-66582784D01*
X163163278Y-66577769D01*
X163204619Y-66531855D01*
X163204623Y-66531850D01*
X163209040Y-66526944D01*
X163212340Y-66521228D01*
X163212343Y-66521224D01*
X163216073Y-66514763D01*
X163227273Y-66498466D01*
X163231975Y-66492660D01*
X163231976Y-66492658D01*
X163236129Y-66487530D01*
X163267186Y-66426577D01*
X163270333Y-66420782D01*
X163277984Y-66407531D01*
X163289787Y-66387086D01*
X163301223Y-66367279D01*
X163301224Y-66367278D01*
X163304527Y-66361556D01*
X163308875Y-66348173D01*
X163316441Y-66329907D01*
X163319832Y-66323252D01*
X163322829Y-66317370D01*
X163328096Y-66297716D01*
X163340529Y-66251315D01*
X163342402Y-66244991D01*
X163361500Y-66186212D01*
X163363542Y-66179928D01*
X163364783Y-66168124D01*
X163365012Y-66165939D01*
X163368617Y-66146486D01*
X163370547Y-66139285D01*
X163372257Y-66132904D01*
X163374718Y-66085939D01*
X163375836Y-66064615D01*
X163376353Y-66058040D01*
X163378156Y-66040882D01*
X163378500Y-66037610D01*
X163378500Y-66017075D01*
X163378673Y-66010481D01*
X163381907Y-65948783D01*
X163381907Y-65948778D01*
X163382252Y-65942191D01*
X163380051Y-65928293D01*
X163378500Y-65908584D01*
X163378500Y-61929500D01*
X163398502Y-61861379D01*
X163452158Y-61814886D01*
X163504500Y-61803500D01*
X163818134Y-61803500D01*
X163880316Y-61796745D01*
X164016705Y-61745615D01*
X164133261Y-61658261D01*
X164220615Y-61541705D01*
X164271745Y-61405316D01*
X164278500Y-61343134D01*
X164278500Y-58646866D01*
X164271745Y-58584684D01*
X164220615Y-58448295D01*
X164133261Y-58331739D01*
X164016705Y-58244385D01*
X163880316Y-58193255D01*
X163818134Y-58186500D01*
X161121866Y-58186500D01*
X161059684Y-58193255D01*
X160923295Y-58244385D01*
X160806739Y-58331739D01*
X160719385Y-58448295D01*
X160668255Y-58584684D01*
X160661500Y-58646866D01*
X160661500Y-61343134D01*
X160668255Y-61405316D01*
X160719385Y-61541705D01*
X160806739Y-61658261D01*
X160923295Y-61745615D01*
X161059684Y-61796745D01*
X161121866Y-61803500D01*
X161435500Y-61803500D01*
X161503621Y-61823502D01*
X161550114Y-61877158D01*
X161561500Y-61929500D01*
X161561500Y-65561497D01*
X161541498Y-65629618D01*
X161524595Y-65650592D01*
X157020933Y-70154254D01*
X156958621Y-70188280D01*
X156913225Y-70189139D01*
X156913201Y-70189392D01*
X156910975Y-70189182D01*
X156909737Y-70189205D01*
X156908058Y-70188906D01*
X156908052Y-70188905D01*
X156902963Y-70187999D01*
X156797183Y-70186707D01*
X156667907Y-70185127D01*
X156667905Y-70185127D01*
X156662737Y-70185064D01*
X156425256Y-70221404D01*
X156333724Y-70251321D01*
X156201817Y-70294434D01*
X156201811Y-70294437D01*
X156196899Y-70296042D01*
X156192313Y-70298429D01*
X156192309Y-70298431D01*
X156025387Y-70385326D01*
X155983800Y-70406975D01*
X155961209Y-70423937D01*
X155815514Y-70533328D01*
X155791680Y-70551223D01*
X155625699Y-70724912D01*
X155600465Y-70761903D01*
X155545556Y-70806904D01*
X155475032Y-70815075D01*
X155411284Y-70783821D01*
X155390589Y-70759340D01*
X155389311Y-70757365D01*
X155386502Y-70753023D01*
X155224814Y-70575330D01*
X155131243Y-70501432D01*
X155040330Y-70429633D01*
X155040325Y-70429630D01*
X155036276Y-70426432D01*
X155031760Y-70423939D01*
X155031757Y-70423937D01*
X154830474Y-70312823D01*
X154830470Y-70312821D01*
X154825950Y-70310326D01*
X154821081Y-70308602D01*
X154821077Y-70308600D01*
X154604360Y-70231856D01*
X154604356Y-70231855D01*
X154599485Y-70230130D01*
X154594392Y-70229223D01*
X154594389Y-70229222D01*
X154368052Y-70188905D01*
X154368046Y-70188904D01*
X154362963Y-70187999D01*
X154270474Y-70186869D01*
X154127907Y-70185127D01*
X154127905Y-70185127D01*
X154122737Y-70185064D01*
X153885256Y-70221404D01*
X153793724Y-70251321D01*
X153661817Y-70294434D01*
X153661811Y-70294437D01*
X153656899Y-70296042D01*
X153652313Y-70298429D01*
X153652309Y-70298431D01*
X153485387Y-70385326D01*
X153443800Y-70406975D01*
X153288717Y-70523415D01*
X153222235Y-70548320D01*
X153152839Y-70533328D01*
X153102565Y-70483198D01*
X153095085Y-70466885D01*
X153091269Y-70456707D01*
X153091267Y-70456704D01*
X153088115Y-70448295D01*
X153000761Y-70331739D01*
X152884205Y-70244385D01*
X152747816Y-70193255D01*
X152685634Y-70186500D01*
X151513503Y-70186500D01*
X151445382Y-70166498D01*
X151424408Y-70149595D01*
X150447313Y-69172500D01*
X152495628Y-69172500D01*
X152685634Y-69172500D01*
X152689042Y-69172546D01*
X152730251Y-69173661D01*
X152733657Y-69173799D01*
X152747265Y-69174536D01*
X152750667Y-69174767D01*
X152791752Y-69178109D01*
X152795144Y-69178431D01*
X152857326Y-69185186D01*
X152865136Y-69186283D01*
X152959109Y-69202493D01*
X152966837Y-69204076D01*
X152997459Y-69211357D01*
X153005074Y-69213422D01*
X153096290Y-69241245D01*
X153103759Y-69243781D01*
X153240148Y-69294911D01*
X153248420Y-69298353D01*
X153330946Y-69336181D01*
X153336998Y-69333924D01*
X153341875Y-69332218D01*
X153413290Y-69308876D01*
X155035628Y-69308876D01*
X155164432Y-69354488D01*
X155169265Y-69356312D01*
X155227254Y-69379564D01*
X155232010Y-69381585D01*
X155250844Y-69390049D01*
X155255513Y-69392264D01*
X155311423Y-69420200D01*
X155315999Y-69422604D01*
X155493064Y-69520349D01*
X155511051Y-69510027D01*
X155515584Y-69507548D01*
X155728683Y-69396615D01*
X155733314Y-69394324D01*
X155789881Y-69367765D01*
X155794604Y-69365664D01*
X155813640Y-69357662D01*
X155818444Y-69355758D01*
X155876997Y-69333924D01*
X155881875Y-69332218D01*
X156110232Y-69257580D01*
X156115176Y-69256075D01*
X156175324Y-69239112D01*
X156180326Y-69237812D01*
X156200412Y-69233027D01*
X156205463Y-69231933D01*
X156266787Y-69219958D01*
X156271876Y-69219072D01*
X156509357Y-69182732D01*
X156514478Y-69182055D01*
X156561628Y-69176807D01*
X156561628Y-68221066D01*
X155035628Y-68221066D01*
X155035628Y-69308876D01*
X153413290Y-69308876D01*
X153570232Y-69257580D01*
X153575176Y-69256075D01*
X153635324Y-69239112D01*
X153640326Y-69237812D01*
X153660412Y-69233027D01*
X153665463Y-69231933D01*
X153726787Y-69219958D01*
X153731876Y-69219072D01*
X153969357Y-69182732D01*
X153974478Y-69182055D01*
X154021628Y-69176807D01*
X154021628Y-68221066D01*
X152495628Y-68221066D01*
X152495628Y-69172500D01*
X150447313Y-69172500D01*
X148481879Y-67207066D01*
X149955628Y-67207066D01*
X151481628Y-67207066D01*
X152495628Y-67207066D01*
X154021628Y-67207066D01*
X155035628Y-67207066D01*
X156561628Y-67207066D01*
X157575628Y-67207066D01*
X158534111Y-67207066D01*
X159101628Y-66639549D01*
X159101628Y-65681066D01*
X157575628Y-65681066D01*
X157575628Y-67207066D01*
X156561628Y-67207066D01*
X156561628Y-65681066D01*
X155035628Y-65681066D01*
X155035628Y-67207066D01*
X154021628Y-67207066D01*
X154021628Y-65681066D01*
X152495628Y-65681066D01*
X152495628Y-67207066D01*
X151481628Y-67207066D01*
X151481628Y-65681066D01*
X149955628Y-65681066D01*
X149955628Y-67207066D01*
X148481879Y-67207066D01*
X145941879Y-64667066D01*
X147415628Y-64667066D01*
X148941628Y-64667066D01*
X149955628Y-64667066D01*
X151481628Y-64667066D01*
X152495628Y-64667066D01*
X154021628Y-64667066D01*
X155035628Y-64667066D01*
X156561628Y-64667066D01*
X157575628Y-64667066D01*
X159101628Y-64667066D01*
X160115628Y-64667066D01*
X160547500Y-64667066D01*
X160547500Y-63141066D01*
X160115628Y-63141066D01*
X160115628Y-64667066D01*
X159101628Y-64667066D01*
X159101628Y-63141066D01*
X157575628Y-63141066D01*
X157575628Y-64667066D01*
X156561628Y-64667066D01*
X156561628Y-63141066D01*
X155035628Y-63141066D01*
X155035628Y-64667066D01*
X154021628Y-64667066D01*
X154021628Y-63141066D01*
X152495628Y-63141066D01*
X152495628Y-64667066D01*
X151481628Y-64667066D01*
X151481628Y-63141066D01*
X149955628Y-63141066D01*
X149955628Y-64667066D01*
X148941628Y-64667066D01*
X148941628Y-63141066D01*
X147415628Y-63141066D01*
X147415628Y-64667066D01*
X145941879Y-64667066D01*
X141272339Y-59997526D01*
X144252050Y-59997526D01*
X144264947Y-60266019D01*
X144317388Y-60529656D01*
X144408220Y-60782646D01*
X144410432Y-60786762D01*
X144410433Y-60786765D01*
X144449978Y-60860361D01*
X144535450Y-61019431D01*
X144538241Y-61023168D01*
X144538245Y-61023175D01*
X144619887Y-61132506D01*
X144696281Y-61234810D01*
X144699590Y-61238090D01*
X144699595Y-61238096D01*
X144883863Y-61420762D01*
X144887180Y-61424050D01*
X144890942Y-61426808D01*
X144890945Y-61426811D01*
X144939912Y-61462715D01*
X145103954Y-61582995D01*
X145108089Y-61585171D01*
X145108093Y-61585173D01*
X145337698Y-61705975D01*
X145341840Y-61708154D01*
X145484346Y-61757919D01*
X145587584Y-61793971D01*
X145595613Y-61796775D01*
X145600206Y-61797647D01*
X145855109Y-61846042D01*
X145855112Y-61846042D01*
X145859698Y-61846913D01*
X145987370Y-61851929D01*
X146123625Y-61857283D01*
X146123630Y-61857283D01*
X146128293Y-61857466D01*
X146232607Y-61846042D01*
X146390844Y-61828713D01*
X146390850Y-61828712D01*
X146395497Y-61828203D01*
X146413353Y-61823502D01*
X146650918Y-61760956D01*
X146650920Y-61760955D01*
X146655441Y-61759765D01*
X146681040Y-61748767D01*
X146898120Y-61655502D01*
X146898122Y-61655501D01*
X146902414Y-61653657D01*
X147021071Y-61580230D01*
X147127017Y-61514669D01*
X147127021Y-61514666D01*
X147130990Y-61512210D01*
X147271648Y-61393134D01*
X149336500Y-61393134D01*
X149343255Y-61455316D01*
X149394385Y-61591705D01*
X149481739Y-61708261D01*
X149598295Y-61795615D01*
X149734684Y-61846745D01*
X149796866Y-61853500D01*
X152493134Y-61853500D01*
X152555316Y-61846745D01*
X152691705Y-61795615D01*
X152808261Y-61708261D01*
X152895615Y-61591705D01*
X152946745Y-61455316D01*
X152953500Y-61393134D01*
X152953500Y-59947526D01*
X155577050Y-59947526D01*
X155577274Y-59952192D01*
X155577274Y-59952197D01*
X155579482Y-59998160D01*
X155589947Y-60216019D01*
X155642388Y-60479656D01*
X155733220Y-60732646D01*
X155860450Y-60969431D01*
X155863241Y-60973168D01*
X155863245Y-60973175D01*
X155942642Y-61079500D01*
X156021281Y-61184810D01*
X156024590Y-61188090D01*
X156024595Y-61188096D01*
X156208863Y-61370762D01*
X156212180Y-61374050D01*
X156215942Y-61376808D01*
X156215945Y-61376811D01*
X156323013Y-61455316D01*
X156428954Y-61532995D01*
X156433089Y-61535171D01*
X156433093Y-61535173D01*
X156661799Y-61655502D01*
X156666840Y-61658154D01*
X156920613Y-61746775D01*
X156925206Y-61747647D01*
X157180109Y-61796042D01*
X157180112Y-61796042D01*
X157184698Y-61796913D01*
X157312370Y-61801929D01*
X157448625Y-61807283D01*
X157448630Y-61807283D01*
X157453293Y-61807466D01*
X157537927Y-61798197D01*
X157715844Y-61778713D01*
X157715850Y-61778712D01*
X157720497Y-61778203D01*
X157725021Y-61777012D01*
X157975918Y-61710956D01*
X157975920Y-61710955D01*
X157980441Y-61709765D01*
X157984738Y-61707919D01*
X158223120Y-61605502D01*
X158223122Y-61605501D01*
X158227414Y-61603657D01*
X158380068Y-61509192D01*
X158452017Y-61464669D01*
X158452021Y-61464666D01*
X158455990Y-61462210D01*
X158661149Y-61288530D01*
X158838382Y-61086434D01*
X158842843Y-61079500D01*
X158981269Y-60864291D01*
X158983797Y-60860361D01*
X159094199Y-60615278D01*
X159098207Y-60601066D01*
X159165893Y-60361072D01*
X159165894Y-60361069D01*
X159167163Y-60356568D01*
X159185043Y-60216019D01*
X159200688Y-60093045D01*
X159200688Y-60093041D01*
X159201086Y-60089915D01*
X159203571Y-59995000D01*
X159183650Y-59726937D01*
X159152001Y-59587066D01*
X159125361Y-59469331D01*
X159125360Y-59469326D01*
X159124327Y-59464763D01*
X159026902Y-59214238D01*
X158893518Y-58980864D01*
X158727105Y-58769769D01*
X158531317Y-58585591D01*
X158348571Y-58458815D01*
X158314299Y-58435039D01*
X158314296Y-58435037D01*
X158310457Y-58432374D01*
X158306264Y-58430306D01*
X158073564Y-58315551D01*
X158073561Y-58315550D01*
X158069376Y-58313486D01*
X158026531Y-58299771D01*
X157870330Y-58249771D01*
X157813370Y-58231538D01*
X157808763Y-58230788D01*
X157808760Y-58230787D01*
X157595337Y-58196029D01*
X157548063Y-58188330D01*
X157417719Y-58186624D01*
X157283961Y-58184873D01*
X157283958Y-58184873D01*
X157279284Y-58184812D01*
X157012937Y-58221060D01*
X156754874Y-58296278D01*
X156510763Y-58408815D01*
X156506854Y-58411378D01*
X156289881Y-58553631D01*
X156289876Y-58553635D01*
X156285968Y-58556197D01*
X156282476Y-58559314D01*
X156124534Y-58700283D01*
X156085426Y-58735188D01*
X155913544Y-58941854D01*
X155911121Y-58945847D01*
X155786353Y-59151458D01*
X155774096Y-59171656D01*
X155772287Y-59175970D01*
X155772285Y-59175974D01*
X155720727Y-59298927D01*
X155670148Y-59419545D01*
X155603981Y-59680077D01*
X155577050Y-59947526D01*
X152953500Y-59947526D01*
X152953500Y-58696866D01*
X152946745Y-58634684D01*
X152895615Y-58498295D01*
X152808261Y-58381739D01*
X152691705Y-58294385D01*
X152555316Y-58243255D01*
X152493134Y-58236500D01*
X149796866Y-58236500D01*
X149734684Y-58243255D01*
X149598295Y-58294385D01*
X149481739Y-58381739D01*
X149394385Y-58498295D01*
X149343255Y-58634684D01*
X149336500Y-58696866D01*
X149336500Y-61393134D01*
X147271648Y-61393134D01*
X147336149Y-61338530D01*
X147513382Y-61136434D01*
X147543284Y-61089947D01*
X147656269Y-60914291D01*
X147658797Y-60910361D01*
X147769199Y-60665278D01*
X147783301Y-60615278D01*
X147840893Y-60411072D01*
X147840894Y-60411069D01*
X147842163Y-60406568D01*
X147860043Y-60266019D01*
X147875688Y-60143045D01*
X147875688Y-60143041D01*
X147876086Y-60139915D01*
X147878571Y-60045000D01*
X147858650Y-59776937D01*
X147848047Y-59730077D01*
X147800361Y-59519331D01*
X147800360Y-59519326D01*
X147799327Y-59514763D01*
X147701902Y-59264238D01*
X147568518Y-59030864D01*
X147552465Y-59010500D01*
X147409802Y-58829533D01*
X147402105Y-58819769D01*
X147206317Y-58635591D01*
X147008407Y-58498295D01*
X146989299Y-58485039D01*
X146989296Y-58485037D01*
X146985457Y-58482374D01*
X146943865Y-58461863D01*
X146748564Y-58365551D01*
X146748561Y-58365550D01*
X146744376Y-58363486D01*
X146696745Y-58348239D01*
X146594627Y-58315551D01*
X146488370Y-58281538D01*
X146483763Y-58280788D01*
X146483760Y-58280787D01*
X146260242Y-58244385D01*
X146223063Y-58238330D01*
X146092719Y-58236624D01*
X145958961Y-58234873D01*
X145958958Y-58234873D01*
X145954284Y-58234812D01*
X145687937Y-58271060D01*
X145429874Y-58346278D01*
X145185763Y-58458815D01*
X145181854Y-58461378D01*
X144964881Y-58603631D01*
X144964876Y-58603635D01*
X144960968Y-58606197D01*
X144911574Y-58650283D01*
X144777638Y-58769826D01*
X144760426Y-58785188D01*
X144588544Y-58991854D01*
X144586121Y-58995847D01*
X144490456Y-59153498D01*
X144449096Y-59221656D01*
X144447287Y-59225970D01*
X144447285Y-59225974D01*
X144387340Y-59368928D01*
X144345148Y-59469545D01*
X144278981Y-59730077D01*
X144252050Y-59997526D01*
X141272339Y-59997526D01*
X140861879Y-59587066D01*
X142335628Y-59587066D01*
X143275724Y-59587066D01*
X143278381Y-59567861D01*
X143279107Y-59563245D01*
X143282350Y-59544854D01*
X143283247Y-59540270D01*
X143295115Y-59485027D01*
X143296181Y-59480477D01*
X143362348Y-59219945D01*
X143363582Y-59215437D01*
X143379517Y-59161209D01*
X143380918Y-59156750D01*
X143386844Y-59139040D01*
X143388408Y-59134638D01*
X143408309Y-59081763D01*
X143410036Y-59077422D01*
X143513984Y-58829533D01*
X143515869Y-58825260D01*
X143539623Y-58774025D01*
X143541665Y-58769826D01*
X143550143Y-58753185D01*
X143552343Y-58749058D01*
X143579865Y-58699659D01*
X143582216Y-58695617D01*
X143721664Y-58465815D01*
X143724164Y-58461863D01*
X143755266Y-58414653D01*
X143757909Y-58410799D01*
X143768754Y-58395596D01*
X143771535Y-58391846D01*
X143806017Y-58347111D01*
X143808938Y-58343464D01*
X143861628Y-58280111D01*
X143861628Y-58061066D01*
X142335628Y-58061066D01*
X142335628Y-59587066D01*
X140861879Y-59587066D01*
X140734981Y-59460168D01*
X140722140Y-59445135D01*
X140717746Y-59439087D01*
X140717745Y-59439086D01*
X140713866Y-59433747D01*
X140663041Y-59387984D01*
X140658256Y-59383443D01*
X140643741Y-59368928D01*
X140636282Y-59362888D01*
X140627784Y-59356006D01*
X140622769Y-59351722D01*
X140576855Y-59310381D01*
X140576850Y-59310377D01*
X140571944Y-59305960D01*
X140566228Y-59302660D01*
X140566224Y-59302657D01*
X140559763Y-59298927D01*
X140543466Y-59287727D01*
X140537660Y-59283025D01*
X140537658Y-59283024D01*
X140532530Y-59278871D01*
X140471577Y-59247814D01*
X140465782Y-59244667D01*
X140412279Y-59213777D01*
X140412278Y-59213776D01*
X140406556Y-59210473D01*
X140400274Y-59208432D01*
X140400272Y-59208431D01*
X140393174Y-59206125D01*
X140374907Y-59198559D01*
X140362370Y-59192171D01*
X140296299Y-59174467D01*
X140289997Y-59172600D01*
X140224928Y-59151458D01*
X140218363Y-59150768D01*
X140218354Y-59150766D01*
X140210925Y-59149985D01*
X140191491Y-59146383D01*
X140184286Y-59144453D01*
X140184284Y-59144453D01*
X140177903Y-59142743D01*
X140171312Y-59142398D01*
X140171308Y-59142397D01*
X140109616Y-59139164D01*
X140103042Y-59138647D01*
X140085884Y-59136844D01*
X140085882Y-59136844D01*
X140082610Y-59136500D01*
X140062074Y-59136500D01*
X140055480Y-59136327D01*
X139993782Y-59133093D01*
X139993777Y-59133093D01*
X139987190Y-59132748D01*
X139973292Y-59134949D01*
X139953583Y-59136500D01*
X128204500Y-59136500D01*
X128136379Y-59116498D01*
X128089886Y-59062842D01*
X128078500Y-59010500D01*
X128078500Y-58696866D01*
X128071745Y-58634684D01*
X128020615Y-58498295D01*
X127933261Y-58381739D01*
X127816705Y-58294385D01*
X127680316Y-58243255D01*
X127618134Y-58236500D01*
X124921866Y-58236500D01*
X124859684Y-58243255D01*
X124723295Y-58294385D01*
X124606739Y-58381739D01*
X124519385Y-58498295D01*
X124468255Y-58634684D01*
X124461500Y-58696866D01*
X124461500Y-61393134D01*
X124468255Y-61455316D01*
X124519385Y-61591705D01*
X124606739Y-61708261D01*
X124723295Y-61795615D01*
X124859684Y-61846745D01*
X124921866Y-61853500D01*
X125235500Y-61853500D01*
X125303621Y-61873502D01*
X125350114Y-61927158D01*
X125361500Y-61979500D01*
X125361500Y-65481497D01*
X125341498Y-65549618D01*
X125324595Y-65570592D01*
X120670592Y-70224595D01*
X120608280Y-70258621D01*
X120581497Y-70261500D01*
X119409366Y-70261500D01*
X119347184Y-70268255D01*
X119210795Y-70319385D01*
X119094239Y-70406739D01*
X119006885Y-70523295D01*
X118955755Y-70659684D01*
X118949000Y-70721866D01*
X118949000Y-72818134D01*
X118955755Y-72880316D01*
X119006885Y-73016705D01*
X119094239Y-73133261D01*
X119210795Y-73220615D01*
X119347184Y-73271745D01*
X119389108Y-73276299D01*
X119454669Y-73303540D01*
X119495096Y-73361903D01*
X119501500Y-73401562D01*
X119501500Y-73628583D01*
X119499949Y-73648292D01*
X119497748Y-73662190D01*
X119498093Y-73668777D01*
X119498093Y-73668782D01*
X119501327Y-73730480D01*
X119501500Y-73737074D01*
X119501500Y-73757610D01*
X119501844Y-73760882D01*
X119501844Y-73760884D01*
X119503647Y-73778042D01*
X119504164Y-73784616D01*
X119506896Y-73836736D01*
X119507743Y-73852903D01*
X119509453Y-73859284D01*
X119509453Y-73859286D01*
X119511383Y-73866491D01*
X119514985Y-73885925D01*
X119515766Y-73893354D01*
X119515768Y-73893363D01*
X119516458Y-73899928D01*
X119537600Y-73964997D01*
X119539467Y-73971299D01*
X119557171Y-74037370D01*
X119563559Y-74049907D01*
X119571125Y-74068173D01*
X119575473Y-74081556D01*
X119578776Y-74087278D01*
X119578777Y-74087279D01*
X119609667Y-74140782D01*
X119612814Y-74146577D01*
X119643871Y-74207530D01*
X119648024Y-74212658D01*
X119648025Y-74212660D01*
X119652727Y-74218466D01*
X119663927Y-74234763D01*
X119667657Y-74241224D01*
X119667660Y-74241228D01*
X119670960Y-74246944D01*
X119675377Y-74251850D01*
X119675381Y-74251855D01*
X119716722Y-74297769D01*
X119721006Y-74302784D01*
X119733928Y-74318741D01*
X119748443Y-74333256D01*
X119752984Y-74338041D01*
X119798747Y-74388866D01*
X119804086Y-74392745D01*
X119804087Y-74392746D01*
X119810135Y-74397140D01*
X119825168Y-74409981D01*
X121719397Y-76304210D01*
X121753423Y-76366522D01*
X121748358Y-76437337D01*
X121705811Y-76494173D01*
X121641284Y-76518826D01*
X121599039Y-76522522D01*
X121496913Y-76531457D01*
X121491600Y-76532881D01*
X121491598Y-76532881D01*
X121281067Y-76589293D01*
X121281065Y-76589294D01*
X121275757Y-76590716D01*
X121270776Y-76593039D01*
X121270775Y-76593039D01*
X121073238Y-76685151D01*
X121073233Y-76685154D01*
X121068251Y-76687477D01*
X121003408Y-76732881D01*
X120885211Y-76815643D01*
X120885208Y-76815645D01*
X120880700Y-76818802D01*
X120718802Y-76980700D01*
X120715645Y-76985208D01*
X120715643Y-76985211D01*
X120644620Y-77086643D01*
X120587477Y-77168251D01*
X120585154Y-77173233D01*
X120584118Y-77175027D01*
X120532734Y-77224019D01*
X120463021Y-77237454D01*
X120397110Y-77211066D01*
X120365882Y-77175027D01*
X120364846Y-77173233D01*
X120362523Y-77168251D01*
X120305380Y-77086643D01*
X120234357Y-76985211D01*
X120234355Y-76985208D01*
X120231198Y-76980700D01*
X120069300Y-76818802D01*
X120064792Y-76815645D01*
X120064789Y-76815643D01*
X119946592Y-76732881D01*
X119881749Y-76687477D01*
X119876767Y-76685154D01*
X119876762Y-76685151D01*
X119679225Y-76593039D01*
X119679224Y-76593039D01*
X119674243Y-76590716D01*
X119668935Y-76589294D01*
X119668933Y-76589293D01*
X119458402Y-76532881D01*
X119458400Y-76532881D01*
X119453087Y-76531457D01*
X119225000Y-76511502D01*
X118996913Y-76531457D01*
X118991600Y-76532881D01*
X118991598Y-76532881D01*
X118781067Y-76589293D01*
X118781065Y-76589294D01*
X118775757Y-76590716D01*
X118770776Y-76593039D01*
X118770775Y-76593039D01*
X118573238Y-76685151D01*
X118573233Y-76685154D01*
X118568251Y-76687477D01*
X118503408Y-76732881D01*
X118385211Y-76815643D01*
X118385208Y-76815645D01*
X118380700Y-76818802D01*
X118218802Y-76980700D01*
X118215645Y-76985208D01*
X118215643Y-76985211D01*
X118178856Y-77037749D01*
X118087477Y-77168251D01*
X118085154Y-77173233D01*
X118085151Y-77173238D01*
X117999432Y-77357065D01*
X117990716Y-77375757D01*
X117989294Y-77381065D01*
X117989293Y-77381067D01*
X117954689Y-77510211D01*
X117931457Y-77596913D01*
X117911502Y-77825000D01*
X117931457Y-78053087D01*
X117932881Y-78058400D01*
X117932881Y-78058402D01*
X117986471Y-78258399D01*
X117990716Y-78274243D01*
X117993039Y-78279224D01*
X117993039Y-78279225D01*
X118085151Y-78476762D01*
X118085154Y-78476767D01*
X118087477Y-78481749D01*
X118137429Y-78553087D01*
X118203138Y-78646929D01*
X118218802Y-78669300D01*
X118380700Y-78831198D01*
X118385208Y-78834355D01*
X118385211Y-78834357D01*
X118463389Y-78889098D01*
X118568251Y-78962523D01*
X118573233Y-78964846D01*
X118573238Y-78964849D01*
X118770775Y-79056961D01*
X118775757Y-79059284D01*
X118781065Y-79060706D01*
X118781067Y-79060707D01*
X118991598Y-79117119D01*
X118991600Y-79117119D01*
X118996913Y-79118543D01*
X119225000Y-79138498D01*
X119453087Y-79118543D01*
X119458400Y-79117119D01*
X119458402Y-79117119D01*
X119668933Y-79060707D01*
X119668935Y-79060706D01*
X119674243Y-79059284D01*
X119679225Y-79056961D01*
X119876762Y-78964849D01*
X119876767Y-78964846D01*
X119881749Y-78962523D01*
X119986611Y-78889098D01*
X120064789Y-78834357D01*
X120064792Y-78834355D01*
X120069300Y-78831198D01*
X120231198Y-78669300D01*
X120246863Y-78646929D01*
X120338190Y-78516500D01*
X120362523Y-78481749D01*
X120364846Y-78476767D01*
X120365882Y-78474973D01*
X120417266Y-78425981D01*
X120486979Y-78412546D01*
X120552890Y-78438934D01*
X120584118Y-78474973D01*
X120585154Y-78476767D01*
X120587477Y-78481749D01*
X120611810Y-78516500D01*
X120703138Y-78646929D01*
X120718802Y-78669300D01*
X120880700Y-78831198D01*
X120885208Y-78834355D01*
X120885211Y-78834357D01*
X120963389Y-78889098D01*
X121068251Y-78962523D01*
X121073233Y-78964846D01*
X121073238Y-78964849D01*
X121270775Y-79056961D01*
X121275757Y-79059284D01*
X121281065Y-79060706D01*
X121281067Y-79060707D01*
X121491598Y-79117119D01*
X121491600Y-79117119D01*
X121496913Y-79118543D01*
X121725000Y-79138498D01*
X121953087Y-79118543D01*
X121958400Y-79117119D01*
X121958402Y-79117119D01*
X122168933Y-79060707D01*
X122168935Y-79060706D01*
X122174243Y-79059284D01*
X122179225Y-79056961D01*
X122376762Y-78964849D01*
X122376767Y-78964846D01*
X122381749Y-78962523D01*
X122486611Y-78889098D01*
X122564789Y-78834357D01*
X122564792Y-78834355D01*
X122569300Y-78831198D01*
X122731198Y-78669300D01*
X122746863Y-78646929D01*
X122812571Y-78553087D01*
X122862523Y-78481749D01*
X122864846Y-78476767D01*
X122864849Y-78476762D01*
X122956961Y-78279225D01*
X122956961Y-78279224D01*
X122959284Y-78274243D01*
X122963530Y-78258399D01*
X123017119Y-78058402D01*
X123017119Y-78058400D01*
X123018543Y-78053087D01*
X123031174Y-77908716D01*
X123057038Y-77842598D01*
X123114541Y-77800959D01*
X123185428Y-77797018D01*
X123245790Y-77830603D01*
X123701323Y-78286136D01*
X123735349Y-78348448D01*
X123737748Y-78364246D01*
X123743754Y-78432892D01*
X123755977Y-78572606D01*
X123755978Y-78572611D01*
X123756457Y-78578087D01*
X123757881Y-78583400D01*
X123757881Y-78583402D01*
X123799817Y-78739906D01*
X123815716Y-78799243D01*
X123818039Y-78804224D01*
X123818039Y-78804225D01*
X123910151Y-79001762D01*
X123910154Y-79001767D01*
X123912477Y-79006749D01*
X123981527Y-79105362D01*
X124026297Y-79169300D01*
X124043802Y-79194300D01*
X124205700Y-79356198D01*
X124210208Y-79359355D01*
X124210211Y-79359357D01*
X124254288Y-79390220D01*
X124393251Y-79487523D01*
X124398233Y-79489846D01*
X124398238Y-79489849D01*
X124595775Y-79581961D01*
X124600757Y-79584284D01*
X124606065Y-79585706D01*
X124606067Y-79585707D01*
X124816598Y-79642119D01*
X124816600Y-79642119D01*
X124821913Y-79643543D01*
X125050000Y-79663498D01*
X125278087Y-79643543D01*
X125283400Y-79642119D01*
X125283402Y-79642119D01*
X125493933Y-79585707D01*
X125493935Y-79585706D01*
X125499243Y-79584284D01*
X125504225Y-79581961D01*
X125701762Y-79489849D01*
X125701767Y-79489846D01*
X125706749Y-79487523D01*
X125845712Y-79390220D01*
X125889789Y-79359357D01*
X125889792Y-79359355D01*
X125894300Y-79356198D01*
X126056198Y-79194300D01*
X126073704Y-79169300D01*
X126118473Y-79105362D01*
X126187523Y-79006749D01*
X126189846Y-79001767D01*
X126189849Y-79001762D01*
X126281961Y-78804225D01*
X126281961Y-78804224D01*
X126284284Y-78799243D01*
X126300184Y-78739906D01*
X126342119Y-78583402D01*
X126342119Y-78583400D01*
X126343543Y-78578087D01*
X126363498Y-78350000D01*
X128736502Y-78350000D01*
X128756457Y-78578087D01*
X128757881Y-78583400D01*
X128757881Y-78583402D01*
X128799817Y-78739906D01*
X128815716Y-78799243D01*
X128818039Y-78804224D01*
X128818039Y-78804225D01*
X128910151Y-79001762D01*
X128910154Y-79001767D01*
X128912477Y-79006749D01*
X128981527Y-79105362D01*
X129026297Y-79169300D01*
X129043802Y-79194300D01*
X129205700Y-79356198D01*
X129210208Y-79359355D01*
X129210211Y-79359357D01*
X129254288Y-79390220D01*
X129393251Y-79487523D01*
X129398233Y-79489846D01*
X129398238Y-79489849D01*
X129595775Y-79581961D01*
X129600757Y-79584284D01*
X129606065Y-79585706D01*
X129606067Y-79585707D01*
X129816598Y-79642119D01*
X129816600Y-79642119D01*
X129821913Y-79643543D01*
X130050000Y-79663498D01*
X130278087Y-79643543D01*
X130283400Y-79642119D01*
X130283402Y-79642119D01*
X130493933Y-79585707D01*
X130493935Y-79585706D01*
X130499243Y-79584284D01*
X130504225Y-79581961D01*
X130701762Y-79489849D01*
X130701767Y-79489846D01*
X130706749Y-79487523D01*
X130845712Y-79390220D01*
X130889789Y-79359357D01*
X130889792Y-79359355D01*
X130894300Y-79356198D01*
X131056198Y-79194300D01*
X131073704Y-79169300D01*
X131118473Y-79105362D01*
X131187523Y-79006749D01*
X131189846Y-79001767D01*
X131189849Y-79001762D01*
X131281961Y-78804225D01*
X131281961Y-78804224D01*
X131284284Y-78799243D01*
X131300184Y-78739906D01*
X131342119Y-78583402D01*
X131342119Y-78583400D01*
X131343543Y-78578087D01*
X131363498Y-78350000D01*
X131361311Y-78325000D01*
X132376502Y-78325000D01*
X132396457Y-78553087D01*
X132397881Y-78558400D01*
X132397881Y-78558402D01*
X132447419Y-78743277D01*
X132455716Y-78774243D01*
X132458039Y-78779224D01*
X132458039Y-78779225D01*
X132550151Y-78976762D01*
X132550154Y-78976767D01*
X132552477Y-78981749D01*
X132605141Y-79056961D01*
X132679057Y-79162523D01*
X132683802Y-79169300D01*
X132845700Y-79331198D01*
X132850208Y-79334355D01*
X132850211Y-79334357D01*
X132906366Y-79373677D01*
X133033251Y-79462523D01*
X133038233Y-79464846D01*
X133038238Y-79464849D01*
X133235775Y-79556961D01*
X133240757Y-79559284D01*
X133246065Y-79560706D01*
X133246067Y-79560707D01*
X133456598Y-79617119D01*
X133456600Y-79617119D01*
X133461913Y-79618543D01*
X133690000Y-79638498D01*
X133918087Y-79618543D01*
X133923400Y-79617119D01*
X133923402Y-79617119D01*
X134133933Y-79560707D01*
X134133935Y-79560706D01*
X134139243Y-79559284D01*
X134144225Y-79556961D01*
X134341762Y-79464849D01*
X134341767Y-79464846D01*
X134346749Y-79462523D01*
X134473634Y-79373677D01*
X134529789Y-79334357D01*
X134529792Y-79334355D01*
X134534300Y-79331198D01*
X134696198Y-79169300D01*
X134700944Y-79162523D01*
X134774859Y-79056961D01*
X134827523Y-78981749D01*
X134829846Y-78976767D01*
X134829849Y-78976762D01*
X134921961Y-78779225D01*
X134921961Y-78779224D01*
X134924284Y-78774243D01*
X134932582Y-78743277D01*
X134982119Y-78558402D01*
X134982119Y-78558400D01*
X134983543Y-78553087D01*
X135003498Y-78325000D01*
X134983543Y-78096913D01*
X134971800Y-78053087D01*
X134925707Y-77881067D01*
X134925706Y-77881065D01*
X134924284Y-77875757D01*
X134908822Y-77842598D01*
X134829849Y-77673238D01*
X134829846Y-77673233D01*
X134827523Y-77668251D01*
X134716862Y-77510211D01*
X134699357Y-77485211D01*
X134699355Y-77485208D01*
X134696198Y-77480700D01*
X134534300Y-77318802D01*
X134529792Y-77315645D01*
X134529789Y-77315643D01*
X134426806Y-77243534D01*
X134346749Y-77187477D01*
X134341767Y-77185154D01*
X134341762Y-77185151D01*
X134144225Y-77093039D01*
X134144224Y-77093039D01*
X134139243Y-77090716D01*
X134133935Y-77089294D01*
X134133933Y-77089293D01*
X133923402Y-77032881D01*
X133923400Y-77032881D01*
X133918087Y-77031457D01*
X133690000Y-77011502D01*
X133461913Y-77031457D01*
X133456600Y-77032881D01*
X133456598Y-77032881D01*
X133246067Y-77089293D01*
X133246065Y-77089294D01*
X133240757Y-77090716D01*
X133235776Y-77093039D01*
X133235775Y-77093039D01*
X133038238Y-77185151D01*
X133038233Y-77185154D01*
X133033251Y-77187477D01*
X132953194Y-77243534D01*
X132850211Y-77315643D01*
X132850208Y-77315645D01*
X132845700Y-77318802D01*
X132683802Y-77480700D01*
X132680645Y-77485208D01*
X132680643Y-77485211D01*
X132663138Y-77510211D01*
X132552477Y-77668251D01*
X132550154Y-77673233D01*
X132550151Y-77673238D01*
X132471178Y-77842598D01*
X132455716Y-77875757D01*
X132454294Y-77881065D01*
X132454293Y-77881067D01*
X132408200Y-78053087D01*
X132396457Y-78096913D01*
X132376502Y-78325000D01*
X131361311Y-78325000D01*
X131343543Y-78121913D01*
X131341951Y-78115970D01*
X131285707Y-77906067D01*
X131285706Y-77906065D01*
X131284284Y-77900757D01*
X131281378Y-77894525D01*
X131189849Y-77698238D01*
X131189846Y-77698233D01*
X131187523Y-77693251D01*
X131071388Y-77527393D01*
X131059357Y-77510211D01*
X131059355Y-77510208D01*
X131056198Y-77505700D01*
X130894300Y-77343802D01*
X130889792Y-77340645D01*
X130889789Y-77340643D01*
X130811611Y-77285902D01*
X130706749Y-77212477D01*
X130701767Y-77210154D01*
X130701762Y-77210151D01*
X130504225Y-77118039D01*
X130504224Y-77118039D01*
X130499243Y-77115716D01*
X130493935Y-77114294D01*
X130493933Y-77114293D01*
X130283402Y-77057881D01*
X130283400Y-77057881D01*
X130278087Y-77056457D01*
X130050000Y-77036502D01*
X129821913Y-77056457D01*
X129816600Y-77057881D01*
X129816598Y-77057881D01*
X129606067Y-77114293D01*
X129606065Y-77114294D01*
X129600757Y-77115716D01*
X129595776Y-77118039D01*
X129595775Y-77118039D01*
X129398238Y-77210151D01*
X129398233Y-77210154D01*
X129393251Y-77212477D01*
X129288389Y-77285902D01*
X129210211Y-77340643D01*
X129210208Y-77340645D01*
X129205700Y-77343802D01*
X129043802Y-77505700D01*
X129040645Y-77510208D01*
X129040643Y-77510211D01*
X129028612Y-77527393D01*
X128912477Y-77693251D01*
X128910154Y-77698233D01*
X128910151Y-77698238D01*
X128818622Y-77894525D01*
X128815716Y-77900757D01*
X128814294Y-77906065D01*
X128814293Y-77906067D01*
X128758049Y-78115970D01*
X128756457Y-78121913D01*
X128736502Y-78350000D01*
X126363498Y-78350000D01*
X126343543Y-78121913D01*
X126341951Y-78115970D01*
X126285707Y-77906067D01*
X126285706Y-77906065D01*
X126284284Y-77900757D01*
X126281378Y-77894525D01*
X126189849Y-77698238D01*
X126189846Y-77698233D01*
X126187523Y-77693251D01*
X126071388Y-77527393D01*
X126059357Y-77510211D01*
X126059355Y-77510208D01*
X126056198Y-77505700D01*
X125894300Y-77343802D01*
X125889792Y-77340645D01*
X125889789Y-77340643D01*
X125811611Y-77285902D01*
X125751103Y-77243534D01*
X127095628Y-77243534D01*
X127104089Y-77259788D01*
X127106520Y-77264718D01*
X127154245Y-77367066D01*
X127945755Y-77367066D01*
X127993480Y-77264718D01*
X127995911Y-77259788D01*
X128026610Y-77200815D01*
X128029255Y-77195994D01*
X128040237Y-77176973D01*
X128043089Y-77172273D01*
X128078804Y-77116213D01*
X128081858Y-77111643D01*
X128213183Y-76924092D01*
X128216435Y-76919657D01*
X128256919Y-76866899D01*
X128260361Y-76862610D01*
X128274479Y-76845786D01*
X128278103Y-76841655D01*
X128322997Y-76792664D01*
X128326797Y-76788695D01*
X128488695Y-76626797D01*
X128492664Y-76622997D01*
X128541655Y-76578103D01*
X128545786Y-76574479D01*
X128562610Y-76560361D01*
X128564772Y-76558626D01*
X132175628Y-76558626D01*
X132181655Y-76553103D01*
X132185786Y-76549479D01*
X132202610Y-76535361D01*
X132206899Y-76531919D01*
X132259657Y-76491435D01*
X132264092Y-76488183D01*
X132451643Y-76356858D01*
X132456213Y-76353804D01*
X132512273Y-76318089D01*
X132516973Y-76315237D01*
X132535994Y-76304255D01*
X132540815Y-76301610D01*
X132599788Y-76270911D01*
X132604718Y-76268480D01*
X132664372Y-76240663D01*
X134715628Y-76240663D01*
X134775282Y-76268480D01*
X134780212Y-76270911D01*
X134839185Y-76301610D01*
X134844006Y-76304255D01*
X134863027Y-76315237D01*
X134867727Y-76318089D01*
X134923787Y-76353804D01*
X134928357Y-76356858D01*
X135115908Y-76488183D01*
X135120343Y-76491435D01*
X135173101Y-76531919D01*
X135177390Y-76535361D01*
X135194214Y-76549479D01*
X135198345Y-76553103D01*
X135247336Y-76597997D01*
X135251305Y-76601797D01*
X135413203Y-76763695D01*
X135417003Y-76767664D01*
X135461897Y-76816655D01*
X135465521Y-76820786D01*
X135479639Y-76837610D01*
X135483081Y-76841899D01*
X135523565Y-76894657D01*
X135526817Y-76899092D01*
X135658142Y-77086643D01*
X135661196Y-77091213D01*
X135696911Y-77147273D01*
X135699763Y-77151973D01*
X135710745Y-77170994D01*
X135713390Y-77175815D01*
X135744089Y-77234788D01*
X135746520Y-77239718D01*
X135805903Y-77367066D01*
X136241628Y-77367066D01*
X136241628Y-75975451D01*
X136107243Y-75841066D01*
X134715628Y-75841066D01*
X134715628Y-76240663D01*
X132664372Y-76240663D01*
X132812224Y-76171719D01*
X132817254Y-76169506D01*
X132878667Y-76144067D01*
X132883792Y-76142074D01*
X132904431Y-76134562D01*
X132909638Y-76132794D01*
X132973037Y-76112805D01*
X132978314Y-76111267D01*
X133199470Y-76052008D01*
X133204809Y-76050702D01*
X133269703Y-76036315D01*
X133275094Y-76035242D01*
X133296723Y-76031428D01*
X133302157Y-76030592D01*
X133368071Y-76021914D01*
X133373536Y-76021315D01*
X133601623Y-76001360D01*
X133607108Y-76001001D01*
X133673521Y-75998101D01*
X133679018Y-75997981D01*
X133700982Y-75997981D01*
X133701628Y-75997995D01*
X133701628Y-75841066D01*
X132175628Y-75841066D01*
X132175628Y-76558626D01*
X128564772Y-76558626D01*
X128566899Y-76556919D01*
X128619657Y-76516435D01*
X128621628Y-76514990D01*
X128621628Y-75841066D01*
X127095628Y-75841066D01*
X127095628Y-77243534D01*
X125751103Y-77243534D01*
X125706749Y-77212477D01*
X125701767Y-77210154D01*
X125701762Y-77210151D01*
X125504225Y-77118039D01*
X125504224Y-77118039D01*
X125499243Y-77115716D01*
X125493935Y-77114294D01*
X125493933Y-77114293D01*
X125283402Y-77057881D01*
X125283400Y-77057881D01*
X125278087Y-77056457D01*
X125272611Y-77055978D01*
X125272606Y-77055977D01*
X125142904Y-77044630D01*
X125064249Y-77037749D01*
X124998131Y-77011886D01*
X124986136Y-77001323D01*
X124430839Y-76446026D01*
X124396813Y-76383714D01*
X124401878Y-76312899D01*
X124444425Y-76256063D01*
X124495986Y-76235846D01*
X124495487Y-76233500D01*
X124682288Y-76193794D01*
X124736840Y-76169506D01*
X124850722Y-76118803D01*
X124850724Y-76118802D01*
X124856752Y-76116118D01*
X125011253Y-76003866D01*
X125139040Y-75861944D01*
X125234527Y-75696556D01*
X125293542Y-75514928D01*
X125313504Y-75325000D01*
X125309190Y-75283955D01*
X125308500Y-75270784D01*
X125308500Y-74827066D01*
X127095628Y-74827066D01*
X128621628Y-74827066D01*
X129635628Y-74827066D01*
X131161628Y-74827066D01*
X132175628Y-74827066D01*
X133701628Y-74827066D01*
X133701628Y-73470405D01*
X133527958Y-73492653D01*
X133522819Y-73493204D01*
X133460536Y-73498598D01*
X133455377Y-73498938D01*
X133434750Y-73499874D01*
X133429585Y-73500003D01*
X133367121Y-73500274D01*
X133361957Y-73500190D01*
X133130500Y-73491703D01*
X133125343Y-73491408D01*
X133063072Y-73486563D01*
X133057932Y-73486057D01*
X133037429Y-73483613D01*
X133032311Y-73482896D01*
X132970585Y-73472956D01*
X132965497Y-73472030D01*
X132738535Y-73425854D01*
X132733491Y-73424719D01*
X132672814Y-73409758D01*
X132667824Y-73408419D01*
X132647995Y-73402658D01*
X132643064Y-73401115D01*
X132583824Y-73381236D01*
X132578960Y-73379492D01*
X132373584Y-73301066D01*
X132175628Y-73301066D01*
X132175628Y-74827066D01*
X131161628Y-74827066D01*
X131161628Y-73301066D01*
X129635628Y-73301066D01*
X129635628Y-74827066D01*
X128621628Y-74827066D01*
X128621628Y-73301066D01*
X127474085Y-73301066D01*
X127466963Y-73311506D01*
X127463965Y-73315713D01*
X127426661Y-73365852D01*
X127423491Y-73369935D01*
X127410497Y-73385981D01*
X127407163Y-73389929D01*
X127365882Y-73436835D01*
X127362390Y-73440643D01*
X127196409Y-73614332D01*
X127192761Y-73617996D01*
X127147768Y-73661368D01*
X127143976Y-73664876D01*
X127128535Y-73678585D01*
X127124602Y-73681935D01*
X127095628Y-73705608D01*
X127095628Y-74827066D01*
X125308500Y-74827066D01*
X125308500Y-73404018D01*
X125328502Y-73335897D01*
X125382158Y-73289404D01*
X125436039Y-73278027D01*
X125538237Y-73279276D01*
X125587094Y-73279873D01*
X125587096Y-73279873D01*
X125592263Y-73279936D01*
X125829744Y-73243596D01*
X125953548Y-73203131D01*
X126053183Y-73170566D01*
X126053189Y-73170563D01*
X126058101Y-73168958D01*
X126062687Y-73166571D01*
X126062691Y-73166569D01*
X126266607Y-73060416D01*
X126271200Y-73058025D01*
X126359070Y-72992050D01*
X126459185Y-72916882D01*
X126459188Y-72916880D01*
X126463320Y-72913777D01*
X126629301Y-72740088D01*
X126720648Y-72606179D01*
X126761774Y-72545891D01*
X126761775Y-72545890D01*
X126764686Y-72541622D01*
X126791666Y-72483500D01*
X126863658Y-72328405D01*
X126863659Y-72328401D01*
X126865837Y-72323710D01*
X126930040Y-72092202D01*
X126930590Y-72087053D01*
X126930813Y-72085886D01*
X126963228Y-72022721D01*
X127024646Y-71987108D01*
X127054581Y-71983500D01*
X132200858Y-71983500D01*
X132268979Y-72003502D01*
X132296094Y-72027001D01*
X132346147Y-72084784D01*
X132524349Y-72232730D01*
X132724322Y-72349584D01*
X132940694Y-72432209D01*
X132945760Y-72433240D01*
X132945761Y-72433240D01*
X132998846Y-72444040D01*
X133167656Y-72478385D01*
X133298324Y-72483176D01*
X133393949Y-72486683D01*
X133393953Y-72486683D01*
X133399113Y-72486872D01*
X133404233Y-72486216D01*
X133404235Y-72486216D01*
X133499812Y-72473972D01*
X133628847Y-72457442D01*
X133633795Y-72455957D01*
X133633802Y-72455956D01*
X133845747Y-72392369D01*
X133850690Y-72390886D01*
X133931236Y-72351427D01*
X134054049Y-72291262D01*
X134054052Y-72291260D01*
X134058684Y-72288991D01*
X134247243Y-72154494D01*
X134292309Y-72109585D01*
X134354681Y-72075669D01*
X134425487Y-72080857D01*
X134482249Y-72123503D01*
X134499231Y-72154607D01*
X134524385Y-72221705D01*
X134611739Y-72338261D01*
X134728295Y-72425615D01*
X134736703Y-72428767D01*
X134857286Y-72473972D01*
X134857289Y-72473973D01*
X134864684Y-72476745D01*
X134870453Y-72477372D01*
X134931291Y-72512126D01*
X134964113Y-72575081D01*
X134966500Y-72599493D01*
X134966500Y-72808583D01*
X134964949Y-72828292D01*
X134962748Y-72842190D01*
X134963093Y-72848777D01*
X134963093Y-72848781D01*
X134966327Y-72910476D01*
X134966500Y-72917071D01*
X134966500Y-72937610D01*
X134966844Y-72940882D01*
X134966844Y-72940884D01*
X134968647Y-72958042D01*
X134969164Y-72964616D01*
X134972271Y-73023891D01*
X134972743Y-73032903D01*
X134974453Y-73039284D01*
X134974453Y-73039286D01*
X134976383Y-73046491D01*
X134979985Y-73065925D01*
X134980766Y-73073354D01*
X134980768Y-73073363D01*
X134981458Y-73079928D01*
X135002600Y-73144997D01*
X135004467Y-73151299D01*
X135005372Y-73154674D01*
X135018455Y-73203500D01*
X135022171Y-73217370D01*
X135025431Y-73223768D01*
X135028559Y-73229907D01*
X135036125Y-73248173D01*
X135040473Y-73261556D01*
X135043776Y-73267278D01*
X135043777Y-73267279D01*
X135074667Y-73320782D01*
X135077814Y-73326577D01*
X135108871Y-73387530D01*
X135113024Y-73392658D01*
X135113025Y-73392660D01*
X135117727Y-73398466D01*
X135128927Y-73414763D01*
X135132657Y-73421224D01*
X135132660Y-73421228D01*
X135135960Y-73426944D01*
X135140377Y-73431850D01*
X135140381Y-73431855D01*
X135181722Y-73477769D01*
X135186006Y-73482784D01*
X135189732Y-73487385D01*
X135198928Y-73498741D01*
X135213443Y-73513256D01*
X135217984Y-73518041D01*
X135263747Y-73568866D01*
X135269086Y-73572745D01*
X135269087Y-73572746D01*
X135275135Y-73577140D01*
X135290168Y-73589981D01*
X139961323Y-78261136D01*
X139995349Y-78323448D01*
X139997748Y-78339246D01*
X139999936Y-78364250D01*
X140015977Y-78547606D01*
X140015978Y-78547611D01*
X140016457Y-78553087D01*
X140017881Y-78558400D01*
X140017881Y-78558402D01*
X140067419Y-78743277D01*
X140075716Y-78774243D01*
X140078039Y-78779224D01*
X140078039Y-78779225D01*
X140170151Y-78976762D01*
X140170154Y-78976767D01*
X140172477Y-78981749D01*
X140225141Y-79056961D01*
X140299057Y-79162523D01*
X140303802Y-79169300D01*
X140465700Y-79331198D01*
X140470208Y-79334355D01*
X140470211Y-79334357D01*
X140526366Y-79373677D01*
X140653251Y-79462523D01*
X140658233Y-79464846D01*
X140658238Y-79464849D01*
X140855775Y-79556961D01*
X140860757Y-79559284D01*
X140866065Y-79560706D01*
X140866067Y-79560707D01*
X141076598Y-79617119D01*
X141076600Y-79617119D01*
X141081913Y-79618543D01*
X141310000Y-79638498D01*
X141538087Y-79618543D01*
X141543400Y-79617119D01*
X141543402Y-79617119D01*
X141753933Y-79560707D01*
X141753935Y-79560706D01*
X141759243Y-79559284D01*
X141764225Y-79556961D01*
X141961762Y-79464849D01*
X141961767Y-79464846D01*
X141966749Y-79462523D01*
X142093634Y-79373677D01*
X142149789Y-79334357D01*
X142149792Y-79334355D01*
X142154300Y-79331198D01*
X142316198Y-79169300D01*
X142320944Y-79162523D01*
X142394859Y-79056961D01*
X142447523Y-78981749D01*
X142449846Y-78976767D01*
X142449849Y-78976762D01*
X142541961Y-78779225D01*
X142541961Y-78779224D01*
X142544284Y-78774243D01*
X142552582Y-78743277D01*
X142602119Y-78558402D01*
X142602119Y-78558400D01*
X142603543Y-78553087D01*
X142623498Y-78325000D01*
X142603543Y-78096913D01*
X142591800Y-78053087D01*
X142545707Y-77881067D01*
X142545706Y-77881065D01*
X142544284Y-77875757D01*
X142528822Y-77842598D01*
X142449849Y-77673238D01*
X142449846Y-77673233D01*
X142447523Y-77668251D01*
X142336862Y-77510211D01*
X142319357Y-77485211D01*
X142319355Y-77485208D01*
X142316198Y-77480700D01*
X142154300Y-77318802D01*
X142149792Y-77315645D01*
X142149789Y-77315643D01*
X142046806Y-77243534D01*
X141966749Y-77187477D01*
X141961767Y-77185154D01*
X141961762Y-77185151D01*
X141764225Y-77093039D01*
X141764224Y-77093039D01*
X141759243Y-77090716D01*
X141753935Y-77089294D01*
X141753933Y-77089293D01*
X141543402Y-77032881D01*
X141543400Y-77032881D01*
X141538087Y-77031457D01*
X141532611Y-77030978D01*
X141532606Y-77030977D01*
X141393439Y-77018802D01*
X141324249Y-77012749D01*
X141258131Y-76986886D01*
X141246136Y-76976323D01*
X136922774Y-72652961D01*
X136888748Y-72590649D01*
X136893813Y-72519834D01*
X136936360Y-72462998D01*
X136967638Y-72445884D01*
X137001365Y-72433240D01*
X137021705Y-72425615D01*
X137138261Y-72338261D01*
X137225615Y-72221705D01*
X137276745Y-72085316D01*
X137283500Y-72023134D01*
X137283500Y-70126866D01*
X137276745Y-70064684D01*
X137225615Y-69928295D01*
X137138261Y-69811739D01*
X137021705Y-69724385D01*
X136885316Y-69673255D01*
X136823134Y-69666500D01*
X135872503Y-69666500D01*
X135804382Y-69646498D01*
X135757889Y-69592842D01*
X135747785Y-69522568D01*
X135777279Y-69457988D01*
X135783408Y-69451405D01*
X136267850Y-68966963D01*
X137701860Y-68966963D01*
X137746380Y-69000329D01*
X137753354Y-69005954D01*
X137835180Y-69076897D01*
X137841736Y-69083003D01*
X137866997Y-69108264D01*
X137873103Y-69114820D01*
X137944046Y-69196646D01*
X137944435Y-69197129D01*
X137958760Y-69185425D01*
X137962828Y-69182238D01*
X138016047Y-69142280D01*
X144875628Y-69142280D01*
X144891855Y-69143985D01*
X144898393Y-69144846D01*
X144924409Y-69148966D01*
X144930896Y-69150168D01*
X144960919Y-69156549D01*
X144991263Y-69161356D01*
X144997748Y-69162558D01*
X145023512Y-69168035D01*
X145029925Y-69169575D01*
X145106951Y-69190215D01*
X145113276Y-69192088D01*
X145156212Y-69206039D01*
X145199810Y-69217721D01*
X145206136Y-69219595D01*
X145281994Y-69244243D01*
X145288212Y-69246445D01*
X145312804Y-69255885D01*
X145318899Y-69258410D01*
X145346930Y-69270890D01*
X145375580Y-69281888D01*
X145381675Y-69284412D01*
X145405739Y-69295126D01*
X145411692Y-69297966D01*
X145482757Y-69334175D01*
X145488555Y-69337323D01*
X145527650Y-69359894D01*
X145567875Y-69380390D01*
X145573673Y-69383538D01*
X145642754Y-69423422D01*
X145648379Y-69426869D01*
X145670471Y-69441216D01*
X145675908Y-69444952D01*
X145700741Y-69462994D01*
X145726458Y-69479695D01*
X145731895Y-69483432D01*
X145753207Y-69498916D01*
X145758440Y-69502931D01*
X145820426Y-69553126D01*
X145825442Y-69557411D01*
X145859765Y-69588315D01*
X145889782Y-69613954D01*
X145892265Y-69616132D01*
X145902066Y-69624958D01*
X145904488Y-69627197D01*
X145933013Y-69654269D01*
X145967363Y-69685198D01*
X145972147Y-69689737D01*
X146028525Y-69746113D01*
X146029429Y-69747066D01*
X146401628Y-69747066D01*
X146401628Y-69130451D01*
X145492243Y-68221066D01*
X144875628Y-68221066D01*
X144875628Y-69142280D01*
X138016047Y-69142280D01*
X138148045Y-69043173D01*
X138152240Y-69040155D01*
X138203718Y-69004709D01*
X138208035Y-69001866D01*
X138225508Y-68990863D01*
X138229935Y-68988200D01*
X138284126Y-68957102D01*
X138288660Y-68954623D01*
X138494102Y-68847677D01*
X138498733Y-68845385D01*
X138555285Y-68818834D01*
X138560005Y-68816735D01*
X138579040Y-68808733D01*
X138583845Y-68806828D01*
X138642410Y-68784989D01*
X138647289Y-68783283D01*
X138781628Y-68739374D01*
X138781628Y-68641123D01*
X139795628Y-68641123D01*
X139815725Y-68643858D01*
X139820828Y-68644660D01*
X140048850Y-68685277D01*
X140053915Y-68686286D01*
X140114910Y-68699751D01*
X140119931Y-68700968D01*
X140139895Y-68706242D01*
X140144866Y-68707665D01*
X140204603Y-68726099D01*
X140209510Y-68727724D01*
X140427837Y-68805038D01*
X140427925Y-68805071D01*
X140432615Y-68802503D01*
X140440623Y-68798483D01*
X140539080Y-68753353D01*
X140547352Y-68749911D01*
X140683741Y-68698781D01*
X140691210Y-68696245D01*
X140782426Y-68668422D01*
X140790041Y-68666357D01*
X140820663Y-68659076D01*
X140828391Y-68657493D01*
X140922364Y-68641283D01*
X140930174Y-68640186D01*
X140992356Y-68633431D01*
X140995748Y-68633109D01*
X141036833Y-68629767D01*
X141040235Y-68629536D01*
X141053843Y-68628799D01*
X141057249Y-68628661D01*
X141098458Y-68627546D01*
X141101866Y-68627500D01*
X141321628Y-68627500D01*
X142335628Y-68627500D01*
X142998134Y-68627500D01*
X143001542Y-68627546D01*
X143042751Y-68628661D01*
X143046157Y-68628799D01*
X143059765Y-68629536D01*
X143063167Y-68629767D01*
X143104252Y-68633109D01*
X143107644Y-68633431D01*
X143169826Y-68640186D01*
X143177636Y-68641283D01*
X143271609Y-68657493D01*
X143279337Y-68659076D01*
X143309959Y-68666357D01*
X143317574Y-68668422D01*
X143408790Y-68696245D01*
X143416259Y-68698781D01*
X143552648Y-68749911D01*
X143560920Y-68753353D01*
X143659377Y-68798483D01*
X143667385Y-68802503D01*
X143698720Y-68819659D01*
X143706420Y-68824238D01*
X143797469Y-68882860D01*
X143804824Y-68887975D01*
X143861628Y-68930547D01*
X143861628Y-68221066D01*
X142335628Y-68221066D01*
X142335628Y-68627500D01*
X141321628Y-68627500D01*
X141321628Y-68221066D01*
X139795628Y-68221066D01*
X139795628Y-68641123D01*
X138781628Y-68641123D01*
X138781628Y-68221066D01*
X138447757Y-68221066D01*
X137701860Y-68966963D01*
X136267850Y-68966963D01*
X138027747Y-67207066D01*
X139795628Y-67207066D01*
X141321628Y-67207066D01*
X142335628Y-67207066D01*
X143861628Y-67207066D01*
X143861628Y-66590451D01*
X143421545Y-66150368D01*
X143404494Y-66165721D01*
X143399479Y-66170005D01*
X143337494Y-66220199D01*
X143336432Y-66221014D01*
X143335433Y-66221867D01*
X143273435Y-66272072D01*
X143268201Y-66276089D01*
X143246890Y-66291572D01*
X143241453Y-66295308D01*
X143174561Y-66338747D01*
X143173451Y-66339427D01*
X143172340Y-66340191D01*
X143105438Y-66383639D01*
X143099812Y-66387086D01*
X143076999Y-66400257D01*
X143071201Y-66403405D01*
X143000136Y-66439614D01*
X142998926Y-66440191D01*
X142997759Y-66440825D01*
X142926703Y-66477030D01*
X142920751Y-66479869D01*
X142896688Y-66490583D01*
X142890592Y-66493108D01*
X142816118Y-66521696D01*
X142814860Y-66522141D01*
X142813625Y-66522653D01*
X142739155Y-66551239D01*
X142732936Y-66553441D01*
X142707886Y-66561580D01*
X142701563Y-66563453D01*
X142624536Y-66584093D01*
X142623218Y-66584410D01*
X142621940Y-66584788D01*
X142544912Y-66605428D01*
X142538498Y-66606968D01*
X142512732Y-66612445D01*
X142506244Y-66613648D01*
X142427447Y-66626128D01*
X142426111Y-66626304D01*
X142424836Y-66626540D01*
X142346064Y-66639018D01*
X142339524Y-66639879D01*
X142335628Y-66640289D01*
X142335628Y-67207066D01*
X141321628Y-67207066D01*
X141321628Y-66647500D01*
X140021323Y-66647500D01*
X139795628Y-66873195D01*
X139795628Y-67207066D01*
X138027747Y-67207066D01*
X139564408Y-65670405D01*
X139626720Y-65636379D01*
X139653503Y-65633500D01*
X142220487Y-65633500D01*
X142260864Y-65624918D01*
X142273872Y-65622857D01*
X142294310Y-65620709D01*
X142308365Y-65619232D01*
X142308367Y-65619232D01*
X142314928Y-65618542D01*
X142321202Y-65616503D01*
X142321209Y-65616502D01*
X142354183Y-65605788D01*
X142366920Y-65602375D01*
X142400831Y-65595167D01*
X142400835Y-65595166D01*
X142407288Y-65593794D01*
X142445006Y-65577001D01*
X142457304Y-65572281D01*
X142490272Y-65561569D01*
X142490273Y-65561568D01*
X142496556Y-65559527D01*
X142532292Y-65538895D01*
X142544041Y-65532908D01*
X142575724Y-65518802D01*
X142575725Y-65518801D01*
X142581752Y-65516118D01*
X142587091Y-65512239D01*
X142587096Y-65512236D01*
X142615149Y-65491854D01*
X142626202Y-65484675D01*
X142661944Y-65464040D01*
X142666853Y-65459620D01*
X142666857Y-65459617D01*
X142692614Y-65436425D01*
X142702857Y-65428129D01*
X142736253Y-65403866D01*
X142763871Y-65373194D01*
X142773194Y-65363871D01*
X142798962Y-65340669D01*
X142798964Y-65340667D01*
X142803866Y-65336253D01*
X142828129Y-65302857D01*
X142836425Y-65292614D01*
X142859617Y-65266857D01*
X142859620Y-65266853D01*
X142864040Y-65261944D01*
X142884675Y-65226202D01*
X142891854Y-65215149D01*
X142912236Y-65187096D01*
X142912239Y-65187091D01*
X142916118Y-65181752D01*
X142932909Y-65144039D01*
X142938896Y-65132290D01*
X142956224Y-65102277D01*
X142959527Y-65096556D01*
X142972282Y-65057302D01*
X142977001Y-65045006D01*
X142993794Y-65007288D01*
X143002375Y-64966920D01*
X143005788Y-64954183D01*
X143016502Y-64921209D01*
X143016503Y-64921202D01*
X143018542Y-64914928D01*
X143022857Y-64873872D01*
X143024918Y-64860864D01*
X143033500Y-64820487D01*
X143033500Y-64779216D01*
X143034190Y-64766045D01*
X143037814Y-64731565D01*
X143038504Y-64725000D01*
X143034190Y-64683955D01*
X143033500Y-64670784D01*
X143033500Y-64632503D01*
X143053502Y-64564382D01*
X143107158Y-64517889D01*
X143177432Y-64507785D01*
X143242012Y-64537279D01*
X143248595Y-64543408D01*
X150187095Y-71481908D01*
X150221121Y-71544220D01*
X150224000Y-71571003D01*
X150224000Y-72743134D01*
X150230755Y-72805316D01*
X150281885Y-72941705D01*
X150369239Y-73058261D01*
X150485795Y-73145615D01*
X150622184Y-73196745D01*
X150684366Y-73203500D01*
X151856497Y-73203500D01*
X151924618Y-73223502D01*
X151945592Y-73240405D01*
X153215701Y-74510514D01*
X153228542Y-74525547D01*
X153236816Y-74536935D01*
X153241725Y-74541355D01*
X153287641Y-74582698D01*
X153292426Y-74587239D01*
X153306941Y-74601754D01*
X153309505Y-74603830D01*
X153322898Y-74614676D01*
X153327913Y-74618960D01*
X153373827Y-74660301D01*
X153373832Y-74660305D01*
X153378738Y-74664722D01*
X153384454Y-74668022D01*
X153384458Y-74668025D01*
X153390919Y-74671755D01*
X153407215Y-74682955D01*
X153418152Y-74691811D01*
X153424030Y-74694806D01*
X153424033Y-74694808D01*
X153479108Y-74722870D01*
X153484905Y-74726018D01*
X153538405Y-74756906D01*
X153544126Y-74760209D01*
X153557508Y-74764557D01*
X153575767Y-74772120D01*
X153588312Y-74778512D01*
X153594682Y-74780219D01*
X153594685Y-74780220D01*
X153633756Y-74790689D01*
X153654394Y-74796219D01*
X153660707Y-74798089D01*
X153725754Y-74819224D01*
X153739757Y-74820696D01*
X153759186Y-74824297D01*
X153772779Y-74827939D01*
X153779376Y-74828285D01*
X153779378Y-74828285D01*
X153841066Y-74831518D01*
X153847640Y-74832035D01*
X153864798Y-74833838D01*
X153864800Y-74833838D01*
X153868072Y-74834182D01*
X153888608Y-74834182D01*
X153895202Y-74834355D01*
X153956900Y-74837589D01*
X153956905Y-74837589D01*
X153963492Y-74837934D01*
X153970008Y-74836902D01*
X153970009Y-74836902D01*
X153977389Y-74835733D01*
X153997099Y-74834182D01*
X159847179Y-74834182D01*
X159915300Y-74854184D01*
X159936274Y-74871087D01*
X162751323Y-77686136D01*
X162785349Y-77748448D01*
X162787748Y-77764246D01*
X162790616Y-77797018D01*
X162805977Y-77972606D01*
X162805978Y-77972611D01*
X162806457Y-77978087D01*
X162807881Y-77983400D01*
X162807881Y-77983402D01*
X162838297Y-78096913D01*
X162865716Y-78199243D01*
X162868039Y-78204225D01*
X162868041Y-78204230D01*
X162930069Y-78337251D01*
X162940730Y-78407442D01*
X162911750Y-78472255D01*
X162852330Y-78511111D01*
X162815874Y-78516500D01*
X160384126Y-78516500D01*
X160316005Y-78496498D01*
X160269512Y-78442842D01*
X160259408Y-78372568D01*
X160269931Y-78337251D01*
X160331959Y-78204230D01*
X160331961Y-78204225D01*
X160334284Y-78199243D01*
X160361704Y-78096913D01*
X160392119Y-77983402D01*
X160392119Y-77983400D01*
X160393543Y-77978087D01*
X160413498Y-77750000D01*
X160393543Y-77521913D01*
X160392119Y-77516598D01*
X160335707Y-77306067D01*
X160335706Y-77306065D01*
X160334284Y-77300757D01*
X160304766Y-77237454D01*
X160239849Y-77098238D01*
X160239846Y-77098233D01*
X160237523Y-77093251D01*
X160149499Y-76967540D01*
X160109357Y-76910211D01*
X160109355Y-76910208D01*
X160106198Y-76905700D01*
X159944300Y-76743802D01*
X159939792Y-76740645D01*
X159939789Y-76740643D01*
X159841601Y-76671891D01*
X159756749Y-76612477D01*
X159751767Y-76610154D01*
X159751762Y-76610151D01*
X159554225Y-76518039D01*
X159554224Y-76518039D01*
X159549243Y-76515716D01*
X159543935Y-76514294D01*
X159543933Y-76514293D01*
X159333402Y-76457881D01*
X159333400Y-76457881D01*
X159328087Y-76456457D01*
X159100000Y-76436502D01*
X158871913Y-76456457D01*
X158866600Y-76457881D01*
X158866598Y-76457881D01*
X158656067Y-76514293D01*
X158656065Y-76514294D01*
X158650757Y-76515716D01*
X158645776Y-76518039D01*
X158645775Y-76518039D01*
X158448238Y-76610151D01*
X158448233Y-76610154D01*
X158443251Y-76612477D01*
X158358399Y-76671891D01*
X158260211Y-76740643D01*
X158260208Y-76740645D01*
X158255700Y-76743802D01*
X158093802Y-76905700D01*
X158090645Y-76910208D01*
X158090643Y-76910211D01*
X158050501Y-76967540D01*
X157962477Y-77093251D01*
X157960154Y-77098233D01*
X157960151Y-77098238D01*
X157895234Y-77237454D01*
X157865716Y-77300757D01*
X157864294Y-77306065D01*
X157864293Y-77306067D01*
X157856159Y-77336425D01*
X157819208Y-77397047D01*
X157755347Y-77428069D01*
X157684853Y-77419641D01*
X157630106Y-77374439D01*
X157620258Y-77357065D01*
X157592915Y-77298428D01*
X157592910Y-77298419D01*
X157590589Y-77293442D01*
X157469301Y-77120224D01*
X157319776Y-76970699D01*
X157146558Y-76849411D01*
X157141580Y-76847090D01*
X157141577Y-76847088D01*
X156959892Y-76762367D01*
X156959891Y-76762366D01*
X156954910Y-76760044D01*
X156949602Y-76758622D01*
X156949600Y-76758621D01*
X156755970Y-76706738D01*
X156755968Y-76706738D01*
X156750655Y-76705314D01*
X156540000Y-76686884D01*
X156329345Y-76705314D01*
X156324032Y-76706738D01*
X156324030Y-76706738D01*
X156130400Y-76758621D01*
X156130398Y-76758622D01*
X156125090Y-76760044D01*
X156120109Y-76762366D01*
X156120108Y-76762367D01*
X155938423Y-76847088D01*
X155938420Y-76847090D01*
X155933442Y-76849411D01*
X155760224Y-76970699D01*
X155610699Y-77120224D01*
X155489411Y-77293442D01*
X155487090Y-77298420D01*
X155487088Y-77298423D01*
X155454527Y-77368251D01*
X155400044Y-77485090D01*
X155398622Y-77490398D01*
X155398621Y-77490400D01*
X155393313Y-77510211D01*
X155345314Y-77689345D01*
X155326884Y-77900000D01*
X155345314Y-78110655D01*
X155346738Y-78115968D01*
X155346738Y-78115970D01*
X155383479Y-78253087D01*
X155400044Y-78314910D01*
X155402366Y-78319889D01*
X155402369Y-78319898D01*
X155410461Y-78337251D01*
X155421122Y-78407443D01*
X155392141Y-78472256D01*
X155332721Y-78511111D01*
X155296266Y-78516500D01*
X152703734Y-78516500D01*
X152635613Y-78496498D01*
X152589120Y-78442842D01*
X152579016Y-78372568D01*
X152589539Y-78337251D01*
X152597631Y-78319898D01*
X152597634Y-78319889D01*
X152599956Y-78314910D01*
X152616522Y-78253087D01*
X152653262Y-78115970D01*
X152653262Y-78115968D01*
X152654686Y-78110655D01*
X152673116Y-77900000D01*
X152654686Y-77689345D01*
X152606687Y-77510211D01*
X152601379Y-77490400D01*
X152601378Y-77490398D01*
X152599956Y-77485090D01*
X152545473Y-77368251D01*
X152512912Y-77298423D01*
X152512910Y-77298420D01*
X152510589Y-77293442D01*
X152389301Y-77120224D01*
X152239776Y-76970699D01*
X152066558Y-76849411D01*
X152061580Y-76847090D01*
X152061577Y-76847088D01*
X151879892Y-76762367D01*
X151879891Y-76762366D01*
X151874910Y-76760044D01*
X151869602Y-76758622D01*
X151869600Y-76758621D01*
X151675970Y-76706738D01*
X151675968Y-76706738D01*
X151670655Y-76705314D01*
X151584255Y-76697755D01*
X151518137Y-76671891D01*
X151506142Y-76661329D01*
X150775492Y-75930679D01*
X152495628Y-75930679D01*
X152500025Y-75932847D01*
X152559011Y-75963554D01*
X152563832Y-75966200D01*
X152582852Y-75977182D01*
X152587550Y-75980032D01*
X152643593Y-76015736D01*
X152648162Y-76018790D01*
X152821380Y-76140078D01*
X152825815Y-76143329D01*
X152878558Y-76183801D01*
X152882845Y-76187242D01*
X152899670Y-76201360D01*
X152903803Y-76204984D01*
X152952811Y-76249892D01*
X152956781Y-76253694D01*
X153106306Y-76403219D01*
X153110108Y-76407189D01*
X153155016Y-76456197D01*
X153158640Y-76460330D01*
X153172758Y-76477155D01*
X153176199Y-76481442D01*
X153216671Y-76534185D01*
X153219922Y-76538620D01*
X153341210Y-76711838D01*
X153344264Y-76716407D01*
X153379968Y-76772450D01*
X153382818Y-76777148D01*
X153393800Y-76796168D01*
X153396446Y-76800989D01*
X153427153Y-76859975D01*
X153429585Y-76864907D01*
X153518952Y-77056555D01*
X153521165Y-77061585D01*
X153546605Y-77123000D01*
X153548598Y-77128125D01*
X153556110Y-77148764D01*
X153557878Y-77153972D01*
X153577867Y-77217372D01*
X153579405Y-77222648D01*
X153618102Y-77367066D01*
X154021628Y-77367066D01*
X154021628Y-75849588D01*
X154003355Y-75850545D01*
X153996761Y-75850718D01*
X153917015Y-75850717D01*
X153910423Y-75850544D01*
X153864294Y-75848126D01*
X153824908Y-75847095D01*
X153821615Y-75846965D01*
X153808444Y-75846275D01*
X153805154Y-75846060D01*
X153765817Y-75842965D01*
X153729573Y-75841066D01*
X152495628Y-75841066D01*
X152495628Y-75930679D01*
X150775492Y-75930679D01*
X145981618Y-71136805D01*
X147415628Y-71136805D01*
X148565889Y-72287066D01*
X148941628Y-72287066D01*
X148941628Y-71670451D01*
X148032243Y-70761066D01*
X147415628Y-70761066D01*
X147415628Y-71136805D01*
X145981618Y-71136805D01*
X145309981Y-70465168D01*
X145297140Y-70450135D01*
X145292746Y-70444087D01*
X145292745Y-70444086D01*
X145288866Y-70438747D01*
X145238041Y-70392984D01*
X145233256Y-70388443D01*
X145218741Y-70373928D01*
X145211282Y-70367888D01*
X145202784Y-70361006D01*
X145197769Y-70356722D01*
X145151855Y-70315381D01*
X145151850Y-70315377D01*
X145146944Y-70310960D01*
X145141228Y-70307660D01*
X145141224Y-70307657D01*
X145134763Y-70303927D01*
X145118466Y-70292727D01*
X145112660Y-70288025D01*
X145112658Y-70288024D01*
X145107530Y-70283871D01*
X145046577Y-70252814D01*
X145040782Y-70249667D01*
X145030579Y-70243776D01*
X145004222Y-70228559D01*
X144987279Y-70218777D01*
X144987278Y-70218776D01*
X144981556Y-70215473D01*
X144975274Y-70213432D01*
X144975272Y-70213431D01*
X144968174Y-70211125D01*
X144949907Y-70203559D01*
X144948021Y-70202598D01*
X144937370Y-70197171D01*
X144922756Y-70193255D01*
X144912852Y-70190601D01*
X144871299Y-70179467D01*
X144864997Y-70177600D01*
X144799928Y-70156458D01*
X144793363Y-70155768D01*
X144793354Y-70155766D01*
X144785925Y-70154985D01*
X144766491Y-70151383D01*
X144759286Y-70149453D01*
X144759284Y-70149453D01*
X144752903Y-70147743D01*
X144746312Y-70147398D01*
X144746308Y-70147397D01*
X144684616Y-70144164D01*
X144678042Y-70143647D01*
X144660884Y-70141844D01*
X144660882Y-70141844D01*
X144657610Y-70141500D01*
X144637074Y-70141500D01*
X144630480Y-70141327D01*
X144568782Y-70138093D01*
X144568777Y-70138093D01*
X144562190Y-70137748D01*
X144548292Y-70139949D01*
X144528583Y-70141500D01*
X143574493Y-70141500D01*
X143506372Y-70121498D01*
X143459879Y-70067842D01*
X143452457Y-70046237D01*
X143451745Y-70039684D01*
X143445062Y-70021855D01*
X143403767Y-69911703D01*
X143400615Y-69903295D01*
X143313261Y-69786739D01*
X143196705Y-69699385D01*
X143060316Y-69648255D01*
X142998134Y-69641500D01*
X141101866Y-69641500D01*
X141039684Y-69648255D01*
X140903295Y-69699385D01*
X140786739Y-69786739D01*
X140699385Y-69903295D01*
X140696233Y-69911703D01*
X140696232Y-69911705D01*
X140675538Y-69966906D01*
X140632897Y-70023671D01*
X140566335Y-70048371D01*
X140496986Y-70033164D01*
X140474167Y-70016666D01*
X140473887Y-70016358D01*
X140373026Y-69936703D01*
X140296177Y-69876011D01*
X140296172Y-69876008D01*
X140292123Y-69872810D01*
X140287607Y-69870317D01*
X140287604Y-69870315D01*
X140093879Y-69763373D01*
X140093875Y-69763371D01*
X140089355Y-69760876D01*
X140084486Y-69759152D01*
X140084482Y-69759150D01*
X139875903Y-69685288D01*
X139875899Y-69685287D01*
X139871028Y-69683562D01*
X139865935Y-69682655D01*
X139865932Y-69682654D01*
X139648095Y-69643851D01*
X139648089Y-69643850D01*
X139643006Y-69642945D01*
X139570096Y-69642054D01*
X139416581Y-69640179D01*
X139416579Y-69640179D01*
X139411411Y-69640116D01*
X139182464Y-69675150D01*
X138962314Y-69747106D01*
X138957726Y-69749494D01*
X138957722Y-69749496D01*
X138824362Y-69818919D01*
X138756872Y-69854052D01*
X138752739Y-69857155D01*
X138752736Y-69857157D01*
X138575790Y-69990012D01*
X138571655Y-69993117D01*
X138544192Y-70021855D01*
X138420413Y-70151383D01*
X138411639Y-70160564D01*
X138408725Y-70164836D01*
X138408724Y-70164837D01*
X138360095Y-70236125D01*
X138281119Y-70351899D01*
X138183602Y-70561981D01*
X138121707Y-70785169D01*
X138097095Y-71015469D01*
X138097392Y-71020622D01*
X138097392Y-71020625D01*
X138102555Y-71110168D01*
X138110427Y-71246697D01*
X138111564Y-71251743D01*
X138111565Y-71251749D01*
X138143741Y-71394523D01*
X138161346Y-71472642D01*
X138163288Y-71477424D01*
X138163289Y-71477428D01*
X138201286Y-71571003D01*
X138248484Y-71687237D01*
X138369501Y-71884719D01*
X138521147Y-72059784D01*
X138699349Y-72207730D01*
X138899322Y-72324584D01*
X139115694Y-72407209D01*
X139120762Y-72408240D01*
X139120772Y-72408243D01*
X139306647Y-72446060D01*
X139370622Y-72480435D01*
X144851323Y-77961136D01*
X144885349Y-78023448D01*
X144887748Y-78039246D01*
X144889862Y-78063404D01*
X144905977Y-78247606D01*
X144905978Y-78247611D01*
X144906457Y-78253087D01*
X144907880Y-78258399D01*
X144907881Y-78258402D01*
X144956106Y-78438377D01*
X144965716Y-78474243D01*
X144968039Y-78479224D01*
X144968039Y-78479225D01*
X145060151Y-78676762D01*
X145060154Y-78676767D01*
X145062477Y-78681749D01*
X145106974Y-78745297D01*
X145169919Y-78835191D01*
X145193802Y-78869300D01*
X145355700Y-79031198D01*
X145360208Y-79034355D01*
X145360211Y-79034357D01*
X145438389Y-79089098D01*
X145543251Y-79162523D01*
X145548233Y-79164846D01*
X145548238Y-79164849D01*
X145629574Y-79202776D01*
X145750757Y-79259284D01*
X145756065Y-79260706D01*
X145756067Y-79260707D01*
X145966598Y-79317119D01*
X145966600Y-79317119D01*
X145971913Y-79318543D01*
X145977389Y-79319022D01*
X145977394Y-79319023D01*
X146107096Y-79330370D01*
X146185751Y-79337251D01*
X146251869Y-79363114D01*
X146263864Y-79373677D01*
X146900019Y-80009832D01*
X146912860Y-80024865D01*
X146921134Y-80036253D01*
X146926043Y-80040673D01*
X146971959Y-80082016D01*
X146976744Y-80086557D01*
X146991259Y-80101072D01*
X146993823Y-80103148D01*
X147007216Y-80113994D01*
X147012231Y-80118278D01*
X147058145Y-80159619D01*
X147058150Y-80159623D01*
X147063056Y-80164040D01*
X147068772Y-80167340D01*
X147068776Y-80167343D01*
X147075237Y-80171073D01*
X147091533Y-80182273D01*
X147102470Y-80191129D01*
X147163421Y-80222185D01*
X147169215Y-80225331D01*
X147228444Y-80259527D01*
X147234726Y-80261568D01*
X147234728Y-80261569D01*
X147241826Y-80263875D01*
X147260092Y-80271440D01*
X147272630Y-80277829D01*
X147338701Y-80295533D01*
X147345003Y-80297400D01*
X147410072Y-80318542D01*
X147416637Y-80319232D01*
X147416646Y-80319234D01*
X147424075Y-80320015D01*
X147443509Y-80323617D01*
X147450714Y-80325547D01*
X147450716Y-80325547D01*
X147457097Y-80327257D01*
X147463688Y-80327602D01*
X147463692Y-80327603D01*
X147525384Y-80330836D01*
X147531958Y-80331353D01*
X147549116Y-80333156D01*
X147549118Y-80333156D01*
X147552390Y-80333500D01*
X147572926Y-80333500D01*
X147579520Y-80333673D01*
X147641218Y-80336907D01*
X147641223Y-80336907D01*
X147647810Y-80337252D01*
X147661708Y-80335051D01*
X147681417Y-80333500D01*
X164793583Y-80333500D01*
X164813292Y-80335051D01*
X164827190Y-80337252D01*
X164833777Y-80336907D01*
X164833782Y-80336907D01*
X164895480Y-80333673D01*
X164902074Y-80333500D01*
X164922610Y-80333500D01*
X164925882Y-80333156D01*
X164925884Y-80333156D01*
X164943042Y-80331353D01*
X164949616Y-80330836D01*
X165011308Y-80327603D01*
X165011312Y-80327602D01*
X165017903Y-80327257D01*
X165024284Y-80325547D01*
X165024286Y-80325547D01*
X165031491Y-80323617D01*
X165050925Y-80320015D01*
X165058354Y-80319234D01*
X165058363Y-80319232D01*
X165064928Y-80318542D01*
X165129997Y-80297400D01*
X165136299Y-80295533D01*
X165202370Y-80277829D01*
X165214908Y-80271440D01*
X165233174Y-80263875D01*
X165240272Y-80261569D01*
X165240274Y-80261568D01*
X165246556Y-80259527D01*
X165305785Y-80225331D01*
X165311579Y-80222185D01*
X165372530Y-80191129D01*
X165383467Y-80182273D01*
X165399763Y-80171073D01*
X165406224Y-80167343D01*
X165406228Y-80167340D01*
X165411944Y-80164040D01*
X165416850Y-80159623D01*
X165416855Y-80159619D01*
X165462769Y-80118278D01*
X165467784Y-80113994D01*
X165481177Y-80103148D01*
X165483741Y-80101072D01*
X165498256Y-80086557D01*
X165503041Y-80082016D01*
X165548957Y-80040673D01*
X165553866Y-80036253D01*
X165562140Y-80024865D01*
X165574981Y-80009832D01*
X166020816Y-79563997D01*
X166083128Y-79529971D01*
X166153943Y-79535036D01*
X166210779Y-79577583D01*
X166235590Y-79644103D01*
X166235911Y-79653121D01*
X166235510Y-81375708D01*
X166234010Y-81395062D01*
X166230307Y-81418841D01*
X166231471Y-81427744D01*
X166231471Y-81427749D01*
X166231949Y-81431406D01*
X166232524Y-81458815D01*
X166222312Y-81574526D01*
X166218433Y-81596332D01*
X166182191Y-81730390D01*
X166174555Y-81751178D01*
X166127472Y-81851177D01*
X166115396Y-81876824D01*
X166104236Y-81895956D01*
X166023993Y-82009297D01*
X166009656Y-82026179D01*
X165910803Y-82123721D01*
X165893731Y-82137831D01*
X165779329Y-82216553D01*
X165760059Y-82227452D01*
X165687816Y-82260296D01*
X165633629Y-82284931D01*
X165612738Y-82292290D01*
X165478207Y-82326739D01*
X165456353Y-82330326D01*
X165408951Y-82333873D01*
X165347285Y-82338487D01*
X165330961Y-82337725D01*
X165330950Y-82338167D01*
X165321976Y-82337937D01*
X165313125Y-82336438D01*
X165304209Y-82337483D01*
X165304207Y-82337483D01*
X165277421Y-82340623D01*
X165262686Y-82341480D01*
X117649468Y-82316526D01*
X117630149Y-82315026D01*
X117615149Y-82312690D01*
X117615145Y-82312690D01*
X117606276Y-82311309D01*
X117593709Y-82312952D01*
X117566308Y-82313527D01*
X117450593Y-82303317D01*
X117428786Y-82299439D01*
X117334149Y-82273856D01*
X117294719Y-82263197D01*
X117273935Y-82255563D01*
X117148280Y-82196401D01*
X117129155Y-82185245D01*
X117042251Y-82123721D01*
X117015805Y-82104998D01*
X116998928Y-82090665D01*
X116901382Y-81991810D01*
X116887276Y-81974744D01*
X116833060Y-81895956D01*
X116808546Y-81860332D01*
X116797647Y-81841061D01*
X116740168Y-81714632D01*
X116732810Y-81693743D01*
X116698360Y-81559215D01*
X116694772Y-81537358D01*
X116687315Y-81437689D01*
X116686620Y-81428404D01*
X116687387Y-81411961D01*
X116686960Y-81411950D01*
X116687189Y-81402978D01*
X116688689Y-81394126D01*
X116684485Y-81358264D01*
X116683628Y-81343592D01*
X116683629Y-81316795D01*
X144875628Y-81316795D01*
X146401628Y-81317595D01*
X146401628Y-80931634D01*
X146389574Y-80921873D01*
X146388629Y-80921066D01*
X144875628Y-80921066D01*
X144875628Y-81316795D01*
X116683629Y-81316795D01*
X116683629Y-81315464D01*
X142335628Y-81315464D01*
X143861628Y-81316264D01*
X143861628Y-80921066D01*
X142335628Y-80921066D01*
X142335628Y-81315464D01*
X116683629Y-81315464D01*
X116683629Y-81314133D01*
X139795628Y-81314133D01*
X141321628Y-81314932D01*
X141321628Y-80921066D01*
X139795628Y-80921066D01*
X139795628Y-81314133D01*
X116683629Y-81314133D01*
X116683629Y-81312801D01*
X137255628Y-81312801D01*
X138781628Y-81313601D01*
X138781628Y-80921066D01*
X137255628Y-80921066D01*
X137255628Y-81312801D01*
X116683629Y-81312801D01*
X116683629Y-81311470D01*
X134715628Y-81311470D01*
X136241628Y-81312270D01*
X136241628Y-80921066D01*
X134715628Y-80921066D01*
X134715628Y-81311470D01*
X116683629Y-81311470D01*
X116683629Y-81310139D01*
X132175628Y-81310139D01*
X133701628Y-81310939D01*
X133701628Y-80921066D01*
X132175628Y-80921066D01*
X132175628Y-81310139D01*
X116683629Y-81310139D01*
X116683629Y-81308808D01*
X129635628Y-81308808D01*
X131161628Y-81309607D01*
X131161628Y-80921066D01*
X129635628Y-80921066D01*
X129635628Y-81308808D01*
X116683629Y-81308808D01*
X116683629Y-81307476D01*
X127095628Y-81307476D01*
X128621628Y-81308276D01*
X128621628Y-80921066D01*
X127095628Y-80921066D01*
X127095628Y-81307476D01*
X116683629Y-81307476D01*
X116683629Y-81306145D01*
X124555628Y-81306145D01*
X126081628Y-81306945D01*
X126081628Y-80921066D01*
X124555628Y-80921066D01*
X124555628Y-81306145D01*
X116683629Y-81306145D01*
X116683629Y-81304814D01*
X122015628Y-81304814D01*
X123541628Y-81305614D01*
X123541628Y-80921066D01*
X122015628Y-80921066D01*
X122015628Y-81304814D01*
X116683629Y-81304814D01*
X116683629Y-81303483D01*
X119475628Y-81303483D01*
X121001628Y-81304282D01*
X121001628Y-80921066D01*
X119475628Y-80921066D01*
X119475628Y-81303483D01*
X116683629Y-81303483D01*
X116683641Y-80931634D01*
X116683672Y-79907066D01*
X127095628Y-79907066D01*
X128322750Y-79907066D01*
X135392442Y-79907066D01*
X136241628Y-79907066D01*
X137255628Y-79907066D01*
X138781628Y-79907066D01*
X143012442Y-79907066D01*
X143861628Y-79907066D01*
X143861628Y-78405451D01*
X143837243Y-78381066D01*
X143635170Y-78381066D01*
X143633999Y-78407892D01*
X143633640Y-78413377D01*
X143613685Y-78641464D01*
X143613086Y-78646929D01*
X143604408Y-78712843D01*
X143603572Y-78718277D01*
X143599758Y-78739906D01*
X143598685Y-78745297D01*
X143584298Y-78810191D01*
X143582992Y-78815530D01*
X143523733Y-79036686D01*
X143522195Y-79041963D01*
X143502206Y-79105362D01*
X143500438Y-79110569D01*
X143492926Y-79131208D01*
X143490933Y-79136333D01*
X143465494Y-79197746D01*
X143463281Y-79202776D01*
X143366520Y-79410282D01*
X143364089Y-79415212D01*
X143333390Y-79474185D01*
X143330745Y-79479006D01*
X143319763Y-79498027D01*
X143316911Y-79502727D01*
X143281196Y-79558787D01*
X143278142Y-79563357D01*
X143146817Y-79750908D01*
X143143565Y-79755343D01*
X143103081Y-79808101D01*
X143099639Y-79812390D01*
X143085521Y-79829214D01*
X143081897Y-79833345D01*
X143037003Y-79882336D01*
X143033203Y-79886305D01*
X143012442Y-79907066D01*
X138781628Y-79907066D01*
X138781628Y-78515451D01*
X138647243Y-78381066D01*
X137255628Y-78381066D01*
X137255628Y-79907066D01*
X136241628Y-79907066D01*
X136241628Y-78381066D01*
X136015170Y-78381066D01*
X136013999Y-78407892D01*
X136013640Y-78413377D01*
X135993685Y-78641464D01*
X135993086Y-78646929D01*
X135984408Y-78712843D01*
X135983572Y-78718277D01*
X135979758Y-78739906D01*
X135978685Y-78745297D01*
X135964298Y-78810191D01*
X135962992Y-78815530D01*
X135903733Y-79036686D01*
X135902195Y-79041963D01*
X135882206Y-79105362D01*
X135880438Y-79110569D01*
X135872926Y-79131208D01*
X135870933Y-79136333D01*
X135845494Y-79197746D01*
X135843281Y-79202776D01*
X135746520Y-79410282D01*
X135744089Y-79415212D01*
X135713390Y-79474185D01*
X135710745Y-79479006D01*
X135699763Y-79498027D01*
X135696911Y-79502727D01*
X135661196Y-79558787D01*
X135658142Y-79563357D01*
X135526817Y-79750908D01*
X135523565Y-79755343D01*
X135483081Y-79808101D01*
X135479639Y-79812390D01*
X135465521Y-79829214D01*
X135461897Y-79833345D01*
X135417003Y-79882336D01*
X135413203Y-79886305D01*
X135392442Y-79907066D01*
X128322750Y-79907066D01*
X128278103Y-79858345D01*
X128274479Y-79854214D01*
X128260361Y-79837390D01*
X128256919Y-79833101D01*
X128216435Y-79780343D01*
X128213183Y-79775908D01*
X128081858Y-79588357D01*
X128078804Y-79583787D01*
X128043089Y-79527727D01*
X128040237Y-79523027D01*
X128029255Y-79504006D01*
X128026610Y-79499185D01*
X127995911Y-79440212D01*
X127993480Y-79435282D01*
X127896719Y-79227776D01*
X127894506Y-79222746D01*
X127869067Y-79161333D01*
X127867074Y-79156208D01*
X127859562Y-79135569D01*
X127857794Y-79130362D01*
X127837805Y-79066963D01*
X127836267Y-79061686D01*
X127777008Y-78840530D01*
X127775702Y-78835191D01*
X127761315Y-78770297D01*
X127760242Y-78764906D01*
X127756428Y-78743277D01*
X127755592Y-78737843D01*
X127746914Y-78671929D01*
X127746315Y-78666464D01*
X127726360Y-78438377D01*
X127726001Y-78432892D01*
X127723738Y-78381066D01*
X127376262Y-78381066D01*
X127373999Y-78432892D01*
X127373640Y-78438377D01*
X127353685Y-78666464D01*
X127353086Y-78671929D01*
X127344408Y-78737843D01*
X127343572Y-78743277D01*
X127339758Y-78764906D01*
X127338685Y-78770297D01*
X127324298Y-78835191D01*
X127322992Y-78840530D01*
X127263733Y-79061686D01*
X127262195Y-79066963D01*
X127242206Y-79130362D01*
X127240438Y-79135569D01*
X127232926Y-79156208D01*
X127230933Y-79161333D01*
X127205494Y-79222746D01*
X127203281Y-79227776D01*
X127106520Y-79435282D01*
X127104089Y-79440212D01*
X127095628Y-79456466D01*
X127095628Y-79907066D01*
X116683672Y-79907066D01*
X116683825Y-74827066D01*
X117697825Y-74827066D01*
X118461628Y-74827066D01*
X118461628Y-73923858D01*
X118397320Y-73868103D01*
X118390764Y-73861997D01*
X118365503Y-73836736D01*
X118359397Y-73830180D01*
X118288454Y-73748354D01*
X118282829Y-73741380D01*
X118195475Y-73624824D01*
X118190360Y-73617469D01*
X118131738Y-73526420D01*
X118127159Y-73518720D01*
X118110003Y-73487385D01*
X118105983Y-73479377D01*
X118060853Y-73380920D01*
X118057411Y-73372648D01*
X118030576Y-73301066D01*
X117697871Y-73301066D01*
X117697825Y-74827066D01*
X116683825Y-74827066D01*
X116683975Y-69857157D01*
X116683978Y-69747066D01*
X117697979Y-69747066D01*
X118327105Y-69747066D01*
X118359397Y-69709820D01*
X118365503Y-69703264D01*
X118390764Y-69678003D01*
X118397320Y-69671897D01*
X118461628Y-69616142D01*
X118461628Y-69247500D01*
X119475628Y-69247500D01*
X120213677Y-69247500D01*
X121001628Y-68459549D01*
X121001628Y-68221066D01*
X119475628Y-68221066D01*
X119475628Y-69247500D01*
X118461628Y-69247500D01*
X118461628Y-68221066D01*
X117698024Y-68221066D01*
X117697979Y-69747066D01*
X116683978Y-69747066D01*
X116684055Y-67207066D01*
X117698056Y-67207066D01*
X118461628Y-67207066D01*
X119475628Y-67207066D01*
X121001628Y-67207066D01*
X122015628Y-67207066D01*
X122254111Y-67207066D01*
X123541628Y-65919549D01*
X123541628Y-65681066D01*
X122015628Y-65681066D01*
X122015628Y-67207066D01*
X121001628Y-67207066D01*
X121001628Y-65681066D01*
X119475628Y-65681066D01*
X119475628Y-67207066D01*
X118461628Y-67207066D01*
X118461628Y-65681066D01*
X117698101Y-65681066D01*
X117698056Y-67207066D01*
X116684055Y-67207066D01*
X116684132Y-64667066D01*
X117698132Y-64667066D01*
X118461628Y-64667066D01*
X119475628Y-64667066D01*
X121001628Y-64667066D01*
X122015628Y-64667066D01*
X123541628Y-64667066D01*
X123541628Y-63141066D01*
X122015628Y-63141066D01*
X122015628Y-64667066D01*
X121001628Y-64667066D01*
X121001628Y-63141066D01*
X119475628Y-63141066D01*
X119475628Y-64667066D01*
X118461628Y-64667066D01*
X118461628Y-63141066D01*
X117698178Y-63141066D01*
X117698132Y-64667066D01*
X116684132Y-64667066D01*
X116684209Y-62127066D01*
X117698209Y-62127066D01*
X118461628Y-62127066D01*
X118461628Y-60785705D01*
X118448869Y-60732046D01*
X118447872Y-60727480D01*
X118422726Y-60601066D01*
X117698255Y-60601066D01*
X117698209Y-62127066D01*
X116684209Y-62127066D01*
X116684274Y-59997526D01*
X119377050Y-59997526D01*
X119389947Y-60266019D01*
X119442388Y-60529656D01*
X119533220Y-60782646D01*
X119535432Y-60786762D01*
X119535433Y-60786765D01*
X119574978Y-60860361D01*
X119660450Y-61019431D01*
X119663241Y-61023168D01*
X119663245Y-61023175D01*
X119744887Y-61132506D01*
X119821281Y-61234810D01*
X119824590Y-61238090D01*
X119824595Y-61238096D01*
X120008863Y-61420762D01*
X120012180Y-61424050D01*
X120015942Y-61426808D01*
X120015945Y-61426811D01*
X120064912Y-61462715D01*
X120228954Y-61582995D01*
X120233089Y-61585171D01*
X120233093Y-61585173D01*
X120462698Y-61705975D01*
X120466840Y-61708154D01*
X120609346Y-61757919D01*
X120712584Y-61793971D01*
X120720613Y-61796775D01*
X120725206Y-61797647D01*
X120980109Y-61846042D01*
X120980112Y-61846042D01*
X120984698Y-61846913D01*
X121112370Y-61851929D01*
X121248625Y-61857283D01*
X121248630Y-61857283D01*
X121253293Y-61857466D01*
X121357607Y-61846042D01*
X121515844Y-61828713D01*
X121515850Y-61828712D01*
X121520497Y-61828203D01*
X121538353Y-61823502D01*
X121775918Y-61760956D01*
X121775920Y-61760955D01*
X121780441Y-61759765D01*
X121806040Y-61748767D01*
X122023120Y-61655502D01*
X122023122Y-61655501D01*
X122027414Y-61653657D01*
X122146071Y-61580230D01*
X122252017Y-61514669D01*
X122252021Y-61514666D01*
X122255990Y-61512210D01*
X122461149Y-61338530D01*
X122638382Y-61136434D01*
X122668284Y-61089947D01*
X122781269Y-60914291D01*
X122783797Y-60910361D01*
X122894199Y-60665278D01*
X122908301Y-60615278D01*
X122965893Y-60411072D01*
X122965894Y-60411069D01*
X122967163Y-60406568D01*
X122985043Y-60266019D01*
X123000688Y-60143045D01*
X123000688Y-60143041D01*
X123001086Y-60139915D01*
X123003571Y-60045000D01*
X122983650Y-59776937D01*
X122973047Y-59730077D01*
X122925361Y-59519331D01*
X122925360Y-59519326D01*
X122924327Y-59514763D01*
X122826902Y-59264238D01*
X122693518Y-59030864D01*
X122677465Y-59010500D01*
X122534802Y-58829533D01*
X122527105Y-58819769D01*
X122331317Y-58635591D01*
X122133407Y-58498295D01*
X122114299Y-58485039D01*
X122114296Y-58485037D01*
X122110457Y-58482374D01*
X122068865Y-58461863D01*
X121873564Y-58365551D01*
X121873561Y-58365550D01*
X121869376Y-58363486D01*
X121821745Y-58348239D01*
X121719627Y-58315551D01*
X121613370Y-58281538D01*
X121608763Y-58280788D01*
X121608760Y-58280787D01*
X121385242Y-58244385D01*
X121348063Y-58238330D01*
X121217719Y-58236624D01*
X121083961Y-58234873D01*
X121083958Y-58234873D01*
X121079284Y-58234812D01*
X120812937Y-58271060D01*
X120554874Y-58346278D01*
X120310763Y-58458815D01*
X120306854Y-58461378D01*
X120089881Y-58603631D01*
X120089876Y-58603635D01*
X120085968Y-58606197D01*
X120036574Y-58650283D01*
X119902638Y-58769826D01*
X119885426Y-58785188D01*
X119713544Y-58991854D01*
X119711121Y-58995847D01*
X119615456Y-59153498D01*
X119574096Y-59221656D01*
X119572287Y-59225970D01*
X119572285Y-59225974D01*
X119512340Y-59368928D01*
X119470148Y-59469545D01*
X119403981Y-59730077D01*
X119377050Y-59997526D01*
X116684274Y-59997526D01*
X116684286Y-59587066D01*
X117698286Y-59587066D01*
X118400724Y-59587066D01*
X118403381Y-59567861D01*
X118404107Y-59563245D01*
X118407350Y-59544854D01*
X118408247Y-59540270D01*
X118420115Y-59485027D01*
X118421181Y-59480476D01*
X118461628Y-59321217D01*
X118461628Y-58061066D01*
X117698332Y-58061066D01*
X117698286Y-59587066D01*
X116684286Y-59587066D01*
X116684363Y-57047066D01*
X117698363Y-57047066D01*
X118461628Y-57047066D01*
X119475628Y-57047066D01*
X121001628Y-57047066D01*
X122015628Y-57047066D01*
X123541628Y-57047066D01*
X124555628Y-57047066D01*
X126081628Y-57047066D01*
X127095628Y-57047066D01*
X128621628Y-57047066D01*
X129635628Y-57047066D01*
X131161628Y-57047066D01*
X132175628Y-57047066D01*
X133701628Y-57047066D01*
X134715628Y-57047066D01*
X136241628Y-57047066D01*
X137255628Y-57047066D01*
X138781628Y-57047066D01*
X139795628Y-57047066D01*
X141321628Y-57047066D01*
X142335628Y-57047066D01*
X143861628Y-57047066D01*
X144875628Y-57047066D01*
X146401628Y-57047066D01*
X147415628Y-57047066D01*
X148941628Y-57047066D01*
X149955628Y-57047066D01*
X151481628Y-57047066D01*
X152495628Y-57047066D01*
X154021628Y-57047066D01*
X155035628Y-57047066D01*
X156561628Y-57047066D01*
X157575628Y-57047066D01*
X159101628Y-57047066D01*
X160115628Y-57047066D01*
X161641628Y-57047066D01*
X162655628Y-57047066D01*
X164181628Y-57047066D01*
X164181628Y-56283397D01*
X162655628Y-56283860D01*
X162655628Y-57047066D01*
X161641628Y-57047066D01*
X161641628Y-56284167D01*
X160115628Y-56284629D01*
X160115628Y-57047066D01*
X159101628Y-57047066D01*
X159101628Y-56284936D01*
X157575628Y-56285399D01*
X157575628Y-57047066D01*
X156561628Y-57047066D01*
X156561628Y-56285705D01*
X155035628Y-56286168D01*
X155035628Y-57047066D01*
X154021628Y-57047066D01*
X154021628Y-56286475D01*
X152495628Y-56286937D01*
X152495628Y-57047066D01*
X151481628Y-57047066D01*
X151481628Y-56287244D01*
X149955628Y-56287706D01*
X149955628Y-57047066D01*
X148941628Y-57047066D01*
X148941628Y-56288013D01*
X147415628Y-56288476D01*
X147415628Y-57047066D01*
X146401628Y-57047066D01*
X146401628Y-56288783D01*
X144875628Y-56289245D01*
X144875628Y-57047066D01*
X143861628Y-57047066D01*
X143861628Y-56289552D01*
X142335628Y-56290014D01*
X142335628Y-57047066D01*
X141321628Y-57047066D01*
X141321628Y-56290321D01*
X139795628Y-56290784D01*
X139795628Y-57047066D01*
X138781628Y-57047066D01*
X138781628Y-56291090D01*
X137255628Y-56291553D01*
X137255628Y-57047066D01*
X136241628Y-57047066D01*
X136241628Y-56291860D01*
X134715628Y-56292322D01*
X134715628Y-57047066D01*
X133701628Y-57047066D01*
X133701628Y-56292629D01*
X132175628Y-56293092D01*
X132175628Y-57047066D01*
X131161628Y-57047066D01*
X131161628Y-56293398D01*
X129635628Y-56293861D01*
X129635628Y-57047066D01*
X128621628Y-57047066D01*
X128621628Y-56294168D01*
X127095628Y-56294630D01*
X127095628Y-57047066D01*
X126081628Y-57047066D01*
X126081628Y-56294937D01*
X124555628Y-56295399D01*
X124555628Y-57047066D01*
X123541628Y-57047066D01*
X123541628Y-56295706D01*
X122015628Y-56296169D01*
X122015628Y-57047066D01*
X121001628Y-57047066D01*
X121001628Y-56296476D01*
X119475628Y-56296938D01*
X119475628Y-57047066D01*
X118461628Y-57047066D01*
X118461628Y-56297245D01*
X117698385Y-56297476D01*
X117698363Y-57047066D01*
X116684363Y-57047066D01*
X116684387Y-56249253D01*
X116685887Y-56229871D01*
X116688198Y-56215031D01*
X116688198Y-56215027D01*
X116689579Y-56206159D01*
X116688345Y-56196720D01*
X116687937Y-56193594D01*
X116687362Y-56166185D01*
X116697574Y-56050470D01*
X116701453Y-56028663D01*
X116702086Y-56026324D01*
X116737695Y-55894606D01*
X116745332Y-55873818D01*
X116804491Y-55748171D01*
X116815651Y-55729038D01*
X116895894Y-55615697D01*
X116910231Y-55598815D01*
X117009086Y-55501271D01*
X117026157Y-55487161D01*
X117062724Y-55461998D01*
X117140561Y-55408436D01*
X117159835Y-55397535D01*
X117178289Y-55389145D01*
X117286262Y-55340057D01*
X117307150Y-55332699D01*
X117441680Y-55298249D01*
X117463535Y-55294661D01*
X117502305Y-55291760D01*
X117572551Y-55286504D01*
X117588932Y-55287268D01*
X117588943Y-55286834D01*
X117597918Y-55287063D01*
X117606767Y-55288562D01*
X117615681Y-55287517D01*
X117615683Y-55287517D01*
X117642732Y-55284346D01*
X117657364Y-55283489D01*
X165275691Y-55269066D01*
X165295114Y-55270566D01*
G37*
%TD.AperFunction*%
M02*
