%TF.GenerationSoftware,KiCad,Pcbnew,(6.0.7-1)-1*%
%TF.CreationDate,2022-10-26T21:12:01+02:00*%
%TF.ProjectId,Modulo_LM2596S,4d6f6475-6c6f-45f4-9c4d-32353936532e,rev?*%
%TF.SameCoordinates,Original*%
%TF.FileFunction,Legend,Top*%
%TF.FilePolarity,Positive*%
%FSLAX46Y46*%
G04 Gerber Fmt 4.6, Leading zero omitted, Abs format (unit mm)*
G04 Created by KiCad (PCBNEW (6.0.7-1)-1) date 2022-10-26 21:12:01*
%MOMM*%
%LPD*%
G01*
G04 APERTURE LIST*
%ADD10C,0.150000*%
%ADD11C,0.120000*%
G04 APERTURE END LIST*
D10*
X196130952Y-73702380D02*
X196321428Y-73702380D01*
X196416666Y-73750000D01*
X196511904Y-73845238D01*
X196559523Y-74035714D01*
X196559523Y-74369047D01*
X196511904Y-74559523D01*
X196416666Y-74654761D01*
X196321428Y-74702380D01*
X196130952Y-74702380D01*
X196035714Y-74654761D01*
X195940476Y-74559523D01*
X195892857Y-74369047D01*
X195892857Y-74035714D01*
X195940476Y-73845238D01*
X196035714Y-73750000D01*
X196130952Y-73702380D01*
X196988095Y-73702380D02*
X196988095Y-74511904D01*
X197035714Y-74607142D01*
X197083333Y-74654761D01*
X197178571Y-74702380D01*
X197369047Y-74702380D01*
X197464285Y-74654761D01*
X197511904Y-74607142D01*
X197559523Y-74511904D01*
X197559523Y-73702380D01*
X197892857Y-73702380D02*
X198464285Y-73702380D01*
X198178571Y-74702380D02*
X198178571Y-73702380D01*
X198797619Y-74321428D02*
X199559523Y-74321428D01*
X199178571Y-74702380D02*
X199178571Y-73940476D01*
X196630952Y-88902380D02*
X196821428Y-88902380D01*
X196916666Y-88950000D01*
X197011904Y-89045238D01*
X197059523Y-89235714D01*
X197059523Y-89569047D01*
X197011904Y-89759523D01*
X196916666Y-89854761D01*
X196821428Y-89902380D01*
X196630952Y-89902380D01*
X196535714Y-89854761D01*
X196440476Y-89759523D01*
X196392857Y-89569047D01*
X196392857Y-89235714D01*
X196440476Y-89045238D01*
X196535714Y-88950000D01*
X196630952Y-88902380D01*
X197488095Y-88902380D02*
X197488095Y-89711904D01*
X197535714Y-89807142D01*
X197583333Y-89854761D01*
X197678571Y-89902380D01*
X197869047Y-89902380D01*
X197964285Y-89854761D01*
X198011904Y-89807142D01*
X198059523Y-89711904D01*
X198059523Y-88902380D01*
X198392857Y-88902380D02*
X198964285Y-88902380D01*
X198678571Y-89902380D02*
X198678571Y-88902380D01*
X199297619Y-89521428D02*
X200059523Y-89521428D01*
X152607142Y-74952380D02*
X152607142Y-73952380D01*
X153083333Y-74952380D02*
X153083333Y-73952380D01*
X153654761Y-74952380D01*
X153654761Y-73952380D01*
X154130952Y-74571428D02*
X154892857Y-74571428D01*
X154511904Y-74952380D02*
X154511904Y-74190476D01*
X152507142Y-89652380D02*
X152507142Y-88652380D01*
X152983333Y-89652380D02*
X152983333Y-88652380D01*
X153554761Y-89652380D01*
X153554761Y-88652380D01*
X154030952Y-89271428D02*
X154792857Y-89271428D01*
%TO.C,U101*%
X162152380Y-72864285D02*
X162961904Y-72864285D01*
X163057142Y-72816666D01*
X163104761Y-72769047D01*
X163152380Y-72673809D01*
X163152380Y-72483333D01*
X163104761Y-72388095D01*
X163057142Y-72340476D01*
X162961904Y-72292857D01*
X162152380Y-72292857D01*
X163152380Y-71292857D02*
X163152380Y-71864285D01*
X163152380Y-71578571D02*
X162152380Y-71578571D01*
X162295238Y-71673809D01*
X162390476Y-71769047D01*
X162438095Y-71864285D01*
X162152380Y-70673809D02*
X162152380Y-70578571D01*
X162200000Y-70483333D01*
X162247619Y-70435714D01*
X162342857Y-70388095D01*
X162533333Y-70340476D01*
X162771428Y-70340476D01*
X162961904Y-70388095D01*
X163057142Y-70435714D01*
X163104761Y-70483333D01*
X163152380Y-70578571D01*
X163152380Y-70673809D01*
X163104761Y-70769047D01*
X163057142Y-70816666D01*
X162961904Y-70864285D01*
X162771428Y-70911904D01*
X162533333Y-70911904D01*
X162342857Y-70864285D01*
X162247619Y-70816666D01*
X162200000Y-70769047D01*
X162152380Y-70673809D01*
X163152380Y-69388095D02*
X163152380Y-69959523D01*
X163152380Y-69673809D02*
X162152380Y-69673809D01*
X162295238Y-69769047D01*
X162390476Y-69864285D01*
X162438095Y-69959523D01*
%TO.C,RV101*%
X184417380Y-77637380D02*
X184084047Y-77161190D01*
X183845952Y-77637380D02*
X183845952Y-76637380D01*
X184226904Y-76637380D01*
X184322142Y-76685000D01*
X184369761Y-76732619D01*
X184417380Y-76827857D01*
X184417380Y-76970714D01*
X184369761Y-77065952D01*
X184322142Y-77113571D01*
X184226904Y-77161190D01*
X183845952Y-77161190D01*
X184703095Y-76637380D02*
X185036428Y-77637380D01*
X185369761Y-76637380D01*
X186226904Y-77637380D02*
X185655476Y-77637380D01*
X185941190Y-77637380D02*
X185941190Y-76637380D01*
X185845952Y-76780238D01*
X185750714Y-76875476D01*
X185655476Y-76923095D01*
X186845952Y-76637380D02*
X186941190Y-76637380D01*
X187036428Y-76685000D01*
X187084047Y-76732619D01*
X187131666Y-76827857D01*
X187179285Y-77018333D01*
X187179285Y-77256428D01*
X187131666Y-77446904D01*
X187084047Y-77542142D01*
X187036428Y-77589761D01*
X186941190Y-77637380D01*
X186845952Y-77637380D01*
X186750714Y-77589761D01*
X186703095Y-77542142D01*
X186655476Y-77446904D01*
X186607857Y-77256428D01*
X186607857Y-77018333D01*
X186655476Y-76827857D01*
X186703095Y-76732619D01*
X186750714Y-76685000D01*
X186845952Y-76637380D01*
X188131666Y-77637380D02*
X187560238Y-77637380D01*
X187845952Y-77637380D02*
X187845952Y-76637380D01*
X187750714Y-76780238D01*
X187655476Y-76875476D01*
X187560238Y-76923095D01*
%TO.C,C102*%
X160030952Y-87207142D02*
X159983333Y-87254761D01*
X159840476Y-87302380D01*
X159745238Y-87302380D01*
X159602380Y-87254761D01*
X159507142Y-87159523D01*
X159459523Y-87064285D01*
X159411904Y-86873809D01*
X159411904Y-86730952D01*
X159459523Y-86540476D01*
X159507142Y-86445238D01*
X159602380Y-86350000D01*
X159745238Y-86302380D01*
X159840476Y-86302380D01*
X159983333Y-86350000D01*
X160030952Y-86397619D01*
X160983333Y-87302380D02*
X160411904Y-87302380D01*
X160697619Y-87302380D02*
X160697619Y-86302380D01*
X160602380Y-86445238D01*
X160507142Y-86540476D01*
X160411904Y-86588095D01*
X161602380Y-86302380D02*
X161697619Y-86302380D01*
X161792857Y-86350000D01*
X161840476Y-86397619D01*
X161888095Y-86492857D01*
X161935714Y-86683333D01*
X161935714Y-86921428D01*
X161888095Y-87111904D01*
X161840476Y-87207142D01*
X161792857Y-87254761D01*
X161697619Y-87302380D01*
X161602380Y-87302380D01*
X161507142Y-87254761D01*
X161459523Y-87207142D01*
X161411904Y-87111904D01*
X161364285Y-86921428D01*
X161364285Y-86683333D01*
X161411904Y-86492857D01*
X161459523Y-86397619D01*
X161507142Y-86350000D01*
X161602380Y-86302380D01*
X162316666Y-86397619D02*
X162364285Y-86350000D01*
X162459523Y-86302380D01*
X162697619Y-86302380D01*
X162792857Y-86350000D01*
X162840476Y-86397619D01*
X162888095Y-86492857D01*
X162888095Y-86588095D01*
X162840476Y-86730952D01*
X162269047Y-87302380D01*
X162888095Y-87302380D01*
%TO.C,C101*%
X154380952Y-82057142D02*
X154333333Y-82104761D01*
X154190476Y-82152380D01*
X154095238Y-82152380D01*
X153952380Y-82104761D01*
X153857142Y-82009523D01*
X153809523Y-81914285D01*
X153761904Y-81723809D01*
X153761904Y-81580952D01*
X153809523Y-81390476D01*
X153857142Y-81295238D01*
X153952380Y-81200000D01*
X154095238Y-81152380D01*
X154190476Y-81152380D01*
X154333333Y-81200000D01*
X154380952Y-81247619D01*
X155333333Y-82152380D02*
X154761904Y-82152380D01*
X155047619Y-82152380D02*
X155047619Y-81152380D01*
X154952380Y-81295238D01*
X154857142Y-81390476D01*
X154761904Y-81438095D01*
X155952380Y-81152380D02*
X156047619Y-81152380D01*
X156142857Y-81200000D01*
X156190476Y-81247619D01*
X156238095Y-81342857D01*
X156285714Y-81533333D01*
X156285714Y-81771428D01*
X156238095Y-81961904D01*
X156190476Y-82057142D01*
X156142857Y-82104761D01*
X156047619Y-82152380D01*
X155952380Y-82152380D01*
X155857142Y-82104761D01*
X155809523Y-82057142D01*
X155761904Y-81961904D01*
X155714285Y-81771428D01*
X155714285Y-81533333D01*
X155761904Y-81342857D01*
X155809523Y-81247619D01*
X155857142Y-81200000D01*
X155952380Y-81152380D01*
X157238095Y-82152380D02*
X156666666Y-82152380D01*
X156952380Y-82152380D02*
X156952380Y-81152380D01*
X156857142Y-81295238D01*
X156761904Y-81390476D01*
X156666666Y-81438095D01*
%TO.C,R101*%
X176702380Y-72944047D02*
X176226190Y-73277380D01*
X176702380Y-73515476D02*
X175702380Y-73515476D01*
X175702380Y-73134523D01*
X175750000Y-73039285D01*
X175797619Y-72991666D01*
X175892857Y-72944047D01*
X176035714Y-72944047D01*
X176130952Y-72991666D01*
X176178571Y-73039285D01*
X176226190Y-73134523D01*
X176226190Y-73515476D01*
X176702380Y-71991666D02*
X176702380Y-72563095D01*
X176702380Y-72277380D02*
X175702380Y-72277380D01*
X175845238Y-72372619D01*
X175940476Y-72467857D01*
X175988095Y-72563095D01*
X175702380Y-71372619D02*
X175702380Y-71277380D01*
X175750000Y-71182142D01*
X175797619Y-71134523D01*
X175892857Y-71086904D01*
X176083333Y-71039285D01*
X176321428Y-71039285D01*
X176511904Y-71086904D01*
X176607142Y-71134523D01*
X176654761Y-71182142D01*
X176702380Y-71277380D01*
X176702380Y-71372619D01*
X176654761Y-71467857D01*
X176607142Y-71515476D01*
X176511904Y-71563095D01*
X176321428Y-71610714D01*
X176083333Y-71610714D01*
X175892857Y-71563095D01*
X175797619Y-71515476D01*
X175750000Y-71467857D01*
X175702380Y-71372619D01*
X176702380Y-70086904D02*
X176702380Y-70658333D01*
X176702380Y-70372619D02*
X175702380Y-70372619D01*
X175845238Y-70467857D01*
X175940476Y-70563095D01*
X175988095Y-70658333D01*
%TO.C,C103*%
X199307142Y-83569047D02*
X199354761Y-83616666D01*
X199402380Y-83759523D01*
X199402380Y-83854761D01*
X199354761Y-83997619D01*
X199259523Y-84092857D01*
X199164285Y-84140476D01*
X198973809Y-84188095D01*
X198830952Y-84188095D01*
X198640476Y-84140476D01*
X198545238Y-84092857D01*
X198450000Y-83997619D01*
X198402380Y-83854761D01*
X198402380Y-83759523D01*
X198450000Y-83616666D01*
X198497619Y-83569047D01*
X199402380Y-82616666D02*
X199402380Y-83188095D01*
X199402380Y-82902380D02*
X198402380Y-82902380D01*
X198545238Y-82997619D01*
X198640476Y-83092857D01*
X198688095Y-83188095D01*
X198402380Y-81997619D02*
X198402380Y-81902380D01*
X198450000Y-81807142D01*
X198497619Y-81759523D01*
X198592857Y-81711904D01*
X198783333Y-81664285D01*
X199021428Y-81664285D01*
X199211904Y-81711904D01*
X199307142Y-81759523D01*
X199354761Y-81807142D01*
X199402380Y-81902380D01*
X199402380Y-81997619D01*
X199354761Y-82092857D01*
X199307142Y-82140476D01*
X199211904Y-82188095D01*
X199021428Y-82235714D01*
X198783333Y-82235714D01*
X198592857Y-82188095D01*
X198497619Y-82140476D01*
X198450000Y-82092857D01*
X198402380Y-81997619D01*
X198402380Y-81330952D02*
X198402380Y-80711904D01*
X198783333Y-81045238D01*
X198783333Y-80902380D01*
X198830952Y-80807142D01*
X198878571Y-80759523D01*
X198973809Y-80711904D01*
X199211904Y-80711904D01*
X199307142Y-80759523D01*
X199354761Y-80807142D01*
X199402380Y-80902380D01*
X199402380Y-81188095D01*
X199354761Y-81283333D01*
X199307142Y-81330952D01*
%TO.C,C104*%
X179982142Y-77969047D02*
X180029761Y-78016666D01*
X180077380Y-78159523D01*
X180077380Y-78254761D01*
X180029761Y-78397619D01*
X179934523Y-78492857D01*
X179839285Y-78540476D01*
X179648809Y-78588095D01*
X179505952Y-78588095D01*
X179315476Y-78540476D01*
X179220238Y-78492857D01*
X179125000Y-78397619D01*
X179077380Y-78254761D01*
X179077380Y-78159523D01*
X179125000Y-78016666D01*
X179172619Y-77969047D01*
X180077380Y-77016666D02*
X180077380Y-77588095D01*
X180077380Y-77302380D02*
X179077380Y-77302380D01*
X179220238Y-77397619D01*
X179315476Y-77492857D01*
X179363095Y-77588095D01*
X179077380Y-76397619D02*
X179077380Y-76302380D01*
X179125000Y-76207142D01*
X179172619Y-76159523D01*
X179267857Y-76111904D01*
X179458333Y-76064285D01*
X179696428Y-76064285D01*
X179886904Y-76111904D01*
X179982142Y-76159523D01*
X180029761Y-76207142D01*
X180077380Y-76302380D01*
X180077380Y-76397619D01*
X180029761Y-76492857D01*
X179982142Y-76540476D01*
X179886904Y-76588095D01*
X179696428Y-76635714D01*
X179458333Y-76635714D01*
X179267857Y-76588095D01*
X179172619Y-76540476D01*
X179125000Y-76492857D01*
X179077380Y-76397619D01*
X179410714Y-75207142D02*
X180077380Y-75207142D01*
X179029761Y-75445238D02*
X179744047Y-75683333D01*
X179744047Y-75064285D01*
%TO.C,D101*%
X169509523Y-87627380D02*
X169509523Y-86627380D01*
X169747619Y-86627380D01*
X169890476Y-86675000D01*
X169985714Y-86770238D01*
X170033333Y-86865476D01*
X170080952Y-87055952D01*
X170080952Y-87198809D01*
X170033333Y-87389285D01*
X169985714Y-87484523D01*
X169890476Y-87579761D01*
X169747619Y-87627380D01*
X169509523Y-87627380D01*
X171033333Y-87627380D02*
X170461904Y-87627380D01*
X170747619Y-87627380D02*
X170747619Y-86627380D01*
X170652380Y-86770238D01*
X170557142Y-86865476D01*
X170461904Y-86913095D01*
X171652380Y-86627380D02*
X171747619Y-86627380D01*
X171842857Y-86675000D01*
X171890476Y-86722619D01*
X171938095Y-86817857D01*
X171985714Y-87008333D01*
X171985714Y-87246428D01*
X171938095Y-87436904D01*
X171890476Y-87532142D01*
X171842857Y-87579761D01*
X171747619Y-87627380D01*
X171652380Y-87627380D01*
X171557142Y-87579761D01*
X171509523Y-87532142D01*
X171461904Y-87436904D01*
X171414285Y-87246428D01*
X171414285Y-87008333D01*
X171461904Y-86817857D01*
X171509523Y-86722619D01*
X171557142Y-86675000D01*
X171652380Y-86627380D01*
X172938095Y-87627380D02*
X172366666Y-87627380D01*
X172652380Y-87627380D02*
X172652380Y-86627380D01*
X172557142Y-86770238D01*
X172461904Y-86865476D01*
X172366666Y-86913095D01*
%TO.C,L101*%
X181980952Y-80152380D02*
X181504761Y-80152380D01*
X181504761Y-79152380D01*
X182838095Y-80152380D02*
X182266666Y-80152380D01*
X182552380Y-80152380D02*
X182552380Y-79152380D01*
X182457142Y-79295238D01*
X182361904Y-79390476D01*
X182266666Y-79438095D01*
X183457142Y-79152380D02*
X183552380Y-79152380D01*
X183647619Y-79200000D01*
X183695238Y-79247619D01*
X183742857Y-79342857D01*
X183790476Y-79533333D01*
X183790476Y-79771428D01*
X183742857Y-79961904D01*
X183695238Y-80057142D01*
X183647619Y-80104761D01*
X183552380Y-80152380D01*
X183457142Y-80152380D01*
X183361904Y-80104761D01*
X183314285Y-80057142D01*
X183266666Y-79961904D01*
X183219047Y-79771428D01*
X183219047Y-79533333D01*
X183266666Y-79342857D01*
X183314285Y-79247619D01*
X183361904Y-79200000D01*
X183457142Y-79152380D01*
X184742857Y-80152380D02*
X184171428Y-80152380D01*
X184457142Y-80152380D02*
X184457142Y-79152380D01*
X184361904Y-79295238D01*
X184266666Y-79390476D01*
X184171428Y-79438095D01*
D11*
%TO.C,U101*%
X164875000Y-80900000D02*
X164875000Y-86025000D01*
X163925000Y-79400000D02*
X163925000Y-80900000D01*
X174325000Y-79400000D02*
X174325000Y-80900000D01*
X174325000Y-80900000D02*
X173375000Y-80900000D01*
X163925000Y-80900000D02*
X164875000Y-80900000D01*
X173375000Y-80900000D02*
X173375000Y-82000000D01*
%TO.C,RV101*%
X190850000Y-76055000D02*
X181080000Y-76055000D01*
X181080000Y-76055000D02*
X181080000Y-69715000D01*
X190850000Y-76055000D02*
X190850000Y-69715000D01*
X190850000Y-69715000D02*
X181080000Y-69715000D01*
%TO.C,C102*%
X160440000Y-82663748D02*
X160440000Y-84086252D01*
X162260000Y-82663748D02*
X162260000Y-84086252D01*
%TO.C,C101*%
X161141250Y-73006250D02*
X160353750Y-73006250D01*
X162310000Y-74704437D02*
X162310000Y-80460000D01*
X156554437Y-73640000D02*
X155490000Y-74704437D01*
X160747500Y-72612500D02*
X160747500Y-73400000D01*
X162310000Y-80460000D02*
X159960000Y-80460000D01*
X155490000Y-80460000D02*
X157840000Y-80460000D01*
X156554437Y-73640000D02*
X157840000Y-73640000D01*
X161245563Y-73640000D02*
X162310000Y-74704437D01*
X155490000Y-74704437D02*
X155490000Y-80460000D01*
X161245563Y-73640000D02*
X159960000Y-73640000D01*
%TO.C,R101*%
X177165000Y-72052064D02*
X177165000Y-71597936D01*
X178635000Y-72052064D02*
X178635000Y-71597936D01*
%TO.C,C103*%
X192254437Y-79040000D02*
X191190000Y-80104437D01*
X198010000Y-80104437D02*
X198010000Y-85860000D01*
X196447500Y-78012500D02*
X196447500Y-78800000D01*
X191190000Y-80104437D02*
X191190000Y-85860000D01*
X198010000Y-85860000D02*
X195660000Y-85860000D01*
X191190000Y-85860000D02*
X193540000Y-85860000D01*
X196945563Y-79040000D02*
X195660000Y-79040000D01*
X196841250Y-78406250D02*
X196053750Y-78406250D01*
X196945563Y-79040000D02*
X198010000Y-80104437D01*
X192254437Y-79040000D02*
X193540000Y-79040000D01*
%TO.C,C104*%
X178685000Y-76138748D02*
X178685000Y-77561252D01*
X176865000Y-76138748D02*
X176865000Y-77561252D01*
%TO.C,D101*%
X172250000Y-88300000D02*
X164950000Y-88300000D01*
X172250000Y-92600000D02*
X172250000Y-88300000D01*
X172250000Y-92600000D02*
X164950000Y-92600000D01*
%TO.C,L101*%
X176600000Y-83350000D02*
X175850000Y-83350000D01*
X176600000Y-90850000D02*
X176600000Y-93200000D01*
X177000000Y-80600000D02*
X189200000Y-80600000D01*
X189200000Y-93600000D02*
X177000000Y-93600000D01*
X176600000Y-81000000D02*
X176600000Y-83350000D01*
X189600000Y-81000000D02*
X189600000Y-83350000D01*
X189600000Y-90850000D02*
X189600000Y-93200000D01*
X176600000Y-93200000D02*
G75*
G03*
X177000000Y-93600000I399999J-1D01*
G01*
X189600000Y-81000000D02*
G75*
G03*
X189200000Y-80600000I-400000J0D01*
G01*
X189200000Y-93600000D02*
G75*
G03*
X189600000Y-93200000I0J400000D01*
G01*
X177000000Y-80600000D02*
G75*
G03*
X176600000Y-81000000I-1J-399999D01*
G01*
%TD*%
M02*
