%TF.GenerationSoftware,KiCad,Pcbnew,(6.0.7-1)-1*%
%TF.CreationDate,2022-10-26T21:12:01+02:00*%
%TF.ProjectId,Modulo_LM2596S,4d6f6475-6c6f-45f4-9c4d-32353936532e,rev?*%
%TF.SameCoordinates,Original*%
%TF.FileFunction,Legend,Bot*%
%TF.FilePolarity,Positive*%
%FSLAX46Y46*%
G04 Gerber Fmt 4.6, Leading zero omitted, Abs format (unit mm)*
G04 Created by KiCad (PCBNEW (6.0.7-1)-1) date 2022-10-26 21:12:01*
%MOMM*%
%LPD*%
G01*
G04 APERTURE LIST*
%ADD10C,0.150000*%
G04 APERTURE END LIST*
D10*
X178214285Y-80596666D02*
X177738095Y-80596666D01*
X178309523Y-80882380D02*
X177976190Y-79882380D01*
X177642857Y-80882380D01*
X176880952Y-80215714D02*
X176880952Y-80882380D01*
X177309523Y-80215714D02*
X177309523Y-80739523D01*
X177261904Y-80834761D01*
X177166666Y-80882380D01*
X177023809Y-80882380D01*
X176928571Y-80834761D01*
X176880952Y-80787142D01*
X176547619Y-80215714D02*
X176166666Y-80215714D01*
X176404761Y-79882380D02*
X176404761Y-80739523D01*
X176357142Y-80834761D01*
X176261904Y-80882380D01*
X176166666Y-80882380D01*
X175833333Y-80882380D02*
X175833333Y-79882380D01*
X175404761Y-80882380D02*
X175404761Y-80358571D01*
X175452380Y-80263333D01*
X175547619Y-80215714D01*
X175690476Y-80215714D01*
X175785714Y-80263333D01*
X175833333Y-80310952D01*
X174785714Y-80882380D02*
X174880952Y-80834761D01*
X174928571Y-80787142D01*
X174976190Y-80691904D01*
X174976190Y-80406190D01*
X174928571Y-80310952D01*
X174880952Y-80263333D01*
X174785714Y-80215714D01*
X174642857Y-80215714D01*
X174547619Y-80263333D01*
X174500000Y-80310952D01*
X174452380Y-80406190D01*
X174452380Y-80691904D01*
X174500000Y-80787142D01*
X174547619Y-80834761D01*
X174642857Y-80882380D01*
X174785714Y-80882380D01*
X174023809Y-80882380D02*
X174023809Y-80215714D01*
X174023809Y-80406190D02*
X173976190Y-80310952D01*
X173928571Y-80263333D01*
X173833333Y-80215714D01*
X173738095Y-80215714D01*
X173452380Y-80834761D02*
X173357142Y-80882380D01*
X173166666Y-80882380D01*
X173071428Y-80834761D01*
X173023809Y-80739523D01*
X173023809Y-80691904D01*
X173071428Y-80596666D01*
X173166666Y-80549047D01*
X173309523Y-80549047D01*
X173404761Y-80501428D01*
X173452380Y-80406190D01*
X173452380Y-80358571D01*
X173404761Y-80263333D01*
X173309523Y-80215714D01*
X173166666Y-80215714D01*
X173071428Y-80263333D01*
X172595238Y-80787142D02*
X172547619Y-80834761D01*
X172595238Y-80882380D01*
X172642857Y-80834761D01*
X172595238Y-80787142D01*
X172595238Y-80882380D01*
X172595238Y-80263333D02*
X172547619Y-80310952D01*
X172595238Y-80358571D01*
X172642857Y-80310952D01*
X172595238Y-80263333D01*
X172595238Y-80358571D01*
X187571428Y-82111428D02*
X186809523Y-82111428D01*
X185000000Y-82397142D02*
X185047619Y-82444761D01*
X185190476Y-82492380D01*
X185285714Y-82492380D01*
X185428571Y-82444761D01*
X185523809Y-82349523D01*
X185571428Y-82254285D01*
X185619047Y-82063809D01*
X185619047Y-81920952D01*
X185571428Y-81730476D01*
X185523809Y-81635238D01*
X185428571Y-81540000D01*
X185285714Y-81492380D01*
X185190476Y-81492380D01*
X185047619Y-81540000D01*
X185000000Y-81587619D01*
X184571428Y-82492380D02*
X184571428Y-81825714D01*
X184571428Y-82016190D02*
X184523809Y-81920952D01*
X184476190Y-81873333D01*
X184380952Y-81825714D01*
X184285714Y-81825714D01*
X183952380Y-82492380D02*
X183952380Y-81825714D01*
X183952380Y-81492380D02*
X184000000Y-81540000D01*
X183952380Y-81587619D01*
X183904761Y-81540000D01*
X183952380Y-81492380D01*
X183952380Y-81587619D01*
X183523809Y-82444761D02*
X183428571Y-82492380D01*
X183238095Y-82492380D01*
X183142857Y-82444761D01*
X183095238Y-82349523D01*
X183095238Y-82301904D01*
X183142857Y-82206666D01*
X183238095Y-82159047D01*
X183380952Y-82159047D01*
X183476190Y-82111428D01*
X183523809Y-82016190D01*
X183523809Y-81968571D01*
X183476190Y-81873333D01*
X183380952Y-81825714D01*
X183238095Y-81825714D01*
X183142857Y-81873333D01*
X182809523Y-81825714D02*
X182428571Y-81825714D01*
X182666666Y-81492380D02*
X182666666Y-82349523D01*
X182619047Y-82444761D01*
X182523809Y-82492380D01*
X182428571Y-82492380D01*
X181952380Y-82492380D02*
X182047619Y-82444761D01*
X182095238Y-82397142D01*
X182142857Y-82301904D01*
X182142857Y-82016190D01*
X182095238Y-81920952D01*
X182047619Y-81873333D01*
X181952380Y-81825714D01*
X181809523Y-81825714D01*
X181714285Y-81873333D01*
X181666666Y-81920952D01*
X181619047Y-82016190D01*
X181619047Y-82301904D01*
X181666666Y-82397142D01*
X181714285Y-82444761D01*
X181809523Y-82492380D01*
X181952380Y-82492380D01*
X181333333Y-81825714D02*
X180952380Y-81825714D01*
X181190476Y-82492380D02*
X181190476Y-81635238D01*
X181142857Y-81540000D01*
X181047619Y-81492380D01*
X180952380Y-81492380D01*
X180476190Y-82492380D02*
X180571428Y-82444761D01*
X180619047Y-82397142D01*
X180666666Y-82301904D01*
X180666666Y-82016190D01*
X180619047Y-81920952D01*
X180571428Y-81873333D01*
X180476190Y-81825714D01*
X180333333Y-81825714D01*
X180238095Y-81873333D01*
X180190476Y-81920952D01*
X180142857Y-82016190D01*
X180142857Y-82301904D01*
X180190476Y-82397142D01*
X180238095Y-82444761D01*
X180333333Y-82492380D01*
X180476190Y-82492380D01*
X179571428Y-82492380D02*
X179666666Y-82444761D01*
X179714285Y-82349523D01*
X179714285Y-81492380D01*
X179190476Y-82492380D02*
X179190476Y-81825714D01*
X179190476Y-81492380D02*
X179238095Y-81540000D01*
X179190476Y-81587619D01*
X179142857Y-81540000D01*
X179190476Y-81492380D01*
X179190476Y-81587619D01*
X177952380Y-82492380D02*
X177952380Y-81492380D01*
X177380952Y-82492380D01*
X177380952Y-81492380D01*
X176904761Y-82492380D02*
X176904761Y-81825714D01*
X176904761Y-81492380D02*
X176952380Y-81540000D01*
X176904761Y-81587619D01*
X176857142Y-81540000D01*
X176904761Y-81492380D01*
X176904761Y-81587619D01*
X176000000Y-82444761D02*
X176095238Y-82492380D01*
X176285714Y-82492380D01*
X176380952Y-82444761D01*
X176428571Y-82397142D01*
X176476190Y-82301904D01*
X176476190Y-82016190D01*
X176428571Y-81920952D01*
X176380952Y-81873333D01*
X176285714Y-81825714D01*
X176095238Y-81825714D01*
X176000000Y-81873333D01*
X175428571Y-82492380D02*
X175523809Y-82444761D01*
X175571428Y-82397142D01*
X175619047Y-82301904D01*
X175619047Y-82016190D01*
X175571428Y-81920952D01*
X175523809Y-81873333D01*
X175428571Y-81825714D01*
X175285714Y-81825714D01*
X175190476Y-81873333D01*
X175142857Y-81920952D01*
X175095238Y-82016190D01*
X175095238Y-82301904D01*
X175142857Y-82397142D01*
X175190476Y-82444761D01*
X175285714Y-82492380D01*
X175428571Y-82492380D01*
X174523809Y-82492380D02*
X174619047Y-82444761D01*
X174666666Y-82349523D01*
X174666666Y-81492380D01*
X173714285Y-82492380D02*
X173714285Y-81968571D01*
X173761904Y-81873333D01*
X173857142Y-81825714D01*
X174047619Y-81825714D01*
X174142857Y-81873333D01*
X173714285Y-82444761D02*
X173809523Y-82492380D01*
X174047619Y-82492380D01*
X174142857Y-82444761D01*
X174190476Y-82349523D01*
X174190476Y-82254285D01*
X174142857Y-82159047D01*
X174047619Y-82111428D01*
X173809523Y-82111428D01*
X173714285Y-82063809D01*
X172476190Y-82111428D02*
X171714285Y-82111428D01*
X170523809Y-82444761D02*
X170380952Y-82492380D01*
X170142857Y-82492380D01*
X170047619Y-82444761D01*
X170000000Y-82397142D01*
X169952380Y-82301904D01*
X169952380Y-82206666D01*
X170000000Y-82111428D01*
X170047619Y-82063809D01*
X170142857Y-82016190D01*
X170333333Y-81968571D01*
X170428571Y-81920952D01*
X170476190Y-81873333D01*
X170523809Y-81778095D01*
X170523809Y-81682857D01*
X170476190Y-81587619D01*
X170428571Y-81540000D01*
X170333333Y-81492380D01*
X170095238Y-81492380D01*
X169952380Y-81540000D01*
X169095238Y-82444761D02*
X169190476Y-82492380D01*
X169380952Y-82492380D01*
X169476190Y-82444761D01*
X169523809Y-82397142D01*
X169571428Y-82301904D01*
X169571428Y-82016190D01*
X169523809Y-81920952D01*
X169476190Y-81873333D01*
X169380952Y-81825714D01*
X169190476Y-81825714D01*
X169095238Y-81873333D01*
X168666666Y-82492380D02*
X168666666Y-81492380D01*
X168238095Y-82492380D02*
X168238095Y-81968571D01*
X168285714Y-81873333D01*
X168380952Y-81825714D01*
X168523809Y-81825714D01*
X168619047Y-81873333D01*
X168666666Y-81920952D01*
X167380952Y-82444761D02*
X167476190Y-82492380D01*
X167666666Y-82492380D01*
X167761904Y-82444761D01*
X167809523Y-82349523D01*
X167809523Y-81968571D01*
X167761904Y-81873333D01*
X167666666Y-81825714D01*
X167476190Y-81825714D01*
X167380952Y-81873333D01*
X167333333Y-81968571D01*
X167333333Y-82063809D01*
X167809523Y-82159047D01*
X166904761Y-82492380D02*
X166904761Y-81825714D01*
X166904761Y-81920952D02*
X166857142Y-81873333D01*
X166761904Y-81825714D01*
X166619047Y-81825714D01*
X166523809Y-81873333D01*
X166476190Y-81968571D01*
X166476190Y-82492380D01*
X166476190Y-81968571D02*
X166428571Y-81873333D01*
X166333333Y-81825714D01*
X166190476Y-81825714D01*
X166095238Y-81873333D01*
X166047619Y-81968571D01*
X166047619Y-82492380D01*
X165142857Y-82492380D02*
X165142857Y-81968571D01*
X165190476Y-81873333D01*
X165285714Y-81825714D01*
X165476190Y-81825714D01*
X165571428Y-81873333D01*
X165142857Y-82444761D02*
X165238095Y-82492380D01*
X165476190Y-82492380D01*
X165571428Y-82444761D01*
X165619047Y-82349523D01*
X165619047Y-82254285D01*
X165571428Y-82159047D01*
X165476190Y-82111428D01*
X165238095Y-82111428D01*
X165142857Y-82063809D01*
X164809523Y-81825714D02*
X164428571Y-81825714D01*
X164666666Y-81492380D02*
X164666666Y-82349523D01*
X164619047Y-82444761D01*
X164523809Y-82492380D01*
X164428571Y-82492380D01*
X164095238Y-82492380D02*
X164095238Y-81825714D01*
X164095238Y-81492380D02*
X164142857Y-81540000D01*
X164095238Y-81587619D01*
X164047619Y-81540000D01*
X164095238Y-81492380D01*
X164095238Y-81587619D01*
X163190476Y-82444761D02*
X163285714Y-82492380D01*
X163476190Y-82492380D01*
X163571428Y-82444761D01*
X163619047Y-82397142D01*
X163666666Y-82301904D01*
X163666666Y-82016190D01*
X163619047Y-81920952D01*
X163571428Y-81873333D01*
X163476190Y-81825714D01*
X163285714Y-81825714D01*
X163190476Y-81873333D01*
X162809523Y-82444761D02*
X162714285Y-82492380D01*
X162523809Y-82492380D01*
X162428571Y-82444761D01*
X162380952Y-82349523D01*
X162380952Y-82301904D01*
X162428571Y-82206666D01*
X162523809Y-82159047D01*
X162666666Y-82159047D01*
X162761904Y-82111428D01*
X162809523Y-82016190D01*
X162809523Y-81968571D01*
X162761904Y-81873333D01*
X162666666Y-81825714D01*
X162523809Y-81825714D01*
X162428571Y-81873333D01*
X187404761Y-83721428D02*
X186642857Y-83721428D01*
X184833333Y-84102380D02*
X185166666Y-83626190D01*
X185404761Y-84102380D02*
X185404761Y-83102380D01*
X185023809Y-83102380D01*
X184928571Y-83150000D01*
X184880952Y-83197619D01*
X184833333Y-83292857D01*
X184833333Y-83435714D01*
X184880952Y-83530952D01*
X184928571Y-83578571D01*
X185023809Y-83626190D01*
X185404761Y-83626190D01*
X183976190Y-84102380D02*
X183976190Y-83578571D01*
X184023809Y-83483333D01*
X184119047Y-83435714D01*
X184309523Y-83435714D01*
X184404761Y-83483333D01*
X183976190Y-84054761D02*
X184071428Y-84102380D01*
X184309523Y-84102380D01*
X184404761Y-84054761D01*
X184452380Y-83959523D01*
X184452380Y-83864285D01*
X184404761Y-83769047D01*
X184309523Y-83721428D01*
X184071428Y-83721428D01*
X183976190Y-83673809D01*
X183547619Y-84054761D02*
X183452380Y-84102380D01*
X183261904Y-84102380D01*
X183166666Y-84054761D01*
X183119047Y-83959523D01*
X183119047Y-83911904D01*
X183166666Y-83816666D01*
X183261904Y-83769047D01*
X183404761Y-83769047D01*
X183500000Y-83721428D01*
X183547619Y-83626190D01*
X183547619Y-83578571D01*
X183500000Y-83483333D01*
X183404761Y-83435714D01*
X183261904Y-83435714D01*
X183166666Y-83483333D01*
X182309523Y-84054761D02*
X182404761Y-84102380D01*
X182595238Y-84102380D01*
X182690476Y-84054761D01*
X182738095Y-83959523D01*
X182738095Y-83578571D01*
X182690476Y-83483333D01*
X182595238Y-83435714D01*
X182404761Y-83435714D01*
X182309523Y-83483333D01*
X182261904Y-83578571D01*
X182261904Y-83673809D01*
X182738095Y-83769047D01*
X181833333Y-84102380D02*
X181833333Y-83435714D01*
X181833333Y-83626190D02*
X181785714Y-83530952D01*
X181738095Y-83483333D01*
X181642857Y-83435714D01*
X181547619Y-83435714D01*
X180785714Y-84102380D02*
X180785714Y-83578571D01*
X180833333Y-83483333D01*
X180928571Y-83435714D01*
X181119047Y-83435714D01*
X181214285Y-83483333D01*
X180785714Y-84054761D02*
X180880952Y-84102380D01*
X181119047Y-84102380D01*
X181214285Y-84054761D01*
X181261904Y-83959523D01*
X181261904Y-83864285D01*
X181214285Y-83769047D01*
X181119047Y-83721428D01*
X180880952Y-83721428D01*
X180785714Y-83673809D01*
X179023809Y-83150000D02*
X179119047Y-83102380D01*
X179261904Y-83102380D01*
X179404761Y-83150000D01*
X179500000Y-83245238D01*
X179547619Y-83340476D01*
X179595238Y-83530952D01*
X179595238Y-83673809D01*
X179547619Y-83864285D01*
X179500000Y-83959523D01*
X179404761Y-84054761D01*
X179261904Y-84102380D01*
X179166666Y-84102380D01*
X179023809Y-84054761D01*
X178976190Y-84007142D01*
X178976190Y-83673809D01*
X179166666Y-83673809D01*
X178547619Y-84102380D02*
X178547619Y-83435714D01*
X178547619Y-83102380D02*
X178595238Y-83150000D01*
X178547619Y-83197619D01*
X178500000Y-83150000D01*
X178547619Y-83102380D01*
X178547619Y-83197619D01*
X177928571Y-84102380D02*
X178023809Y-84054761D01*
X178071428Y-84007142D01*
X178119047Y-83911904D01*
X178119047Y-83626190D01*
X178071428Y-83530952D01*
X178023809Y-83483333D01*
X177928571Y-83435714D01*
X177785714Y-83435714D01*
X177690476Y-83483333D01*
X177642857Y-83530952D01*
X177595238Y-83626190D01*
X177595238Y-83911904D01*
X177642857Y-84007142D01*
X177690476Y-84054761D01*
X177785714Y-84102380D01*
X177928571Y-84102380D01*
X177261904Y-83435714D02*
X177023809Y-84102380D01*
X176785714Y-83435714D01*
X175976190Y-84102380D02*
X175976190Y-83578571D01*
X176023809Y-83483333D01*
X176119047Y-83435714D01*
X176309523Y-83435714D01*
X176404761Y-83483333D01*
X175976190Y-84054761D02*
X176071428Y-84102380D01*
X176309523Y-84102380D01*
X176404761Y-84054761D01*
X176452380Y-83959523D01*
X176452380Y-83864285D01*
X176404761Y-83769047D01*
X176309523Y-83721428D01*
X176071428Y-83721428D01*
X175976190Y-83673809D01*
X175500000Y-83435714D02*
X175500000Y-84102380D01*
X175500000Y-83530952D02*
X175452380Y-83483333D01*
X175357142Y-83435714D01*
X175214285Y-83435714D01*
X175119047Y-83483333D01*
X175071428Y-83578571D01*
X175071428Y-84102380D01*
X174595238Y-83435714D02*
X174595238Y-84102380D01*
X174595238Y-83530952D02*
X174547619Y-83483333D01*
X174452380Y-83435714D01*
X174309523Y-83435714D01*
X174214285Y-83483333D01*
X174166666Y-83578571D01*
X174166666Y-84102380D01*
X173690476Y-84102380D02*
X173690476Y-83435714D01*
X173690476Y-83102380D02*
X173738095Y-83150000D01*
X173690476Y-83197619D01*
X173642857Y-83150000D01*
X173690476Y-83102380D01*
X173690476Y-83197619D01*
X172452380Y-83721428D02*
X171690476Y-83721428D01*
X170452380Y-84102380D02*
X170452380Y-83102380D01*
X170071428Y-83102380D01*
X169976190Y-83150000D01*
X169928571Y-83197619D01*
X169880952Y-83292857D01*
X169880952Y-83435714D01*
X169928571Y-83530952D01*
X169976190Y-83578571D01*
X170071428Y-83626190D01*
X170452380Y-83626190D01*
X168880952Y-84007142D02*
X168928571Y-84054761D01*
X169071428Y-84102380D01*
X169166666Y-84102380D01*
X169309523Y-84054761D01*
X169404761Y-83959523D01*
X169452380Y-83864285D01*
X169500000Y-83673809D01*
X169500000Y-83530952D01*
X169452380Y-83340476D01*
X169404761Y-83245238D01*
X169309523Y-83150000D01*
X169166666Y-83102380D01*
X169071428Y-83102380D01*
X168928571Y-83150000D01*
X168880952Y-83197619D01*
X168119047Y-83578571D02*
X167976190Y-83626190D01*
X167928571Y-83673809D01*
X167880952Y-83769047D01*
X167880952Y-83911904D01*
X167928571Y-84007142D01*
X167976190Y-84054761D01*
X168071428Y-84102380D01*
X168452380Y-84102380D01*
X168452380Y-83102380D01*
X168119047Y-83102380D01*
X168023809Y-83150000D01*
X167976190Y-83197619D01*
X167928571Y-83292857D01*
X167928571Y-83388095D01*
X167976190Y-83483333D01*
X168023809Y-83530952D01*
X168119047Y-83578571D01*
X168452380Y-83578571D01*
X166547619Y-84102380D02*
X166642857Y-84054761D01*
X166690476Y-83959523D01*
X166690476Y-83102380D01*
X165738095Y-84102380D02*
X165738095Y-83578571D01*
X165785714Y-83483333D01*
X165880952Y-83435714D01*
X166071428Y-83435714D01*
X166166666Y-83483333D01*
X165738095Y-84054761D02*
X165833333Y-84102380D01*
X166071428Y-84102380D01*
X166166666Y-84054761D01*
X166214285Y-83959523D01*
X166214285Y-83864285D01*
X166166666Y-83769047D01*
X166071428Y-83721428D01*
X165833333Y-83721428D01*
X165738095Y-83673809D01*
X165357142Y-83435714D02*
X165119047Y-84102380D01*
X164880952Y-83435714D02*
X165119047Y-84102380D01*
X165214285Y-84340476D01*
X165261904Y-84388095D01*
X165357142Y-84435714D01*
X164357142Y-84102380D02*
X164452380Y-84054761D01*
X164500000Y-84007142D01*
X164547619Y-83911904D01*
X164547619Y-83626190D01*
X164500000Y-83530952D01*
X164452380Y-83483333D01*
X164357142Y-83435714D01*
X164214285Y-83435714D01*
X164119047Y-83483333D01*
X164071428Y-83530952D01*
X164023809Y-83626190D01*
X164023809Y-83911904D01*
X164071428Y-84007142D01*
X164119047Y-84054761D01*
X164214285Y-84102380D01*
X164357142Y-84102380D01*
X163166666Y-83435714D02*
X163166666Y-84102380D01*
X163595238Y-83435714D02*
X163595238Y-83959523D01*
X163547619Y-84054761D01*
X163452380Y-84102380D01*
X163309523Y-84102380D01*
X163214285Y-84054761D01*
X163166666Y-84007142D01*
X162833333Y-83435714D02*
X162452380Y-83435714D01*
X162690476Y-83102380D02*
X162690476Y-83959523D01*
X162642857Y-84054761D01*
X162547619Y-84102380D01*
X162452380Y-84102380D01*
X195571428Y-87322380D02*
X195571428Y-86322380D01*
X195142857Y-87322380D02*
X195142857Y-86798571D01*
X195190476Y-86703333D01*
X195285714Y-86655714D01*
X195428571Y-86655714D01*
X195523809Y-86703333D01*
X195571428Y-86750952D01*
X194809523Y-86655714D02*
X194428571Y-86655714D01*
X194666666Y-86322380D02*
X194666666Y-87179523D01*
X194619047Y-87274761D01*
X194523809Y-87322380D01*
X194428571Y-87322380D01*
X194238095Y-86655714D02*
X193857142Y-86655714D01*
X194095238Y-86322380D02*
X194095238Y-87179523D01*
X194047619Y-87274761D01*
X193952380Y-87322380D01*
X193857142Y-87322380D01*
X193523809Y-86655714D02*
X193523809Y-87655714D01*
X193523809Y-86703333D02*
X193428571Y-86655714D01*
X193238095Y-86655714D01*
X193142857Y-86703333D01*
X193095238Y-86750952D01*
X193047619Y-86846190D01*
X193047619Y-87131904D01*
X193095238Y-87227142D01*
X193142857Y-87274761D01*
X193238095Y-87322380D01*
X193428571Y-87322380D01*
X193523809Y-87274761D01*
X192666666Y-87274761D02*
X192571428Y-87322380D01*
X192380952Y-87322380D01*
X192285714Y-87274761D01*
X192238095Y-87179523D01*
X192238095Y-87131904D01*
X192285714Y-87036666D01*
X192380952Y-86989047D01*
X192523809Y-86989047D01*
X192619047Y-86941428D01*
X192666666Y-86846190D01*
X192666666Y-86798571D01*
X192619047Y-86703333D01*
X192523809Y-86655714D01*
X192380952Y-86655714D01*
X192285714Y-86703333D01*
X191809523Y-87227142D02*
X191761904Y-87274761D01*
X191809523Y-87322380D01*
X191857142Y-87274761D01*
X191809523Y-87227142D01*
X191809523Y-87322380D01*
X191809523Y-86703333D02*
X191761904Y-86750952D01*
X191809523Y-86798571D01*
X191857142Y-86750952D01*
X191809523Y-86703333D01*
X191809523Y-86798571D01*
X190619047Y-86274761D02*
X191476190Y-87560476D01*
X189571428Y-86274761D02*
X190428571Y-87560476D01*
X188809523Y-86655714D02*
X188809523Y-87465238D01*
X188857142Y-87560476D01*
X188904761Y-87608095D01*
X189000000Y-87655714D01*
X189142857Y-87655714D01*
X189238095Y-87608095D01*
X188809523Y-87274761D02*
X188904761Y-87322380D01*
X189095238Y-87322380D01*
X189190476Y-87274761D01*
X189238095Y-87227142D01*
X189285714Y-87131904D01*
X189285714Y-86846190D01*
X189238095Y-86750952D01*
X189190476Y-86703333D01*
X189095238Y-86655714D01*
X188904761Y-86655714D01*
X188809523Y-86703333D01*
X188333333Y-87322380D02*
X188333333Y-86655714D01*
X188333333Y-86322380D02*
X188380952Y-86370000D01*
X188333333Y-86417619D01*
X188285714Y-86370000D01*
X188333333Y-86322380D01*
X188333333Y-86417619D01*
X188000000Y-86655714D02*
X187619047Y-86655714D01*
X187857142Y-86322380D02*
X187857142Y-87179523D01*
X187809523Y-87274761D01*
X187714285Y-87322380D01*
X187619047Y-87322380D01*
X187285714Y-87322380D02*
X187285714Y-86322380D01*
X186857142Y-87322380D02*
X186857142Y-86798571D01*
X186904761Y-86703333D01*
X187000000Y-86655714D01*
X187142857Y-86655714D01*
X187238095Y-86703333D01*
X187285714Y-86750952D01*
X185952380Y-86655714D02*
X185952380Y-87322380D01*
X186380952Y-86655714D02*
X186380952Y-87179523D01*
X186333333Y-87274761D01*
X186238095Y-87322380D01*
X186095238Y-87322380D01*
X186000000Y-87274761D01*
X185952380Y-87227142D01*
X185476190Y-87322380D02*
X185476190Y-86322380D01*
X185476190Y-86703333D02*
X185380952Y-86655714D01*
X185190476Y-86655714D01*
X185095238Y-86703333D01*
X185047619Y-86750952D01*
X185000000Y-86846190D01*
X185000000Y-87131904D01*
X185047619Y-87227142D01*
X185095238Y-87274761D01*
X185190476Y-87322380D01*
X185380952Y-87322380D01*
X185476190Y-87274761D01*
X184571428Y-87227142D02*
X184523809Y-87274761D01*
X184571428Y-87322380D01*
X184619047Y-87274761D01*
X184571428Y-87227142D01*
X184571428Y-87322380D01*
X183666666Y-87274761D02*
X183761904Y-87322380D01*
X183952380Y-87322380D01*
X184047619Y-87274761D01*
X184095238Y-87227142D01*
X184142857Y-87131904D01*
X184142857Y-86846190D01*
X184095238Y-86750952D01*
X184047619Y-86703333D01*
X183952380Y-86655714D01*
X183761904Y-86655714D01*
X183666666Y-86703333D01*
X183095238Y-87322380D02*
X183190476Y-87274761D01*
X183238095Y-87227142D01*
X183285714Y-87131904D01*
X183285714Y-86846190D01*
X183238095Y-86750952D01*
X183190476Y-86703333D01*
X183095238Y-86655714D01*
X182952380Y-86655714D01*
X182857142Y-86703333D01*
X182809523Y-86750952D01*
X182761904Y-86846190D01*
X182761904Y-87131904D01*
X182809523Y-87227142D01*
X182857142Y-87274761D01*
X182952380Y-87322380D01*
X183095238Y-87322380D01*
X182333333Y-87322380D02*
X182333333Y-86655714D01*
X182333333Y-86750952D02*
X182285714Y-86703333D01*
X182190476Y-86655714D01*
X182047619Y-86655714D01*
X181952380Y-86703333D01*
X181904761Y-86798571D01*
X181904761Y-87322380D01*
X181904761Y-86798571D02*
X181857142Y-86703333D01*
X181761904Y-86655714D01*
X181619047Y-86655714D01*
X181523809Y-86703333D01*
X181476190Y-86798571D01*
X181476190Y-87322380D01*
X180285714Y-86274761D02*
X181142857Y-87560476D01*
X179428571Y-86370000D02*
X179523809Y-86322380D01*
X179666666Y-86322380D01*
X179809523Y-86370000D01*
X179904761Y-86465238D01*
X179952380Y-86560476D01*
X180000000Y-86750952D01*
X180000000Y-86893809D01*
X179952380Y-87084285D01*
X179904761Y-87179523D01*
X179809523Y-87274761D01*
X179666666Y-87322380D01*
X179571428Y-87322380D01*
X179428571Y-87274761D01*
X179380952Y-87227142D01*
X179380952Y-86893809D01*
X179571428Y-86893809D01*
X178952380Y-87322380D02*
X178952380Y-86655714D01*
X178952380Y-86322380D02*
X179000000Y-86370000D01*
X178952380Y-86417619D01*
X178904761Y-86370000D01*
X178952380Y-86322380D01*
X178952380Y-86417619D01*
X178333333Y-87322380D02*
X178428571Y-87274761D01*
X178476190Y-87227142D01*
X178523809Y-87131904D01*
X178523809Y-86846190D01*
X178476190Y-86750952D01*
X178428571Y-86703333D01*
X178333333Y-86655714D01*
X178190476Y-86655714D01*
X178095238Y-86703333D01*
X178047619Y-86750952D01*
X178000000Y-86846190D01*
X178000000Y-87131904D01*
X178047619Y-87227142D01*
X178095238Y-87274761D01*
X178190476Y-87322380D01*
X178333333Y-87322380D01*
X177666666Y-86655714D02*
X177428571Y-87322380D01*
X177190476Y-86655714D01*
X176380952Y-87322380D02*
X176380952Y-86798571D01*
X176428571Y-86703333D01*
X176523809Y-86655714D01*
X176714285Y-86655714D01*
X176809523Y-86703333D01*
X176380952Y-87274761D02*
X176476190Y-87322380D01*
X176714285Y-87322380D01*
X176809523Y-87274761D01*
X176857142Y-87179523D01*
X176857142Y-87084285D01*
X176809523Y-86989047D01*
X176714285Y-86941428D01*
X176476190Y-86941428D01*
X176380952Y-86893809D01*
X175904761Y-86655714D02*
X175904761Y-87322380D01*
X175904761Y-86750952D02*
X175857142Y-86703333D01*
X175761904Y-86655714D01*
X175619047Y-86655714D01*
X175523809Y-86703333D01*
X175476190Y-86798571D01*
X175476190Y-87322380D01*
X175000000Y-86655714D02*
X175000000Y-87322380D01*
X175000000Y-86750952D02*
X174952380Y-86703333D01*
X174857142Y-86655714D01*
X174714285Y-86655714D01*
X174619047Y-86703333D01*
X174571428Y-86798571D01*
X174571428Y-87322380D01*
X174095238Y-87322380D02*
X174095238Y-86655714D01*
X174095238Y-86322380D02*
X174142857Y-86370000D01*
X174095238Y-86417619D01*
X174047619Y-86370000D01*
X174095238Y-86322380D01*
X174095238Y-86417619D01*
X173047619Y-87322380D02*
X173380952Y-86846190D01*
X173619047Y-87322380D02*
X173619047Y-86322380D01*
X173238095Y-86322380D01*
X173142857Y-86370000D01*
X173095238Y-86417619D01*
X173047619Y-86512857D01*
X173047619Y-86655714D01*
X173095238Y-86750952D01*
X173142857Y-86798571D01*
X173238095Y-86846190D01*
X173619047Y-86846190D01*
X172190476Y-87322380D02*
X172190476Y-86798571D01*
X172238095Y-86703333D01*
X172333333Y-86655714D01*
X172523809Y-86655714D01*
X172619047Y-86703333D01*
X172190476Y-87274761D02*
X172285714Y-87322380D01*
X172523809Y-87322380D01*
X172619047Y-87274761D01*
X172666666Y-87179523D01*
X172666666Y-87084285D01*
X172619047Y-86989047D01*
X172523809Y-86941428D01*
X172285714Y-86941428D01*
X172190476Y-86893809D01*
X171761904Y-87274761D02*
X171666666Y-87322380D01*
X171476190Y-87322380D01*
X171380952Y-87274761D01*
X171333333Y-87179523D01*
X171333333Y-87131904D01*
X171380952Y-87036666D01*
X171476190Y-86989047D01*
X171619047Y-86989047D01*
X171714285Y-86941428D01*
X171761904Y-86846190D01*
X171761904Y-86798571D01*
X171714285Y-86703333D01*
X171619047Y-86655714D01*
X171476190Y-86655714D01*
X171380952Y-86703333D01*
X170523809Y-87274761D02*
X170619047Y-87322380D01*
X170809523Y-87322380D01*
X170904761Y-87274761D01*
X170952380Y-87179523D01*
X170952380Y-86798571D01*
X170904761Y-86703333D01*
X170809523Y-86655714D01*
X170619047Y-86655714D01*
X170523809Y-86703333D01*
X170476190Y-86798571D01*
X170476190Y-86893809D01*
X170952380Y-86989047D01*
X170047619Y-87322380D02*
X170047619Y-86655714D01*
X170047619Y-86846190D02*
X170000000Y-86750952D01*
X169952380Y-86703333D01*
X169857142Y-86655714D01*
X169761904Y-86655714D01*
X169000000Y-87322380D02*
X169000000Y-86798571D01*
X169047619Y-86703333D01*
X169142857Y-86655714D01*
X169333333Y-86655714D01*
X169428571Y-86703333D01*
X169000000Y-87274761D02*
X169095238Y-87322380D01*
X169333333Y-87322380D01*
X169428571Y-87274761D01*
X169476190Y-87179523D01*
X169476190Y-87084285D01*
X169428571Y-86989047D01*
X169333333Y-86941428D01*
X169095238Y-86941428D01*
X169000000Y-86893809D01*
X168190476Y-86798571D02*
X168523809Y-86798571D01*
X168523809Y-87322380D02*
X168523809Y-86322380D01*
X168047619Y-86322380D01*
X166952380Y-86274761D02*
X167809523Y-87560476D01*
X166761904Y-86322380D02*
X166428571Y-87322380D01*
X166095238Y-86322380D01*
X165380952Y-87274761D02*
X165476190Y-87322380D01*
X165666666Y-87322380D01*
X165761904Y-87274761D01*
X165809523Y-87179523D01*
X165809523Y-86798571D01*
X165761904Y-86703333D01*
X165666666Y-86655714D01*
X165476190Y-86655714D01*
X165380952Y-86703333D01*
X165333333Y-86798571D01*
X165333333Y-86893809D01*
X165809523Y-86989047D01*
X164952380Y-87274761D02*
X164857142Y-87322380D01*
X164666666Y-87322380D01*
X164571428Y-87274761D01*
X164523809Y-87179523D01*
X164523809Y-87131904D01*
X164571428Y-87036666D01*
X164666666Y-86989047D01*
X164809523Y-86989047D01*
X164904761Y-86941428D01*
X164952380Y-86846190D01*
X164952380Y-86798571D01*
X164904761Y-86703333D01*
X164809523Y-86655714D01*
X164666666Y-86655714D01*
X164571428Y-86703333D01*
X164095238Y-86655714D02*
X164095238Y-87655714D01*
X164095238Y-86703333D02*
X164000000Y-86655714D01*
X163809523Y-86655714D01*
X163714285Y-86703333D01*
X163666666Y-86750952D01*
X163619047Y-86846190D01*
X163619047Y-87131904D01*
X163666666Y-87227142D01*
X163714285Y-87274761D01*
X163809523Y-87322380D01*
X164000000Y-87322380D01*
X164095238Y-87274761D01*
X163190476Y-87322380D02*
X163190476Y-86655714D01*
X163190476Y-86322380D02*
X163238095Y-86370000D01*
X163190476Y-86417619D01*
X163142857Y-86370000D01*
X163190476Y-86322380D01*
X163190476Y-86417619D01*
X162714285Y-86655714D02*
X162714285Y-87322380D01*
X162714285Y-86750952D02*
X162666666Y-86703333D01*
X162571428Y-86655714D01*
X162428571Y-86655714D01*
X162333333Y-86703333D01*
X162285714Y-86798571D01*
X162285714Y-87322380D01*
X161857142Y-86417619D02*
X161809523Y-86370000D01*
X161714285Y-86322380D01*
X161476190Y-86322380D01*
X161380952Y-86370000D01*
X161333333Y-86417619D01*
X161285714Y-86512857D01*
X161285714Y-86608095D01*
X161333333Y-86750952D01*
X161904761Y-87322380D01*
X161285714Y-87322380D01*
X160857142Y-87322380D02*
X160857142Y-86322380D01*
X160857142Y-86798571D02*
X160285714Y-86798571D01*
X160285714Y-87322380D02*
X160285714Y-86322380D01*
X159380952Y-87322380D02*
X159380952Y-86798571D01*
X159428571Y-86703333D01*
X159523809Y-86655714D01*
X159714285Y-86655714D01*
X159809523Y-86703333D01*
X159380952Y-87274761D02*
X159476190Y-87322380D01*
X159714285Y-87322380D01*
X159809523Y-87274761D01*
X159857142Y-87179523D01*
X159857142Y-87084285D01*
X159809523Y-86989047D01*
X159714285Y-86941428D01*
X159476190Y-86941428D01*
X159380952Y-86893809D01*
X158904761Y-87322380D02*
X158904761Y-86655714D01*
X158904761Y-86846190D02*
X158857142Y-86750952D01*
X158809523Y-86703333D01*
X158714285Y-86655714D01*
X158619047Y-86655714D01*
X157857142Y-87322380D02*
X157857142Y-86322380D01*
X157857142Y-87274761D02*
X157952380Y-87322380D01*
X158142857Y-87322380D01*
X158238095Y-87274761D01*
X158285714Y-87227142D01*
X158333333Y-87131904D01*
X158333333Y-86846190D01*
X158285714Y-86750952D01*
X158238095Y-86703333D01*
X158142857Y-86655714D01*
X157952380Y-86655714D01*
X157857142Y-86703333D01*
X157476190Y-86655714D02*
X157285714Y-87322380D01*
X157095238Y-86846190D01*
X156904761Y-87322380D01*
X156714285Y-86655714D01*
X155904761Y-87322380D02*
X155904761Y-86798571D01*
X155952380Y-86703333D01*
X156047619Y-86655714D01*
X156238095Y-86655714D01*
X156333333Y-86703333D01*
X155904761Y-87274761D02*
X156000000Y-87322380D01*
X156238095Y-87322380D01*
X156333333Y-87274761D01*
X156380952Y-87179523D01*
X156380952Y-87084285D01*
X156333333Y-86989047D01*
X156238095Y-86941428D01*
X156000000Y-86941428D01*
X155904761Y-86893809D01*
X155428571Y-87322380D02*
X155428571Y-86655714D01*
X155428571Y-86846190D02*
X155380952Y-86750952D01*
X155333333Y-86703333D01*
X155238095Y-86655714D01*
X155142857Y-86655714D01*
X154428571Y-87274761D02*
X154523809Y-87322380D01*
X154714285Y-87322380D01*
X154809523Y-87274761D01*
X154857142Y-87179523D01*
X154857142Y-86798571D01*
X154809523Y-86703333D01*
X154714285Y-86655714D01*
X154523809Y-86655714D01*
X154428571Y-86703333D01*
X154380952Y-86798571D01*
X154380952Y-86893809D01*
X154857142Y-86989047D01*
M02*
