M48
; DRILL file {KiCad (6.0.7-1)-1} date 2022 October 26, Wednesday 21:11:42
; FORMAT={-:-/ absolute / inch / decimal}
; #@! TF.CreationDate,2022-10-26T21:11:42+02:00
; #@! TF.GenerationSoftware,Kicad,Pcbnew,(6.0.7-1)-1
; #@! TF.FileFunction,Plated,1,2,PTH
FMAT,2
INCH
; #@! TA.AperFunction,Plated,PTH,ViaDrill
T1C0.0157
; #@! TA.AperFunction,Plated,PTH,ComponentDrill
T2C0.0157
; #@! TA.AperFunction,Plated,PTH,ViaDrill
T3C0.0236
; #@! TA.AperFunction,Plated,PTH,ComponentDrill
T4C0.0315
; #@! TA.AperFunction,Plated,PTH,ComponentDrill
T5C0.0866
%
G90
G05
T1
X7.0669Y-3.1181
X7.1083Y-3.0827
X7.1083Y-3.1201
X7.5472Y-3.5374
X7.5492Y-3.4902
X7.5906Y-3.5374
X7.5925Y-3.4921
X7.6417Y-3.4902
X7.6417Y-3.5374
T2
X6.0197Y-3.6378
X6.0217Y-2.8012
X6.0387Y-3.5919
X6.0387Y-3.6837
X6.0407Y-2.7552
X6.0407Y-2.8471
X6.0846Y-3.5728
X6.0846Y-3.7028
X6.0866Y-2.7362
X6.0866Y-2.8661
X6.1306Y-3.5919
X6.1306Y-3.6837
X6.1325Y-2.7552
X6.1325Y-2.8471
X6.1496Y-3.6378
X6.1516Y-2.8012
X7.7283Y-3.6339
X7.7303Y-2.7992
X7.7474Y-3.5879
X7.7474Y-3.6798
X7.7493Y-2.7533
X7.7493Y-2.8451
X7.7933Y-3.5689
X7.7933Y-3.6988
X7.7953Y-2.7343
X7.7953Y-2.8642
X7.8392Y-3.5879
X7.8392Y-3.6798
X7.8412Y-2.7533
X7.8412Y-2.8451
X7.8583Y-3.6339
X7.8602Y-2.7992
T3
X6.2539Y-3.4764
X6.3091Y-3.5335
X6.3091Y-3.5906
X6.311Y-3.4764
X6.3701Y-3.4764
X6.3701Y-3.5354
X6.3701Y-3.5925
X6.4764Y-2.7815
X6.4764Y-2.8445
X6.4764Y-2.9055
X6.4764Y-2.9665
X6.5354Y-2.7815
X6.5374Y-2.8445
X6.5394Y-2.9035
X6.5394Y-2.9646
X6.5945Y-2.7815
X6.5945Y-2.8445
X6.5984Y-2.9035
X6.5984Y-2.9665
X6.6516Y-2.7815
X6.6516Y-2.8406
X6.6535Y-2.9016
X6.6535Y-2.9606
X6.7146Y-2.7795
X6.7165Y-2.8445
X6.7165Y-2.9016
X6.7165Y-2.9626
X6.7717Y-2.7795
X6.7756Y-2.8445
X6.7795Y-2.9016
X6.7795Y-2.9626
X6.8346Y-2.7815
X6.8366Y-2.8425
X6.8366Y-2.9035
X6.8366Y-2.9646
T4
X7.2215Y-2.9144
X7.3215Y-2.9144
X7.4215Y-2.9144
T5
X6.0846Y-3.6378
X6.0866Y-2.8012
X7.7933Y-3.6339
X7.7953Y-2.7992
T0
M30
