%TF.GenerationSoftware,KiCad,Pcbnew,7.0.2*%
%TF.CreationDate,2023-06-26T18:32:19+02:00*%
%TF.ProjectId,Two_phese_bipolar_stepper_motor,54776f5f-7068-4657-9365-5f6269706f6c,REV1*%
%TF.SameCoordinates,Original*%
%TF.FileFunction,Legend,Top*%
%TF.FilePolarity,Positive*%
%FSLAX46Y46*%
G04 Gerber Fmt 4.6, Leading zero omitted, Abs format (unit mm)*
G04 Created by KiCad (PCBNEW 7.0.2) date 2023-06-26 18:32:19*
%MOMM*%
%LPD*%
G01*
G04 APERTURE LIST*
%ADD10C,0.150000*%
%ADD11C,0.120000*%
G04 APERTURE END LIST*
D10*
X175477619Y-112136904D02*
X174477619Y-112136904D01*
X174953809Y-112136904D02*
X174953809Y-111565476D01*
X175477619Y-111565476D02*
X174477619Y-111565476D01*
X174477619Y-110898809D02*
X174477619Y-110708333D01*
X174477619Y-110708333D02*
X174525238Y-110613095D01*
X174525238Y-110613095D02*
X174620476Y-110517857D01*
X174620476Y-110517857D02*
X174810952Y-110470238D01*
X174810952Y-110470238D02*
X175144285Y-110470238D01*
X175144285Y-110470238D02*
X175334761Y-110517857D01*
X175334761Y-110517857D02*
X175430000Y-110613095D01*
X175430000Y-110613095D02*
X175477619Y-110708333D01*
X175477619Y-110708333D02*
X175477619Y-110898809D01*
X175477619Y-110898809D02*
X175430000Y-110994047D01*
X175430000Y-110994047D02*
X175334761Y-111089285D01*
X175334761Y-111089285D02*
X175144285Y-111136904D01*
X175144285Y-111136904D02*
X174810952Y-111136904D01*
X174810952Y-111136904D02*
X174620476Y-111089285D01*
X174620476Y-111089285D02*
X174525238Y-110994047D01*
X174525238Y-110994047D02*
X174477619Y-110898809D01*
X175477619Y-110041666D02*
X174477619Y-110041666D01*
X174477619Y-110041666D02*
X175191904Y-109708333D01*
X175191904Y-109708333D02*
X174477619Y-109375000D01*
X174477619Y-109375000D02*
X175477619Y-109375000D01*
X174953809Y-108898809D02*
X174953809Y-108565476D01*
X175477619Y-108422619D02*
X175477619Y-108898809D01*
X175477619Y-108898809D02*
X174477619Y-108898809D01*
X174477619Y-108898809D02*
X174477619Y-108422619D01*
X172115476Y-71155000D02*
X172258333Y-71202619D01*
X172258333Y-71202619D02*
X172496428Y-71202619D01*
X172496428Y-71202619D02*
X172591666Y-71155000D01*
X172591666Y-71155000D02*
X172639285Y-71107380D01*
X172639285Y-71107380D02*
X172686904Y-71012142D01*
X172686904Y-71012142D02*
X172686904Y-70916904D01*
X172686904Y-70916904D02*
X172639285Y-70821666D01*
X172639285Y-70821666D02*
X172591666Y-70774047D01*
X172591666Y-70774047D02*
X172496428Y-70726428D01*
X172496428Y-70726428D02*
X172305952Y-70678809D01*
X172305952Y-70678809D02*
X172210714Y-70631190D01*
X172210714Y-70631190D02*
X172163095Y-70583571D01*
X172163095Y-70583571D02*
X172115476Y-70488333D01*
X172115476Y-70488333D02*
X172115476Y-70393095D01*
X172115476Y-70393095D02*
X172163095Y-70297857D01*
X172163095Y-70297857D02*
X172210714Y-70250238D01*
X172210714Y-70250238D02*
X172305952Y-70202619D01*
X172305952Y-70202619D02*
X172544047Y-70202619D01*
X172544047Y-70202619D02*
X172686904Y-70250238D01*
X173305952Y-70726428D02*
X173305952Y-71202619D01*
X172972619Y-70202619D02*
X173305952Y-70726428D01*
X173305952Y-70726428D02*
X173639285Y-70202619D01*
X173972619Y-71202619D02*
X173972619Y-70202619D01*
X173972619Y-70202619D02*
X174544047Y-71202619D01*
X174544047Y-71202619D02*
X174544047Y-70202619D01*
X175591666Y-71107380D02*
X175544047Y-71155000D01*
X175544047Y-71155000D02*
X175401190Y-71202619D01*
X175401190Y-71202619D02*
X175305952Y-71202619D01*
X175305952Y-71202619D02*
X175163095Y-71155000D01*
X175163095Y-71155000D02*
X175067857Y-71059761D01*
X175067857Y-71059761D02*
X175020238Y-70964523D01*
X175020238Y-70964523D02*
X174972619Y-70774047D01*
X174972619Y-70774047D02*
X174972619Y-70631190D01*
X174972619Y-70631190D02*
X175020238Y-70440714D01*
X175020238Y-70440714D02*
X175067857Y-70345476D01*
X175067857Y-70345476D02*
X175163095Y-70250238D01*
X175163095Y-70250238D02*
X175305952Y-70202619D01*
X175305952Y-70202619D02*
X175401190Y-70202619D01*
X175401190Y-70202619D02*
X175544047Y-70250238D01*
X175544047Y-70250238D02*
X175591666Y-70297857D01*
X124995238Y-63477619D02*
X125328571Y-64477619D01*
X125328571Y-64477619D02*
X125661904Y-63477619D01*
X125947619Y-64430000D02*
X126042857Y-64477619D01*
X126042857Y-64477619D02*
X126233333Y-64477619D01*
X126233333Y-64477619D02*
X126328571Y-64430000D01*
X126328571Y-64430000D02*
X126376190Y-64334761D01*
X126376190Y-64334761D02*
X126376190Y-64287142D01*
X126376190Y-64287142D02*
X126328571Y-64191904D01*
X126328571Y-64191904D02*
X126233333Y-64144285D01*
X126233333Y-64144285D02*
X126090476Y-64144285D01*
X126090476Y-64144285D02*
X125995238Y-64096666D01*
X125995238Y-64096666D02*
X125947619Y-64001428D01*
X125947619Y-64001428D02*
X125947619Y-63953809D01*
X125947619Y-63953809D02*
X125995238Y-63858571D01*
X125995238Y-63858571D02*
X126090476Y-63810952D01*
X126090476Y-63810952D02*
X126233333Y-63810952D01*
X126233333Y-63810952D02*
X126328571Y-63858571D01*
X127566667Y-64096666D02*
X128328572Y-64096666D01*
X127947619Y-64477619D02*
X127947619Y-63715714D01*
X129280952Y-63477619D02*
X128804762Y-63477619D01*
X128804762Y-63477619D02*
X128757143Y-63953809D01*
X128757143Y-63953809D02*
X128804762Y-63906190D01*
X128804762Y-63906190D02*
X128900000Y-63858571D01*
X128900000Y-63858571D02*
X129138095Y-63858571D01*
X129138095Y-63858571D02*
X129233333Y-63906190D01*
X129233333Y-63906190D02*
X129280952Y-63953809D01*
X129280952Y-63953809D02*
X129328571Y-64049047D01*
X129328571Y-64049047D02*
X129328571Y-64287142D01*
X129328571Y-64287142D02*
X129280952Y-64382380D01*
X129280952Y-64382380D02*
X129233333Y-64430000D01*
X129233333Y-64430000D02*
X129138095Y-64477619D01*
X129138095Y-64477619D02*
X128900000Y-64477619D01*
X128900000Y-64477619D02*
X128804762Y-64430000D01*
X128804762Y-64430000D02*
X128757143Y-64382380D01*
X129614286Y-63477619D02*
X129947619Y-64477619D01*
X129947619Y-64477619D02*
X130280952Y-63477619D01*
X174384523Y-96057380D02*
X174336904Y-96105000D01*
X174336904Y-96105000D02*
X174194047Y-96152619D01*
X174194047Y-96152619D02*
X174098809Y-96152619D01*
X174098809Y-96152619D02*
X173955952Y-96105000D01*
X173955952Y-96105000D02*
X173860714Y-96009761D01*
X173860714Y-96009761D02*
X173813095Y-95914523D01*
X173813095Y-95914523D02*
X173765476Y-95724047D01*
X173765476Y-95724047D02*
X173765476Y-95581190D01*
X173765476Y-95581190D02*
X173813095Y-95390714D01*
X173813095Y-95390714D02*
X173860714Y-95295476D01*
X173860714Y-95295476D02*
X173955952Y-95200238D01*
X173955952Y-95200238D02*
X174098809Y-95152619D01*
X174098809Y-95152619D02*
X174194047Y-95152619D01*
X174194047Y-95152619D02*
X174336904Y-95200238D01*
X174336904Y-95200238D02*
X174384523Y-95247857D01*
X174717857Y-95152619D02*
X174955952Y-96152619D01*
X174955952Y-96152619D02*
X175146428Y-95438333D01*
X175146428Y-95438333D02*
X175336904Y-96152619D01*
X175336904Y-96152619D02*
X175575000Y-95152619D01*
X137595238Y-63477619D02*
X137928571Y-64477619D01*
X137928571Y-64477619D02*
X138261904Y-63477619D01*
X138547619Y-64430000D02*
X138642857Y-64477619D01*
X138642857Y-64477619D02*
X138833333Y-64477619D01*
X138833333Y-64477619D02*
X138928571Y-64430000D01*
X138928571Y-64430000D02*
X138976190Y-64334761D01*
X138976190Y-64334761D02*
X138976190Y-64287142D01*
X138976190Y-64287142D02*
X138928571Y-64191904D01*
X138928571Y-64191904D02*
X138833333Y-64144285D01*
X138833333Y-64144285D02*
X138690476Y-64144285D01*
X138690476Y-64144285D02*
X138595238Y-64096666D01*
X138595238Y-64096666D02*
X138547619Y-64001428D01*
X138547619Y-64001428D02*
X138547619Y-63953809D01*
X138547619Y-63953809D02*
X138595238Y-63858571D01*
X138595238Y-63858571D02*
X138690476Y-63810952D01*
X138690476Y-63810952D02*
X138833333Y-63810952D01*
X138833333Y-63810952D02*
X138928571Y-63858571D01*
X139357143Y-64430000D02*
X139452381Y-64477619D01*
X139452381Y-64477619D02*
X139642857Y-64477619D01*
X139642857Y-64477619D02*
X139738095Y-64430000D01*
X139738095Y-64430000D02*
X139785714Y-64334761D01*
X139785714Y-64334761D02*
X139785714Y-64287142D01*
X139785714Y-64287142D02*
X139738095Y-64191904D01*
X139738095Y-64191904D02*
X139642857Y-64144285D01*
X139642857Y-64144285D02*
X139500000Y-64144285D01*
X139500000Y-64144285D02*
X139404762Y-64096666D01*
X139404762Y-64096666D02*
X139357143Y-64001428D01*
X139357143Y-64001428D02*
X139357143Y-63953809D01*
X139357143Y-63953809D02*
X139404762Y-63858571D01*
X139404762Y-63858571D02*
X139500000Y-63810952D01*
X139500000Y-63810952D02*
X139642857Y-63810952D01*
X139642857Y-63810952D02*
X139738095Y-63858571D01*
X140976191Y-64096666D02*
X141738096Y-64096666D01*
X141357143Y-64477619D02*
X141357143Y-63715714D01*
X142738095Y-64477619D02*
X142166667Y-64477619D01*
X142452381Y-64477619D02*
X142452381Y-63477619D01*
X142452381Y-63477619D02*
X142357143Y-63620476D01*
X142357143Y-63620476D02*
X142261905Y-63715714D01*
X142261905Y-63715714D02*
X142166667Y-63763333D01*
X143119048Y-63572857D02*
X143166667Y-63525238D01*
X143166667Y-63525238D02*
X143261905Y-63477619D01*
X143261905Y-63477619D02*
X143500000Y-63477619D01*
X143500000Y-63477619D02*
X143595238Y-63525238D01*
X143595238Y-63525238D02*
X143642857Y-63572857D01*
X143642857Y-63572857D02*
X143690476Y-63668095D01*
X143690476Y-63668095D02*
X143690476Y-63763333D01*
X143690476Y-63763333D02*
X143642857Y-63906190D01*
X143642857Y-63906190D02*
X143071429Y-64477619D01*
X143071429Y-64477619D02*
X143690476Y-64477619D01*
X143976191Y-63477619D02*
X144309524Y-64477619D01*
X144309524Y-64477619D02*
X144642857Y-63477619D01*
X175432380Y-101765476D02*
X175480000Y-101813095D01*
X175480000Y-101813095D02*
X175527619Y-101955952D01*
X175527619Y-101955952D02*
X175527619Y-102051190D01*
X175527619Y-102051190D02*
X175480000Y-102194047D01*
X175480000Y-102194047D02*
X175384761Y-102289285D01*
X175384761Y-102289285D02*
X175289523Y-102336904D01*
X175289523Y-102336904D02*
X175099047Y-102384523D01*
X175099047Y-102384523D02*
X174956190Y-102384523D01*
X174956190Y-102384523D02*
X174765714Y-102336904D01*
X174765714Y-102336904D02*
X174670476Y-102289285D01*
X174670476Y-102289285D02*
X174575238Y-102194047D01*
X174575238Y-102194047D02*
X174527619Y-102051190D01*
X174527619Y-102051190D02*
X174527619Y-101955952D01*
X174527619Y-101955952D02*
X174575238Y-101813095D01*
X174575238Y-101813095D02*
X174622857Y-101765476D01*
X175527619Y-100860714D02*
X175527619Y-101336904D01*
X175527619Y-101336904D02*
X174527619Y-101336904D01*
X175527619Y-100527380D02*
X174527619Y-100527380D01*
X175527619Y-99955952D02*
X174956190Y-100384523D01*
X174527619Y-99955952D02*
X175099047Y-100527380D01*
X140148809Y-120737619D02*
X140339285Y-120737619D01*
X140339285Y-120737619D02*
X140434523Y-120785238D01*
X140434523Y-120785238D02*
X140529761Y-120880476D01*
X140529761Y-120880476D02*
X140577380Y-121070952D01*
X140577380Y-121070952D02*
X140577380Y-121404285D01*
X140577380Y-121404285D02*
X140529761Y-121594761D01*
X140529761Y-121594761D02*
X140434523Y-121690000D01*
X140434523Y-121690000D02*
X140339285Y-121737619D01*
X140339285Y-121737619D02*
X140148809Y-121737619D01*
X140148809Y-121737619D02*
X140053571Y-121690000D01*
X140053571Y-121690000D02*
X139958333Y-121594761D01*
X139958333Y-121594761D02*
X139910714Y-121404285D01*
X139910714Y-121404285D02*
X139910714Y-121070952D01*
X139910714Y-121070952D02*
X139958333Y-120880476D01*
X139958333Y-120880476D02*
X140053571Y-120785238D01*
X140053571Y-120785238D02*
X140148809Y-120737619D01*
X141005952Y-120737619D02*
X141005952Y-121547142D01*
X141005952Y-121547142D02*
X141053571Y-121642380D01*
X141053571Y-121642380D02*
X141101190Y-121690000D01*
X141101190Y-121690000D02*
X141196428Y-121737619D01*
X141196428Y-121737619D02*
X141386904Y-121737619D01*
X141386904Y-121737619D02*
X141482142Y-121690000D01*
X141482142Y-121690000D02*
X141529761Y-121642380D01*
X141529761Y-121642380D02*
X141577380Y-121547142D01*
X141577380Y-121547142D02*
X141577380Y-120737619D01*
X141910714Y-120737619D02*
X142482142Y-120737619D01*
X142196428Y-121737619D02*
X142196428Y-120737619D01*
X142767857Y-120832857D02*
X142815476Y-120785238D01*
X142815476Y-120785238D02*
X142910714Y-120737619D01*
X142910714Y-120737619D02*
X143148809Y-120737619D01*
X143148809Y-120737619D02*
X143244047Y-120785238D01*
X143244047Y-120785238D02*
X143291666Y-120832857D01*
X143291666Y-120832857D02*
X143339285Y-120928095D01*
X143339285Y-120928095D02*
X143339285Y-121023333D01*
X143339285Y-121023333D02*
X143291666Y-121166190D01*
X143291666Y-121166190D02*
X142720238Y-121737619D01*
X142720238Y-121737619D02*
X143339285Y-121737619D01*
X135248809Y-120737619D02*
X135439285Y-120737619D01*
X135439285Y-120737619D02*
X135534523Y-120785238D01*
X135534523Y-120785238D02*
X135629761Y-120880476D01*
X135629761Y-120880476D02*
X135677380Y-121070952D01*
X135677380Y-121070952D02*
X135677380Y-121404285D01*
X135677380Y-121404285D02*
X135629761Y-121594761D01*
X135629761Y-121594761D02*
X135534523Y-121690000D01*
X135534523Y-121690000D02*
X135439285Y-121737619D01*
X135439285Y-121737619D02*
X135248809Y-121737619D01*
X135248809Y-121737619D02*
X135153571Y-121690000D01*
X135153571Y-121690000D02*
X135058333Y-121594761D01*
X135058333Y-121594761D02*
X135010714Y-121404285D01*
X135010714Y-121404285D02*
X135010714Y-121070952D01*
X135010714Y-121070952D02*
X135058333Y-120880476D01*
X135058333Y-120880476D02*
X135153571Y-120785238D01*
X135153571Y-120785238D02*
X135248809Y-120737619D01*
X136105952Y-120737619D02*
X136105952Y-121547142D01*
X136105952Y-121547142D02*
X136153571Y-121642380D01*
X136153571Y-121642380D02*
X136201190Y-121690000D01*
X136201190Y-121690000D02*
X136296428Y-121737619D01*
X136296428Y-121737619D02*
X136486904Y-121737619D01*
X136486904Y-121737619D02*
X136582142Y-121690000D01*
X136582142Y-121690000D02*
X136629761Y-121642380D01*
X136629761Y-121642380D02*
X136677380Y-121547142D01*
X136677380Y-121547142D02*
X136677380Y-120737619D01*
X137010714Y-120737619D02*
X137582142Y-120737619D01*
X137296428Y-121737619D02*
X137296428Y-120737619D01*
X138439285Y-121737619D02*
X137867857Y-121737619D01*
X138153571Y-121737619D02*
X138153571Y-120737619D01*
X138153571Y-120737619D02*
X138058333Y-120880476D01*
X138058333Y-120880476D02*
X137963095Y-120975714D01*
X137963095Y-120975714D02*
X137867857Y-121023333D01*
X173163095Y-90553809D02*
X173496428Y-90553809D01*
X173639285Y-91077619D02*
X173163095Y-91077619D01*
X173163095Y-91077619D02*
X173163095Y-90077619D01*
X173163095Y-90077619D02*
X173639285Y-90077619D01*
X174067857Y-91077619D02*
X174067857Y-90077619D01*
X174067857Y-90077619D02*
X174639285Y-91077619D01*
X174639285Y-91077619D02*
X174639285Y-90077619D01*
X175067857Y-90791904D02*
X175544047Y-90791904D01*
X174972619Y-91077619D02*
X175305952Y-90077619D01*
X175305952Y-90077619D02*
X175639285Y-91077619D01*
X174402619Y-107104761D02*
X175402619Y-106771428D01*
X175402619Y-106771428D02*
X174402619Y-106438095D01*
X175402619Y-106104761D02*
X174735952Y-106104761D01*
X174926428Y-106104761D02*
X174831190Y-106057142D01*
X174831190Y-106057142D02*
X174783571Y-106009523D01*
X174783571Y-106009523D02*
X174735952Y-105914285D01*
X174735952Y-105914285D02*
X174735952Y-105819047D01*
X175355000Y-105104761D02*
X175402619Y-105199999D01*
X175402619Y-105199999D02*
X175402619Y-105390475D01*
X175402619Y-105390475D02*
X175355000Y-105485713D01*
X175355000Y-105485713D02*
X175259761Y-105533332D01*
X175259761Y-105533332D02*
X174878809Y-105533332D01*
X174878809Y-105533332D02*
X174783571Y-105485713D01*
X174783571Y-105485713D02*
X174735952Y-105390475D01*
X174735952Y-105390475D02*
X174735952Y-105199999D01*
X174735952Y-105199999D02*
X174783571Y-105104761D01*
X174783571Y-105104761D02*
X174878809Y-105057142D01*
X174878809Y-105057142D02*
X174974047Y-105057142D01*
X174974047Y-105057142D02*
X175069285Y-105533332D01*
X174735952Y-104771427D02*
X174735952Y-104390475D01*
X175402619Y-104628570D02*
X174545476Y-104628570D01*
X174545476Y-104628570D02*
X174450238Y-104580951D01*
X174450238Y-104580951D02*
X174402619Y-104485713D01*
X174402619Y-104485713D02*
X174402619Y-104390475D01*
X149948809Y-120737619D02*
X150139285Y-120737619D01*
X150139285Y-120737619D02*
X150234523Y-120785238D01*
X150234523Y-120785238D02*
X150329761Y-120880476D01*
X150329761Y-120880476D02*
X150377380Y-121070952D01*
X150377380Y-121070952D02*
X150377380Y-121404285D01*
X150377380Y-121404285D02*
X150329761Y-121594761D01*
X150329761Y-121594761D02*
X150234523Y-121690000D01*
X150234523Y-121690000D02*
X150139285Y-121737619D01*
X150139285Y-121737619D02*
X149948809Y-121737619D01*
X149948809Y-121737619D02*
X149853571Y-121690000D01*
X149853571Y-121690000D02*
X149758333Y-121594761D01*
X149758333Y-121594761D02*
X149710714Y-121404285D01*
X149710714Y-121404285D02*
X149710714Y-121070952D01*
X149710714Y-121070952D02*
X149758333Y-120880476D01*
X149758333Y-120880476D02*
X149853571Y-120785238D01*
X149853571Y-120785238D02*
X149948809Y-120737619D01*
X150805952Y-120737619D02*
X150805952Y-121547142D01*
X150805952Y-121547142D02*
X150853571Y-121642380D01*
X150853571Y-121642380D02*
X150901190Y-121690000D01*
X150901190Y-121690000D02*
X150996428Y-121737619D01*
X150996428Y-121737619D02*
X151186904Y-121737619D01*
X151186904Y-121737619D02*
X151282142Y-121690000D01*
X151282142Y-121690000D02*
X151329761Y-121642380D01*
X151329761Y-121642380D02*
X151377380Y-121547142D01*
X151377380Y-121547142D02*
X151377380Y-120737619D01*
X151710714Y-120737619D02*
X152282142Y-120737619D01*
X151996428Y-121737619D02*
X151996428Y-120737619D01*
X153044047Y-121070952D02*
X153044047Y-121737619D01*
X152805952Y-120690000D02*
X152567857Y-121404285D01*
X152567857Y-121404285D02*
X153186904Y-121404285D01*
X172984523Y-81157380D02*
X172936904Y-81205000D01*
X172936904Y-81205000D02*
X172794047Y-81252619D01*
X172794047Y-81252619D02*
X172698809Y-81252619D01*
X172698809Y-81252619D02*
X172555952Y-81205000D01*
X172555952Y-81205000D02*
X172460714Y-81109761D01*
X172460714Y-81109761D02*
X172413095Y-81014523D01*
X172413095Y-81014523D02*
X172365476Y-80824047D01*
X172365476Y-80824047D02*
X172365476Y-80681190D01*
X172365476Y-80681190D02*
X172413095Y-80490714D01*
X172413095Y-80490714D02*
X172460714Y-80395476D01*
X172460714Y-80395476D02*
X172555952Y-80300238D01*
X172555952Y-80300238D02*
X172698809Y-80252619D01*
X172698809Y-80252619D02*
X172794047Y-80252619D01*
X172794047Y-80252619D02*
X172936904Y-80300238D01*
X172936904Y-80300238D02*
X172984523Y-80347857D01*
X173270238Y-80252619D02*
X173841666Y-80252619D01*
X173555952Y-81252619D02*
X173555952Y-80252619D01*
X174746428Y-81252619D02*
X174413095Y-80776428D01*
X174175000Y-81252619D02*
X174175000Y-80252619D01*
X174175000Y-80252619D02*
X174555952Y-80252619D01*
X174555952Y-80252619D02*
X174651190Y-80300238D01*
X174651190Y-80300238D02*
X174698809Y-80347857D01*
X174698809Y-80347857D02*
X174746428Y-80443095D01*
X174746428Y-80443095D02*
X174746428Y-80585952D01*
X174746428Y-80585952D02*
X174698809Y-80681190D01*
X174698809Y-80681190D02*
X174651190Y-80728809D01*
X174651190Y-80728809D02*
X174555952Y-80776428D01*
X174555952Y-80776428D02*
X174175000Y-80776428D01*
X175651190Y-81252619D02*
X175175000Y-81252619D01*
X175175000Y-81252619D02*
X175175000Y-80252619D01*
X145048809Y-120737619D02*
X145239285Y-120737619D01*
X145239285Y-120737619D02*
X145334523Y-120785238D01*
X145334523Y-120785238D02*
X145429761Y-120880476D01*
X145429761Y-120880476D02*
X145477380Y-121070952D01*
X145477380Y-121070952D02*
X145477380Y-121404285D01*
X145477380Y-121404285D02*
X145429761Y-121594761D01*
X145429761Y-121594761D02*
X145334523Y-121690000D01*
X145334523Y-121690000D02*
X145239285Y-121737619D01*
X145239285Y-121737619D02*
X145048809Y-121737619D01*
X145048809Y-121737619D02*
X144953571Y-121690000D01*
X144953571Y-121690000D02*
X144858333Y-121594761D01*
X144858333Y-121594761D02*
X144810714Y-121404285D01*
X144810714Y-121404285D02*
X144810714Y-121070952D01*
X144810714Y-121070952D02*
X144858333Y-120880476D01*
X144858333Y-120880476D02*
X144953571Y-120785238D01*
X144953571Y-120785238D02*
X145048809Y-120737619D01*
X145905952Y-120737619D02*
X145905952Y-121547142D01*
X145905952Y-121547142D02*
X145953571Y-121642380D01*
X145953571Y-121642380D02*
X146001190Y-121690000D01*
X146001190Y-121690000D02*
X146096428Y-121737619D01*
X146096428Y-121737619D02*
X146286904Y-121737619D01*
X146286904Y-121737619D02*
X146382142Y-121690000D01*
X146382142Y-121690000D02*
X146429761Y-121642380D01*
X146429761Y-121642380D02*
X146477380Y-121547142D01*
X146477380Y-121547142D02*
X146477380Y-120737619D01*
X146810714Y-120737619D02*
X147382142Y-120737619D01*
X147096428Y-121737619D02*
X147096428Y-120737619D01*
X147620238Y-120737619D02*
X148239285Y-120737619D01*
X148239285Y-120737619D02*
X147905952Y-121118571D01*
X147905952Y-121118571D02*
X148048809Y-121118571D01*
X148048809Y-121118571D02*
X148144047Y-121166190D01*
X148144047Y-121166190D02*
X148191666Y-121213809D01*
X148191666Y-121213809D02*
X148239285Y-121309047D01*
X148239285Y-121309047D02*
X148239285Y-121547142D01*
X148239285Y-121547142D02*
X148191666Y-121642380D01*
X148191666Y-121642380D02*
X148144047Y-121690000D01*
X148144047Y-121690000D02*
X148048809Y-121737619D01*
X148048809Y-121737619D02*
X147763095Y-121737619D01*
X147763095Y-121737619D02*
X147667857Y-121690000D01*
X147667857Y-121690000D02*
X147620238Y-121642380D01*
X172034523Y-86377619D02*
X171701190Y-85901428D01*
X171463095Y-86377619D02*
X171463095Y-85377619D01*
X171463095Y-85377619D02*
X171844047Y-85377619D01*
X171844047Y-85377619D02*
X171939285Y-85425238D01*
X171939285Y-85425238D02*
X171986904Y-85472857D01*
X171986904Y-85472857D02*
X172034523Y-85568095D01*
X172034523Y-85568095D02*
X172034523Y-85710952D01*
X172034523Y-85710952D02*
X171986904Y-85806190D01*
X171986904Y-85806190D02*
X171939285Y-85853809D01*
X171939285Y-85853809D02*
X171844047Y-85901428D01*
X171844047Y-85901428D02*
X171463095Y-85901428D01*
X172463095Y-85853809D02*
X172796428Y-85853809D01*
X172939285Y-86377619D02*
X172463095Y-86377619D01*
X172463095Y-86377619D02*
X172463095Y-85377619D01*
X172463095Y-85377619D02*
X172939285Y-85377619D01*
X173320238Y-86330000D02*
X173463095Y-86377619D01*
X173463095Y-86377619D02*
X173701190Y-86377619D01*
X173701190Y-86377619D02*
X173796428Y-86330000D01*
X173796428Y-86330000D02*
X173844047Y-86282380D01*
X173844047Y-86282380D02*
X173891666Y-86187142D01*
X173891666Y-86187142D02*
X173891666Y-86091904D01*
X173891666Y-86091904D02*
X173844047Y-85996666D01*
X173844047Y-85996666D02*
X173796428Y-85949047D01*
X173796428Y-85949047D02*
X173701190Y-85901428D01*
X173701190Y-85901428D02*
X173510714Y-85853809D01*
X173510714Y-85853809D02*
X173415476Y-85806190D01*
X173415476Y-85806190D02*
X173367857Y-85758571D01*
X173367857Y-85758571D02*
X173320238Y-85663333D01*
X173320238Y-85663333D02*
X173320238Y-85568095D01*
X173320238Y-85568095D02*
X173367857Y-85472857D01*
X173367857Y-85472857D02*
X173415476Y-85425238D01*
X173415476Y-85425238D02*
X173510714Y-85377619D01*
X173510714Y-85377619D02*
X173748809Y-85377619D01*
X173748809Y-85377619D02*
X173891666Y-85425238D01*
X174320238Y-85853809D02*
X174653571Y-85853809D01*
X174796428Y-86377619D02*
X174320238Y-86377619D01*
X174320238Y-86377619D02*
X174320238Y-85377619D01*
X174320238Y-85377619D02*
X174796428Y-85377619D01*
X175082143Y-85377619D02*
X175653571Y-85377619D01*
X175367857Y-86377619D02*
X175367857Y-85377619D01*
X175602619Y-116611904D02*
X174602619Y-116611904D01*
X175078809Y-116611904D02*
X175078809Y-116040476D01*
X175602619Y-116040476D02*
X174602619Y-116040476D01*
X175316904Y-115611904D02*
X175316904Y-115135714D01*
X175602619Y-115707142D02*
X174602619Y-115373809D01*
X174602619Y-115373809D02*
X175602619Y-115040476D01*
X175602619Y-114230952D02*
X175602619Y-114707142D01*
X175602619Y-114707142D02*
X174602619Y-114707142D01*
X175078809Y-113564285D02*
X175078809Y-113897618D01*
X175602619Y-113897618D02*
X174602619Y-113897618D01*
X174602619Y-113897618D02*
X174602619Y-113421428D01*
X173278571Y-75327619D02*
X173469047Y-75327619D01*
X173469047Y-75327619D02*
X173564285Y-75375238D01*
X173564285Y-75375238D02*
X173659523Y-75470476D01*
X173659523Y-75470476D02*
X173707142Y-75660952D01*
X173707142Y-75660952D02*
X173707142Y-75994285D01*
X173707142Y-75994285D02*
X173659523Y-76184761D01*
X173659523Y-76184761D02*
X173564285Y-76280000D01*
X173564285Y-76280000D02*
X173469047Y-76327619D01*
X173469047Y-76327619D02*
X173278571Y-76327619D01*
X173278571Y-76327619D02*
X173183333Y-76280000D01*
X173183333Y-76280000D02*
X173088095Y-76184761D01*
X173088095Y-76184761D02*
X173040476Y-75994285D01*
X173040476Y-75994285D02*
X173040476Y-75660952D01*
X173040476Y-75660952D02*
X173088095Y-75470476D01*
X173088095Y-75470476D02*
X173183333Y-75375238D01*
X173183333Y-75375238D02*
X173278571Y-75327619D01*
X174088095Y-76280000D02*
X174230952Y-76327619D01*
X174230952Y-76327619D02*
X174469047Y-76327619D01*
X174469047Y-76327619D02*
X174564285Y-76280000D01*
X174564285Y-76280000D02*
X174611904Y-76232380D01*
X174611904Y-76232380D02*
X174659523Y-76137142D01*
X174659523Y-76137142D02*
X174659523Y-76041904D01*
X174659523Y-76041904D02*
X174611904Y-75946666D01*
X174611904Y-75946666D02*
X174564285Y-75899047D01*
X174564285Y-75899047D02*
X174469047Y-75851428D01*
X174469047Y-75851428D02*
X174278571Y-75803809D01*
X174278571Y-75803809D02*
X174183333Y-75756190D01*
X174183333Y-75756190D02*
X174135714Y-75708571D01*
X174135714Y-75708571D02*
X174088095Y-75613333D01*
X174088095Y-75613333D02*
X174088095Y-75518095D01*
X174088095Y-75518095D02*
X174135714Y-75422857D01*
X174135714Y-75422857D02*
X174183333Y-75375238D01*
X174183333Y-75375238D02*
X174278571Y-75327619D01*
X174278571Y-75327619D02*
X174516666Y-75327619D01*
X174516666Y-75327619D02*
X174659523Y-75375238D01*
X175659523Y-76232380D02*
X175611904Y-76280000D01*
X175611904Y-76280000D02*
X175469047Y-76327619D01*
X175469047Y-76327619D02*
X175373809Y-76327619D01*
X175373809Y-76327619D02*
X175230952Y-76280000D01*
X175230952Y-76280000D02*
X175135714Y-76184761D01*
X175135714Y-76184761D02*
X175088095Y-76089523D01*
X175088095Y-76089523D02*
X175040476Y-75899047D01*
X175040476Y-75899047D02*
X175040476Y-75756190D01*
X175040476Y-75756190D02*
X175088095Y-75565714D01*
X175088095Y-75565714D02*
X175135714Y-75470476D01*
X175135714Y-75470476D02*
X175230952Y-75375238D01*
X175230952Y-75375238D02*
X175373809Y-75327619D01*
X175373809Y-75327619D02*
X175469047Y-75327619D01*
X175469047Y-75327619D02*
X175611904Y-75375238D01*
X175611904Y-75375238D02*
X175659523Y-75422857D01*
X174700238Y-121713095D02*
X174652619Y-121808333D01*
X174652619Y-121808333D02*
X174652619Y-121951190D01*
X174652619Y-121951190D02*
X174700238Y-122094047D01*
X174700238Y-122094047D02*
X174795476Y-122189285D01*
X174795476Y-122189285D02*
X174890714Y-122236904D01*
X174890714Y-122236904D02*
X175081190Y-122284523D01*
X175081190Y-122284523D02*
X175224047Y-122284523D01*
X175224047Y-122284523D02*
X175414523Y-122236904D01*
X175414523Y-122236904D02*
X175509761Y-122189285D01*
X175509761Y-122189285D02*
X175605000Y-122094047D01*
X175605000Y-122094047D02*
X175652619Y-121951190D01*
X175652619Y-121951190D02*
X175652619Y-121855952D01*
X175652619Y-121855952D02*
X175605000Y-121713095D01*
X175605000Y-121713095D02*
X175557380Y-121665476D01*
X175557380Y-121665476D02*
X175224047Y-121665476D01*
X175224047Y-121665476D02*
X175224047Y-121855952D01*
X175652619Y-121236904D02*
X174652619Y-121236904D01*
X174652619Y-121236904D02*
X175652619Y-120665476D01*
X175652619Y-120665476D02*
X174652619Y-120665476D01*
X175652619Y-120189285D02*
X174652619Y-120189285D01*
X174652619Y-120189285D02*
X174652619Y-119951190D01*
X174652619Y-119951190D02*
X174700238Y-119808333D01*
X174700238Y-119808333D02*
X174795476Y-119713095D01*
X174795476Y-119713095D02*
X174890714Y-119665476D01*
X174890714Y-119665476D02*
X175081190Y-119617857D01*
X175081190Y-119617857D02*
X175224047Y-119617857D01*
X175224047Y-119617857D02*
X175414523Y-119665476D01*
X175414523Y-119665476D02*
X175509761Y-119713095D01*
X175509761Y-119713095D02*
X175605000Y-119808333D01*
X175605000Y-119808333D02*
X175652619Y-119951190D01*
X175652619Y-119951190D02*
X175652619Y-120189285D01*
%TO.C,U2*%
X162338095Y-51122619D02*
X162338095Y-51932142D01*
X162338095Y-51932142D02*
X162385714Y-52027380D01*
X162385714Y-52027380D02*
X162433333Y-52075000D01*
X162433333Y-52075000D02*
X162528571Y-52122619D01*
X162528571Y-52122619D02*
X162719047Y-52122619D01*
X162719047Y-52122619D02*
X162814285Y-52075000D01*
X162814285Y-52075000D02*
X162861904Y-52027380D01*
X162861904Y-52027380D02*
X162909523Y-51932142D01*
X162909523Y-51932142D02*
X162909523Y-51122619D01*
X163338095Y-51217857D02*
X163385714Y-51170238D01*
X163385714Y-51170238D02*
X163480952Y-51122619D01*
X163480952Y-51122619D02*
X163719047Y-51122619D01*
X163719047Y-51122619D02*
X163814285Y-51170238D01*
X163814285Y-51170238D02*
X163861904Y-51217857D01*
X163861904Y-51217857D02*
X163909523Y-51313095D01*
X163909523Y-51313095D02*
X163909523Y-51408333D01*
X163909523Y-51408333D02*
X163861904Y-51551190D01*
X163861904Y-51551190D02*
X163290476Y-52122619D01*
X163290476Y-52122619D02*
X163909523Y-52122619D01*
%TO.C,C4*%
X138985333Y-67077380D02*
X138937714Y-67125000D01*
X138937714Y-67125000D02*
X138794857Y-67172619D01*
X138794857Y-67172619D02*
X138699619Y-67172619D01*
X138699619Y-67172619D02*
X138556762Y-67125000D01*
X138556762Y-67125000D02*
X138461524Y-67029761D01*
X138461524Y-67029761D02*
X138413905Y-66934523D01*
X138413905Y-66934523D02*
X138366286Y-66744047D01*
X138366286Y-66744047D02*
X138366286Y-66601190D01*
X138366286Y-66601190D02*
X138413905Y-66410714D01*
X138413905Y-66410714D02*
X138461524Y-66315476D01*
X138461524Y-66315476D02*
X138556762Y-66220238D01*
X138556762Y-66220238D02*
X138699619Y-66172619D01*
X138699619Y-66172619D02*
X138794857Y-66172619D01*
X138794857Y-66172619D02*
X138937714Y-66220238D01*
X138937714Y-66220238D02*
X138985333Y-66267857D01*
X139842476Y-66505952D02*
X139842476Y-67172619D01*
X139604381Y-66125000D02*
X139366286Y-66839285D01*
X139366286Y-66839285D02*
X139985333Y-66839285D01*
%TO.C,D3*%
X165282143Y-111977571D02*
X165282143Y-111377571D01*
X165282143Y-111377571D02*
X165425000Y-111377571D01*
X165425000Y-111377571D02*
X165510714Y-111406142D01*
X165510714Y-111406142D02*
X165567857Y-111463285D01*
X165567857Y-111463285D02*
X165596428Y-111520428D01*
X165596428Y-111520428D02*
X165625000Y-111634714D01*
X165625000Y-111634714D02*
X165625000Y-111720428D01*
X165625000Y-111720428D02*
X165596428Y-111834714D01*
X165596428Y-111834714D02*
X165567857Y-111891857D01*
X165567857Y-111891857D02*
X165510714Y-111949000D01*
X165510714Y-111949000D02*
X165425000Y-111977571D01*
X165425000Y-111977571D02*
X165282143Y-111977571D01*
X165825000Y-111377571D02*
X166196428Y-111377571D01*
X166196428Y-111377571D02*
X165996428Y-111606142D01*
X165996428Y-111606142D02*
X166082143Y-111606142D01*
X166082143Y-111606142D02*
X166139286Y-111634714D01*
X166139286Y-111634714D02*
X166167857Y-111663285D01*
X166167857Y-111663285D02*
X166196428Y-111720428D01*
X166196428Y-111720428D02*
X166196428Y-111863285D01*
X166196428Y-111863285D02*
X166167857Y-111920428D01*
X166167857Y-111920428D02*
X166139286Y-111949000D01*
X166139286Y-111949000D02*
X166082143Y-111977571D01*
X166082143Y-111977571D02*
X165910714Y-111977571D01*
X165910714Y-111977571D02*
X165853571Y-111949000D01*
X165853571Y-111949000D02*
X165825000Y-111920428D01*
X157472095Y-113362619D02*
X157472095Y-112362619D01*
X158043523Y-113362619D02*
X157614952Y-112791190D01*
X158043523Y-112362619D02*
X157472095Y-112934047D01*
%TO.C,D4*%
X164832143Y-118852571D02*
X164832143Y-118252571D01*
X164832143Y-118252571D02*
X164975000Y-118252571D01*
X164975000Y-118252571D02*
X165060714Y-118281142D01*
X165060714Y-118281142D02*
X165117857Y-118338285D01*
X165117857Y-118338285D02*
X165146428Y-118395428D01*
X165146428Y-118395428D02*
X165175000Y-118509714D01*
X165175000Y-118509714D02*
X165175000Y-118595428D01*
X165175000Y-118595428D02*
X165146428Y-118709714D01*
X165146428Y-118709714D02*
X165117857Y-118766857D01*
X165117857Y-118766857D02*
X165060714Y-118824000D01*
X165060714Y-118824000D02*
X164975000Y-118852571D01*
X164975000Y-118852571D02*
X164832143Y-118852571D01*
X165689286Y-118452571D02*
X165689286Y-118852571D01*
X165546428Y-118224000D02*
X165403571Y-118652571D01*
X165403571Y-118652571D02*
X165775000Y-118652571D01*
X157472095Y-120252619D02*
X157472095Y-119252619D01*
X158043523Y-120252619D02*
X157614952Y-119681190D01*
X158043523Y-119252619D02*
X157472095Y-119824047D01*
%TO.C,Rs2*%
X142997619Y-107901428D02*
X142521428Y-108234761D01*
X142997619Y-108472856D02*
X141997619Y-108472856D01*
X141997619Y-108472856D02*
X141997619Y-108091904D01*
X141997619Y-108091904D02*
X142045238Y-107996666D01*
X142045238Y-107996666D02*
X142092857Y-107949047D01*
X142092857Y-107949047D02*
X142188095Y-107901428D01*
X142188095Y-107901428D02*
X142330952Y-107901428D01*
X142330952Y-107901428D02*
X142426190Y-107949047D01*
X142426190Y-107949047D02*
X142473809Y-107996666D01*
X142473809Y-107996666D02*
X142521428Y-108091904D01*
X142521428Y-108091904D02*
X142521428Y-108472856D01*
X142950000Y-107520475D02*
X142997619Y-107425237D01*
X142997619Y-107425237D02*
X142997619Y-107234761D01*
X142997619Y-107234761D02*
X142950000Y-107139523D01*
X142950000Y-107139523D02*
X142854761Y-107091904D01*
X142854761Y-107091904D02*
X142807142Y-107091904D01*
X142807142Y-107091904D02*
X142711904Y-107139523D01*
X142711904Y-107139523D02*
X142664285Y-107234761D01*
X142664285Y-107234761D02*
X142664285Y-107377618D01*
X142664285Y-107377618D02*
X142616666Y-107472856D01*
X142616666Y-107472856D02*
X142521428Y-107520475D01*
X142521428Y-107520475D02*
X142473809Y-107520475D01*
X142473809Y-107520475D02*
X142378571Y-107472856D01*
X142378571Y-107472856D02*
X142330952Y-107377618D01*
X142330952Y-107377618D02*
X142330952Y-107234761D01*
X142330952Y-107234761D02*
X142378571Y-107139523D01*
X142092857Y-106710951D02*
X142045238Y-106663332D01*
X142045238Y-106663332D02*
X141997619Y-106568094D01*
X141997619Y-106568094D02*
X141997619Y-106329999D01*
X141997619Y-106329999D02*
X142045238Y-106234761D01*
X142045238Y-106234761D02*
X142092857Y-106187142D01*
X142092857Y-106187142D02*
X142188095Y-106139523D01*
X142188095Y-106139523D02*
X142283333Y-106139523D01*
X142283333Y-106139523D02*
X142426190Y-106187142D01*
X142426190Y-106187142D02*
X142997619Y-106758570D01*
X142997619Y-106758570D02*
X142997619Y-106139523D01*
%TO.C,C3*%
X126579333Y-70327380D02*
X126531714Y-70375000D01*
X126531714Y-70375000D02*
X126388857Y-70422619D01*
X126388857Y-70422619D02*
X126293619Y-70422619D01*
X126293619Y-70422619D02*
X126150762Y-70375000D01*
X126150762Y-70375000D02*
X126055524Y-70279761D01*
X126055524Y-70279761D02*
X126007905Y-70184523D01*
X126007905Y-70184523D02*
X125960286Y-69994047D01*
X125960286Y-69994047D02*
X125960286Y-69851190D01*
X125960286Y-69851190D02*
X126007905Y-69660714D01*
X126007905Y-69660714D02*
X126055524Y-69565476D01*
X126055524Y-69565476D02*
X126150762Y-69470238D01*
X126150762Y-69470238D02*
X126293619Y-69422619D01*
X126293619Y-69422619D02*
X126388857Y-69422619D01*
X126388857Y-69422619D02*
X126531714Y-69470238D01*
X126531714Y-69470238D02*
X126579333Y-69517857D01*
X126912667Y-69422619D02*
X127531714Y-69422619D01*
X127531714Y-69422619D02*
X127198381Y-69803571D01*
X127198381Y-69803571D02*
X127341238Y-69803571D01*
X127341238Y-69803571D02*
X127436476Y-69851190D01*
X127436476Y-69851190D02*
X127484095Y-69898809D01*
X127484095Y-69898809D02*
X127531714Y-69994047D01*
X127531714Y-69994047D02*
X127531714Y-70232142D01*
X127531714Y-70232142D02*
X127484095Y-70327380D01*
X127484095Y-70327380D02*
X127436476Y-70375000D01*
X127436476Y-70375000D02*
X127341238Y-70422619D01*
X127341238Y-70422619D02*
X127055524Y-70422619D01*
X127055524Y-70422619D02*
X126960286Y-70375000D01*
X126960286Y-70375000D02*
X126912667Y-70327380D01*
%TO.C,C1*%
X120892380Y-75416666D02*
X120940000Y-75464285D01*
X120940000Y-75464285D02*
X120987619Y-75607142D01*
X120987619Y-75607142D02*
X120987619Y-75702380D01*
X120987619Y-75702380D02*
X120940000Y-75845237D01*
X120940000Y-75845237D02*
X120844761Y-75940475D01*
X120844761Y-75940475D02*
X120749523Y-75988094D01*
X120749523Y-75988094D02*
X120559047Y-76035713D01*
X120559047Y-76035713D02*
X120416190Y-76035713D01*
X120416190Y-76035713D02*
X120225714Y-75988094D01*
X120225714Y-75988094D02*
X120130476Y-75940475D01*
X120130476Y-75940475D02*
X120035238Y-75845237D01*
X120035238Y-75845237D02*
X119987619Y-75702380D01*
X119987619Y-75702380D02*
X119987619Y-75607142D01*
X119987619Y-75607142D02*
X120035238Y-75464285D01*
X120035238Y-75464285D02*
X120082857Y-75416666D01*
X120987619Y-74464285D02*
X120987619Y-75035713D01*
X120987619Y-74749999D02*
X119987619Y-74749999D01*
X119987619Y-74749999D02*
X120130476Y-74845237D01*
X120130476Y-74845237D02*
X120225714Y-74940475D01*
X120225714Y-74940475D02*
X120273333Y-75035713D01*
%TO.C,R1*%
X140041333Y-96506619D02*
X139708000Y-96030428D01*
X139469905Y-96506619D02*
X139469905Y-95506619D01*
X139469905Y-95506619D02*
X139850857Y-95506619D01*
X139850857Y-95506619D02*
X139946095Y-95554238D01*
X139946095Y-95554238D02*
X139993714Y-95601857D01*
X139993714Y-95601857D02*
X140041333Y-95697095D01*
X140041333Y-95697095D02*
X140041333Y-95839952D01*
X140041333Y-95839952D02*
X139993714Y-95935190D01*
X139993714Y-95935190D02*
X139946095Y-95982809D01*
X139946095Y-95982809D02*
X139850857Y-96030428D01*
X139850857Y-96030428D02*
X139469905Y-96030428D01*
X140993714Y-96506619D02*
X140422286Y-96506619D01*
X140708000Y-96506619D02*
X140708000Y-95506619D01*
X140708000Y-95506619D02*
X140612762Y-95649476D01*
X140612762Y-95649476D02*
X140517524Y-95744714D01*
X140517524Y-95744714D02*
X140422286Y-95792333D01*
%TO.C,D1*%
X164911143Y-97812571D02*
X164911143Y-97212571D01*
X164911143Y-97212571D02*
X165054000Y-97212571D01*
X165054000Y-97212571D02*
X165139714Y-97241142D01*
X165139714Y-97241142D02*
X165196857Y-97298285D01*
X165196857Y-97298285D02*
X165225428Y-97355428D01*
X165225428Y-97355428D02*
X165254000Y-97469714D01*
X165254000Y-97469714D02*
X165254000Y-97555428D01*
X165254000Y-97555428D02*
X165225428Y-97669714D01*
X165225428Y-97669714D02*
X165196857Y-97726857D01*
X165196857Y-97726857D02*
X165139714Y-97784000D01*
X165139714Y-97784000D02*
X165054000Y-97812571D01*
X165054000Y-97812571D02*
X164911143Y-97812571D01*
X165825428Y-97812571D02*
X165482571Y-97812571D01*
X165654000Y-97812571D02*
X165654000Y-97212571D01*
X165654000Y-97212571D02*
X165596857Y-97298285D01*
X165596857Y-97298285D02*
X165539714Y-97355428D01*
X165539714Y-97355428D02*
X165482571Y-97384000D01*
X157472095Y-99582619D02*
X157472095Y-98582619D01*
X158043523Y-99582619D02*
X157614952Y-99011190D01*
X158043523Y-98582619D02*
X157472095Y-99154047D01*
%TO.C,D8*%
X123406905Y-95235953D02*
X123406905Y-94235953D01*
X123406905Y-94235953D02*
X123645000Y-94235953D01*
X123645000Y-94235953D02*
X123787857Y-94283572D01*
X123787857Y-94283572D02*
X123883095Y-94378810D01*
X123883095Y-94378810D02*
X123930714Y-94474048D01*
X123930714Y-94474048D02*
X123978333Y-94664524D01*
X123978333Y-94664524D02*
X123978333Y-94807381D01*
X123978333Y-94807381D02*
X123930714Y-94997857D01*
X123930714Y-94997857D02*
X123883095Y-95093095D01*
X123883095Y-95093095D02*
X123787857Y-95188334D01*
X123787857Y-95188334D02*
X123645000Y-95235953D01*
X123645000Y-95235953D02*
X123406905Y-95235953D01*
X124549762Y-94664524D02*
X124454524Y-94616905D01*
X124454524Y-94616905D02*
X124406905Y-94569286D01*
X124406905Y-94569286D02*
X124359286Y-94474048D01*
X124359286Y-94474048D02*
X124359286Y-94426429D01*
X124359286Y-94426429D02*
X124406905Y-94331191D01*
X124406905Y-94331191D02*
X124454524Y-94283572D01*
X124454524Y-94283572D02*
X124549762Y-94235953D01*
X124549762Y-94235953D02*
X124740238Y-94235953D01*
X124740238Y-94235953D02*
X124835476Y-94283572D01*
X124835476Y-94283572D02*
X124883095Y-94331191D01*
X124883095Y-94331191D02*
X124930714Y-94426429D01*
X124930714Y-94426429D02*
X124930714Y-94474048D01*
X124930714Y-94474048D02*
X124883095Y-94569286D01*
X124883095Y-94569286D02*
X124835476Y-94616905D01*
X124835476Y-94616905D02*
X124740238Y-94664524D01*
X124740238Y-94664524D02*
X124549762Y-94664524D01*
X124549762Y-94664524D02*
X124454524Y-94712143D01*
X124454524Y-94712143D02*
X124406905Y-94759762D01*
X124406905Y-94759762D02*
X124359286Y-94855000D01*
X124359286Y-94855000D02*
X124359286Y-95045476D01*
X124359286Y-95045476D02*
X124406905Y-95140714D01*
X124406905Y-95140714D02*
X124454524Y-95188334D01*
X124454524Y-95188334D02*
X124549762Y-95235953D01*
X124549762Y-95235953D02*
X124740238Y-95235953D01*
X124740238Y-95235953D02*
X124835476Y-95188334D01*
X124835476Y-95188334D02*
X124883095Y-95140714D01*
X124883095Y-95140714D02*
X124930714Y-95045476D01*
X124930714Y-95045476D02*
X124930714Y-94855000D01*
X124930714Y-94855000D02*
X124883095Y-94759762D01*
X124883095Y-94759762D02*
X124835476Y-94712143D01*
X124835476Y-94712143D02*
X124740238Y-94664524D01*
X116263095Y-96820953D02*
X116263095Y-95820953D01*
X116834523Y-96820953D02*
X116405952Y-96249524D01*
X116834523Y-95820953D02*
X116263095Y-96392381D01*
%TO.C,D5*%
X123406905Y-119560953D02*
X123406905Y-118560953D01*
X123406905Y-118560953D02*
X123645000Y-118560953D01*
X123645000Y-118560953D02*
X123787857Y-118608572D01*
X123787857Y-118608572D02*
X123883095Y-118703810D01*
X123883095Y-118703810D02*
X123930714Y-118799048D01*
X123930714Y-118799048D02*
X123978333Y-118989524D01*
X123978333Y-118989524D02*
X123978333Y-119132381D01*
X123978333Y-119132381D02*
X123930714Y-119322857D01*
X123930714Y-119322857D02*
X123883095Y-119418095D01*
X123883095Y-119418095D02*
X123787857Y-119513334D01*
X123787857Y-119513334D02*
X123645000Y-119560953D01*
X123645000Y-119560953D02*
X123406905Y-119560953D01*
X124883095Y-118560953D02*
X124406905Y-118560953D01*
X124406905Y-118560953D02*
X124359286Y-119037143D01*
X124359286Y-119037143D02*
X124406905Y-118989524D01*
X124406905Y-118989524D02*
X124502143Y-118941905D01*
X124502143Y-118941905D02*
X124740238Y-118941905D01*
X124740238Y-118941905D02*
X124835476Y-118989524D01*
X124835476Y-118989524D02*
X124883095Y-119037143D01*
X124883095Y-119037143D02*
X124930714Y-119132381D01*
X124930714Y-119132381D02*
X124930714Y-119370476D01*
X124930714Y-119370476D02*
X124883095Y-119465714D01*
X124883095Y-119465714D02*
X124835476Y-119513334D01*
X124835476Y-119513334D02*
X124740238Y-119560953D01*
X124740238Y-119560953D02*
X124502143Y-119560953D01*
X124502143Y-119560953D02*
X124406905Y-119513334D01*
X124406905Y-119513334D02*
X124359286Y-119465714D01*
X116263095Y-121145953D02*
X116263095Y-120145953D01*
X116834523Y-121145953D02*
X116405952Y-120574524D01*
X116834523Y-120145953D02*
X116263095Y-120717381D01*
%TO.C,D2*%
X165157143Y-105052571D02*
X165157143Y-104452571D01*
X165157143Y-104452571D02*
X165300000Y-104452571D01*
X165300000Y-104452571D02*
X165385714Y-104481142D01*
X165385714Y-104481142D02*
X165442857Y-104538285D01*
X165442857Y-104538285D02*
X165471428Y-104595428D01*
X165471428Y-104595428D02*
X165500000Y-104709714D01*
X165500000Y-104709714D02*
X165500000Y-104795428D01*
X165500000Y-104795428D02*
X165471428Y-104909714D01*
X165471428Y-104909714D02*
X165442857Y-104966857D01*
X165442857Y-104966857D02*
X165385714Y-105024000D01*
X165385714Y-105024000D02*
X165300000Y-105052571D01*
X165300000Y-105052571D02*
X165157143Y-105052571D01*
X165728571Y-104509714D02*
X165757143Y-104481142D01*
X165757143Y-104481142D02*
X165814286Y-104452571D01*
X165814286Y-104452571D02*
X165957143Y-104452571D01*
X165957143Y-104452571D02*
X166014286Y-104481142D01*
X166014286Y-104481142D02*
X166042857Y-104509714D01*
X166042857Y-104509714D02*
X166071428Y-104566857D01*
X166071428Y-104566857D02*
X166071428Y-104624000D01*
X166071428Y-104624000D02*
X166042857Y-104709714D01*
X166042857Y-104709714D02*
X165700000Y-105052571D01*
X165700000Y-105052571D02*
X166071428Y-105052571D01*
X157472095Y-106472619D02*
X157472095Y-105472619D01*
X158043523Y-106472619D02*
X157614952Y-105901190D01*
X158043523Y-105472619D02*
X157472095Y-106044047D01*
%TO.C,D7*%
X123406905Y-103344286D02*
X123406905Y-102344286D01*
X123406905Y-102344286D02*
X123645000Y-102344286D01*
X123645000Y-102344286D02*
X123787857Y-102391905D01*
X123787857Y-102391905D02*
X123883095Y-102487143D01*
X123883095Y-102487143D02*
X123930714Y-102582381D01*
X123930714Y-102582381D02*
X123978333Y-102772857D01*
X123978333Y-102772857D02*
X123978333Y-102915714D01*
X123978333Y-102915714D02*
X123930714Y-103106190D01*
X123930714Y-103106190D02*
X123883095Y-103201428D01*
X123883095Y-103201428D02*
X123787857Y-103296667D01*
X123787857Y-103296667D02*
X123645000Y-103344286D01*
X123645000Y-103344286D02*
X123406905Y-103344286D01*
X124311667Y-102344286D02*
X124978333Y-102344286D01*
X124978333Y-102344286D02*
X124549762Y-103344286D01*
X116263095Y-104929286D02*
X116263095Y-103929286D01*
X116834523Y-104929286D02*
X116405952Y-104357857D01*
X116834523Y-103929286D02*
X116263095Y-104500714D01*
%TO.C,D6*%
X123406905Y-111452619D02*
X123406905Y-110452619D01*
X123406905Y-110452619D02*
X123645000Y-110452619D01*
X123645000Y-110452619D02*
X123787857Y-110500238D01*
X123787857Y-110500238D02*
X123883095Y-110595476D01*
X123883095Y-110595476D02*
X123930714Y-110690714D01*
X123930714Y-110690714D02*
X123978333Y-110881190D01*
X123978333Y-110881190D02*
X123978333Y-111024047D01*
X123978333Y-111024047D02*
X123930714Y-111214523D01*
X123930714Y-111214523D02*
X123883095Y-111309761D01*
X123883095Y-111309761D02*
X123787857Y-111405000D01*
X123787857Y-111405000D02*
X123645000Y-111452619D01*
X123645000Y-111452619D02*
X123406905Y-111452619D01*
X124835476Y-110452619D02*
X124645000Y-110452619D01*
X124645000Y-110452619D02*
X124549762Y-110500238D01*
X124549762Y-110500238D02*
X124502143Y-110547857D01*
X124502143Y-110547857D02*
X124406905Y-110690714D01*
X124406905Y-110690714D02*
X124359286Y-110881190D01*
X124359286Y-110881190D02*
X124359286Y-111262142D01*
X124359286Y-111262142D02*
X124406905Y-111357380D01*
X124406905Y-111357380D02*
X124454524Y-111405000D01*
X124454524Y-111405000D02*
X124549762Y-111452619D01*
X124549762Y-111452619D02*
X124740238Y-111452619D01*
X124740238Y-111452619D02*
X124835476Y-111405000D01*
X124835476Y-111405000D02*
X124883095Y-111357380D01*
X124883095Y-111357380D02*
X124930714Y-111262142D01*
X124930714Y-111262142D02*
X124930714Y-111024047D01*
X124930714Y-111024047D02*
X124883095Y-110928809D01*
X124883095Y-110928809D02*
X124835476Y-110881190D01*
X124835476Y-110881190D02*
X124740238Y-110833571D01*
X124740238Y-110833571D02*
X124549762Y-110833571D01*
X124549762Y-110833571D02*
X124454524Y-110881190D01*
X124454524Y-110881190D02*
X124406905Y-110928809D01*
X124406905Y-110928809D02*
X124359286Y-111024047D01*
X116263095Y-113037619D02*
X116263095Y-112037619D01*
X116834523Y-113037619D02*
X116405952Y-112466190D01*
X116834523Y-112037619D02*
X116263095Y-112609047D01*
%TO.C,C2*%
X158242380Y-72166666D02*
X158290000Y-72214285D01*
X158290000Y-72214285D02*
X158337619Y-72357142D01*
X158337619Y-72357142D02*
X158337619Y-72452380D01*
X158337619Y-72452380D02*
X158290000Y-72595237D01*
X158290000Y-72595237D02*
X158194761Y-72690475D01*
X158194761Y-72690475D02*
X158099523Y-72738094D01*
X158099523Y-72738094D02*
X157909047Y-72785713D01*
X157909047Y-72785713D02*
X157766190Y-72785713D01*
X157766190Y-72785713D02*
X157575714Y-72738094D01*
X157575714Y-72738094D02*
X157480476Y-72690475D01*
X157480476Y-72690475D02*
X157385238Y-72595237D01*
X157385238Y-72595237D02*
X157337619Y-72452380D01*
X157337619Y-72452380D02*
X157337619Y-72357142D01*
X157337619Y-72357142D02*
X157385238Y-72214285D01*
X157385238Y-72214285D02*
X157432857Y-72166666D01*
X157432857Y-71785713D02*
X157385238Y-71738094D01*
X157385238Y-71738094D02*
X157337619Y-71642856D01*
X157337619Y-71642856D02*
X157337619Y-71404761D01*
X157337619Y-71404761D02*
X157385238Y-71309523D01*
X157385238Y-71309523D02*
X157432857Y-71261904D01*
X157432857Y-71261904D02*
X157528095Y-71214285D01*
X157528095Y-71214285D02*
X157623333Y-71214285D01*
X157623333Y-71214285D02*
X157766190Y-71261904D01*
X157766190Y-71261904D02*
X158337619Y-71833332D01*
X158337619Y-71833332D02*
X158337619Y-71214285D01*
%TO.C,Rs1*%
X153157619Y-107901428D02*
X152681428Y-108234761D01*
X153157619Y-108472856D02*
X152157619Y-108472856D01*
X152157619Y-108472856D02*
X152157619Y-108091904D01*
X152157619Y-108091904D02*
X152205238Y-107996666D01*
X152205238Y-107996666D02*
X152252857Y-107949047D01*
X152252857Y-107949047D02*
X152348095Y-107901428D01*
X152348095Y-107901428D02*
X152490952Y-107901428D01*
X152490952Y-107901428D02*
X152586190Y-107949047D01*
X152586190Y-107949047D02*
X152633809Y-107996666D01*
X152633809Y-107996666D02*
X152681428Y-108091904D01*
X152681428Y-108091904D02*
X152681428Y-108472856D01*
X153110000Y-107520475D02*
X153157619Y-107425237D01*
X153157619Y-107425237D02*
X153157619Y-107234761D01*
X153157619Y-107234761D02*
X153110000Y-107139523D01*
X153110000Y-107139523D02*
X153014761Y-107091904D01*
X153014761Y-107091904D02*
X152967142Y-107091904D01*
X152967142Y-107091904D02*
X152871904Y-107139523D01*
X152871904Y-107139523D02*
X152824285Y-107234761D01*
X152824285Y-107234761D02*
X152824285Y-107377618D01*
X152824285Y-107377618D02*
X152776666Y-107472856D01*
X152776666Y-107472856D02*
X152681428Y-107520475D01*
X152681428Y-107520475D02*
X152633809Y-107520475D01*
X152633809Y-107520475D02*
X152538571Y-107472856D01*
X152538571Y-107472856D02*
X152490952Y-107377618D01*
X152490952Y-107377618D02*
X152490952Y-107234761D01*
X152490952Y-107234761D02*
X152538571Y-107139523D01*
X153157619Y-106139523D02*
X153157619Y-106710951D01*
X153157619Y-106425237D02*
X152157619Y-106425237D01*
X152157619Y-106425237D02*
X152300476Y-106520475D01*
X152300476Y-106520475D02*
X152395714Y-106615713D01*
X152395714Y-106615713D02*
X152443333Y-106710951D01*
D11*
%TO.C,U2*%
X152880000Y-52660000D02*
X152880000Y-57901000D01*
X152880000Y-52660000D02*
X173320000Y-52660000D01*
X152880000Y-54500000D02*
X173320000Y-54500000D01*
X152880000Y-57901000D02*
X154556000Y-57901000D01*
X154210000Y-57901000D02*
X154210000Y-61310000D01*
X156405000Y-57901000D02*
X157096000Y-57901000D01*
X156750000Y-57901000D02*
X156750000Y-61295000D01*
X158945000Y-57901000D02*
X159636000Y-57901000D01*
X159290000Y-57901000D02*
X159290000Y-61295000D01*
X161251000Y-52660000D02*
X161251000Y-54500000D01*
X161485000Y-57901000D02*
X162176000Y-57901000D01*
X161830000Y-57901000D02*
X161830000Y-61295000D01*
X164025000Y-57901000D02*
X164716000Y-57901000D01*
X164370000Y-57901000D02*
X164370000Y-61295000D01*
X164950000Y-52660000D02*
X164950000Y-54500000D01*
X166565000Y-57901000D02*
X167256000Y-57901000D01*
X166910000Y-57901000D02*
X166910000Y-61295000D01*
X169105000Y-57901000D02*
X169796000Y-57901000D01*
X169450000Y-57901000D02*
X169450000Y-61295000D01*
X171645000Y-57901000D02*
X173320000Y-57901000D01*
X171990000Y-57901000D02*
X171990000Y-61295000D01*
X173320000Y-52660000D02*
X173320000Y-57901000D01*
%TO.C,C4*%
X132067431Y-70745000D02*
X133367431Y-70745000D01*
X132717431Y-70095000D02*
X132717431Y-71395000D01*
X139152000Y-67880000D02*
X139152000Y-81040000D01*
X139192000Y-67880000D02*
X139192000Y-81040000D01*
X139232000Y-67880000D02*
X139232000Y-81040000D01*
X139272000Y-67881000D02*
X139272000Y-81039000D01*
X139312000Y-67881000D02*
X139312000Y-81039000D01*
X139352000Y-67883000D02*
X139352000Y-81037000D01*
X139392000Y-67884000D02*
X139392000Y-81036000D01*
X139432000Y-67885000D02*
X139432000Y-81035000D01*
X139472000Y-67887000D02*
X139472000Y-81033000D01*
X139512000Y-67889000D02*
X139512000Y-81031000D01*
X139552000Y-67892000D02*
X139552000Y-81028000D01*
X139592000Y-67894000D02*
X139592000Y-81026000D01*
X139632000Y-67897000D02*
X139632000Y-81023000D01*
X139672000Y-67900000D02*
X139672000Y-81020000D01*
X139712000Y-67903000D02*
X139712000Y-81017000D01*
X139752000Y-67907000D02*
X139752000Y-81013000D01*
X139792000Y-67911000D02*
X139792000Y-81009000D01*
X139832000Y-67915000D02*
X139832000Y-81005000D01*
X139873000Y-67919000D02*
X139873000Y-81001000D01*
X139913000Y-67923000D02*
X139913000Y-80997000D01*
X139953000Y-67928000D02*
X139953000Y-80992000D01*
X139993000Y-67933000D02*
X139993000Y-80987000D01*
X140033000Y-67938000D02*
X140033000Y-80982000D01*
X140073000Y-67944000D02*
X140073000Y-80976000D01*
X140113000Y-67949000D02*
X140113000Y-80971000D01*
X140153000Y-67955000D02*
X140153000Y-80965000D01*
X140193000Y-67962000D02*
X140193000Y-80958000D01*
X140233000Y-67968000D02*
X140233000Y-73020000D01*
X140233000Y-75900000D02*
X140233000Y-80952000D01*
X140273000Y-67975000D02*
X140273000Y-73020000D01*
X140273000Y-75900000D02*
X140273000Y-80945000D01*
X140313000Y-67982000D02*
X140313000Y-73020000D01*
X140313000Y-75900000D02*
X140313000Y-80938000D01*
X140353000Y-67989000D02*
X140353000Y-73020000D01*
X140353000Y-75900000D02*
X140353000Y-80931000D01*
X140393000Y-67997000D02*
X140393000Y-73020000D01*
X140393000Y-75900000D02*
X140393000Y-80923000D01*
X140433000Y-68004000D02*
X140433000Y-73020000D01*
X140433000Y-75900000D02*
X140433000Y-80916000D01*
X140473000Y-68012000D02*
X140473000Y-73020000D01*
X140473000Y-75900000D02*
X140473000Y-80908000D01*
X140513000Y-68021000D02*
X140513000Y-73020000D01*
X140513000Y-75900000D02*
X140513000Y-80899000D01*
X140553000Y-68029000D02*
X140553000Y-73020000D01*
X140553000Y-75900000D02*
X140553000Y-80891000D01*
X140593000Y-68038000D02*
X140593000Y-73020000D01*
X140593000Y-75900000D02*
X140593000Y-80882000D01*
X140633000Y-68047000D02*
X140633000Y-73020000D01*
X140633000Y-75900000D02*
X140633000Y-80873000D01*
X140673000Y-68056000D02*
X140673000Y-73020000D01*
X140673000Y-75900000D02*
X140673000Y-80864000D01*
X140713000Y-68066000D02*
X140713000Y-73020000D01*
X140713000Y-75900000D02*
X140713000Y-80854000D01*
X140753000Y-68076000D02*
X140753000Y-73020000D01*
X140753000Y-75900000D02*
X140753000Y-80844000D01*
X140793000Y-68086000D02*
X140793000Y-73020000D01*
X140793000Y-75900000D02*
X140793000Y-80834000D01*
X140833000Y-68096000D02*
X140833000Y-73020000D01*
X140833000Y-75900000D02*
X140833000Y-80824000D01*
X140873000Y-68107000D02*
X140873000Y-73020000D01*
X140873000Y-75900000D02*
X140873000Y-80813000D01*
X140913000Y-68118000D02*
X140913000Y-73020000D01*
X140913000Y-75900000D02*
X140913000Y-80802000D01*
X140953000Y-68129000D02*
X140953000Y-73020000D01*
X140953000Y-75900000D02*
X140953000Y-80791000D01*
X140993000Y-68140000D02*
X140993000Y-73020000D01*
X140993000Y-75900000D02*
X140993000Y-80780000D01*
X141033000Y-68152000D02*
X141033000Y-73020000D01*
X141033000Y-75900000D02*
X141033000Y-80768000D01*
X141073000Y-68164000D02*
X141073000Y-73020000D01*
X141073000Y-75900000D02*
X141073000Y-80756000D01*
X141113000Y-68176000D02*
X141113000Y-73020000D01*
X141113000Y-75900000D02*
X141113000Y-80744000D01*
X141153000Y-68189000D02*
X141153000Y-73020000D01*
X141153000Y-75900000D02*
X141153000Y-80731000D01*
X141193000Y-68202000D02*
X141193000Y-73020000D01*
X141193000Y-75900000D02*
X141193000Y-80718000D01*
X141233000Y-68215000D02*
X141233000Y-73020000D01*
X141233000Y-75900000D02*
X141233000Y-80705000D01*
X141273000Y-68228000D02*
X141273000Y-73020000D01*
X141273000Y-75900000D02*
X141273000Y-80692000D01*
X141313000Y-68242000D02*
X141313000Y-73020000D01*
X141313000Y-75900000D02*
X141313000Y-80678000D01*
X141353000Y-68256000D02*
X141353000Y-73020000D01*
X141353000Y-75900000D02*
X141353000Y-80664000D01*
X141393000Y-68270000D02*
X141393000Y-73020000D01*
X141393000Y-75900000D02*
X141393000Y-80650000D01*
X141433000Y-68285000D02*
X141433000Y-73020000D01*
X141433000Y-75900000D02*
X141433000Y-80635000D01*
X141473000Y-68299000D02*
X141473000Y-73020000D01*
X141473000Y-75900000D02*
X141473000Y-80621000D01*
X141513000Y-68314000D02*
X141513000Y-73020000D01*
X141513000Y-75900000D02*
X141513000Y-80606000D01*
X141553000Y-68330000D02*
X141553000Y-73020000D01*
X141553000Y-75900000D02*
X141553000Y-80590000D01*
X141593000Y-68346000D02*
X141593000Y-73020000D01*
X141593000Y-75900000D02*
X141593000Y-80574000D01*
X141633000Y-68362000D02*
X141633000Y-73020000D01*
X141633000Y-75900000D02*
X141633000Y-80558000D01*
X141673000Y-68378000D02*
X141673000Y-73020000D01*
X141673000Y-75900000D02*
X141673000Y-80542000D01*
X141713000Y-68395000D02*
X141713000Y-73020000D01*
X141713000Y-75900000D02*
X141713000Y-80525000D01*
X141753000Y-68411000D02*
X141753000Y-73020000D01*
X141753000Y-75900000D02*
X141753000Y-80509000D01*
X141793000Y-68429000D02*
X141793000Y-73020000D01*
X141793000Y-75900000D02*
X141793000Y-80491000D01*
X141833000Y-68446000D02*
X141833000Y-73020000D01*
X141833000Y-75900000D02*
X141833000Y-80474000D01*
X141873000Y-68464000D02*
X141873000Y-73020000D01*
X141873000Y-75900000D02*
X141873000Y-80456000D01*
X141913000Y-68482000D02*
X141913000Y-73020000D01*
X141913000Y-75900000D02*
X141913000Y-80438000D01*
X141953000Y-68501000D02*
X141953000Y-73020000D01*
X141953000Y-75900000D02*
X141953000Y-80419000D01*
X141993000Y-68520000D02*
X141993000Y-73020000D01*
X141993000Y-75900000D02*
X141993000Y-80400000D01*
X142033000Y-68539000D02*
X142033000Y-73020000D01*
X142033000Y-75900000D02*
X142033000Y-80381000D01*
X142073000Y-68558000D02*
X142073000Y-73020000D01*
X142073000Y-75900000D02*
X142073000Y-80362000D01*
X142113000Y-68578000D02*
X142113000Y-73020000D01*
X142113000Y-75900000D02*
X142113000Y-80342000D01*
X142153000Y-68598000D02*
X142153000Y-73020000D01*
X142153000Y-75900000D02*
X142153000Y-80322000D01*
X142193000Y-68619000D02*
X142193000Y-73020000D01*
X142193000Y-75900000D02*
X142193000Y-80301000D01*
X142233000Y-68640000D02*
X142233000Y-73020000D01*
X142233000Y-75900000D02*
X142233000Y-80280000D01*
X142273000Y-68661000D02*
X142273000Y-73020000D01*
X142273000Y-75900000D02*
X142273000Y-80259000D01*
X142313000Y-68682000D02*
X142313000Y-73020000D01*
X142313000Y-75900000D02*
X142313000Y-80238000D01*
X142353000Y-68704000D02*
X142353000Y-73020000D01*
X142353000Y-75900000D02*
X142353000Y-80216000D01*
X142393000Y-68727000D02*
X142393000Y-73020000D01*
X142393000Y-75900000D02*
X142393000Y-80193000D01*
X142433000Y-68749000D02*
X142433000Y-73020000D01*
X142433000Y-75900000D02*
X142433000Y-80171000D01*
X142473000Y-68772000D02*
X142473000Y-73020000D01*
X142473000Y-75900000D02*
X142473000Y-80148000D01*
X142513000Y-68796000D02*
X142513000Y-73020000D01*
X142513000Y-75900000D02*
X142513000Y-80124000D01*
X142553000Y-68819000D02*
X142553000Y-73020000D01*
X142553000Y-75900000D02*
X142553000Y-80101000D01*
X142593000Y-68843000D02*
X142593000Y-73020000D01*
X142593000Y-75900000D02*
X142593000Y-80077000D01*
X142633000Y-68868000D02*
X142633000Y-73020000D01*
X142633000Y-75900000D02*
X142633000Y-80052000D01*
X142673000Y-68893000D02*
X142673000Y-73020000D01*
X142673000Y-75900000D02*
X142673000Y-80027000D01*
X142713000Y-68918000D02*
X142713000Y-73020000D01*
X142713000Y-75900000D02*
X142713000Y-80002000D01*
X142753000Y-68944000D02*
X142753000Y-73020000D01*
X142753000Y-75900000D02*
X142753000Y-79976000D01*
X142793000Y-68970000D02*
X142793000Y-73020000D01*
X142793000Y-75900000D02*
X142793000Y-79950000D01*
X142833000Y-68997000D02*
X142833000Y-73020000D01*
X142833000Y-75900000D02*
X142833000Y-79923000D01*
X142873000Y-69024000D02*
X142873000Y-73020000D01*
X142873000Y-75900000D02*
X142873000Y-79896000D01*
X142913000Y-69051000D02*
X142913000Y-73020000D01*
X142913000Y-75900000D02*
X142913000Y-79869000D01*
X142953000Y-69079000D02*
X142953000Y-73020000D01*
X142953000Y-75900000D02*
X142953000Y-79841000D01*
X142993000Y-69107000D02*
X142993000Y-73020000D01*
X142993000Y-75900000D02*
X142993000Y-79813000D01*
X143033000Y-69136000D02*
X143033000Y-73020000D01*
X143033000Y-75900000D02*
X143033000Y-79784000D01*
X143073000Y-69165000D02*
X143073000Y-73020000D01*
X143073000Y-75900000D02*
X143073000Y-79755000D01*
X143113000Y-69195000D02*
X143113000Y-79725000D01*
X143153000Y-69225000D02*
X143153000Y-79695000D01*
X143193000Y-69255000D02*
X143193000Y-79665000D01*
X143233000Y-69286000D02*
X143233000Y-79634000D01*
X143273000Y-69318000D02*
X143273000Y-79602000D01*
X143313000Y-69350000D02*
X143313000Y-79570000D01*
X143353000Y-69382000D02*
X143353000Y-79538000D01*
X143393000Y-69416000D02*
X143393000Y-79504000D01*
X143433000Y-69449000D02*
X143433000Y-79471000D01*
X143473000Y-69483000D02*
X143473000Y-79437000D01*
X143513000Y-69518000D02*
X143513000Y-79402000D01*
X143553000Y-69553000D02*
X143553000Y-79367000D01*
X143593000Y-69589000D02*
X143593000Y-79331000D01*
X143633000Y-69626000D02*
X143633000Y-79294000D01*
X143673000Y-69663000D02*
X143673000Y-79257000D01*
X143713000Y-69700000D02*
X143713000Y-79220000D01*
X143753000Y-69739000D02*
X143753000Y-79181000D01*
X143793000Y-69778000D02*
X143793000Y-79142000D01*
X143833000Y-69817000D02*
X143833000Y-79103000D01*
X143873000Y-69858000D02*
X143873000Y-79062000D01*
X143913000Y-69899000D02*
X143913000Y-79021000D01*
X143953000Y-69941000D02*
X143953000Y-78979000D01*
X143993000Y-69983000D02*
X143993000Y-78937000D01*
X144033000Y-70026000D02*
X144033000Y-78894000D01*
X144073000Y-70070000D02*
X144073000Y-78850000D01*
X144113000Y-70115000D02*
X144113000Y-78805000D01*
X144153000Y-70161000D02*
X144153000Y-78759000D01*
X144193000Y-70207000D02*
X144193000Y-78713000D01*
X144233000Y-70255000D02*
X144233000Y-78665000D01*
X144273000Y-70303000D02*
X144273000Y-78617000D01*
X144313000Y-70352000D02*
X144313000Y-78568000D01*
X144353000Y-70403000D02*
X144353000Y-78517000D01*
X144393000Y-70454000D02*
X144393000Y-78466000D01*
X144433000Y-70506000D02*
X144433000Y-78414000D01*
X144473000Y-70560000D02*
X144473000Y-78360000D01*
X144513000Y-70614000D02*
X144513000Y-78306000D01*
X144553000Y-70670000D02*
X144553000Y-78250000D01*
X144593000Y-70727000D02*
X144593000Y-78193000D01*
X144633000Y-70785000D02*
X144633000Y-78135000D01*
X144673000Y-70845000D02*
X144673000Y-78075000D01*
X144713000Y-70906000D02*
X144713000Y-78014000D01*
X144753000Y-70969000D02*
X144753000Y-77951000D01*
X144793000Y-71033000D02*
X144793000Y-77887000D01*
X144833000Y-71099000D02*
X144833000Y-77821000D01*
X144873000Y-71167000D02*
X144873000Y-77753000D01*
X144913000Y-71237000D02*
X144913000Y-77683000D01*
X144953000Y-71308000D02*
X144953000Y-77612000D01*
X144993000Y-71382000D02*
X144993000Y-77538000D01*
X145033000Y-71458000D02*
X145033000Y-77462000D01*
X145073000Y-71537000D02*
X145073000Y-77383000D01*
X145113000Y-71618000D02*
X145113000Y-77302000D01*
X145153000Y-71702000D02*
X145153000Y-77218000D01*
X145193000Y-71790000D02*
X145193000Y-77130000D01*
X145233000Y-71881000D02*
X145233000Y-77039000D01*
X145273000Y-71976000D02*
X145273000Y-76944000D01*
X145313000Y-72075000D02*
X145313000Y-76845000D01*
X145353000Y-72179000D02*
X145353000Y-76741000D01*
X145393000Y-72289000D02*
X145393000Y-76631000D01*
X145433000Y-72405000D02*
X145433000Y-76515000D01*
X145473000Y-72529000D02*
X145473000Y-76391000D01*
X145513000Y-72662000D02*
X145513000Y-76258000D01*
X145553000Y-72807000D02*
X145553000Y-76113000D01*
X145593000Y-72966000D02*
X145593000Y-75954000D01*
X145633000Y-73145000D02*
X145633000Y-75775000D01*
X145673000Y-73353000D02*
X145673000Y-75567000D01*
X145713000Y-73610000D02*
X145713000Y-75310000D01*
X145753000Y-73985000D02*
X145753000Y-74935000D01*
X145772000Y-74460000D02*
G75*
G03*
X145772000Y-74460000I-6620000J0D01*
G01*
%TO.C,D3*%
X159174000Y-115100000D02*
X160474000Y-115100000D01*
X160474000Y-112315000D02*
X160474000Y-117885000D01*
X160474000Y-117885000D02*
X170234000Y-117885000D01*
X161902000Y-112315000D02*
X161902000Y-117885000D01*
X162022000Y-112315000D02*
X162022000Y-117885000D01*
X162142000Y-112315000D02*
X162142000Y-117885000D01*
X170234000Y-112315000D02*
X160474000Y-112315000D01*
X170234000Y-117885000D02*
X170234000Y-112315000D01*
X171534000Y-115100000D02*
X170234000Y-115100000D01*
%TO.C,D4*%
X159174000Y-121990000D02*
X160474000Y-121990000D01*
X160474000Y-119205000D02*
X160474000Y-124775000D01*
X160474000Y-124775000D02*
X170234000Y-124775000D01*
X161902000Y-119205000D02*
X161902000Y-124775000D01*
X162022000Y-119205000D02*
X162022000Y-124775000D01*
X162142000Y-119205000D02*
X162142000Y-124775000D01*
X170234000Y-119205000D02*
X160474000Y-119205000D01*
X170234000Y-124775000D02*
X170234000Y-119205000D01*
X171534000Y-121990000D02*
X170234000Y-121990000D01*
%TO.C,Rs2*%
X139165000Y-101150000D02*
X139165000Y-101260000D01*
X141535000Y-101260000D02*
X136795000Y-101260000D01*
X136795000Y-101260000D02*
X136795000Y-113400000D01*
X141535000Y-113400000D02*
X141535000Y-101260000D01*
X136795000Y-113400000D02*
X141535000Y-113400000D01*
X139165000Y-113510000D02*
X139165000Y-113400000D01*
%TO.C,C3*%
X122876000Y-71090000D02*
X122876000Y-77830000D01*
X122876000Y-71090000D02*
X130616000Y-71090000D01*
X122876000Y-77830000D02*
X130616000Y-77830000D01*
X130616000Y-71090000D02*
X130616000Y-77830000D01*
%TO.C,C1*%
X119395000Y-70130000D02*
X116155000Y-70130000D01*
X119395000Y-70130000D02*
X119395000Y-80370000D01*
X116155000Y-70130000D02*
X116155000Y-80370000D01*
X119395000Y-80370000D02*
X116155000Y-80370000D01*
%TO.C,J1*%
X146045000Y-53355000D02*
X146045000Y-52615000D01*
X146045000Y-52615000D02*
X145545000Y-52615000D01*
X145805000Y-62776000D02*
X145805000Y-52855000D01*
X145805000Y-62776000D02*
X135525000Y-62776000D01*
X145805000Y-59816000D02*
X135525000Y-59816000D01*
X145805000Y-54915000D02*
X135525000Y-54915000D01*
X145805000Y-53415000D02*
X135525000Y-53415000D01*
X145805000Y-52855000D02*
X135525000Y-52855000D01*
X139352000Y-56492000D02*
X139399000Y-56446000D01*
X139159000Y-56276000D02*
X139194000Y-56241000D01*
X137055000Y-58790000D02*
X137090000Y-58754000D01*
X136850000Y-58584000D02*
X136897000Y-58538000D01*
X135525000Y-62776000D02*
X135525000Y-52855000D01*
X144739999Y-58198999D02*
G75*
G03*
X144740426Y-56831958I-1534992J684000D01*
G01*
X142521001Y-59049999D02*
G75*
G03*
X143888042Y-59050426I684000J1534992D01*
G01*
X143889000Y-55980001D02*
G75*
G03*
X143176195Y-55834748I-683999J-1535000D01*
G01*
X143205000Y-55835001D02*
G75*
G03*
X142521682Y-55980245I0J-1679999D01*
G01*
X141670000Y-56831000D02*
G75*
G03*
X141669574Y-58198042I1535000J-684000D01*
G01*
X139805000Y-57515000D02*
G75*
G03*
X139805000Y-57515000I-1680000J0D01*
G01*
%TO.C,J4*%
X133718000Y-132297000D02*
X133718000Y-133037000D01*
X133718000Y-133037000D02*
X134218000Y-133037000D01*
X133958000Y-122876000D02*
X133958000Y-132797000D01*
X133958000Y-122876000D02*
X154079000Y-122876000D01*
X133958000Y-125836000D02*
X154079000Y-125836000D01*
X133958000Y-130737000D02*
X154079000Y-130737000D01*
X133958000Y-132237000D02*
X154079000Y-132237000D01*
X133958000Y-132797000D02*
X154079000Y-132797000D01*
X140291000Y-129160000D02*
X140244000Y-129206000D01*
X140484000Y-129376000D02*
X140449000Y-129411000D01*
X142588000Y-126862000D02*
X142553000Y-126898000D01*
X142793000Y-127068000D02*
X142746000Y-127114000D01*
X145291000Y-129160000D02*
X145244000Y-129206000D01*
X145484000Y-129376000D02*
X145449000Y-129411000D01*
X147588000Y-126862000D02*
X147553000Y-126898000D01*
X147793000Y-127068000D02*
X147746000Y-127114000D01*
X150291000Y-129160000D02*
X150244000Y-129206000D01*
X150484000Y-129376000D02*
X150449000Y-129411000D01*
X152588000Y-126862000D02*
X152553000Y-126898000D01*
X152793000Y-127068000D02*
X152746000Y-127114000D01*
X154079000Y-122876000D02*
X154079000Y-132797000D01*
X134983001Y-127453001D02*
G75*
G03*
X134982574Y-128820042I1534992J-684000D01*
G01*
X137201999Y-126602001D02*
G75*
G03*
X135834958Y-126601574I-684000J-1534992D01*
G01*
X135834000Y-129671999D02*
G75*
G03*
X136546805Y-129817252I683999J1535000D01*
G01*
X136518000Y-129816999D02*
G75*
G03*
X137201318Y-129671755I0J1679999D01*
G01*
X138053000Y-128821000D02*
G75*
G03*
X138053426Y-127453958I-1535000J684000D01*
G01*
X143198000Y-128137000D02*
G75*
G03*
X143198000Y-128137000I-1680000J0D01*
G01*
X148198000Y-128137000D02*
G75*
G03*
X148198000Y-128137000I-1680000J0D01*
G01*
X153198000Y-128137000D02*
G75*
G03*
X153198000Y-128137000I-1680000J0D01*
G01*
%TO.C,R1*%
X151468000Y-90424000D02*
X150328000Y-90424000D01*
X150328000Y-95044000D02*
X150328000Y-85804000D01*
X150328000Y-85804000D02*
X130088000Y-85804000D01*
X130088000Y-95044000D02*
X150328000Y-95044000D01*
X130088000Y-85804000D02*
X130088000Y-95044000D01*
X128948000Y-90424000D02*
X130088000Y-90424000D01*
%TO.C,D1*%
X159174000Y-101320000D02*
X160474000Y-101320000D01*
X160474000Y-98535000D02*
X160474000Y-104105000D01*
X160474000Y-104105000D02*
X170234000Y-104105000D01*
X161902000Y-98535000D02*
X161902000Y-104105000D01*
X162022000Y-98535000D02*
X162022000Y-104105000D01*
X162142000Y-98535000D02*
X162142000Y-104105000D01*
X170234000Y-98535000D02*
X160474000Y-98535000D01*
X170234000Y-104105000D02*
X170234000Y-98535000D01*
X171534000Y-101320000D02*
X170234000Y-101320000D01*
%TO.C,D8*%
X117965000Y-98558334D02*
X119265000Y-98558334D01*
X119265000Y-95773334D02*
X119265000Y-101343334D01*
X119265000Y-101343334D02*
X129025000Y-101343334D01*
X120693000Y-95773334D02*
X120693000Y-101343334D01*
X120813000Y-95773334D02*
X120813000Y-101343334D01*
X120933000Y-95773334D02*
X120933000Y-101343334D01*
X129025000Y-95773334D02*
X119265000Y-95773334D01*
X129025000Y-101343334D02*
X129025000Y-95773334D01*
X130325000Y-98558334D02*
X129025000Y-98558334D01*
%TO.C,D5*%
X117965000Y-122883334D02*
X119265000Y-122883334D01*
X119265000Y-120098334D02*
X119265000Y-125668334D01*
X119265000Y-125668334D02*
X129025000Y-125668334D01*
X120693000Y-120098334D02*
X120693000Y-125668334D01*
X120813000Y-120098334D02*
X120813000Y-125668334D01*
X120933000Y-120098334D02*
X120933000Y-125668334D01*
X129025000Y-120098334D02*
X119265000Y-120098334D01*
X129025000Y-125668334D02*
X129025000Y-120098334D01*
X130325000Y-122883334D02*
X129025000Y-122883334D01*
%TO.C,D2*%
X159174000Y-108210000D02*
X160474000Y-108210000D01*
X160474000Y-105425000D02*
X160474000Y-110995000D01*
X160474000Y-110995000D02*
X170234000Y-110995000D01*
X161902000Y-105425000D02*
X161902000Y-110995000D01*
X162022000Y-105425000D02*
X162022000Y-110995000D01*
X162142000Y-105425000D02*
X162142000Y-110995000D01*
X170234000Y-105425000D02*
X160474000Y-105425000D01*
X170234000Y-110995000D02*
X170234000Y-105425000D01*
X171534000Y-108210000D02*
X170234000Y-108210000D01*
%TO.C,D7*%
X117965000Y-106666667D02*
X119265000Y-106666667D01*
X119265000Y-103881667D02*
X119265000Y-109451667D01*
X119265000Y-109451667D02*
X129025000Y-109451667D01*
X120693000Y-103881667D02*
X120693000Y-109451667D01*
X120813000Y-103881667D02*
X120813000Y-109451667D01*
X120933000Y-103881667D02*
X120933000Y-109451667D01*
X129025000Y-103881667D02*
X119265000Y-103881667D01*
X129025000Y-109451667D02*
X129025000Y-103881667D01*
X130325000Y-106666667D02*
X129025000Y-106666667D01*
%TO.C,U1*%
X167350000Y-94840000D02*
X167350000Y-69320000D01*
X167350000Y-69320000D02*
X162850000Y-69320000D01*
X166100000Y-94840000D02*
X167350000Y-94840000D01*
X162850000Y-94840000D02*
X164100000Y-94840000D01*
X162850000Y-69320000D02*
X162850000Y-94840000D01*
X166100000Y-94840000D02*
G75*
G03*
X164100000Y-94840000I-1000000J0D01*
G01*
%TO.C,D6*%
X117965000Y-114775000D02*
X119265000Y-114775000D01*
X119265000Y-111990000D02*
X119265000Y-117560000D01*
X119265000Y-117560000D02*
X129025000Y-117560000D01*
X120693000Y-111990000D02*
X120693000Y-117560000D01*
X120813000Y-111990000D02*
X120813000Y-117560000D01*
X120933000Y-111990000D02*
X120933000Y-117560000D01*
X129025000Y-111990000D02*
X119265000Y-111990000D01*
X129025000Y-117560000D02*
X129025000Y-111990000D01*
X130325000Y-114775000D02*
X129025000Y-114775000D01*
%TO.C,J2*%
X132785000Y-53385000D02*
X132785000Y-52645000D01*
X132785000Y-52645000D02*
X132285000Y-52645000D01*
X132545000Y-62806000D02*
X132545000Y-52885000D01*
X132545000Y-62806000D02*
X122265000Y-62806000D01*
X132545000Y-59846000D02*
X122265000Y-59846000D01*
X132545000Y-54945000D02*
X122265000Y-54945000D01*
X132545000Y-53445000D02*
X122265000Y-53445000D01*
X132545000Y-52885000D02*
X122265000Y-52885000D01*
X126092000Y-56522000D02*
X126139000Y-56476000D01*
X125899000Y-56306000D02*
X125934000Y-56271000D01*
X123795000Y-58820000D02*
X123830000Y-58784000D01*
X123590000Y-58614000D02*
X123637000Y-58568000D01*
X122265000Y-62806000D02*
X122265000Y-52885000D01*
X131479999Y-58228999D02*
G75*
G03*
X131480426Y-56861958I-1534992J684000D01*
G01*
X129261001Y-59079999D02*
G75*
G03*
X130628042Y-59080426I684000J1534992D01*
G01*
X130629000Y-56010001D02*
G75*
G03*
X129916195Y-55864748I-683999J-1535000D01*
G01*
X129945000Y-55865001D02*
G75*
G03*
X129261682Y-56010245I0J-1679999D01*
G01*
X128410000Y-56861000D02*
G75*
G03*
X128409574Y-58228042I1535000J-684000D01*
G01*
X126545000Y-57545000D02*
G75*
G03*
X126545000Y-57545000I-1680000J0D01*
G01*
%TO.C,J3*%
X185610000Y-123500000D02*
X186350000Y-123500000D01*
X186350000Y-123500000D02*
X186350000Y-123000000D01*
X176189000Y-123260000D02*
X186110000Y-123260000D01*
X176189000Y-123260000D02*
X176189000Y-63140000D01*
X179149000Y-123260000D02*
X179149000Y-63140000D01*
X184050000Y-123260000D02*
X184050000Y-63140000D01*
X185550000Y-123260000D02*
X185550000Y-63140000D01*
X186110000Y-123260000D02*
X186110000Y-63140000D01*
X182473000Y-116927000D02*
X182519000Y-116974000D01*
X182689000Y-116734000D02*
X182724000Y-116769000D01*
X180175000Y-114630000D02*
X180211000Y-114665000D01*
X180381000Y-114425000D02*
X180427000Y-114472000D01*
X182473000Y-111927000D02*
X182519000Y-111974000D01*
X182689000Y-111734000D02*
X182724000Y-111769000D01*
X180175000Y-109630000D02*
X180211000Y-109665000D01*
X180381000Y-109425000D02*
X180427000Y-109472000D01*
X182473000Y-106927000D02*
X182519000Y-106974000D01*
X182689000Y-106734000D02*
X182724000Y-106769000D01*
X180175000Y-104630000D02*
X180211000Y-104665000D01*
X180381000Y-104425000D02*
X180427000Y-104472000D01*
X182473000Y-101927000D02*
X182519000Y-101974000D01*
X182689000Y-101734000D02*
X182724000Y-101769000D01*
X180175000Y-99630000D02*
X180211000Y-99665000D01*
X180381000Y-99425000D02*
X180427000Y-99472000D01*
X182473000Y-96927000D02*
X182519000Y-96974000D01*
X182689000Y-96734000D02*
X182724000Y-96769000D01*
X180175000Y-94630000D02*
X180211000Y-94665000D01*
X180381000Y-94425000D02*
X180427000Y-94472000D01*
X182473000Y-91927000D02*
X182519000Y-91974000D01*
X182689000Y-91734000D02*
X182724000Y-91769000D01*
X180175000Y-89630000D02*
X180211000Y-89665000D01*
X180381000Y-89425000D02*
X180427000Y-89472000D01*
X182473000Y-86927000D02*
X182519000Y-86974000D01*
X182689000Y-86734000D02*
X182724000Y-86769000D01*
X180175000Y-84630000D02*
X180211000Y-84665000D01*
X180381000Y-84425000D02*
X180427000Y-84472000D01*
X182473000Y-81927000D02*
X182519000Y-81974000D01*
X182689000Y-81734000D02*
X182724000Y-81769000D01*
X180175000Y-79630000D02*
X180211000Y-79665000D01*
X180381000Y-79425000D02*
X180427000Y-79472000D01*
X182473000Y-76927000D02*
X182519000Y-76974000D01*
X182689000Y-76734000D02*
X182724000Y-76769000D01*
X180175000Y-74630000D02*
X180211000Y-74665000D01*
X180381000Y-74425000D02*
X180427000Y-74472000D01*
X182473000Y-71927000D02*
X182519000Y-71974000D01*
X182689000Y-71734000D02*
X182724000Y-71769000D01*
X180175000Y-69630000D02*
X180211000Y-69665000D01*
X180381000Y-69425000D02*
X180427000Y-69472000D01*
X182473000Y-66927000D02*
X182519000Y-66974000D01*
X182689000Y-66734000D02*
X182724000Y-66769000D01*
X180175000Y-64630000D02*
X180211000Y-64665000D01*
X180381000Y-64425000D02*
X180427000Y-64472000D01*
X176189000Y-63140000D02*
X186110000Y-63140000D01*
X180766001Y-122234999D02*
G75*
G03*
X182133042Y-122235426I684000J1534992D01*
G01*
X179915001Y-120016001D02*
G75*
G03*
X179914574Y-121383042I1534992J-684000D01*
G01*
X182984999Y-121384000D02*
G75*
G03*
X183130252Y-120671195I-1535000J683999D01*
G01*
X183129999Y-120700000D02*
G75*
G03*
X182984755Y-120016682I-1679999J0D01*
G01*
X182134000Y-119165000D02*
G75*
G03*
X180766958Y-119164574I-684000J-1535000D01*
G01*
X183130000Y-115700000D02*
G75*
G03*
X183130000Y-115700000I-1680000J0D01*
G01*
X183130000Y-110700000D02*
G75*
G03*
X183130000Y-110700000I-1680000J0D01*
G01*
X183130000Y-105700000D02*
G75*
G03*
X183130000Y-105700000I-1680000J0D01*
G01*
X183130000Y-100700000D02*
G75*
G03*
X183130000Y-100700000I-1680000J0D01*
G01*
X183130000Y-95700000D02*
G75*
G03*
X183130000Y-95700000I-1680000J0D01*
G01*
X183130000Y-90700000D02*
G75*
G03*
X183130000Y-90700000I-1680000J0D01*
G01*
X183130000Y-85700000D02*
G75*
G03*
X183130000Y-85700000I-1680000J0D01*
G01*
X183130000Y-80700000D02*
G75*
G03*
X183130000Y-80700000I-1680000J0D01*
G01*
X183130000Y-75700000D02*
G75*
G03*
X183130000Y-75700000I-1680000J0D01*
G01*
X183130000Y-70700000D02*
G75*
G03*
X183130000Y-70700000I-1680000J0D01*
G01*
X183130000Y-65700000D02*
G75*
G03*
X183130000Y-65700000I-1680000J0D01*
G01*
%TO.C,C2*%
X156745000Y-68130000D02*
X150005000Y-68130000D01*
X156745000Y-68130000D02*
X156745000Y-75870000D01*
X150005000Y-68130000D02*
X150005000Y-75870000D01*
X156745000Y-75870000D02*
X150005000Y-75870000D01*
%TO.C,Rs1*%
X149325000Y-101150000D02*
X149325000Y-101260000D01*
X151695000Y-101260000D02*
X146955000Y-101260000D01*
X146955000Y-101260000D02*
X146955000Y-113400000D01*
X151695000Y-113400000D02*
X151695000Y-101260000D01*
X146955000Y-113400000D02*
X151695000Y-113400000D01*
X149325000Y-113510000D02*
X149325000Y-113400000D01*
%TD*%
M02*
