%TF.GenerationSoftware,KiCad,Pcbnew,7.0.2*%
%TF.CreationDate,2023-06-26T18:32:19+02:00*%
%TF.ProjectId,Two_phese_bipolar_stepper_motor,54776f5f-7068-4657-9365-5f6269706f6c,REV1*%
%TF.SameCoordinates,Original*%
%TF.FileFunction,Copper,L1,Top*%
%TF.FilePolarity,Positive*%
%FSLAX46Y46*%
G04 Gerber Fmt 4.6, Leading zero omitted, Abs format (unit mm)*
G04 Created by KiCad (PCBNEW 7.0.2) date 2023-06-26 18:32:19*
%MOMM*%
%LPD*%
G01*
G04 APERTURE LIST*
%TA.AperFunction,ComponentPad*%
%ADD10R,1.800000X1.800000*%
%TD*%
%TA.AperFunction,ComponentPad*%
%ADD11O,1.800000X1.800000*%
%TD*%
%TA.AperFunction,ComponentPad*%
%ADD12R,2.400000X2.400000*%
%TD*%
%TA.AperFunction,ComponentPad*%
%ADD13C,2.400000*%
%TD*%
%TA.AperFunction,ComponentPad*%
%ADD14O,2.400000X2.400000*%
%TD*%
%TA.AperFunction,ComponentPad*%
%ADD15C,1.600000*%
%TD*%
%TA.AperFunction,ComponentPad*%
%ADD16C,2.000000*%
%TD*%
%TA.AperFunction,ComponentPad*%
%ADD17R,2.600000X2.600000*%
%TD*%
%TA.AperFunction,ComponentPad*%
%ADD18C,2.600000*%
%TD*%
%TA.AperFunction,ComponentPad*%
%ADD19R,2.400000X1.600000*%
%TD*%
%TA.AperFunction,ComponentPad*%
%ADD20O,2.400000X1.600000*%
%TD*%
%TA.AperFunction,ViaPad*%
%ADD21C,0.800000*%
%TD*%
%TA.AperFunction,Conductor*%
%ADD22C,0.400000*%
%TD*%
G04 APERTURE END LIST*
D10*
%TO.P,U2,1,SENSE_A*%
%TO.N,/Rs1*%
X154210000Y-62360000D03*
D11*
%TO.P,U2,2,OUT1*%
%TO.N,Net-(D1-A)*%
X155480000Y-57280000D03*
%TO.P,U2,3,OUT2*%
%TO.N,Net-(D2-A)*%
X156750000Y-62360000D03*
%TO.P,U2,4,Vs*%
%TO.N,VS*%
X158020000Y-57280000D03*
%TO.P,U2,5,IN1*%
%TO.N,Net-(U1-A)*%
X159290000Y-62360000D03*
%TO.P,U2,6,EnA*%
%TO.N,Net-(U1-INH1)*%
X160560000Y-57280000D03*
%TO.P,U2,7,IN2*%
%TO.N,Net-(U1-B)*%
X161830000Y-62360000D03*
%TO.P,U2,8,GND*%
%TO.N,GND*%
X163100000Y-57280000D03*
%TO.P,U2,9,Vss*%
%TO.N,VS*%
X164370000Y-62360000D03*
%TO.P,U2,10,IN3*%
%TO.N,Net-(U1-C)*%
X165640000Y-57280000D03*
%TO.P,U2,11,EnB*%
%TO.N,Net-(U1-INH2)*%
X166910000Y-62360000D03*
%TO.P,U2,12,IN4*%
%TO.N,Net-(U1-D)*%
X168180000Y-57280000D03*
%TO.P,U2,13,OUT3*%
%TO.N,Net-(D3-A)*%
X169450000Y-62360000D03*
%TO.P,U2,14,OUT4*%
%TO.N,Net-(D4-A)*%
X170720000Y-57280000D03*
%TO.P,U2,15,SENSE_B*%
%TO.N,/Rs2*%
X171990000Y-62360000D03*
%TD*%
D12*
%TO.P,C4,1*%
%TO.N,VS*%
X136652000Y-74460000D03*
D13*
%TO.P,C4,2*%
%TO.N,GND*%
X141652000Y-74460000D03*
%TD*%
D12*
%TO.P,D3,1,K*%
%TO.N,VS*%
X157734000Y-115100000D03*
D14*
%TO.P,D3,2,A*%
%TO.N,Net-(D3-A)*%
X172974000Y-115100000D03*
%TD*%
D12*
%TO.P,D4,1,K*%
%TO.N,VS*%
X157734000Y-121990000D03*
D14*
%TO.P,D4,2,A*%
%TO.N,Net-(D4-A)*%
X172974000Y-121990000D03*
%TD*%
D13*
%TO.P,Rs2,1*%
%TO.N,/Rs2*%
X139165000Y-99710000D03*
D14*
%TO.P,Rs2,2*%
%TO.N,GND*%
X139165000Y-114950000D03*
%TD*%
D15*
%TO.P,C3,1*%
%TO.N,VS*%
X124246000Y-74460000D03*
%TO.P,C3,2*%
%TO.N,GND*%
X129246000Y-74460000D03*
%TD*%
D16*
%TO.P,C1,1*%
%TO.N,/OSC*%
X117775000Y-71500000D03*
%TO.P,C1,2*%
%TO.N,GND*%
X117775000Y-79000000D03*
%TD*%
D17*
%TO.P,J1,1,Pin_1*%
%TO.N,VS*%
X143205000Y-57515000D03*
D18*
%TO.P,J1,2,Pin_2*%
%TO.N,GND*%
X138125000Y-57515000D03*
%TD*%
D17*
%TO.P,J4,1,Pin_1*%
%TO.N,Net-(D1-A)*%
X136518000Y-128137000D03*
D18*
%TO.P,J4,2,Pin_2*%
%TO.N,Net-(D2-A)*%
X141518000Y-128137000D03*
%TO.P,J4,3,Pin_3*%
%TO.N,Net-(D3-A)*%
X146518000Y-128137000D03*
%TO.P,J4,4,Pin_4*%
%TO.N,Net-(D4-A)*%
X151518000Y-128137000D03*
%TD*%
D13*
%TO.P,R1,1*%
%TO.N,/OSC*%
X152908000Y-90424000D03*
D14*
%TO.P,R1,2*%
%TO.N,VS*%
X127508000Y-90424000D03*
%TD*%
D12*
%TO.P,D1,1,K*%
%TO.N,VS*%
X157734000Y-101320000D03*
D14*
%TO.P,D1,2,A*%
%TO.N,Net-(D1-A)*%
X172974000Y-101320000D03*
%TD*%
D12*
%TO.P,D8,1,K*%
%TO.N,Net-(D4-A)*%
X116525000Y-98558334D03*
D14*
%TO.P,D8,2,A*%
%TO.N,GND*%
X131765000Y-98558334D03*
%TD*%
D12*
%TO.P,D5,1,K*%
%TO.N,Net-(D1-A)*%
X116525000Y-122883334D03*
D14*
%TO.P,D5,2,A*%
%TO.N,GND*%
X131765000Y-122883334D03*
%TD*%
D12*
%TO.P,D2,1,K*%
%TO.N,VS*%
X157734000Y-108210000D03*
D14*
%TO.P,D2,2,A*%
%TO.N,Net-(D2-A)*%
X172974000Y-108210000D03*
%TD*%
D12*
%TO.P,D7,1,K*%
%TO.N,Net-(D3-A)*%
X116525000Y-106666667D03*
D14*
%TO.P,D7,2,A*%
%TO.N,GND*%
X131765000Y-106666667D03*
%TD*%
D19*
%TO.P,U1,1,SYNC*%
%TO.N,/SYNC*%
X168910000Y-93510000D03*
D20*
%TO.P,U1,2,GND*%
%TO.N,GND*%
X168910000Y-90970000D03*
%TO.P,U1,3,HOME*%
%TO.N,/HOME*%
X168910000Y-88430000D03*
%TO.P,U1,4,A*%
%TO.N,Net-(U1-A)*%
X168910000Y-85890000D03*
%TO.P,U1,5,INH1*%
%TO.N,Net-(U1-INH1)*%
X168910000Y-83350000D03*
%TO.P,U1,6,B*%
%TO.N,Net-(U1-B)*%
X168910000Y-80810000D03*
%TO.P,U1,7,C*%
%TO.N,Net-(U1-C)*%
X168910000Y-78270000D03*
%TO.P,U1,8,INH2*%
%TO.N,Net-(U1-INH2)*%
X168910000Y-75730000D03*
%TO.P,U1,9,D*%
%TO.N,Net-(U1-D)*%
X168910000Y-73190000D03*
%TO.P,U1,10,ENABLE*%
%TO.N,/ENA*%
X168910000Y-70650000D03*
%TO.P,U1,11,CONTROL*%
%TO.N,/CTRL*%
X161290000Y-70650000D03*
%TO.P,U1,12,Vs*%
%TO.N,VS*%
X161290000Y-73190000D03*
%TO.P,U1,13,SENS2*%
%TO.N,/Rs2*%
X161290000Y-75730000D03*
%TO.P,U1,14,SENS1*%
%TO.N,/Rs1*%
X161290000Y-78270000D03*
%TO.P,U1,15,Vref*%
%TO.N,/Vref*%
X161290000Y-80810000D03*
%TO.P,U1,16,OSC*%
%TO.N,/OSC*%
X161290000Y-83350000D03*
%TO.P,U1,17,CW*%
%TO.N,/CW*%
X161290000Y-85890000D03*
%TO.P,U1,18,CLOCK*%
%TO.N,/CLK*%
X161290000Y-88430000D03*
%TO.P,U1,19,HALF*%
%TO.N,/HALF*%
X161290000Y-90970000D03*
%TO.P,U1,20,RESET*%
%TO.N,/RESET*%
X161290000Y-93510000D03*
%TD*%
D12*
%TO.P,D6,1,K*%
%TO.N,Net-(D2-A)*%
X116525000Y-114775000D03*
D14*
%TO.P,D6,2,A*%
%TO.N,GND*%
X131765000Y-114775000D03*
%TD*%
D17*
%TO.P,J2,1,Pin_1*%
%TO.N,VS*%
X129945000Y-57545000D03*
D18*
%TO.P,J2,2,Pin_2*%
%TO.N,GND*%
X124865000Y-57545000D03*
%TD*%
D17*
%TO.P,J3,1,Pin_1*%
%TO.N,GND*%
X181450000Y-120700000D03*
D18*
%TO.P,J3,2,Pin_2*%
%TO.N,/HALF*%
X181450000Y-115700000D03*
%TO.P,J3,3,Pin_3*%
%TO.N,/HOME*%
X181450000Y-110700000D03*
%TO.P,J3,4,Pin_4*%
%TO.N,/Vref*%
X181450000Y-105700000D03*
%TO.P,J3,5,Pin_5*%
%TO.N,/CLK*%
X181450000Y-100700000D03*
%TO.P,J3,6,Pin_6*%
%TO.N,/CW*%
X181450000Y-95700000D03*
%TO.P,J3,7,Pin_7*%
%TO.N,/ENA*%
X181450000Y-90700000D03*
%TO.P,J3,8,Pin_8*%
%TO.N,/RESET*%
X181450000Y-85700000D03*
%TO.P,J3,9,Pin_9*%
%TO.N,/CTRL*%
X181450000Y-80700000D03*
%TO.P,J3,10,Pin_10*%
%TO.N,/OSC*%
X181450000Y-75700000D03*
%TO.P,J3,11,Pin_11*%
%TO.N,/SYNC*%
X181450000Y-70700000D03*
%TO.P,J3,12,Pin_12*%
%TO.N,unconnected-(J3-Pin_12-Pad12)*%
X181450000Y-65700000D03*
%TD*%
D15*
%TO.P,C2,1*%
%TO.N,VS*%
X153375000Y-69500000D03*
%TO.P,C2,2*%
%TO.N,GND*%
X153375000Y-74500000D03*
%TD*%
D13*
%TO.P,Rs1,1*%
%TO.N,/Rs1*%
X149325000Y-99710000D03*
D14*
%TO.P,Rs1,2*%
%TO.N,GND*%
X149325000Y-114950000D03*
%TD*%
D21*
%TO.N,/OSC*%
X140875000Y-93525000D03*
X166700000Y-97525000D03*
X177450000Y-97325000D03*
X170175000Y-97550000D03*
%TO.N,VS*%
X153525000Y-96600000D03*
%TO.N,Net-(D1-A)*%
X168075000Y-123850000D03*
%TO.N,Net-(D2-A)*%
X151000000Y-71550000D03*
X169050000Y-120550000D03*
X145175000Y-83100000D03*
%TO.N,Net-(D3-A)*%
X170350000Y-115125000D03*
%TO.N,/CLK*%
X164225000Y-93500000D03*
%TO.N,/CW*%
X164225000Y-89825000D03*
%TO.N,/ENA*%
X166790602Y-70525000D03*
%TO.N,/CTRL*%
X161175000Y-65900000D03*
%TO.N,/Rs1*%
X147950000Y-62550000D03*
%TO.N,Net-(U1-A)*%
X175889500Y-59750000D03*
%TO.N,Net-(U1-B)*%
X164850000Y-73950000D03*
%TO.N,Net-(U1-INH2)*%
X165841102Y-67166102D03*
%TD*%
D22*
%TO.N,/OSC*%
X159982000Y-83350000D02*
X161290000Y-83350000D01*
X120525000Y-93650000D02*
X140750000Y-93650000D01*
X152908000Y-90424000D02*
X159982000Y-83350000D01*
X170175000Y-97550000D02*
X166725000Y-97550000D01*
X117775000Y-71500000D02*
X120525000Y-74250000D01*
X181450000Y-75700000D02*
X177450000Y-79700000D01*
X120525000Y-74250000D02*
X120525000Y-93650000D01*
X166725000Y-97550000D02*
X166700000Y-97525000D01*
X177450000Y-79700000D02*
X177450000Y-97325000D01*
X140750000Y-93650000D02*
X140875000Y-93525000D01*
%TO.N,VS*%
X129945000Y-57545000D02*
X129945000Y-59595000D01*
X127508000Y-90424000D02*
X127508000Y-77722000D01*
X125596000Y-73110000D02*
X135302000Y-73110000D01*
X161290000Y-73190000D02*
X157065000Y-73190000D01*
X157734000Y-121990000D02*
X157734000Y-115100000D01*
X157734000Y-115100000D02*
X157734000Y-108210000D01*
X141612000Y-69500000D02*
X136652000Y-74460000D01*
X164370000Y-70110000D02*
X161290000Y-73190000D01*
X143205000Y-57515000D02*
X144890000Y-55830000D01*
X157065000Y-73190000D02*
X153375000Y-69500000D01*
X160740000Y-58730000D02*
X164370000Y-62360000D01*
X159470000Y-58730000D02*
X160740000Y-58730000D01*
X144890000Y-55830000D02*
X156570000Y-55830000D01*
X153375000Y-69500000D02*
X141612000Y-69500000D01*
X157734000Y-101320000D02*
X157734000Y-108210000D01*
X156570000Y-55830000D02*
X158020000Y-57280000D01*
X158020000Y-57280000D02*
X159470000Y-58730000D01*
X164370000Y-62360000D02*
X164370000Y-70110000D01*
X157734000Y-100809000D02*
X153525000Y-96600000D01*
X135302000Y-73110000D02*
X136652000Y-74460000D01*
X157734000Y-101320000D02*
X157734000Y-100809000D01*
X124246000Y-74460000D02*
X125596000Y-73110000D01*
X131400000Y-61050000D02*
X139670000Y-61050000D01*
X129945000Y-59595000D02*
X131400000Y-61050000D01*
X127508000Y-77722000D02*
X124246000Y-74460000D01*
X139670000Y-61050000D02*
X143205000Y-57515000D01*
%TO.N,Net-(D1-A)*%
X116525000Y-122883334D02*
X121778666Y-128137000D01*
X168075000Y-106219000D02*
X168075000Y-123850000D01*
X172974000Y-101320000D02*
X168075000Y-106219000D01*
X121778666Y-128137000D02*
X136518000Y-128137000D01*
%TO.N,Net-(D2-A)*%
X138756000Y-125375000D02*
X141518000Y-128137000D01*
X121850000Y-121125000D02*
X121850000Y-125375000D01*
X121850000Y-125375000D02*
X138756000Y-125375000D01*
X145175000Y-77375000D02*
X151000000Y-71550000D01*
X169050000Y-112134000D02*
X169050000Y-120550000D01*
X117000000Y-119250000D02*
X119975000Y-119250000D01*
X119975000Y-119250000D02*
X121850000Y-121125000D01*
X172974000Y-108210000D02*
X169050000Y-112134000D01*
X116525000Y-114775000D02*
X116525000Y-118775000D01*
X145175000Y-83100000D02*
X145175000Y-77375000D01*
X116525000Y-118775000D02*
X117000000Y-119250000D01*
%TO.N,Net-(D3-A)*%
X117075000Y-111425000D02*
X120650000Y-111425000D01*
X122250000Y-118800000D02*
X137181000Y-118800000D01*
X116525000Y-110875000D02*
X117075000Y-111425000D01*
X172974000Y-115100000D02*
X170375000Y-115100000D01*
X116525000Y-106666667D02*
X116525000Y-110875000D01*
X170375000Y-115100000D02*
X170350000Y-115125000D01*
X120650000Y-111425000D02*
X122250000Y-113025000D01*
X122250000Y-113025000D02*
X122250000Y-118800000D01*
X137181000Y-118800000D02*
X146518000Y-128137000D01*
%TO.N,Net-(D4-A)*%
X121125000Y-103050000D02*
X117325000Y-103050000D01*
X166827000Y-128137000D02*
X151518000Y-128137000D01*
X127425000Y-117725000D02*
X126625000Y-116925000D01*
X172974000Y-121990000D02*
X166827000Y-128137000D01*
X141106000Y-117725000D02*
X127425000Y-117725000D01*
X117325000Y-103050000D02*
X116525000Y-102250000D01*
X116525000Y-102250000D02*
X116525000Y-98558334D01*
X151518000Y-128137000D02*
X141106000Y-117725000D01*
X126625000Y-116925000D02*
X126625000Y-108550000D01*
X126625000Y-108550000D02*
X121125000Y-103050000D01*
%TO.N,/HALF*%
X169025000Y-123456497D02*
X169025000Y-124243503D01*
X159540000Y-123796000D02*
X159540000Y-92720000D01*
X176781497Y-115700000D02*
X169025000Y-123456497D01*
X169025000Y-124243503D02*
X168468503Y-124800000D01*
X160544000Y-124800000D02*
X159540000Y-123796000D01*
X181450000Y-115700000D02*
X176781497Y-115700000D01*
X159540000Y-92720000D02*
X161290000Y-90970000D01*
X168468503Y-124800000D02*
X160544000Y-124800000D01*
%TO.N,/HOME*%
X183350000Y-104925000D02*
X183350000Y-108800000D01*
X167160000Y-90180000D02*
X167160000Y-95510000D01*
X183350000Y-108800000D02*
X181450000Y-110700000D01*
X182029352Y-103904352D02*
X182329352Y-103904352D01*
X173635000Y-95510000D02*
X182029352Y-103904352D01*
X167160000Y-95510000D02*
X173635000Y-95510000D01*
X182329352Y-103904352D02*
X183350000Y-104925000D01*
X168910000Y-88430000D02*
X167160000Y-90180000D01*
%TO.N,/Vref*%
X161290000Y-80810000D02*
X165475000Y-84995000D01*
X165475000Y-96500000D02*
X172250000Y-96500000D01*
X165475000Y-84995000D02*
X165475000Y-96500000D01*
X172250000Y-96500000D02*
X181450000Y-105700000D01*
%TO.N,/CLK*%
X164225000Y-91365000D02*
X164225000Y-93500000D01*
X161290000Y-88430000D02*
X164225000Y-91365000D01*
%TO.N,/CW*%
X164225000Y-88825000D02*
X164225000Y-89825000D01*
X161290000Y-85890000D02*
X164225000Y-88825000D01*
%TO.N,/ENA*%
X168910000Y-70650000D02*
X166915602Y-70650000D01*
X166915602Y-70650000D02*
X166790602Y-70525000D01*
%TO.N,/RESET*%
X182216296Y-112550000D02*
X184150000Y-110616296D01*
X179600000Y-105050000D02*
X179600000Y-111550000D01*
X179600000Y-111550000D02*
X180600000Y-112550000D01*
X184150000Y-110616296D02*
X184150000Y-88400000D01*
X184150000Y-88400000D02*
X181450000Y-85700000D01*
X161290000Y-93510000D02*
X167350000Y-99570000D01*
X180600000Y-112550000D02*
X182216296Y-112550000D01*
X174120000Y-99570000D02*
X179600000Y-105050000D01*
X167350000Y-99570000D02*
X174120000Y-99570000D01*
%TO.N,/CTRL*%
X161290000Y-70650000D02*
X161290000Y-66015000D01*
X161290000Y-66015000D02*
X161175000Y-65900000D01*
%TO.N,/SYNC*%
X168910000Y-93510000D02*
X175925000Y-86495000D01*
X175925000Y-86495000D02*
X175925000Y-76225000D01*
X175925000Y-76225000D02*
X181450000Y-70700000D01*
%TO.N,/Rs1*%
X154210000Y-62360000D02*
X148140000Y-62360000D01*
X149325000Y-99710000D02*
X149325000Y-90235000D01*
X148140000Y-62360000D02*
X147950000Y-62550000D01*
X149325000Y-90235000D02*
X161290000Y-78270000D01*
%TO.N,/Rs2*%
X171990000Y-62360000D02*
X165650000Y-68700000D01*
X139165000Y-99710000D02*
X139165000Y-97855000D01*
X165650000Y-71370000D02*
X161290000Y-75730000D01*
X165650000Y-68700000D02*
X165650000Y-71370000D01*
X139165000Y-97855000D02*
X161290000Y-75730000D01*
%TO.N,Net-(U1-A)*%
X168910000Y-85890000D02*
X175000000Y-79800000D01*
X175889500Y-73521160D02*
X175889500Y-59750000D01*
X175000000Y-79800000D02*
X175000000Y-74410660D01*
X175000000Y-74410660D02*
X175889500Y-73521160D01*
%TO.N,Net-(U1-INH1)*%
X170660000Y-81600000D02*
X170660000Y-77690000D01*
X171501270Y-54950000D02*
X162890000Y-54950000D01*
X174940000Y-73410000D02*
X174940000Y-58388730D01*
X162890000Y-54950000D02*
X160560000Y-57280000D01*
X168910000Y-83350000D02*
X170660000Y-81600000D01*
X170660000Y-77690000D02*
X174940000Y-73410000D01*
X174940000Y-58388730D02*
X171501270Y-54950000D01*
%TO.N,Net-(U1-B)*%
X164850000Y-76750000D02*
X164850000Y-73950000D01*
X168910000Y-80810000D02*
X164850000Y-76750000D01*
%TO.N,Net-(U1-C)*%
X167220000Y-55700000D02*
X165640000Y-57280000D01*
X174190000Y-58699390D02*
X171190610Y-55700000D01*
X171190610Y-55700000D02*
X167220000Y-55700000D01*
X168910000Y-78270000D02*
X174190000Y-72990000D01*
X174190000Y-72990000D02*
X174190000Y-58699390D01*
%TO.N,Net-(U1-INH2)*%
X168840000Y-75800000D02*
X168910000Y-75730000D01*
X166910000Y-62360000D02*
X165841102Y-63428898D01*
X165841102Y-63428898D02*
X165841102Y-67166102D01*
%TO.N,Net-(U1-D)*%
X173440000Y-68660000D02*
X173440000Y-61720000D01*
X173440000Y-61720000D02*
X170425305Y-58705305D01*
X170425305Y-58705305D02*
X169605305Y-58705305D01*
X169605305Y-58705305D02*
X168180000Y-57280000D01*
X168910000Y-73190000D02*
X173440000Y-68660000D01*
%TD*%
%TA.AperFunction,Conductor*%
%TO.N,GND*%
G36*
X163350000Y-58657640D02*
G01*
X163444859Y-58641811D01*
X163664296Y-58566478D01*
X163868353Y-58456048D01*
X164051443Y-58313543D01*
X164208583Y-58142843D01*
X164265892Y-58055126D01*
X164319038Y-58009769D01*
X164388269Y-58000345D01*
X164451605Y-58029847D01*
X164473507Y-58055122D01*
X164531021Y-58143153D01*
X164688216Y-58313913D01*
X164871374Y-58456470D01*
X165075497Y-58566936D01*
X165169333Y-58599150D01*
X165295015Y-58642297D01*
X165295017Y-58642297D01*
X165295019Y-58642298D01*
X165523951Y-58680500D01*
X165523952Y-58680500D01*
X165756048Y-58680500D01*
X165756049Y-58680500D01*
X165984981Y-58642298D01*
X166204503Y-58566936D01*
X166408626Y-58456470D01*
X166591784Y-58313913D01*
X166748979Y-58143153D01*
X166806192Y-58055580D01*
X166859336Y-58010226D01*
X166928567Y-58000802D01*
X166991903Y-58030303D01*
X167013807Y-58055582D01*
X167070817Y-58142841D01*
X167071021Y-58143153D01*
X167228216Y-58313913D01*
X167411374Y-58456470D01*
X167615497Y-58566936D01*
X167709333Y-58599150D01*
X167835015Y-58642297D01*
X167835017Y-58642297D01*
X167835019Y-58642298D01*
X168063951Y-58680500D01*
X168063952Y-58680500D01*
X168296047Y-58680500D01*
X168296049Y-58680500D01*
X168484874Y-58648990D01*
X168554235Y-58657372D01*
X168592961Y-58683618D01*
X169092363Y-59183020D01*
X169097483Y-59188458D01*
X169137376Y-59233488D01*
X169174040Y-59258796D01*
X169186878Y-59267657D01*
X169192896Y-59272085D01*
X169240249Y-59309183D01*
X169249485Y-59313339D01*
X169269036Y-59324367D01*
X169277371Y-59330121D01*
X169277373Y-59330121D01*
X169277375Y-59330123D01*
X169333631Y-59351457D01*
X169340525Y-59354314D01*
X169395374Y-59379000D01*
X169405349Y-59380827D01*
X169426961Y-59386852D01*
X169436433Y-59390445D01*
X169496146Y-59397695D01*
X169503490Y-59398812D01*
X169562699Y-59409663D01*
X169619407Y-59406232D01*
X169622739Y-59406031D01*
X169630226Y-59405805D01*
X170083786Y-59405805D01*
X170150825Y-59425490D01*
X170171467Y-59442124D01*
X171565620Y-60836276D01*
X171599105Y-60897599D01*
X171594121Y-60967291D01*
X171552249Y-61023224D01*
X171518202Y-61041238D01*
X171425501Y-61073062D01*
X171221372Y-61183531D01*
X171038215Y-61326087D01*
X170881018Y-61496849D01*
X170823808Y-61584417D01*
X170770662Y-61629773D01*
X170701431Y-61639197D01*
X170638095Y-61609695D01*
X170616192Y-61584417D01*
X170558981Y-61496849D01*
X170401784Y-61326087D01*
X170262488Y-61217669D01*
X170218626Y-61183530D01*
X170014503Y-61073064D01*
X170014499Y-61073062D01*
X170014498Y-61073062D01*
X169794984Y-60997702D01*
X169604456Y-60965909D01*
X169566049Y-60959500D01*
X169333951Y-60959500D01*
X169295544Y-60965909D01*
X169105015Y-60997702D01*
X168885501Y-61073062D01*
X168681372Y-61183531D01*
X168498215Y-61326087D01*
X168341018Y-61496849D01*
X168283808Y-61584417D01*
X168230662Y-61629773D01*
X168161431Y-61639197D01*
X168098095Y-61609695D01*
X168076192Y-61584417D01*
X168018981Y-61496849D01*
X167861784Y-61326087D01*
X167722488Y-61217669D01*
X167678626Y-61183530D01*
X167474503Y-61073064D01*
X167474499Y-61073062D01*
X167474498Y-61073062D01*
X167254984Y-60997702D01*
X167064456Y-60965909D01*
X167026049Y-60959500D01*
X166793951Y-60959500D01*
X166755544Y-60965909D01*
X166565015Y-60997702D01*
X166345501Y-61073062D01*
X166141372Y-61183531D01*
X165958215Y-61326087D01*
X165801018Y-61496849D01*
X165743808Y-61584417D01*
X165690662Y-61629773D01*
X165621431Y-61639197D01*
X165558095Y-61609695D01*
X165536192Y-61584417D01*
X165478981Y-61496849D01*
X165321784Y-61326087D01*
X165182488Y-61217669D01*
X165138626Y-61183530D01*
X164934503Y-61073064D01*
X164934499Y-61073062D01*
X164934498Y-61073062D01*
X164714984Y-60997702D01*
X164524456Y-60965909D01*
X164486049Y-60959500D01*
X164253951Y-60959500D01*
X164065127Y-60991008D01*
X163995762Y-60982626D01*
X163957037Y-60956380D01*
X161500175Y-58499518D01*
X161466690Y-58438195D01*
X161471674Y-58368503D01*
X161505643Y-58322227D01*
X161504825Y-58321474D01*
X161511597Y-58314117D01*
X161511698Y-58313980D01*
X161511704Y-58313975D01*
X161511784Y-58313913D01*
X161668979Y-58143153D01*
X161726490Y-58055124D01*
X161779635Y-58009769D01*
X161848866Y-58000345D01*
X161912202Y-58029846D01*
X161934106Y-58055125D01*
X161991414Y-58142841D01*
X162148556Y-58313543D01*
X162331646Y-58456048D01*
X162535703Y-58566478D01*
X162755140Y-58641811D01*
X162849999Y-58657640D01*
X162850000Y-58657639D01*
X162850000Y-57715501D01*
X162957685Y-57764680D01*
X163064237Y-57780000D01*
X163135763Y-57780000D01*
X163242315Y-57764680D01*
X163350000Y-57715501D01*
X163350000Y-58657640D01*
G37*
%TD.AperFunction*%
%TA.AperFunction,Conductor*%
G36*
X183603201Y-52320669D02*
G01*
X183733376Y-52327490D01*
X183923612Y-52338171D01*
X183936028Y-52339499D01*
X184088529Y-52363651D01*
X184254672Y-52391878D01*
X184265989Y-52394350D01*
X184419802Y-52435563D01*
X184430344Y-52438599D01*
X184577979Y-52481131D01*
X184588001Y-52484492D01*
X184737338Y-52541816D01*
X184740292Y-52542994D01*
X184889616Y-52604845D01*
X184898414Y-52608900D01*
X185040520Y-52681306D01*
X185041690Y-52681902D01*
X185045376Y-52683859D01*
X185186016Y-52761587D01*
X185193570Y-52766119D01*
X185328861Y-52853977D01*
X185333069Y-52856835D01*
X185463708Y-52949528D01*
X185469988Y-52954292D01*
X185595536Y-53055958D01*
X185600128Y-53059864D01*
X185719419Y-53166469D01*
X185724473Y-53171248D01*
X185838750Y-53285525D01*
X185843529Y-53290579D01*
X185950134Y-53409870D01*
X185954040Y-53414462D01*
X186055706Y-53540010D01*
X186060470Y-53546290D01*
X186153163Y-53676929D01*
X186156029Y-53681149D01*
X186243879Y-53816428D01*
X186248411Y-53823982D01*
X186326139Y-53964622D01*
X186328096Y-53968308D01*
X186401085Y-54111557D01*
X186405161Y-54120400D01*
X186466992Y-54269677D01*
X186468195Y-54272692D01*
X186525494Y-54421964D01*
X186528884Y-54432075D01*
X186574436Y-54590197D01*
X186615650Y-54744015D01*
X186618119Y-54755321D01*
X186646350Y-54921484D01*
X186670502Y-55073989D01*
X186671831Y-55086411D01*
X186682156Y-55269879D01*
X186689330Y-55406799D01*
X186689500Y-55413286D01*
X186689500Y-55461567D01*
X186689543Y-55461947D01*
X186689543Y-130256712D01*
X186689373Y-130263201D01*
X186682781Y-130388999D01*
X186671807Y-130584010D01*
X186670477Y-130596437D01*
X186646994Y-130744722D01*
X186618044Y-130915123D01*
X186615572Y-130926441D01*
X186575083Y-131077557D01*
X186551598Y-131159080D01*
X186528740Y-131238424D01*
X186525359Y-131248508D01*
X186468841Y-131395744D01*
X186467638Y-131398759D01*
X186404951Y-131550102D01*
X186400876Y-131558943D01*
X186328714Y-131700574D01*
X186326756Y-131704261D01*
X186248127Y-131846532D01*
X186243595Y-131854087D01*
X186156640Y-131987988D01*
X186153774Y-131992207D01*
X186060099Y-132124233D01*
X186055335Y-132130514D01*
X185954628Y-132254878D01*
X185950722Y-132259469D01*
X185843052Y-132379954D01*
X185838274Y-132385009D01*
X185725046Y-132498238D01*
X185719992Y-132503016D01*
X185599490Y-132610705D01*
X185594899Y-132614611D01*
X185470551Y-132715308D01*
X185464269Y-132720073D01*
X185332252Y-132813744D01*
X185328034Y-132816608D01*
X185194125Y-132903572D01*
X185186569Y-132908106D01*
X185044299Y-132986735D01*
X185040613Y-132988692D01*
X184898973Y-133060862D01*
X184890131Y-133064938D01*
X184738827Y-133127611D01*
X184735812Y-133128814D01*
X184588553Y-133185342D01*
X184578443Y-133188732D01*
X184417632Y-133235062D01*
X184266469Y-133275566D01*
X184255163Y-133278035D01*
X184084750Y-133306990D01*
X183936493Y-133330472D01*
X183924070Y-133331802D01*
X183728969Y-133342784D01*
X183604064Y-133349330D01*
X183597575Y-133349500D01*
X183548495Y-133349500D01*
X183548095Y-133349543D01*
X116123288Y-133349543D01*
X116116799Y-133349373D01*
X115991000Y-133342781D01*
X115795989Y-133331807D01*
X115783560Y-133330477D01*
X115635276Y-133306994D01*
X115464875Y-133278044D01*
X115453557Y-133275572D01*
X115302442Y-133235083D01*
X115266591Y-133224755D01*
X115141560Y-133188736D01*
X115131495Y-133185360D01*
X115096244Y-133171829D01*
X114984254Y-133128841D01*
X114981239Y-133127638D01*
X114829896Y-133064951D01*
X114821055Y-133060876D01*
X114732856Y-133015938D01*
X114679406Y-132988704D01*
X114675737Y-132986756D01*
X114533466Y-132908127D01*
X114525920Y-132903600D01*
X114392005Y-132816636D01*
X114387791Y-132813774D01*
X114255765Y-132720099D01*
X114249484Y-132715335D01*
X114125120Y-132614628D01*
X114120529Y-132610722D01*
X114000044Y-132503052D01*
X113994989Y-132498274D01*
X113881760Y-132385046D01*
X113876982Y-132379992D01*
X113769293Y-132259490D01*
X113765387Y-132254899D01*
X113727078Y-132207592D01*
X113664680Y-132130538D01*
X113659951Y-132124303D01*
X113566223Y-131992207D01*
X113563390Y-131988034D01*
X113521413Y-131923398D01*
X113476416Y-131854109D01*
X113471907Y-131846594D01*
X113393263Y-131704299D01*
X113391306Y-131700613D01*
X113319136Y-131558973D01*
X113315060Y-131550131D01*
X113315048Y-131550102D01*
X113252360Y-131398759D01*
X113251203Y-131395861D01*
X113194649Y-131248534D01*
X113191272Y-131238462D01*
X113144943Y-131077653D01*
X113104428Y-130926451D01*
X113101963Y-130915163D01*
X113101956Y-130915123D01*
X113073007Y-130744738D01*
X113049522Y-130596464D01*
X113048198Y-130584091D01*
X113037221Y-130389077D01*
X113030670Y-130264064D01*
X113030500Y-130257576D01*
X113030500Y-130208494D01*
X113030457Y-130208095D01*
X113030457Y-129149335D01*
X115999500Y-129149335D01*
X116019964Y-129271974D01*
X116040429Y-129394615D01*
X116121170Y-129629805D01*
X116121172Y-129629810D01*
X116210323Y-129794546D01*
X116239529Y-129848514D01*
X116375036Y-130022612D01*
X116392262Y-130044744D01*
X116575215Y-130213164D01*
X116783393Y-130349173D01*
X117011119Y-130449063D01*
X117252179Y-130510108D01*
X117437933Y-130525500D01*
X117440503Y-130525500D01*
X117559497Y-130525500D01*
X117562067Y-130525500D01*
X117747821Y-130510108D01*
X117988881Y-130449063D01*
X118216607Y-130349173D01*
X118424785Y-130213164D01*
X118607738Y-130044744D01*
X118760474Y-129848509D01*
X118878828Y-129629810D01*
X118959571Y-129394614D01*
X119000500Y-129149335D01*
X119000500Y-128900665D01*
X118959571Y-128655386D01*
X118878828Y-128420190D01*
X118760474Y-128201491D01*
X118760471Y-128201487D01*
X118760470Y-128201485D01*
X118607740Y-128005259D01*
X118607738Y-128005256D01*
X118424785Y-127836836D01*
X118216607Y-127700827D01*
X118216604Y-127700825D01*
X118091523Y-127645960D01*
X117988881Y-127600937D01*
X117808866Y-127555351D01*
X117747822Y-127539892D01*
X117713854Y-127537077D01*
X117562067Y-127524500D01*
X117437933Y-127524500D01*
X117320111Y-127534262D01*
X117252177Y-127539892D01*
X117130086Y-127570810D01*
X117011119Y-127600937D01*
X117011116Y-127600938D01*
X117011117Y-127600938D01*
X116783395Y-127700825D01*
X116644607Y-127791499D01*
X116575215Y-127836836D01*
X116575213Y-127836837D01*
X116575214Y-127836837D01*
X116392259Y-128005259D01*
X116239529Y-128201485D01*
X116121170Y-128420194D01*
X116040429Y-128655384D01*
X116009396Y-128841358D01*
X115999500Y-128900665D01*
X115999500Y-129149335D01*
X113030457Y-129149335D01*
X113030457Y-124127912D01*
X114824500Y-124127912D01*
X114824501Y-124131206D01*
X114824853Y-124134486D01*
X114824854Y-124134493D01*
X114827710Y-124161057D01*
X114830909Y-124190817D01*
X114881204Y-124325665D01*
X114967454Y-124440880D01*
X115082669Y-124527130D01*
X115217517Y-124577425D01*
X115277127Y-124583834D01*
X117183480Y-124583833D01*
X117250519Y-124603518D01*
X117271161Y-124620152D01*
X121265724Y-128614715D01*
X121270844Y-128620153D01*
X121302056Y-128655384D01*
X121310738Y-128665184D01*
X121360239Y-128699352D01*
X121366257Y-128703780D01*
X121413610Y-128740878D01*
X121422846Y-128745034D01*
X121442397Y-128756062D01*
X121450732Y-128761816D01*
X121450734Y-128761816D01*
X121450736Y-128761818D01*
X121506992Y-128783152D01*
X121513886Y-128786009D01*
X121568735Y-128810695D01*
X121578710Y-128812522D01*
X121600322Y-128818547D01*
X121609794Y-128822140D01*
X121669507Y-128829390D01*
X121676851Y-128830507D01*
X121736060Y-128841358D01*
X121792768Y-128837927D01*
X121796100Y-128837726D01*
X121803587Y-128837500D01*
X134593501Y-128837500D01*
X134660540Y-128857185D01*
X134706295Y-128909989D01*
X134717501Y-128961500D01*
X134717501Y-129484872D01*
X134717853Y-129488152D01*
X134717854Y-129488159D01*
X134723909Y-129544484D01*
X134749056Y-129611906D01*
X134774204Y-129679331D01*
X134860454Y-129794546D01*
X134975669Y-129880796D01*
X135110517Y-129931091D01*
X135170127Y-129937500D01*
X137865872Y-129937499D01*
X137925483Y-129931091D01*
X138060331Y-129880796D01*
X138175546Y-129794546D01*
X138261796Y-129679331D01*
X138312091Y-129544483D01*
X138318500Y-129484873D01*
X138318499Y-126789128D01*
X138312091Y-126729517D01*
X138261796Y-126594669D01*
X138175546Y-126479454D01*
X138060331Y-126393204D01*
X137925483Y-126342909D01*
X137865873Y-126336500D01*
X137862550Y-126336500D01*
X135173439Y-126336500D01*
X135173420Y-126336500D01*
X135170128Y-126336501D01*
X135166848Y-126336853D01*
X135166840Y-126336854D01*
X135110515Y-126342909D01*
X134975669Y-126393204D01*
X134860454Y-126479454D01*
X134774204Y-126594668D01*
X134723910Y-126729515D01*
X134723909Y-126729517D01*
X134717500Y-126789127D01*
X134717500Y-126792449D01*
X134717500Y-127312500D01*
X134697815Y-127379539D01*
X134645011Y-127425294D01*
X134593500Y-127436500D01*
X122120185Y-127436500D01*
X122053146Y-127416815D01*
X122032504Y-127400181D01*
X118261818Y-123629495D01*
X118228333Y-123568172D01*
X118225499Y-123541814D01*
X118225499Y-121638773D01*
X118225499Y-121635462D01*
X118219091Y-121575851D01*
X118168796Y-121441003D01*
X118082546Y-121325788D01*
X117967331Y-121239538D01*
X117832483Y-121189243D01*
X117772873Y-121182834D01*
X117769550Y-121182834D01*
X115280439Y-121182834D01*
X115280420Y-121182834D01*
X115277128Y-121182835D01*
X115273848Y-121183187D01*
X115273840Y-121183188D01*
X115217515Y-121189243D01*
X115082669Y-121239538D01*
X114967454Y-121325788D01*
X114881204Y-121441002D01*
X114830910Y-121575849D01*
X114830909Y-121575851D01*
X114824500Y-121635461D01*
X114824500Y-121638782D01*
X114824500Y-121638783D01*
X114824500Y-124127894D01*
X114824500Y-124127912D01*
X113030457Y-124127912D01*
X113030457Y-116019578D01*
X114824500Y-116019578D01*
X114824501Y-116022872D01*
X114824853Y-116026152D01*
X114824854Y-116026159D01*
X114828557Y-116060607D01*
X114830909Y-116082483D01*
X114881204Y-116217331D01*
X114967454Y-116332546D01*
X115082669Y-116418796D01*
X115217517Y-116469091D01*
X115277127Y-116475500D01*
X115700500Y-116475499D01*
X115767539Y-116495183D01*
X115813294Y-116547987D01*
X115824500Y-116599499D01*
X115824500Y-118750079D01*
X115824274Y-118757566D01*
X115820641Y-118817607D01*
X115831483Y-118876771D01*
X115832610Y-118884172D01*
X115839860Y-118943873D01*
X115843450Y-118953339D01*
X115849475Y-118974952D01*
X115851303Y-118984929D01*
X115875991Y-119039783D01*
X115878856Y-119046701D01*
X115897184Y-119095026D01*
X115900182Y-119102930D01*
X115905941Y-119111273D01*
X115916961Y-119130813D01*
X115921120Y-119140054D01*
X115958216Y-119187405D01*
X115962651Y-119193432D01*
X115996817Y-119242929D01*
X116041847Y-119282822D01*
X116047283Y-119287940D01*
X116487058Y-119727715D01*
X116492178Y-119733153D01*
X116532071Y-119778183D01*
X116532072Y-119778184D01*
X116581569Y-119812349D01*
X116587602Y-119816788D01*
X116634943Y-119853877D01*
X116644174Y-119858031D01*
X116663726Y-119869058D01*
X116672070Y-119874818D01*
X116728322Y-119896151D01*
X116735228Y-119899012D01*
X116790068Y-119923694D01*
X116800030Y-119925519D01*
X116821650Y-119931546D01*
X116829725Y-119934608D01*
X116831128Y-119935140D01*
X116890856Y-119942392D01*
X116898201Y-119943509D01*
X116957394Y-119954357D01*
X117017421Y-119950726D01*
X117024909Y-119950500D01*
X119633481Y-119950500D01*
X119700520Y-119970185D01*
X119721162Y-119986819D01*
X121113180Y-121378837D01*
X121146665Y-121440160D01*
X121149499Y-121466518D01*
X121149499Y-125314605D01*
X121149500Y-125314610D01*
X121149500Y-125460059D01*
X121157919Y-125494220D01*
X121160617Y-125508942D01*
X121164858Y-125543867D01*
X121177337Y-125576772D01*
X121181785Y-125591048D01*
X121190210Y-125625225D01*
X121190210Y-125625226D01*
X121190211Y-125625227D01*
X121206559Y-125656377D01*
X121212702Y-125670026D01*
X121225181Y-125702929D01*
X121245172Y-125731891D01*
X121252918Y-125744705D01*
X121269265Y-125775851D01*
X121292590Y-125802180D01*
X121301823Y-125813965D01*
X121321814Y-125842925D01*
X121321817Y-125842929D01*
X121348156Y-125866263D01*
X121358739Y-125876847D01*
X121382068Y-125903181D01*
X121382071Y-125903183D01*
X121411038Y-125923178D01*
X121422802Y-125932394D01*
X121449148Y-125955734D01*
X121480297Y-125972082D01*
X121493113Y-125979830D01*
X121522068Y-125999817D01*
X121522069Y-125999817D01*
X121522070Y-125999818D01*
X121554975Y-126012297D01*
X121568610Y-126018433D01*
X121599775Y-126034790D01*
X121628180Y-126041791D01*
X121633937Y-126043210D01*
X121648233Y-126047665D01*
X121667439Y-126054948D01*
X121681128Y-126060140D01*
X121716055Y-126064380D01*
X121730779Y-126067078D01*
X121764944Y-126075500D01*
X121807628Y-126075500D01*
X138414481Y-126075500D01*
X138481520Y-126095185D01*
X138502162Y-126111819D01*
X139792327Y-127401984D01*
X139825812Y-127463307D01*
X139820828Y-127532999D01*
X139820075Y-127534966D01*
X139792666Y-127604805D01*
X139732616Y-127867899D01*
X139712450Y-128137000D01*
X139732616Y-128406100D01*
X139732617Y-128406103D01*
X139792666Y-128669195D01*
X139891257Y-128920398D01*
X140026185Y-129154102D01*
X140194439Y-129365085D01*
X140392259Y-129548635D01*
X140615226Y-129700651D01*
X140858359Y-129817738D01*
X141116228Y-129897280D01*
X141383071Y-129937500D01*
X141652929Y-129937500D01*
X141919772Y-129897280D01*
X142177641Y-129817738D01*
X142420775Y-129700651D01*
X142643741Y-129548635D01*
X142841561Y-129365085D01*
X143009815Y-129154102D01*
X143144743Y-128920398D01*
X143243334Y-128669195D01*
X143303383Y-128406103D01*
X143323549Y-128137000D01*
X143303383Y-127867897D01*
X143243334Y-127604805D01*
X143144743Y-127353602D01*
X143009815Y-127119898D01*
X142841561Y-126908915D01*
X142841560Y-126908914D01*
X142643743Y-126725366D01*
X142586205Y-126686137D01*
X142420775Y-126573349D01*
X142177641Y-126456262D01*
X142029625Y-126410605D01*
X141919771Y-126376719D01*
X141652929Y-126336500D01*
X141383071Y-126336500D01*
X141116228Y-126376719D01*
X141006375Y-126410605D01*
X140906491Y-126441415D01*
X140836630Y-126442365D01*
X140782262Y-126410605D01*
X139268940Y-124897283D01*
X139263822Y-124891847D01*
X139223929Y-124846817D01*
X139174432Y-124812651D01*
X139168405Y-124808216D01*
X139121054Y-124771120D01*
X139111813Y-124766961D01*
X139092273Y-124755941D01*
X139083930Y-124750182D01*
X139083927Y-124750181D01*
X139083926Y-124750180D01*
X139027701Y-124728856D01*
X139020783Y-124725991D01*
X138965929Y-124701303D01*
X138955952Y-124699475D01*
X138934339Y-124693450D01*
X138924873Y-124689860D01*
X138865172Y-124682610D01*
X138857771Y-124681483D01*
X138798607Y-124670641D01*
X138738566Y-124674274D01*
X138731079Y-124674500D01*
X132506986Y-124674500D01*
X132439947Y-124654815D01*
X132394192Y-124602011D01*
X132384248Y-124532853D01*
X132413273Y-124469297D01*
X132453185Y-124438780D01*
X132617379Y-124359708D01*
X132827907Y-124216173D01*
X133014682Y-124042870D01*
X133173545Y-123843662D01*
X133300942Y-123623003D01*
X133394028Y-123385825D01*
X133450726Y-123137414D01*
X133451032Y-123133334D01*
X132310882Y-123133334D01*
X132349556Y-123039965D01*
X132370177Y-122883334D01*
X132349556Y-122726703D01*
X132310882Y-122633334D01*
X133451032Y-122633334D01*
X133451032Y-122633333D01*
X133450726Y-122629253D01*
X133394028Y-122380842D01*
X133300942Y-122143664D01*
X133173545Y-121923005D01*
X133014682Y-121723797D01*
X132827907Y-121550494D01*
X132617379Y-121406959D01*
X132387823Y-121296412D01*
X132144345Y-121221308D01*
X132015000Y-121201813D01*
X132015000Y-122337452D01*
X131921631Y-122298778D01*
X131804323Y-122283334D01*
X131725677Y-122283334D01*
X131608369Y-122298778D01*
X131515000Y-122337452D01*
X131515000Y-121201813D01*
X131385654Y-121221308D01*
X131142179Y-121296411D01*
X130912615Y-121406962D01*
X130702095Y-121550492D01*
X130515317Y-121723797D01*
X130356454Y-121923005D01*
X130229057Y-122143664D01*
X130135971Y-122380842D01*
X130079273Y-122629253D01*
X130078967Y-122633333D01*
X130078968Y-122633334D01*
X131219118Y-122633334D01*
X131180444Y-122726703D01*
X131159823Y-122883334D01*
X131180444Y-123039965D01*
X131219118Y-123133334D01*
X130078968Y-123133334D01*
X130079273Y-123137414D01*
X130135971Y-123385825D01*
X130229057Y-123623003D01*
X130356454Y-123843662D01*
X130515317Y-124042870D01*
X130702095Y-124216175D01*
X130912618Y-124359706D01*
X131076816Y-124438780D01*
X131128676Y-124485602D01*
X131146989Y-124553029D01*
X131125941Y-124619653D01*
X131072215Y-124664322D01*
X131023015Y-124674500D01*
X122674500Y-124674500D01*
X122607461Y-124654815D01*
X122561706Y-124602011D01*
X122550500Y-124550500D01*
X122550500Y-121149908D01*
X122550726Y-121142421D01*
X122552226Y-121117619D01*
X122554357Y-121082394D01*
X122543509Y-121023201D01*
X122542392Y-121015856D01*
X122535140Y-120956128D01*
X122532816Y-120950000D01*
X122531546Y-120946650D01*
X122525519Y-120925029D01*
X122524283Y-120918284D01*
X122523694Y-120915068D01*
X122499012Y-120860228D01*
X122496151Y-120853322D01*
X122474818Y-120797070D01*
X122469058Y-120788726D01*
X122458030Y-120769172D01*
X122453877Y-120759943D01*
X122416788Y-120712602D01*
X122412349Y-120706569D01*
X122378184Y-120657072D01*
X122377841Y-120656768D01*
X122333153Y-120617178D01*
X122327715Y-120612058D01*
X120487940Y-118772283D01*
X120482822Y-118766847D01*
X120442929Y-118721817D01*
X120393432Y-118687651D01*
X120387405Y-118683216D01*
X120340054Y-118646120D01*
X120330813Y-118641961D01*
X120311273Y-118630941D01*
X120302930Y-118625182D01*
X120302927Y-118625181D01*
X120302926Y-118625180D01*
X120246701Y-118603856D01*
X120239783Y-118600991D01*
X120184929Y-118576303D01*
X120174952Y-118574475D01*
X120153339Y-118568450D01*
X120143873Y-118564860D01*
X120084172Y-118557610D01*
X120076771Y-118556483D01*
X120017607Y-118545641D01*
X119957566Y-118549274D01*
X119950079Y-118549500D01*
X117349500Y-118549500D01*
X117282461Y-118529815D01*
X117236706Y-118477011D01*
X117225500Y-118425500D01*
X117225499Y-117834481D01*
X117225499Y-116599498D01*
X117245184Y-116532460D01*
X117297987Y-116486705D01*
X117349499Y-116475499D01*
X117769561Y-116475499D01*
X117772872Y-116475499D01*
X117832483Y-116469091D01*
X117967331Y-116418796D01*
X118082546Y-116332546D01*
X118168796Y-116217331D01*
X118219091Y-116082483D01*
X118225500Y-116022873D01*
X118225499Y-113527128D01*
X118219091Y-113467517D01*
X118168796Y-113332669D01*
X118082546Y-113217454D01*
X117967331Y-113131204D01*
X117832483Y-113080909D01*
X117772873Y-113074500D01*
X117769550Y-113074500D01*
X115280439Y-113074500D01*
X115280420Y-113074500D01*
X115277128Y-113074501D01*
X115273848Y-113074853D01*
X115273840Y-113074854D01*
X115217515Y-113080909D01*
X115082669Y-113131204D01*
X114967454Y-113217454D01*
X114881204Y-113332668D01*
X114830910Y-113467515D01*
X114830909Y-113467517D01*
X114824500Y-113527127D01*
X114824500Y-113530448D01*
X114824500Y-113530449D01*
X114824500Y-116019560D01*
X114824500Y-116019578D01*
X113030457Y-116019578D01*
X113030457Y-107911245D01*
X114824500Y-107911245D01*
X114824501Y-107914539D01*
X114830909Y-107974150D01*
X114881204Y-108108998D01*
X114967454Y-108224213D01*
X115082669Y-108310463D01*
X115217517Y-108360758D01*
X115277127Y-108367167D01*
X115700500Y-108367166D01*
X115767539Y-108386850D01*
X115813294Y-108439654D01*
X115824500Y-108491166D01*
X115824500Y-110850079D01*
X115824274Y-110857566D01*
X115820641Y-110917607D01*
X115831483Y-110976771D01*
X115832610Y-110984172D01*
X115839860Y-111043873D01*
X115843450Y-111053339D01*
X115849475Y-111074952D01*
X115851303Y-111084929D01*
X115875991Y-111139783D01*
X115878856Y-111146701D01*
X115896336Y-111192790D01*
X115900182Y-111202930D01*
X115905941Y-111211273D01*
X115916961Y-111230813D01*
X115921120Y-111240054D01*
X115958216Y-111287405D01*
X115962651Y-111293432D01*
X115996817Y-111342929D01*
X116041847Y-111382822D01*
X116047283Y-111387940D01*
X116562058Y-111902715D01*
X116567178Y-111908153D01*
X116607071Y-111953183D01*
X116607072Y-111953184D01*
X116656569Y-111987349D01*
X116662602Y-111991788D01*
X116709943Y-112028877D01*
X116719174Y-112033031D01*
X116738726Y-112044058D01*
X116747070Y-112049818D01*
X116803322Y-112071151D01*
X116810228Y-112074012D01*
X116865068Y-112098694D01*
X116875030Y-112100519D01*
X116896650Y-112106546D01*
X116906125Y-112110139D01*
X116906128Y-112110140D01*
X116965856Y-112117392D01*
X116973201Y-112118509D01*
X117032394Y-112129357D01*
X117092421Y-112125726D01*
X117099909Y-112125500D01*
X120308481Y-112125500D01*
X120375520Y-112145185D01*
X120396162Y-112161819D01*
X121513181Y-113278838D01*
X121546666Y-113340161D01*
X121549500Y-113366519D01*
X121549500Y-118885059D01*
X121557919Y-118919220D01*
X121560617Y-118933942D01*
X121564858Y-118968867D01*
X121564860Y-118968872D01*
X121570950Y-118984932D01*
X121577337Y-119001772D01*
X121581785Y-119016048D01*
X121590210Y-119050225D01*
X121590210Y-119050226D01*
X121590211Y-119050227D01*
X121606559Y-119081377D01*
X121612702Y-119095026D01*
X121625181Y-119127929D01*
X121645172Y-119156891D01*
X121652918Y-119169705D01*
X121669265Y-119200851D01*
X121692590Y-119227180D01*
X121701823Y-119238965D01*
X121721814Y-119267925D01*
X121721817Y-119267929D01*
X121748156Y-119291263D01*
X121758739Y-119301847D01*
X121782068Y-119328181D01*
X121782071Y-119328183D01*
X121811038Y-119348178D01*
X121822802Y-119357394D01*
X121849148Y-119380734D01*
X121880297Y-119397082D01*
X121893113Y-119404830D01*
X121922068Y-119424817D01*
X121922069Y-119424817D01*
X121922070Y-119424818D01*
X121954975Y-119437297D01*
X121968610Y-119443433D01*
X121999775Y-119459790D01*
X122028180Y-119466791D01*
X122033937Y-119468210D01*
X122048233Y-119472665D01*
X122067439Y-119479948D01*
X122081128Y-119485140D01*
X122116055Y-119489380D01*
X122130779Y-119492078D01*
X122164944Y-119500500D01*
X122207628Y-119500500D01*
X136839481Y-119500500D01*
X136906520Y-119520185D01*
X136927162Y-119536819D01*
X144792327Y-127401984D01*
X144825812Y-127463307D01*
X144820828Y-127532999D01*
X144820075Y-127534966D01*
X144792666Y-127604805D01*
X144732616Y-127867899D01*
X144712450Y-128137000D01*
X144732616Y-128406100D01*
X144732617Y-128406103D01*
X144792666Y-128669195D01*
X144891257Y-128920398D01*
X145026185Y-129154102D01*
X145194439Y-129365085D01*
X145392259Y-129548635D01*
X145615226Y-129700651D01*
X145858359Y-129817738D01*
X146116228Y-129897280D01*
X146383071Y-129937500D01*
X146652929Y-129937500D01*
X146919772Y-129897280D01*
X147177641Y-129817738D01*
X147420775Y-129700651D01*
X147643741Y-129548635D01*
X147841561Y-129365085D01*
X148009815Y-129154102D01*
X148144743Y-128920398D01*
X148243334Y-128669195D01*
X148303383Y-128406103D01*
X148323549Y-128137000D01*
X148303383Y-127867897D01*
X148243334Y-127604805D01*
X148144743Y-127353602D01*
X148009815Y-127119898D01*
X147841561Y-126908915D01*
X147841560Y-126908914D01*
X147643743Y-126725366D01*
X147586205Y-126686137D01*
X147420775Y-126573349D01*
X147177641Y-126456262D01*
X147029625Y-126410605D01*
X146919771Y-126376719D01*
X146652929Y-126336500D01*
X146383071Y-126336500D01*
X146116228Y-126376719D01*
X146006375Y-126410605D01*
X145906491Y-126441415D01*
X145836630Y-126442365D01*
X145782262Y-126410605D01*
X138008838Y-118637181D01*
X137975353Y-118575858D01*
X137980337Y-118506166D01*
X138022209Y-118450233D01*
X138087673Y-118425816D01*
X138096519Y-118425500D01*
X140764481Y-118425500D01*
X140831520Y-118445185D01*
X140852162Y-118461819D01*
X149792328Y-127401984D01*
X149825813Y-127463307D01*
X149820829Y-127532999D01*
X149820075Y-127534967D01*
X149792667Y-127604802D01*
X149792667Y-127604804D01*
X149732616Y-127867899D01*
X149712450Y-128137000D01*
X149732616Y-128406100D01*
X149732617Y-128406103D01*
X149792666Y-128669195D01*
X149891257Y-128920398D01*
X150026185Y-129154102D01*
X150194439Y-129365085D01*
X150392259Y-129548635D01*
X150615226Y-129700651D01*
X150858359Y-129817738D01*
X151116228Y-129897280D01*
X151383071Y-129937500D01*
X151652929Y-129937500D01*
X151919772Y-129897280D01*
X152177641Y-129817738D01*
X152420775Y-129700651D01*
X152643741Y-129548635D01*
X152841561Y-129365085D01*
X153009815Y-129154102D01*
X153012567Y-129149335D01*
X180199500Y-129149335D01*
X180219964Y-129271974D01*
X180240429Y-129394615D01*
X180321170Y-129629805D01*
X180321172Y-129629810D01*
X180410323Y-129794546D01*
X180439529Y-129848514D01*
X180575036Y-130022612D01*
X180592262Y-130044744D01*
X180775215Y-130213164D01*
X180983393Y-130349173D01*
X181211119Y-130449063D01*
X181452179Y-130510108D01*
X181637933Y-130525500D01*
X181640503Y-130525500D01*
X181759497Y-130525500D01*
X181762067Y-130525500D01*
X181947821Y-130510108D01*
X182188881Y-130449063D01*
X182416607Y-130349173D01*
X182624785Y-130213164D01*
X182807738Y-130044744D01*
X182960474Y-129848509D01*
X183078828Y-129629810D01*
X183159571Y-129394614D01*
X183200500Y-129149335D01*
X183200500Y-128900665D01*
X183159571Y-128655386D01*
X183078828Y-128420190D01*
X182960474Y-128201491D01*
X182960471Y-128201487D01*
X182960470Y-128201485D01*
X182807740Y-128005259D01*
X182807738Y-128005256D01*
X182624785Y-127836836D01*
X182416607Y-127700827D01*
X182416604Y-127700825D01*
X182291523Y-127645960D01*
X182188881Y-127600937D01*
X182008867Y-127555351D01*
X181947822Y-127539892D01*
X181913854Y-127537077D01*
X181762067Y-127524500D01*
X181637933Y-127524500D01*
X181520111Y-127534262D01*
X181452177Y-127539892D01*
X181330087Y-127570810D01*
X181211119Y-127600937D01*
X181211116Y-127600938D01*
X181211117Y-127600938D01*
X180983395Y-127700825D01*
X180844607Y-127791499D01*
X180775215Y-127836836D01*
X180775213Y-127836837D01*
X180775214Y-127836837D01*
X180592259Y-128005259D01*
X180439529Y-128201485D01*
X180321170Y-128420194D01*
X180240429Y-128655384D01*
X180209396Y-128841358D01*
X180199500Y-128900665D01*
X180199500Y-129149335D01*
X153012567Y-129149335D01*
X153144743Y-128920398D01*
X153146391Y-128916200D01*
X153189206Y-128860985D01*
X153255076Y-128837684D01*
X153261820Y-128837500D01*
X166802079Y-128837500D01*
X166809566Y-128837726D01*
X166812706Y-128837915D01*
X166869606Y-128841358D01*
X166928782Y-128830513D01*
X166936181Y-128829387D01*
X166995872Y-128822140D01*
X167005335Y-128818550D01*
X167026958Y-128812522D01*
X167036932Y-128810695D01*
X167091808Y-128785996D01*
X167098673Y-128783152D01*
X167154930Y-128761818D01*
X167163270Y-128756060D01*
X167182819Y-128745035D01*
X167192057Y-128740878D01*
X167239413Y-128703775D01*
X167245426Y-128699352D01*
X167294929Y-128665183D01*
X167334823Y-128620150D01*
X167339924Y-128614731D01*
X172318242Y-123636413D01*
X172379563Y-123602930D01*
X172442470Y-123605604D01*
X172594542Y-123652513D01*
X172846565Y-123690500D01*
X173101435Y-123690500D01*
X173353458Y-123652513D01*
X173597004Y-123577389D01*
X173826634Y-123466805D01*
X174037217Y-123323232D01*
X174224050Y-123149877D01*
X174382959Y-122950612D01*
X174510393Y-122729888D01*
X174603508Y-122492637D01*
X174660222Y-122244157D01*
X174675183Y-122044518D01*
X179650000Y-122044518D01*
X179650354Y-122051132D01*
X179656400Y-122107371D01*
X179706647Y-122242089D01*
X179792811Y-122357188D01*
X179907910Y-122443352D01*
X180042628Y-122493599D01*
X180098867Y-122499645D01*
X180105482Y-122500000D01*
X181200000Y-122500000D01*
X181200000Y-121304310D01*
X181208817Y-121309158D01*
X181367886Y-121350000D01*
X181490894Y-121350000D01*
X181612933Y-121334583D01*
X181699999Y-121300110D01*
X181699999Y-122499999D01*
X181700000Y-122500000D01*
X182794518Y-122500000D01*
X182801132Y-122499645D01*
X182857371Y-122493599D01*
X182992089Y-122443352D01*
X183107188Y-122357188D01*
X183193352Y-122242089D01*
X183243599Y-122107371D01*
X183249645Y-122051132D01*
X183250000Y-122044518D01*
X183250000Y-120950000D01*
X182050728Y-120950000D01*
X182073100Y-120902457D01*
X182103873Y-120741138D01*
X182093561Y-120577234D01*
X182052220Y-120450000D01*
X183250000Y-120450000D01*
X183250000Y-119355481D01*
X183249645Y-119348867D01*
X183243599Y-119292628D01*
X183193352Y-119157910D01*
X183107188Y-119042811D01*
X182992089Y-118956647D01*
X182857371Y-118906400D01*
X182801132Y-118900354D01*
X182794518Y-118900000D01*
X181700000Y-118900000D01*
X181699999Y-120095688D01*
X181691183Y-120090842D01*
X181532114Y-120050000D01*
X181409106Y-120050000D01*
X181287067Y-120065417D01*
X181200000Y-120099889D01*
X181200000Y-118900000D01*
X180105482Y-118900000D01*
X180098867Y-118900354D01*
X180042628Y-118906400D01*
X179907910Y-118956647D01*
X179792811Y-119042811D01*
X179706647Y-119157910D01*
X179656400Y-119292628D01*
X179650354Y-119348867D01*
X179650000Y-119355481D01*
X179650000Y-120450000D01*
X180849272Y-120450000D01*
X180826900Y-120497543D01*
X180796127Y-120658862D01*
X180806439Y-120822766D01*
X180847780Y-120950000D01*
X179650000Y-120950000D01*
X179650000Y-122044518D01*
X174675183Y-122044518D01*
X174679268Y-121990000D01*
X174660222Y-121735843D01*
X174603508Y-121487363D01*
X174510393Y-121250112D01*
X174494675Y-121222888D01*
X174382961Y-121029392D01*
X174382959Y-121029388D01*
X174224050Y-120830123D01*
X174037217Y-120656768D01*
X173826634Y-120513195D01*
X173597004Y-120402611D01*
X173390531Y-120338922D01*
X173332273Y-120300353D01*
X173304115Y-120236408D01*
X173314999Y-120167391D01*
X173339398Y-120132754D01*
X177035334Y-116436819D01*
X177096658Y-116403334D01*
X177123016Y-116400500D01*
X179706180Y-116400500D01*
X179773219Y-116420185D01*
X179818974Y-116472989D01*
X179821609Y-116479200D01*
X179823256Y-116483398D01*
X179931662Y-116671162D01*
X179958185Y-116717102D01*
X180126439Y-116928085D01*
X180324259Y-117111635D01*
X180547226Y-117263651D01*
X180790359Y-117380738D01*
X181048228Y-117460280D01*
X181315071Y-117500500D01*
X181584929Y-117500500D01*
X181851772Y-117460280D01*
X182109641Y-117380738D01*
X182352775Y-117263651D01*
X182575741Y-117111635D01*
X182773561Y-116928085D01*
X182941815Y-116717102D01*
X183076743Y-116483398D01*
X183175334Y-116232195D01*
X183235383Y-115969103D01*
X183255549Y-115700000D01*
X183235383Y-115430897D01*
X183175334Y-115167805D01*
X183076743Y-114916602D01*
X182941815Y-114682898D01*
X182773561Y-114471915D01*
X182773560Y-114471914D01*
X182575743Y-114288366D01*
X182482068Y-114224500D01*
X182352775Y-114136349D01*
X182109641Y-114019262D01*
X182013709Y-113989671D01*
X181851771Y-113939719D01*
X181584929Y-113899500D01*
X181315071Y-113899500D01*
X181048228Y-113939719D01*
X180790359Y-114019262D01*
X180547228Y-114136347D01*
X180324257Y-114288366D01*
X180126439Y-114471915D01*
X179958184Y-114682899D01*
X179823256Y-114916601D01*
X179821609Y-114920800D01*
X179778794Y-114976015D01*
X179712924Y-114999316D01*
X179706180Y-114999500D01*
X176806407Y-114999500D01*
X176798920Y-114999274D01*
X176738888Y-114995642D01*
X176679739Y-115006481D01*
X176672340Y-115007608D01*
X176612619Y-115014860D01*
X176603138Y-115018456D01*
X176581533Y-115024479D01*
X176571566Y-115026305D01*
X176516731Y-115050984D01*
X176509815Y-115053848D01*
X176453566Y-115075181D01*
X176445222Y-115080941D01*
X176425680Y-115091963D01*
X176416441Y-115096121D01*
X176369091Y-115133216D01*
X176363063Y-115137652D01*
X176313564Y-115171819D01*
X176273680Y-115216838D01*
X176268548Y-115222290D01*
X168987181Y-122503658D01*
X168925858Y-122537143D01*
X168856166Y-122532159D01*
X168800233Y-122490287D01*
X168775816Y-122424823D01*
X168775500Y-122415977D01*
X168775500Y-121565398D01*
X168795185Y-121498359D01*
X168847989Y-121452604D01*
X168917147Y-121442660D01*
X168925281Y-121444108D01*
X168955353Y-121450500D01*
X168955354Y-121450500D01*
X169144648Y-121450500D01*
X169268084Y-121424262D01*
X169329803Y-121411144D01*
X169502730Y-121334151D01*
X169537130Y-121309158D01*
X169655870Y-121222889D01*
X169782533Y-121082216D01*
X169877179Y-120918284D01*
X169878224Y-120915068D01*
X169935674Y-120738256D01*
X169955460Y-120550000D01*
X169935674Y-120361744D01*
X169894950Y-120236408D01*
X169877179Y-120181715D01*
X169782532Y-120017783D01*
X169782345Y-120017575D01*
X169782013Y-120016884D01*
X169776017Y-120006498D01*
X169776810Y-120006040D01*
X169752119Y-119954582D01*
X169750500Y-119934608D01*
X169750500Y-116034747D01*
X169770185Y-115967708D01*
X169822989Y-115921953D01*
X169892147Y-115912009D01*
X169924928Y-115921465D01*
X170031923Y-115969103D01*
X170070199Y-115986145D01*
X170255352Y-116025500D01*
X170255354Y-116025500D01*
X170444648Y-116025500D01*
X170568083Y-115999262D01*
X170629803Y-115986144D01*
X170802730Y-115909151D01*
X170898063Y-115839888D01*
X170919681Y-115824182D01*
X170985487Y-115800702D01*
X170992566Y-115800500D01*
X171343275Y-115800500D01*
X171410314Y-115820185D01*
X171450661Y-115862499D01*
X171565041Y-116060612D01*
X171723950Y-116259877D01*
X171910783Y-116433232D01*
X172121366Y-116576805D01*
X172350996Y-116687389D01*
X172594542Y-116762513D01*
X172846565Y-116800500D01*
X173101435Y-116800500D01*
X173353458Y-116762513D01*
X173597004Y-116687389D01*
X173826634Y-116576805D01*
X174037217Y-116433232D01*
X174224050Y-116259877D01*
X174382959Y-116060612D01*
X174510393Y-115839888D01*
X174603508Y-115602637D01*
X174660222Y-115354157D01*
X174679268Y-115100000D01*
X174660222Y-114845843D01*
X174603508Y-114597363D01*
X174510393Y-114360112D01*
X174499270Y-114340847D01*
X174382961Y-114139392D01*
X174382959Y-114139388D01*
X174224050Y-113940123D01*
X174037217Y-113766768D01*
X173826634Y-113623195D01*
X173597004Y-113512611D01*
X173353458Y-113437487D01*
X173101435Y-113399500D01*
X172846565Y-113399500D01*
X172594542Y-113437487D01*
X172350996Y-113512611D01*
X172121366Y-113623195D01*
X172070802Y-113657669D01*
X171910781Y-113766769D01*
X171723950Y-113940123D01*
X171565040Y-114139389D01*
X171450662Y-114337500D01*
X171400095Y-114385715D01*
X171343275Y-114399500D01*
X170923746Y-114399500D01*
X170856707Y-114379815D01*
X170850880Y-114375831D01*
X170802730Y-114340849D01*
X170795916Y-114337815D01*
X170629802Y-114263855D01*
X170444648Y-114224500D01*
X170444646Y-114224500D01*
X170255354Y-114224500D01*
X170255352Y-114224500D01*
X170070201Y-114263854D01*
X169924936Y-114328531D01*
X169855686Y-114337815D01*
X169792409Y-114308187D01*
X169755196Y-114249052D01*
X169750500Y-114215251D01*
X169750500Y-112475518D01*
X169770185Y-112408479D01*
X169786819Y-112387837D01*
X171050555Y-111124101D01*
X172318242Y-109856413D01*
X172379563Y-109822930D01*
X172442470Y-109825604D01*
X172594542Y-109872513D01*
X172846565Y-109910500D01*
X173101435Y-109910500D01*
X173353458Y-109872513D01*
X173597004Y-109797389D01*
X173826634Y-109686805D01*
X174037217Y-109543232D01*
X174224050Y-109369877D01*
X174382959Y-109170612D01*
X174510393Y-108949888D01*
X174603508Y-108712637D01*
X174660222Y-108464157D01*
X174679268Y-108210000D01*
X174660222Y-107955843D01*
X174603508Y-107707363D01*
X174510393Y-107470112D01*
X174382959Y-107249388D01*
X174224050Y-107050123D01*
X174037217Y-106876768D01*
X173826634Y-106733195D01*
X173597004Y-106622611D01*
X173353458Y-106547487D01*
X173101435Y-106509500D01*
X172846565Y-106509500D01*
X172594542Y-106547487D01*
X172350996Y-106622611D01*
X172121366Y-106733195D01*
X172070802Y-106767669D01*
X171910781Y-106876769D01*
X171815207Y-106965449D01*
X171723950Y-107050123D01*
X171571407Y-107241406D01*
X171565038Y-107249392D01*
X171437608Y-107470108D01*
X171344492Y-107707362D01*
X171287777Y-107955845D01*
X171268731Y-108210000D01*
X171287777Y-108464154D01*
X171344492Y-108712639D01*
X171353223Y-108734885D01*
X171359390Y-108804482D01*
X171326951Y-108866365D01*
X171325475Y-108867866D01*
X168987181Y-111206161D01*
X168925858Y-111239646D01*
X168856166Y-111234662D01*
X168800233Y-111192790D01*
X168775816Y-111127326D01*
X168775500Y-111118480D01*
X168775500Y-106560518D01*
X168795185Y-106493479D01*
X168811814Y-106472842D01*
X172318242Y-102966413D01*
X172379563Y-102932930D01*
X172442470Y-102935604D01*
X172594542Y-102982513D01*
X172846565Y-103020500D01*
X173101435Y-103020500D01*
X173353458Y-102982513D01*
X173597004Y-102907389D01*
X173826634Y-102796805D01*
X174037217Y-102653232D01*
X174224050Y-102479877D01*
X174382959Y-102280612D01*
X174510393Y-102059888D01*
X174603508Y-101822637D01*
X174660222Y-101574157D01*
X174667023Y-101483398D01*
X174673017Y-101403423D01*
X174697656Y-101338042D01*
X174753732Y-101296361D01*
X174823440Y-101291613D01*
X174884351Y-101325008D01*
X178863181Y-105303838D01*
X178896666Y-105365161D01*
X178899500Y-105391519D01*
X178899500Y-111525079D01*
X178899274Y-111532566D01*
X178895641Y-111592607D01*
X178906483Y-111651771D01*
X178907610Y-111659172D01*
X178914860Y-111718873D01*
X178918450Y-111728339D01*
X178924475Y-111749952D01*
X178926303Y-111759929D01*
X178950991Y-111814783D01*
X178953856Y-111821701D01*
X178975180Y-111877926D01*
X178975182Y-111877930D01*
X178980941Y-111886273D01*
X178991961Y-111905813D01*
X178996120Y-111915054D01*
X179033216Y-111962405D01*
X179037651Y-111968432D01*
X179071817Y-112017929D01*
X179116847Y-112057822D01*
X179122283Y-112062940D01*
X180087051Y-113027707D01*
X180092171Y-113033145D01*
X180132071Y-113078183D01*
X180181565Y-113112346D01*
X180181574Y-113112352D01*
X180187603Y-113116788D01*
X180234944Y-113153878D01*
X180244183Y-113158036D01*
X180263719Y-113169053D01*
X180272070Y-113174818D01*
X180328326Y-113196152D01*
X180335220Y-113199009D01*
X180390069Y-113223695D01*
X180400044Y-113225522D01*
X180421656Y-113231547D01*
X180431128Y-113235140D01*
X180490841Y-113242390D01*
X180498185Y-113243507D01*
X180557394Y-113254358D01*
X180614102Y-113250927D01*
X180617434Y-113250726D01*
X180624921Y-113250500D01*
X182191375Y-113250500D01*
X182198862Y-113250726D01*
X182202002Y-113250915D01*
X182258902Y-113254358D01*
X182318078Y-113243513D01*
X182325477Y-113242387D01*
X182385168Y-113235140D01*
X182394631Y-113231550D01*
X182416254Y-113225522D01*
X182426228Y-113223695D01*
X182481104Y-113198996D01*
X182487969Y-113196152D01*
X182544226Y-113174818D01*
X182552566Y-113169060D01*
X182572115Y-113158035D01*
X182581353Y-113153878D01*
X182628709Y-113116775D01*
X182634722Y-113112352D01*
X182684225Y-113078183D01*
X182724119Y-113033150D01*
X182729220Y-113027731D01*
X184627731Y-111129220D01*
X184633151Y-111124118D01*
X184678183Y-111084225D01*
X184712358Y-111034712D01*
X184716779Y-111028703D01*
X184753877Y-110981353D01*
X184758033Y-110972116D01*
X184769058Y-110952569D01*
X184774818Y-110944226D01*
X184796154Y-110887964D01*
X184799014Y-110881062D01*
X184823694Y-110826228D01*
X184825519Y-110816266D01*
X184831545Y-110794644D01*
X184835140Y-110785168D01*
X184842389Y-110725461D01*
X184843516Y-110718058D01*
X184848991Y-110688181D01*
X184854357Y-110658902D01*
X184850726Y-110598873D01*
X184850500Y-110591386D01*
X184850500Y-88424919D01*
X184850726Y-88417432D01*
X184852509Y-88387953D01*
X184854358Y-88357394D01*
X184843507Y-88298185D01*
X184842390Y-88290841D01*
X184835140Y-88231128D01*
X184831547Y-88221656D01*
X184825522Y-88200044D01*
X184823695Y-88190069D01*
X184799009Y-88135220D01*
X184796152Y-88128326D01*
X184774818Y-88072070D01*
X184774816Y-88072068D01*
X184774816Y-88072066D01*
X184769062Y-88063731D01*
X184758033Y-88044177D01*
X184753878Y-88034944D01*
X184716780Y-87987591D01*
X184712352Y-87981573D01*
X184678184Y-87932072D01*
X184678183Y-87932071D01*
X184633153Y-87892178D01*
X184627715Y-87887058D01*
X183175671Y-86435014D01*
X183142186Y-86373691D01*
X183147170Y-86303999D01*
X183147888Y-86302123D01*
X183175334Y-86232195D01*
X183235383Y-85969103D01*
X183255549Y-85700000D01*
X183235383Y-85430897D01*
X183175334Y-85167805D01*
X183076743Y-84916602D01*
X182941815Y-84682898D01*
X182773561Y-84471915D01*
X182671805Y-84377499D01*
X182575743Y-84288366D01*
X182518205Y-84249137D01*
X182352775Y-84136349D01*
X182109641Y-84019262D01*
X182030098Y-83994726D01*
X181851771Y-83939719D01*
X181584929Y-83899500D01*
X181315071Y-83899500D01*
X181048228Y-83939719D01*
X180790359Y-84019262D01*
X180547228Y-84136347D01*
X180324257Y-84288366D01*
X180126439Y-84471915D01*
X179958184Y-84682899D01*
X179823257Y-84916601D01*
X179724666Y-85167804D01*
X179664616Y-85430899D01*
X179644450Y-85700000D01*
X179664616Y-85969100D01*
X179698303Y-86116692D01*
X179724666Y-86232195D01*
X179823257Y-86483398D01*
X179958185Y-86717102D01*
X180126439Y-86928085D01*
X180324259Y-87111635D01*
X180547226Y-87263651D01*
X180790359Y-87380738D01*
X181048228Y-87460280D01*
X181315071Y-87500500D01*
X181584929Y-87500500D01*
X181851772Y-87460280D01*
X182061508Y-87395584D01*
X182131370Y-87394635D01*
X182185738Y-87426395D01*
X183413181Y-88653838D01*
X183446666Y-88715161D01*
X183449500Y-88741519D01*
X183449500Y-90268474D01*
X183429815Y-90335513D01*
X183377011Y-90381268D01*
X183307853Y-90391212D01*
X183244297Y-90362187D01*
X183206523Y-90303409D01*
X183204609Y-90296067D01*
X183198311Y-90268474D01*
X183175334Y-90167805D01*
X183076743Y-89916602D01*
X182941815Y-89682898D01*
X182773561Y-89471915D01*
X182773560Y-89471914D01*
X182575743Y-89288366D01*
X182518205Y-89249137D01*
X182352775Y-89136349D01*
X182109641Y-89019262D01*
X182030097Y-88994726D01*
X181851771Y-88939719D01*
X181584929Y-88899500D01*
X181315071Y-88899500D01*
X181048228Y-88939719D01*
X180790359Y-89019262D01*
X180547228Y-89136347D01*
X180324257Y-89288366D01*
X180126439Y-89471915D01*
X179958184Y-89682899D01*
X179823257Y-89916601D01*
X179724666Y-90167804D01*
X179664616Y-90430899D01*
X179644450Y-90699999D01*
X179664616Y-90969100D01*
X179673973Y-91010096D01*
X179724666Y-91232195D01*
X179823257Y-91483398D01*
X179958185Y-91717102D01*
X180126439Y-91928085D01*
X180324259Y-92111635D01*
X180547226Y-92263651D01*
X180790359Y-92380738D01*
X181048228Y-92460280D01*
X181315071Y-92500500D01*
X181584929Y-92500500D01*
X181851772Y-92460280D01*
X182109641Y-92380738D01*
X182352775Y-92263651D01*
X182575741Y-92111635D01*
X182773561Y-91928085D01*
X182941815Y-91717102D01*
X183076743Y-91483398D01*
X183175334Y-91232195D01*
X183204609Y-91103931D01*
X183238718Y-91042954D01*
X183300379Y-91010096D01*
X183370016Y-91015791D01*
X183425520Y-91058231D01*
X183449268Y-91123941D01*
X183449500Y-91131525D01*
X183449500Y-95268474D01*
X183429815Y-95335513D01*
X183377011Y-95381268D01*
X183307853Y-95391212D01*
X183244297Y-95362187D01*
X183206523Y-95303409D01*
X183204609Y-95296067D01*
X183198311Y-95268474D01*
X183175334Y-95167805D01*
X183076743Y-94916602D01*
X182941815Y-94682898D01*
X182773561Y-94471915D01*
X182730553Y-94432009D01*
X182575743Y-94288366D01*
X182491212Y-94230734D01*
X182352775Y-94136349D01*
X182109641Y-94019262D01*
X182030098Y-93994726D01*
X181851771Y-93939719D01*
X181584929Y-93899500D01*
X181315071Y-93899500D01*
X181048228Y-93939719D01*
X180790359Y-94019262D01*
X180547228Y-94136347D01*
X180324257Y-94288366D01*
X180126439Y-94471915D01*
X179958184Y-94682899D01*
X179823257Y-94916601D01*
X179724666Y-95167804D01*
X179664616Y-95430899D01*
X179644450Y-95700000D01*
X179664616Y-95969100D01*
X179664617Y-95969103D01*
X179724666Y-96232195D01*
X179823257Y-96483398D01*
X179958185Y-96717102D01*
X180126439Y-96928085D01*
X180324259Y-97111635D01*
X180547226Y-97263651D01*
X180790359Y-97380738D01*
X181048228Y-97460280D01*
X181315071Y-97500500D01*
X181584929Y-97500500D01*
X181851772Y-97460280D01*
X182109641Y-97380738D01*
X182352775Y-97263651D01*
X182575741Y-97111635D01*
X182773561Y-96928085D01*
X182941815Y-96717102D01*
X183076743Y-96483398D01*
X183175334Y-96232195D01*
X183204609Y-96103931D01*
X183238718Y-96042954D01*
X183300379Y-96010096D01*
X183370016Y-96015791D01*
X183425520Y-96058231D01*
X183449268Y-96123941D01*
X183449500Y-96131525D01*
X183449500Y-100268474D01*
X183429815Y-100335513D01*
X183377011Y-100381268D01*
X183307853Y-100391212D01*
X183244297Y-100362187D01*
X183206523Y-100303409D01*
X183204609Y-100296067D01*
X183199654Y-100274357D01*
X183175334Y-100167805D01*
X183076743Y-99916602D01*
X182941815Y-99682898D01*
X182773561Y-99471915D01*
X182756242Y-99455845D01*
X182575743Y-99288366D01*
X182456933Y-99207363D01*
X182352775Y-99136349D01*
X182109641Y-99019262D01*
X182002648Y-98986259D01*
X181851771Y-98939719D01*
X181584929Y-98899500D01*
X181315071Y-98899500D01*
X181048228Y-98939719D01*
X180790359Y-99019262D01*
X180547228Y-99136347D01*
X180324257Y-99288366D01*
X180126439Y-99471915D01*
X179958184Y-99682899D01*
X179823257Y-99916601D01*
X179724666Y-100167805D01*
X179692602Y-100308285D01*
X179658493Y-100369263D01*
X179596831Y-100402121D01*
X179527194Y-100396426D01*
X179484030Y-100368373D01*
X177538316Y-98422659D01*
X177504831Y-98361336D01*
X177509815Y-98291644D01*
X177551687Y-98235711D01*
X177600212Y-98213689D01*
X177729803Y-98186144D01*
X177902730Y-98109151D01*
X177984043Y-98050074D01*
X178055870Y-97997889D01*
X178182533Y-97857216D01*
X178277179Y-97693284D01*
X178311778Y-97586799D01*
X178335674Y-97513256D01*
X178355460Y-97325000D01*
X178335674Y-97136744D01*
X178277179Y-96956716D01*
X178277179Y-96956715D01*
X178182532Y-96792783D01*
X178182345Y-96792575D01*
X178182013Y-96791884D01*
X178176017Y-96781498D01*
X178176810Y-96781040D01*
X178152119Y-96729582D01*
X178150500Y-96709608D01*
X178150500Y-80699999D01*
X179644450Y-80699999D01*
X179664616Y-80969100D01*
X179701485Y-81130634D01*
X179724666Y-81232195D01*
X179823257Y-81483398D01*
X179958185Y-81717102D01*
X180126439Y-81928085D01*
X180324259Y-82111635D01*
X180547226Y-82263651D01*
X180790359Y-82380738D01*
X181048228Y-82460280D01*
X181315071Y-82500500D01*
X181584929Y-82500500D01*
X181851772Y-82460280D01*
X182109641Y-82380738D01*
X182352775Y-82263651D01*
X182575741Y-82111635D01*
X182773561Y-81928085D01*
X182941815Y-81717102D01*
X183076743Y-81483398D01*
X183175334Y-81232195D01*
X183235383Y-80969103D01*
X183255549Y-80700000D01*
X183235383Y-80430897D01*
X183175334Y-80167805D01*
X183076743Y-79916602D01*
X182941815Y-79682898D01*
X182773561Y-79471915D01*
X182722947Y-79424952D01*
X182575743Y-79288366D01*
X182493173Y-79232071D01*
X182352775Y-79136349D01*
X182109641Y-79019262D01*
X182030098Y-78994726D01*
X181851771Y-78939719D01*
X181584929Y-78899500D01*
X181315071Y-78899500D01*
X181048228Y-78939719D01*
X180790359Y-79019262D01*
X180547228Y-79136347D01*
X180324257Y-79288366D01*
X180126439Y-79471915D01*
X179958184Y-79682899D01*
X179823257Y-79916601D01*
X179724666Y-80167804D01*
X179664616Y-80430899D01*
X179644450Y-80699999D01*
X178150500Y-80699999D01*
X178150500Y-80041518D01*
X178170185Y-79974479D01*
X178186814Y-79953842D01*
X180714262Y-77426393D01*
X180775583Y-77392910D01*
X180838490Y-77395585D01*
X180938375Y-77426395D01*
X181048228Y-77460280D01*
X181315071Y-77500500D01*
X181584929Y-77500500D01*
X181851772Y-77460280D01*
X182109641Y-77380738D01*
X182352775Y-77263651D01*
X182575741Y-77111635D01*
X182773561Y-76928085D01*
X182941815Y-76717102D01*
X183076743Y-76483398D01*
X183175334Y-76232195D01*
X183235383Y-75969103D01*
X183255549Y-75700000D01*
X183235383Y-75430897D01*
X183175334Y-75167805D01*
X183076743Y-74916602D01*
X182941815Y-74682898D01*
X182773561Y-74471915D01*
X182759660Y-74459017D01*
X182575743Y-74288366D01*
X182494987Y-74233308D01*
X182352775Y-74136349D01*
X182109641Y-74019262D01*
X182030097Y-73994726D01*
X181851771Y-73939719D01*
X181584929Y-73899500D01*
X181315071Y-73899500D01*
X181048228Y-73939719D01*
X180790359Y-74019262D01*
X180547228Y-74136347D01*
X180324257Y-74288366D01*
X180126439Y-74471915D01*
X179958184Y-74682899D01*
X179823257Y-74916601D01*
X179724666Y-75167804D01*
X179664616Y-75430899D01*
X179644450Y-75700000D01*
X179664616Y-75969100D01*
X179695360Y-76103796D01*
X179724666Y-76232195D01*
X179749777Y-76296177D01*
X179752075Y-76302031D01*
X179758243Y-76371628D01*
X179725805Y-76433512D01*
X179724327Y-76435014D01*
X176972290Y-79187051D01*
X176966838Y-79192183D01*
X176921816Y-79232070D01*
X176887649Y-79281568D01*
X176883213Y-79287598D01*
X176847111Y-79333680D01*
X176790271Y-79374313D01*
X176720487Y-79377766D01*
X176659914Y-79342943D01*
X176627783Y-79280900D01*
X176625499Y-79257215D01*
X176625499Y-76566514D01*
X176645184Y-76499479D01*
X176661809Y-76478847D01*
X180714262Y-72426393D01*
X180775583Y-72392910D01*
X180838490Y-72395585D01*
X180945057Y-72428456D01*
X181048228Y-72460280D01*
X181315071Y-72500500D01*
X181584929Y-72500500D01*
X181851772Y-72460280D01*
X182109641Y-72380738D01*
X182352775Y-72263651D01*
X182575741Y-72111635D01*
X182773561Y-71928085D01*
X182941815Y-71717102D01*
X183076743Y-71483398D01*
X183175334Y-71232195D01*
X183235383Y-70969103D01*
X183255549Y-70700000D01*
X183255500Y-70699352D01*
X183235383Y-70430899D01*
X183233651Y-70423310D01*
X183175334Y-70167805D01*
X183076743Y-69916602D01*
X182941815Y-69682898D01*
X182773561Y-69471915D01*
X182773560Y-69471914D01*
X182575743Y-69288366D01*
X182518205Y-69249137D01*
X182352775Y-69136349D01*
X182109641Y-69019262D01*
X182015285Y-68990157D01*
X181851771Y-68939719D01*
X181584929Y-68899500D01*
X181315071Y-68899500D01*
X181048228Y-68939719D01*
X180790359Y-69019262D01*
X180547228Y-69136347D01*
X180324257Y-69288366D01*
X180126439Y-69471915D01*
X179958184Y-69682899D01*
X179823257Y-69916601D01*
X179724666Y-70167804D01*
X179664616Y-70430899D01*
X179644450Y-70699999D01*
X179664616Y-70969100D01*
X179724665Y-71232191D01*
X179724666Y-71232195D01*
X179732511Y-71252183D01*
X179752075Y-71302031D01*
X179758243Y-71371628D01*
X179725805Y-71433512D01*
X179724327Y-71435014D01*
X175912181Y-75247161D01*
X175850858Y-75280646D01*
X175781166Y-75275662D01*
X175725233Y-75233790D01*
X175700816Y-75168326D01*
X175700500Y-75159480D01*
X175700500Y-74752178D01*
X175720185Y-74685139D01*
X175736815Y-74664501D01*
X176367231Y-74034084D01*
X176372650Y-74028983D01*
X176417683Y-73989089D01*
X176451855Y-73939580D01*
X176456275Y-73933573D01*
X176493378Y-73886217D01*
X176497535Y-73876979D01*
X176508560Y-73857430D01*
X176514318Y-73849090D01*
X176535650Y-73792838D01*
X176538499Y-73785960D01*
X176563195Y-73731091D01*
X176565022Y-73721116D01*
X176571049Y-73699499D01*
X176574640Y-73690032D01*
X176581887Y-73630339D01*
X176583014Y-73622937D01*
X176593858Y-73563766D01*
X176590226Y-73503726D01*
X176590000Y-73496239D01*
X176590000Y-65699999D01*
X179644450Y-65699999D01*
X179664616Y-65969100D01*
X179664617Y-65969103D01*
X179724666Y-66232195D01*
X179823257Y-66483398D01*
X179958185Y-66717102D01*
X180126439Y-66928085D01*
X180324259Y-67111635D01*
X180547226Y-67263651D01*
X180790359Y-67380738D01*
X181048228Y-67460280D01*
X181315071Y-67500500D01*
X181584929Y-67500500D01*
X181851772Y-67460280D01*
X182109641Y-67380738D01*
X182352775Y-67263651D01*
X182575741Y-67111635D01*
X182773561Y-66928085D01*
X182941815Y-66717102D01*
X183076743Y-66483398D01*
X183175334Y-66232195D01*
X183235383Y-65969103D01*
X183255549Y-65700000D01*
X183235383Y-65430897D01*
X183175334Y-65167805D01*
X183076743Y-64916602D01*
X182941815Y-64682898D01*
X182773561Y-64471915D01*
X182773560Y-64471914D01*
X182575743Y-64288366D01*
X182518205Y-64249137D01*
X182352775Y-64136349D01*
X182109641Y-64019262D01*
X182030098Y-63994726D01*
X181851771Y-63939719D01*
X181584929Y-63899500D01*
X181315071Y-63899500D01*
X181048228Y-63939719D01*
X180790359Y-64019262D01*
X180547228Y-64136347D01*
X180324257Y-64288366D01*
X180126439Y-64471915D01*
X179958184Y-64682899D01*
X179823257Y-64916601D01*
X179724666Y-65167804D01*
X179664616Y-65430899D01*
X179644450Y-65699999D01*
X176590000Y-65699999D01*
X176590000Y-60365391D01*
X176609685Y-60298352D01*
X176621854Y-60282415D01*
X176621887Y-60282377D01*
X176622033Y-60282216D01*
X176716679Y-60118284D01*
X176775174Y-59938256D01*
X176794960Y-59750000D01*
X176775174Y-59561744D01*
X176733783Y-59434357D01*
X176716679Y-59381715D01*
X176622033Y-59217783D01*
X176495370Y-59077110D01*
X176342230Y-58965848D01*
X176169302Y-58888855D01*
X175984148Y-58849500D01*
X175984146Y-58849500D01*
X175794854Y-58849500D01*
X175794850Y-58849500D01*
X175790276Y-58850472D01*
X175720609Y-58845154D01*
X175664877Y-58803014D01*
X175640775Y-58737433D01*
X175640500Y-58729181D01*
X175640500Y-58413649D01*
X175640726Y-58406162D01*
X175643448Y-58361161D01*
X175644358Y-58346124D01*
X175633507Y-58286915D01*
X175632390Y-58279571D01*
X175625140Y-58219858D01*
X175621547Y-58210386D01*
X175615522Y-58188774D01*
X175613695Y-58178799D01*
X175589009Y-58123950D01*
X175586152Y-58117056D01*
X175564818Y-58060800D01*
X175559053Y-58052449D01*
X175548036Y-58032913D01*
X175543878Y-58023674D01*
X175506788Y-57976333D01*
X175502352Y-57970304D01*
X175468183Y-57920801D01*
X175423145Y-57880901D01*
X175417707Y-57875781D01*
X174416261Y-56874335D01*
X179449500Y-56874335D01*
X179460603Y-56940874D01*
X179490429Y-57119615D01*
X179570169Y-57351889D01*
X179571172Y-57354810D01*
X179689526Y-57573509D01*
X179689529Y-57573514D01*
X179814894Y-57734582D01*
X179842262Y-57769744D01*
X180025215Y-57938164D01*
X180212926Y-58060801D01*
X180233395Y-58074174D01*
X180255833Y-58084016D01*
X180461119Y-58174063D01*
X180702179Y-58235108D01*
X180887933Y-58250500D01*
X180890503Y-58250500D01*
X181009497Y-58250500D01*
X181012067Y-58250500D01*
X181197821Y-58235108D01*
X181438881Y-58174063D01*
X181666607Y-58074173D01*
X181874785Y-57938164D01*
X182057738Y-57769744D01*
X182210474Y-57573509D01*
X182328828Y-57354810D01*
X182409571Y-57119614D01*
X182450500Y-56874335D01*
X182450500Y-56625665D01*
X182409571Y-56380386D01*
X182328828Y-56145190D01*
X182210474Y-55926491D01*
X182210471Y-55926487D01*
X182210470Y-55926485D01*
X182073813Y-55750909D01*
X182057738Y-55730256D01*
X181874785Y-55561836D01*
X181666607Y-55425827D01*
X181666604Y-55425825D01*
X181498957Y-55352289D01*
X181438881Y-55325937D01*
X181258866Y-55280351D01*
X181197822Y-55264892D01*
X181163854Y-55262077D01*
X181012067Y-55249500D01*
X180887933Y-55249500D01*
X180770111Y-55259262D01*
X180702177Y-55264892D01*
X180580087Y-55295810D01*
X180461119Y-55325937D01*
X180461116Y-55325938D01*
X180461117Y-55325938D01*
X180233395Y-55425825D01*
X180094607Y-55516499D01*
X180025215Y-55561836D01*
X179858835Y-55715000D01*
X179842259Y-55730259D01*
X179689529Y-55926485D01*
X179618513Y-56057710D01*
X179575325Y-56137517D01*
X179571170Y-56145194D01*
X179490429Y-56380384D01*
X179470773Y-56498178D01*
X179449500Y-56625665D01*
X179449500Y-56874335D01*
X174416261Y-56874335D01*
X172014210Y-54472283D01*
X172009091Y-54466846D01*
X171969199Y-54421817D01*
X171968725Y-54421490D01*
X171919706Y-54387654D01*
X171913675Y-54383216D01*
X171866324Y-54346120D01*
X171857083Y-54341961D01*
X171837543Y-54330941D01*
X171829200Y-54325182D01*
X171829197Y-54325181D01*
X171829196Y-54325180D01*
X171772971Y-54303856D01*
X171766053Y-54300991D01*
X171711199Y-54276303D01*
X171701222Y-54274475D01*
X171679609Y-54268450D01*
X171670143Y-54264860D01*
X171610442Y-54257610D01*
X171603041Y-54256483D01*
X171543877Y-54245641D01*
X171483836Y-54249274D01*
X171476349Y-54249500D01*
X162914921Y-54249500D01*
X162907434Y-54249274D01*
X162847391Y-54245641D01*
X162788227Y-54256483D01*
X162780828Y-54257610D01*
X162721124Y-54264860D01*
X162711651Y-54268453D01*
X162690047Y-54274476D01*
X162680069Y-54276305D01*
X162625225Y-54300987D01*
X162618310Y-54303851D01*
X162562070Y-54325181D01*
X162553723Y-54330943D01*
X162534187Y-54341961D01*
X162524946Y-54346120D01*
X162477609Y-54383206D01*
X162471579Y-54387643D01*
X162422070Y-54421817D01*
X162382177Y-54466846D01*
X162377044Y-54472298D01*
X160972961Y-55876380D01*
X160911638Y-55909865D01*
X160864871Y-55911008D01*
X160676049Y-55879500D01*
X160443951Y-55879500D01*
X160398164Y-55887140D01*
X160215015Y-55917702D01*
X159995501Y-55993062D01*
X159995497Y-55993063D01*
X159995497Y-55993064D01*
X159977749Y-56002669D01*
X159791372Y-56103531D01*
X159608215Y-56246087D01*
X159451018Y-56416849D01*
X159393808Y-56504417D01*
X159340662Y-56549773D01*
X159271431Y-56559197D01*
X159208095Y-56529695D01*
X159186192Y-56504417D01*
X159128981Y-56416849D01*
X158971784Y-56246087D01*
X158870336Y-56167127D01*
X158788626Y-56103530D01*
X158584503Y-55993064D01*
X158584499Y-55993062D01*
X158584498Y-55993062D01*
X158364984Y-55917702D01*
X158183715Y-55887454D01*
X158136049Y-55879500D01*
X157903951Y-55879500D01*
X157715127Y-55911008D01*
X157645762Y-55902626D01*
X157607037Y-55876380D01*
X157082940Y-55352283D01*
X157077822Y-55346847D01*
X157037929Y-55301817D01*
X156988432Y-55267651D01*
X156982405Y-55263216D01*
X156935054Y-55226120D01*
X156925813Y-55221961D01*
X156906273Y-55210941D01*
X156897930Y-55205182D01*
X156897927Y-55205181D01*
X156897926Y-55205180D01*
X156841701Y-55183856D01*
X156834783Y-55180991D01*
X156779929Y-55156303D01*
X156769952Y-55154475D01*
X156748339Y-55148450D01*
X156738873Y-55144860D01*
X156679172Y-55137610D01*
X156671771Y-55136483D01*
X156612607Y-55125641D01*
X156552566Y-55129274D01*
X156545079Y-55129500D01*
X144914921Y-55129500D01*
X144907434Y-55129274D01*
X144847391Y-55125641D01*
X144788227Y-55136483D01*
X144780828Y-55137610D01*
X144721124Y-55144860D01*
X144711651Y-55148453D01*
X144690047Y-55154476D01*
X144680069Y-55156305D01*
X144625225Y-55180987D01*
X144618310Y-55183851D01*
X144562070Y-55205181D01*
X144553723Y-55210943D01*
X144534187Y-55221961D01*
X144524944Y-55226121D01*
X144477608Y-55263205D01*
X144471582Y-55267639D01*
X144422072Y-55301816D01*
X144382184Y-55346838D01*
X144377052Y-55352289D01*
X144051160Y-55678181D01*
X143989837Y-55711666D01*
X143963479Y-55714500D01*
X141860439Y-55714500D01*
X141860420Y-55714500D01*
X141857128Y-55714501D01*
X141853848Y-55714853D01*
X141853840Y-55714854D01*
X141797515Y-55720909D01*
X141662669Y-55771204D01*
X141547454Y-55857454D01*
X141461204Y-55972668D01*
X141410909Y-56107516D01*
X141406859Y-56145190D01*
X141404500Y-56167127D01*
X141404500Y-56170448D01*
X141404500Y-56170449D01*
X141404500Y-58273480D01*
X141384815Y-58340519D01*
X141368181Y-58361161D01*
X139416162Y-60313181D01*
X139354839Y-60346666D01*
X139328481Y-60349500D01*
X131741519Y-60349500D01*
X131674480Y-60329815D01*
X131653838Y-60313181D01*
X130897837Y-59557180D01*
X130864352Y-59495857D01*
X130869336Y-59426165D01*
X130911208Y-59370232D01*
X130976672Y-59345815D01*
X130985518Y-59345499D01*
X131289561Y-59345499D01*
X131292872Y-59345499D01*
X131352483Y-59339091D01*
X131487331Y-59288796D01*
X131602546Y-59202546D01*
X131688796Y-59087331D01*
X131739091Y-58952483D01*
X131745500Y-58892873D01*
X131745499Y-57515000D01*
X136319952Y-57515000D01*
X136340113Y-57784026D01*
X136400146Y-58047049D01*
X136498708Y-58298178D01*
X136633598Y-58531816D01*
X136687295Y-58599150D01*
X137522452Y-57763993D01*
X137532188Y-57793956D01*
X137620186Y-57932619D01*
X137739903Y-58045040D01*
X137874510Y-58119041D01*
X137039848Y-58953702D01*
X137222479Y-59078217D01*
X137465542Y-59195270D01*
X137723339Y-59274791D01*
X137990109Y-59315000D01*
X138259891Y-59315000D01*
X138526660Y-59274791D01*
X138784460Y-59195270D01*
X139027523Y-59078217D01*
X139210150Y-58953702D01*
X138372534Y-58116086D01*
X138440629Y-58089126D01*
X138573492Y-57992595D01*
X138678175Y-57866055D01*
X138726631Y-57763079D01*
X139562703Y-58599151D01*
X139562704Y-58599150D01*
X139616400Y-58531818D01*
X139751291Y-58298178D01*
X139849853Y-58047049D01*
X139909886Y-57784026D01*
X139930047Y-57515000D01*
X139909886Y-57245973D01*
X139849853Y-56982950D01*
X139751291Y-56731821D01*
X139616398Y-56498178D01*
X139562704Y-56430847D01*
X138727546Y-57266004D01*
X138717812Y-57236044D01*
X138629814Y-57097381D01*
X138510097Y-56984960D01*
X138375487Y-56910957D01*
X139210150Y-56076296D01*
X139027519Y-55951780D01*
X138784460Y-55834729D01*
X138526660Y-55755208D01*
X138259891Y-55715000D01*
X137990109Y-55715000D01*
X137723339Y-55755208D01*
X137465542Y-55834729D01*
X137222476Y-55951783D01*
X137039848Y-56076296D01*
X137877465Y-56913913D01*
X137809371Y-56940874D01*
X137676508Y-57037405D01*
X137571825Y-57163945D01*
X137523368Y-57266920D01*
X136687295Y-56430848D01*
X136633598Y-56498182D01*
X136498708Y-56731821D01*
X136400146Y-56982950D01*
X136340113Y-57245973D01*
X136319952Y-57515000D01*
X131745499Y-57515000D01*
X131745499Y-56197128D01*
X131739091Y-56137517D01*
X131688796Y-56002669D01*
X131602546Y-55887454D01*
X131487331Y-55801204D01*
X131352483Y-55750909D01*
X131352483Y-55750908D01*
X131296166Y-55744854D01*
X131296165Y-55744853D01*
X131292873Y-55744500D01*
X131289550Y-55744500D01*
X128600439Y-55744500D01*
X128600420Y-55744500D01*
X128597128Y-55744501D01*
X128593848Y-55744853D01*
X128593840Y-55744854D01*
X128537515Y-55750909D01*
X128402669Y-55801204D01*
X128287454Y-55887454D01*
X128201204Y-56002668D01*
X128150909Y-56137516D01*
X128148080Y-56163833D01*
X128144500Y-56197127D01*
X128144500Y-56200448D01*
X128144500Y-56200449D01*
X128144500Y-58889560D01*
X128144500Y-58889578D01*
X128144501Y-58892872D01*
X128144853Y-58896152D01*
X128144854Y-58896159D01*
X128150909Y-58952484D01*
X128155894Y-58965848D01*
X128201204Y-59087331D01*
X128287454Y-59202546D01*
X128402669Y-59288796D01*
X128537517Y-59339091D01*
X128597127Y-59345500D01*
X129120500Y-59345499D01*
X129187539Y-59365183D01*
X129233294Y-59417987D01*
X129244500Y-59469499D01*
X129244500Y-59570079D01*
X129244274Y-59577566D01*
X129240641Y-59637607D01*
X129251483Y-59696771D01*
X129252610Y-59704172D01*
X129259860Y-59763873D01*
X129263450Y-59773339D01*
X129269475Y-59794952D01*
X129271303Y-59804929D01*
X129295991Y-59859783D01*
X129298856Y-59866701D01*
X129320180Y-59922926D01*
X129320182Y-59922930D01*
X129325941Y-59931273D01*
X129336961Y-59950813D01*
X129341120Y-59960054D01*
X129378216Y-60007405D01*
X129382651Y-60013432D01*
X129416817Y-60062929D01*
X129461847Y-60102822D01*
X129467283Y-60107940D01*
X130887058Y-61527715D01*
X130892178Y-61533153D01*
X130932071Y-61578183D01*
X130977723Y-61609695D01*
X130981573Y-61612352D01*
X130987591Y-61616780D01*
X131034944Y-61653878D01*
X131044180Y-61658034D01*
X131063731Y-61669062D01*
X131072066Y-61674816D01*
X131072068Y-61674816D01*
X131072070Y-61674818D01*
X131128326Y-61696152D01*
X131135220Y-61699009D01*
X131190069Y-61723695D01*
X131200044Y-61725522D01*
X131221656Y-61731547D01*
X131231128Y-61735140D01*
X131290841Y-61742390D01*
X131298185Y-61743507D01*
X131357394Y-61754358D01*
X131414102Y-61750927D01*
X131417434Y-61750726D01*
X131424921Y-61750500D01*
X139645079Y-61750500D01*
X139652566Y-61750726D01*
X139655706Y-61750915D01*
X139712606Y-61754358D01*
X139771782Y-61743513D01*
X139779181Y-61742387D01*
X139838872Y-61735140D01*
X139848335Y-61731550D01*
X139869958Y-61725522D01*
X139879932Y-61723695D01*
X139934808Y-61698996D01*
X139941673Y-61696152D01*
X139997930Y-61674818D01*
X140006270Y-61669060D01*
X140025819Y-61658035D01*
X140035057Y-61653878D01*
X140082413Y-61616775D01*
X140088426Y-61612352D01*
X140137929Y-61578183D01*
X140177823Y-61533150D01*
X140182924Y-61527731D01*
X142358838Y-59351818D01*
X142420161Y-59318333D01*
X142446519Y-59315499D01*
X144549561Y-59315499D01*
X144552872Y-59315499D01*
X144612483Y-59309091D01*
X144747331Y-59258796D01*
X144862546Y-59172546D01*
X144948796Y-59057331D01*
X144999091Y-58922483D01*
X145005500Y-58862873D01*
X145005499Y-56756518D01*
X145025184Y-56689480D01*
X145041812Y-56668843D01*
X145143839Y-56566817D01*
X145205161Y-56533334D01*
X145231519Y-56530500D01*
X154089657Y-56530500D01*
X154156696Y-56550185D01*
X154202451Y-56602989D01*
X154212395Y-56672147D01*
X154203214Y-56704304D01*
X154177986Y-56761821D01*
X154150843Y-56823699D01*
X154138020Y-56874335D01*
X154095763Y-57041206D01*
X154093865Y-57048700D01*
X154074699Y-57279999D01*
X154093865Y-57511299D01*
X154093865Y-57511301D01*
X154093866Y-57511305D01*
X154146454Y-57718967D01*
X154150844Y-57736303D01*
X154207759Y-57866055D01*
X154244076Y-57948849D01*
X154371021Y-58143153D01*
X154528216Y-58313913D01*
X154711374Y-58456470D01*
X154915497Y-58566936D01*
X155009333Y-58599150D01*
X155135015Y-58642297D01*
X155135017Y-58642297D01*
X155135019Y-58642298D01*
X155363951Y-58680500D01*
X155363952Y-58680500D01*
X155596048Y-58680500D01*
X155596049Y-58680500D01*
X155824981Y-58642298D01*
X156044503Y-58566936D01*
X156248626Y-58456470D01*
X156431784Y-58313913D01*
X156588979Y-58143153D01*
X156646191Y-58055582D01*
X156699337Y-58010226D01*
X156768569Y-58000802D01*
X156831905Y-58030304D01*
X156853807Y-58055581D01*
X156911021Y-58143153D01*
X157068216Y-58313913D01*
X157251374Y-58456470D01*
X157455497Y-58566936D01*
X157549333Y-58599150D01*
X157675015Y-58642297D01*
X157675017Y-58642297D01*
X157675019Y-58642298D01*
X157903951Y-58680500D01*
X157903952Y-58680500D01*
X158136047Y-58680500D01*
X158136049Y-58680500D01*
X158324874Y-58648990D01*
X158394235Y-58657372D01*
X158432961Y-58683618D01*
X158957058Y-59207715D01*
X158962178Y-59213153D01*
X159002071Y-59258183D01*
X159002072Y-59258184D01*
X159002959Y-59258796D01*
X159046419Y-59288795D01*
X159051573Y-59292352D01*
X159057591Y-59296780D01*
X159104944Y-59333878D01*
X159114180Y-59338034D01*
X159133731Y-59349062D01*
X159142066Y-59354816D01*
X159142068Y-59354816D01*
X159142070Y-59354818D01*
X159198326Y-59376152D01*
X159205220Y-59379009D01*
X159260069Y-59403695D01*
X159270044Y-59405522D01*
X159291656Y-59411547D01*
X159301128Y-59415140D01*
X159360841Y-59422390D01*
X159368185Y-59423507D01*
X159427394Y-59434358D01*
X159484102Y-59430927D01*
X159487434Y-59430726D01*
X159494921Y-59430500D01*
X160398481Y-59430500D01*
X160465520Y-59450185D01*
X160486162Y-59466819D01*
X161770622Y-60751279D01*
X161804107Y-60812602D01*
X161799123Y-60882294D01*
X161757251Y-60938227D01*
X161703351Y-60961268D01*
X161667262Y-60967291D01*
X161485015Y-60997702D01*
X161265501Y-61073062D01*
X161061372Y-61183531D01*
X160878215Y-61326087D01*
X160721018Y-61496849D01*
X160663808Y-61584417D01*
X160610662Y-61629773D01*
X160541431Y-61639197D01*
X160478095Y-61609695D01*
X160456192Y-61584417D01*
X160398981Y-61496849D01*
X160241784Y-61326087D01*
X160102488Y-61217669D01*
X160058626Y-61183530D01*
X159854503Y-61073064D01*
X159854499Y-61073062D01*
X159854498Y-61073062D01*
X159634984Y-60997702D01*
X159444456Y-60965909D01*
X159406049Y-60959500D01*
X159173951Y-60959500D01*
X159135544Y-60965909D01*
X158945015Y-60997702D01*
X158725501Y-61073062D01*
X158521372Y-61183531D01*
X158338215Y-61326087D01*
X158181018Y-61496849D01*
X158123808Y-61584417D01*
X158070662Y-61629773D01*
X158001431Y-61639197D01*
X157938095Y-61609695D01*
X157916192Y-61584417D01*
X157858981Y-61496849D01*
X157701784Y-61326087D01*
X157562488Y-61217669D01*
X157518626Y-61183530D01*
X157314503Y-61073064D01*
X157314499Y-61073062D01*
X157314498Y-61073062D01*
X157094984Y-60997702D01*
X156904456Y-60965909D01*
X156866049Y-60959500D01*
X156633951Y-60959500D01*
X156595544Y-60965909D01*
X156405015Y-60997702D01*
X156185501Y-61073062D01*
X155981372Y-61183531D01*
X155798213Y-61326089D01*
X155789863Y-61335160D01*
X155729975Y-61371148D01*
X155660137Y-61369046D01*
X155602522Y-61329520D01*
X155582455Y-61294510D01*
X155553796Y-61217669D01*
X155467546Y-61102454D01*
X155352331Y-61016204D01*
X155217483Y-60965909D01*
X155217483Y-60965908D01*
X155161166Y-60959854D01*
X155161165Y-60959853D01*
X155157873Y-60959500D01*
X155154550Y-60959500D01*
X153265439Y-60959500D01*
X153265420Y-60959500D01*
X153262128Y-60959501D01*
X153258848Y-60959853D01*
X153258840Y-60959854D01*
X153202515Y-60965909D01*
X153067669Y-61016204D01*
X152952454Y-61102454D01*
X152866204Y-61217668D01*
X152822383Y-61335160D01*
X152815909Y-61352517D01*
X152809500Y-61412127D01*
X152809500Y-61415448D01*
X152809500Y-61415449D01*
X152809500Y-61535500D01*
X152789815Y-61602539D01*
X152737011Y-61648294D01*
X152685500Y-61659500D01*
X148164921Y-61659500D01*
X148157434Y-61659274D01*
X148082367Y-61654733D01*
X148082459Y-61653197D01*
X148060585Y-61652888D01*
X148044646Y-61649500D01*
X147855354Y-61649500D01*
X147855352Y-61649500D01*
X147670197Y-61688855D01*
X147497269Y-61765848D01*
X147344129Y-61877110D01*
X147217466Y-62017783D01*
X147122820Y-62181715D01*
X147064326Y-62361742D01*
X147044540Y-62549999D01*
X147064326Y-62738257D01*
X147122820Y-62918284D01*
X147217466Y-63082216D01*
X147344129Y-63222889D01*
X147497269Y-63334151D01*
X147670197Y-63411144D01*
X147855352Y-63450500D01*
X147855354Y-63450500D01*
X148044648Y-63450500D01*
X148168083Y-63424262D01*
X148229803Y-63411144D01*
X148402730Y-63334151D01*
X148443459Y-63304560D01*
X148555870Y-63222889D01*
X148590436Y-63184500D01*
X148665144Y-63101527D01*
X148724631Y-63064879D01*
X148757294Y-63060500D01*
X152685501Y-63060500D01*
X152752540Y-63080185D01*
X152798295Y-63132989D01*
X152809501Y-63184500D01*
X152809501Y-63307872D01*
X152815909Y-63367483D01*
X152866204Y-63502331D01*
X152952454Y-63617546D01*
X153067669Y-63703796D01*
X153202517Y-63754091D01*
X153262127Y-63760500D01*
X155157872Y-63760499D01*
X155217483Y-63754091D01*
X155352331Y-63703796D01*
X155467546Y-63617546D01*
X155553796Y-63502331D01*
X155582455Y-63425491D01*
X155624325Y-63369559D01*
X155689789Y-63345141D01*
X155758062Y-63359992D01*
X155789864Y-63384840D01*
X155798216Y-63393913D01*
X155981374Y-63536470D01*
X156185497Y-63646936D01*
X156211696Y-63655930D01*
X156405015Y-63722297D01*
X156405017Y-63722297D01*
X156405019Y-63722298D01*
X156633951Y-63760500D01*
X156633952Y-63760500D01*
X156866048Y-63760500D01*
X156866049Y-63760500D01*
X157094981Y-63722298D01*
X157314503Y-63646936D01*
X157518626Y-63536470D01*
X157701784Y-63393913D01*
X157858979Y-63223153D01*
X157916192Y-63135580D01*
X157969336Y-63090226D01*
X158038567Y-63080802D01*
X158101903Y-63110303D01*
X158123807Y-63135582D01*
X158181018Y-63223149D01*
X158181021Y-63223153D01*
X158338216Y-63393913D01*
X158521374Y-63536470D01*
X158725497Y-63646936D01*
X158751696Y-63655930D01*
X158945015Y-63722297D01*
X158945017Y-63722297D01*
X158945019Y-63722298D01*
X159173951Y-63760500D01*
X159173952Y-63760500D01*
X159406048Y-63760500D01*
X159406049Y-63760500D01*
X159634981Y-63722298D01*
X159854503Y-63646936D01*
X160058626Y-63536470D01*
X160241784Y-63393913D01*
X160398979Y-63223153D01*
X160456191Y-63135582D01*
X160509337Y-63090226D01*
X160578569Y-63080802D01*
X160641905Y-63110304D01*
X160663807Y-63135581D01*
X160721021Y-63223153D01*
X160878216Y-63393913D01*
X161061374Y-63536470D01*
X161265497Y-63646936D01*
X161291696Y-63655930D01*
X161485015Y-63722297D01*
X161485017Y-63722297D01*
X161485019Y-63722298D01*
X161713951Y-63760500D01*
X161713952Y-63760500D01*
X161946048Y-63760500D01*
X161946049Y-63760500D01*
X162174981Y-63722298D01*
X162394503Y-63646936D01*
X162598626Y-63536470D01*
X162781784Y-63393913D01*
X162938979Y-63223153D01*
X162996191Y-63135582D01*
X163049337Y-63090226D01*
X163118569Y-63080802D01*
X163181905Y-63110304D01*
X163203807Y-63135581D01*
X163261021Y-63223153D01*
X163418216Y-63393913D01*
X163601374Y-63536470D01*
X163604512Y-63538168D01*
X163607987Y-63541617D01*
X163609483Y-63542781D01*
X163609342Y-63542961D01*
X163654105Y-63587383D01*
X163669500Y-63647225D01*
X163669500Y-69768480D01*
X163649815Y-69835519D01*
X163633181Y-69856161D01*
X163146607Y-70342734D01*
X163085284Y-70376219D01*
X163015592Y-70371235D01*
X162959659Y-70329363D01*
X162939151Y-70287147D01*
X162926391Y-70239526D01*
X162916739Y-70203504D01*
X162820568Y-69997266D01*
X162764087Y-69916601D01*
X162690046Y-69810859D01*
X162529140Y-69649953D01*
X162342735Y-69519432D01*
X162136493Y-69423259D01*
X162082405Y-69408766D01*
X162022745Y-69372401D01*
X161992217Y-69309554D01*
X161990500Y-69288992D01*
X161990500Y-66321737D01*
X162001236Y-66281682D01*
X161998151Y-66280680D01*
X162013905Y-66232195D01*
X162060674Y-66088256D01*
X162080460Y-65900000D01*
X162060674Y-65711744D01*
X162002179Y-65531716D01*
X162002179Y-65531715D01*
X161907533Y-65367783D01*
X161780870Y-65227110D01*
X161627730Y-65115848D01*
X161454802Y-65038855D01*
X161269648Y-64999500D01*
X161269646Y-64999500D01*
X161080354Y-64999500D01*
X161080352Y-64999500D01*
X160895197Y-65038855D01*
X160722269Y-65115848D01*
X160569129Y-65227110D01*
X160442466Y-65367783D01*
X160347820Y-65531715D01*
X160289326Y-65711742D01*
X160269540Y-65899999D01*
X160289326Y-66088257D01*
X160347820Y-66268284D01*
X160442464Y-66432213D01*
X160442467Y-66432216D01*
X160557651Y-66560140D01*
X160587880Y-66623130D01*
X160589500Y-66643111D01*
X160589500Y-69288992D01*
X160569815Y-69356031D01*
X160517011Y-69401786D01*
X160497595Y-69408766D01*
X160443506Y-69423259D01*
X160237264Y-69519432D01*
X160050859Y-69649953D01*
X159889953Y-69810859D01*
X159759432Y-69997264D01*
X159663261Y-70203502D01*
X159604364Y-70423310D01*
X159584531Y-70650000D01*
X159604364Y-70876689D01*
X159663261Y-71096497D01*
X159759432Y-71302735D01*
X159889953Y-71489140D01*
X160050859Y-71650046D01*
X160190498Y-71747821D01*
X160237266Y-71780568D01*
X160295275Y-71807618D01*
X160347714Y-71853791D01*
X160366865Y-71920985D01*
X160346649Y-71987866D01*
X160295275Y-72032382D01*
X160237263Y-72059433D01*
X160050859Y-72189953D01*
X159889953Y-72350859D01*
X159829902Y-72436623D01*
X159775326Y-72480248D01*
X159728327Y-72489500D01*
X157406519Y-72489500D01*
X157339480Y-72469815D01*
X157318838Y-72453181D01*
X154696028Y-69830371D01*
X154662543Y-69769048D01*
X154660181Y-69731882D01*
X154680468Y-69499999D01*
X154670332Y-69384141D01*
X154660635Y-69273308D01*
X154601739Y-69053504D01*
X154505568Y-68847266D01*
X154488191Y-68822448D01*
X154375046Y-68660859D01*
X154214140Y-68499953D01*
X154027735Y-68369432D01*
X153821497Y-68273261D01*
X153601689Y-68214364D01*
X153375000Y-68194531D01*
X153148310Y-68214364D01*
X152928502Y-68273261D01*
X152722264Y-68369432D01*
X152535859Y-68499953D01*
X152374953Y-68660859D01*
X152314902Y-68746623D01*
X152260326Y-68790248D01*
X152213327Y-68799500D01*
X141636910Y-68799500D01*
X141629423Y-68799274D01*
X141569391Y-68795642D01*
X141510242Y-68806481D01*
X141502843Y-68807608D01*
X141443122Y-68814860D01*
X141433641Y-68818456D01*
X141412036Y-68824479D01*
X141402069Y-68826305D01*
X141347234Y-68850984D01*
X141340318Y-68853848D01*
X141284069Y-68875181D01*
X141275725Y-68880941D01*
X141256183Y-68891963D01*
X141246944Y-68896121D01*
X141199594Y-68933216D01*
X141193566Y-68937652D01*
X141144067Y-68971819D01*
X141104183Y-69016838D01*
X141099051Y-69022290D01*
X137398161Y-72723181D01*
X137336838Y-72756666D01*
X137310480Y-72759500D01*
X135993519Y-72759500D01*
X135926480Y-72739815D01*
X135905838Y-72723181D01*
X135814940Y-72632283D01*
X135809822Y-72626847D01*
X135769929Y-72581817D01*
X135720432Y-72547651D01*
X135714405Y-72543216D01*
X135667054Y-72506120D01*
X135657813Y-72501961D01*
X135638273Y-72490941D01*
X135629930Y-72485182D01*
X135629927Y-72485181D01*
X135629926Y-72485180D01*
X135573701Y-72463856D01*
X135566783Y-72460991D01*
X135511929Y-72436303D01*
X135501952Y-72434475D01*
X135480339Y-72428450D01*
X135470873Y-72424860D01*
X135411172Y-72417610D01*
X135403771Y-72416483D01*
X135344607Y-72405641D01*
X135284566Y-72409274D01*
X135277079Y-72409500D01*
X125620910Y-72409500D01*
X125613423Y-72409274D01*
X125553391Y-72405642D01*
X125494242Y-72416481D01*
X125486843Y-72417608D01*
X125427122Y-72424860D01*
X125417641Y-72428456D01*
X125396036Y-72434479D01*
X125386069Y-72436305D01*
X125331234Y-72460984D01*
X125324318Y-72463848D01*
X125268069Y-72485181D01*
X125259725Y-72490941D01*
X125240183Y-72501963D01*
X125230944Y-72506121D01*
X125183594Y-72543216D01*
X125177566Y-72547652D01*
X125128067Y-72581819D01*
X125088183Y-72626838D01*
X125083051Y-72632290D01*
X124576370Y-73138971D01*
X124515047Y-73172456D01*
X124477882Y-73174818D01*
X124246000Y-73154531D01*
X124019310Y-73174364D01*
X123799502Y-73233261D01*
X123593264Y-73329432D01*
X123406859Y-73459953D01*
X123245953Y-73620859D01*
X123115432Y-73807264D01*
X123019261Y-74013502D01*
X122960364Y-74233310D01*
X122940531Y-74459999D01*
X122960364Y-74686689D01*
X123019261Y-74906497D01*
X123115432Y-75112735D01*
X123245953Y-75299140D01*
X123406859Y-75460046D01*
X123593264Y-75590567D01*
X123593265Y-75590567D01*
X123593266Y-75590568D01*
X123799504Y-75686739D01*
X124019308Y-75745635D01*
X124170435Y-75758856D01*
X124245999Y-75765468D01*
X124245999Y-75765467D01*
X124246000Y-75765468D01*
X124377641Y-75753950D01*
X124477882Y-75745181D01*
X124546382Y-75758948D01*
X124576371Y-75781028D01*
X126771181Y-77975837D01*
X126804666Y-78037160D01*
X126807500Y-78063518D01*
X126807500Y-88796016D01*
X126787815Y-88863055D01*
X126737303Y-88907736D01*
X126655366Y-88947195D01*
X126444781Y-89090769D01*
X126316703Y-89209608D01*
X126257950Y-89264123D01*
X126125631Y-89430046D01*
X126099038Y-89463392D01*
X125971608Y-89684108D01*
X125878492Y-89921362D01*
X125821777Y-90169845D01*
X125802731Y-90424000D01*
X125821777Y-90678154D01*
X125878492Y-90926637D01*
X125971608Y-91163891D01*
X126082040Y-91355165D01*
X126099041Y-91384612D01*
X126257950Y-91583877D01*
X126444783Y-91757232D01*
X126655366Y-91900805D01*
X126884996Y-92011389D01*
X127128542Y-92086513D01*
X127380565Y-92124500D01*
X127635435Y-92124500D01*
X127887458Y-92086513D01*
X128131004Y-92011389D01*
X128360634Y-91900805D01*
X128571217Y-91757232D01*
X128758050Y-91583877D01*
X128916959Y-91384612D01*
X129044393Y-91163888D01*
X129137508Y-90926637D01*
X129194222Y-90678157D01*
X129213268Y-90424000D01*
X129194222Y-90169843D01*
X129137508Y-89921363D01*
X129044393Y-89684112D01*
X129028589Y-89656739D01*
X128916961Y-89463392D01*
X128916959Y-89463388D01*
X128758050Y-89264123D01*
X128571217Y-89090768D01*
X128360634Y-88947195D01*
X128360633Y-88947194D01*
X128360631Y-88947193D01*
X128278697Y-88907736D01*
X128226837Y-88860913D01*
X128208500Y-88796019D01*
X128208500Y-83100000D01*
X144269540Y-83100000D01*
X144289326Y-83288257D01*
X144347820Y-83468284D01*
X144442466Y-83632216D01*
X144569129Y-83772889D01*
X144722269Y-83884151D01*
X144895197Y-83961144D01*
X145080352Y-84000500D01*
X145080354Y-84000500D01*
X145269648Y-84000500D01*
X145393083Y-83974262D01*
X145454803Y-83961144D01*
X145627730Y-83884151D01*
X145748376Y-83796497D01*
X145780870Y-83772889D01*
X145907533Y-83632216D01*
X146002179Y-83468284D01*
X146040612Y-83350000D01*
X146060674Y-83288256D01*
X146080460Y-83100000D01*
X146060674Y-82911744D01*
X146006860Y-82746122D01*
X146002179Y-82731715D01*
X145907532Y-82567783D01*
X145907345Y-82567575D01*
X145907013Y-82566884D01*
X145901017Y-82556498D01*
X145901810Y-82556040D01*
X145877119Y-82504582D01*
X145875500Y-82484608D01*
X145875500Y-77716518D01*
X145895185Y-77649479D01*
X145911819Y-77628837D01*
X148480656Y-75060000D01*
X149040656Y-74500000D01*
X152070033Y-74500000D01*
X152089858Y-74726602D01*
X152148733Y-74946326D01*
X152244866Y-75152484D01*
X152295972Y-75225471D01*
X152295974Y-75225472D01*
X152977046Y-74544399D01*
X152989835Y-74625148D01*
X153047359Y-74738045D01*
X153136955Y-74827641D01*
X153249852Y-74885165D01*
X153330599Y-74897953D01*
X152649526Y-75579025D01*
X152649526Y-75579026D01*
X152722515Y-75630133D01*
X152928673Y-75726266D01*
X153148397Y-75785141D01*
X153374999Y-75804966D01*
X153601602Y-75785141D01*
X153821326Y-75726266D01*
X154027480Y-75630134D01*
X154100472Y-75579025D01*
X153419401Y-74897953D01*
X153500148Y-74885165D01*
X153613045Y-74827641D01*
X153702641Y-74738045D01*
X153760165Y-74625148D01*
X153772953Y-74544400D01*
X154454025Y-75225472D01*
X154505134Y-75152480D01*
X154601266Y-74946326D01*
X154660141Y-74726602D01*
X154679966Y-74500000D01*
X154660141Y-74273397D01*
X154601266Y-74053673D01*
X154505133Y-73847515D01*
X154454025Y-73774526D01*
X153772953Y-74455598D01*
X153760165Y-74374852D01*
X153702641Y-74261955D01*
X153613045Y-74172359D01*
X153500148Y-74114835D01*
X153419400Y-74102046D01*
X154100472Y-73420974D01*
X154100471Y-73420972D01*
X154027484Y-73369866D01*
X153821326Y-73273733D01*
X153601602Y-73214858D01*
X153374999Y-73195033D01*
X153148397Y-73214858D01*
X152928672Y-73273733D01*
X152722516Y-73369865D01*
X152649527Y-73420973D01*
X152649526Y-73420973D01*
X153330600Y-74102046D01*
X153249852Y-74114835D01*
X153136955Y-74172359D01*
X153047359Y-74261955D01*
X152989835Y-74374852D01*
X152977046Y-74455599D01*
X152295973Y-73774526D01*
X152295973Y-73774527D01*
X152244865Y-73847516D01*
X152148733Y-74053672D01*
X152089858Y-74273397D01*
X152070033Y-74500000D01*
X149040656Y-74500000D01*
X151062974Y-72477682D01*
X151124295Y-72444199D01*
X151124818Y-72444086D01*
X151279803Y-72411144D01*
X151452730Y-72334151D01*
X151452730Y-72334150D01*
X151605870Y-72222889D01*
X151732533Y-72082216D01*
X151827179Y-71918284D01*
X151840678Y-71876739D01*
X151885674Y-71738256D01*
X151905460Y-71550000D01*
X151885674Y-71361744D01*
X151843581Y-71232195D01*
X151827179Y-71181715D01*
X151732533Y-71017783D01*
X151605870Y-70877110D01*
X151452730Y-70765848D01*
X151279802Y-70688855D01*
X151094648Y-70649500D01*
X151094646Y-70649500D01*
X150905354Y-70649500D01*
X150905352Y-70649500D01*
X150720197Y-70688855D01*
X150547269Y-70765848D01*
X150394129Y-70877110D01*
X150267466Y-71017783D01*
X150172820Y-71181715D01*
X150114325Y-71361746D01*
X150109134Y-71411129D01*
X150082549Y-71475743D01*
X150073495Y-71485846D01*
X144697290Y-76862051D01*
X144691838Y-76867183D01*
X144646816Y-76907070D01*
X144612649Y-76956568D01*
X144608213Y-76962597D01*
X144571121Y-77009942D01*
X144566961Y-77019186D01*
X144555941Y-77038725D01*
X144550182Y-77047069D01*
X144528853Y-77103305D01*
X144525989Y-77110219D01*
X144501303Y-77165070D01*
X144499475Y-77175047D01*
X144493454Y-77196648D01*
X144489859Y-77206128D01*
X144482609Y-77265827D01*
X144481483Y-77273226D01*
X144470641Y-77332390D01*
X144474274Y-77392433D01*
X144474500Y-77399920D01*
X144474500Y-82484608D01*
X144454815Y-82551647D01*
X144442655Y-82567575D01*
X144442467Y-82567783D01*
X144347820Y-82731715D01*
X144289326Y-82911742D01*
X144269540Y-83100000D01*
X128208500Y-83100000D01*
X128208500Y-77746918D01*
X128208726Y-77739432D01*
X128210112Y-77716518D01*
X128212358Y-77679394D01*
X128201507Y-77620185D01*
X128200390Y-77612841D01*
X128193140Y-77553128D01*
X128189547Y-77543656D01*
X128183522Y-77522044D01*
X128181695Y-77512069D01*
X128157009Y-77457220D01*
X128154152Y-77450326D01*
X128132818Y-77394070D01*
X128132816Y-77394068D01*
X128132816Y-77394066D01*
X128127062Y-77385731D01*
X128116033Y-77366177D01*
X128111878Y-77356944D01*
X128074780Y-77309591D01*
X128070352Y-77303573D01*
X128036184Y-77254072D01*
X128036183Y-77254071D01*
X127991153Y-77214178D01*
X127985715Y-77209058D01*
X125567028Y-74790371D01*
X125533543Y-74729048D01*
X125531181Y-74691882D01*
X125547968Y-74500000D01*
X125551468Y-74460000D01*
X125547683Y-74416739D01*
X125531181Y-74228115D01*
X125544948Y-74159615D01*
X125567022Y-74129634D01*
X125849839Y-73846816D01*
X125911161Y-73813334D01*
X125937519Y-73810500D01*
X127919834Y-73810500D01*
X127986873Y-73830185D01*
X128032628Y-73882989D01*
X128042572Y-73952147D01*
X128032216Y-73986905D01*
X128019733Y-74013673D01*
X127960858Y-74233397D01*
X127941033Y-74460000D01*
X127960858Y-74686602D01*
X128019733Y-74906326D01*
X128115866Y-75112484D01*
X128166972Y-75185471D01*
X128166973Y-75185472D01*
X128848045Y-74504399D01*
X128860835Y-74585148D01*
X128918359Y-74698045D01*
X129007955Y-74787641D01*
X129120852Y-74845165D01*
X129201599Y-74857953D01*
X128520526Y-75539025D01*
X128520526Y-75539026D01*
X128593515Y-75590133D01*
X128799673Y-75686266D01*
X129019397Y-75745141D01*
X129245999Y-75764966D01*
X129472602Y-75745141D01*
X129692326Y-75686266D01*
X129898480Y-75590134D01*
X129971472Y-75539025D01*
X129290401Y-74857953D01*
X129371148Y-74845165D01*
X129484045Y-74787641D01*
X129573641Y-74698045D01*
X129631165Y-74585148D01*
X129643953Y-74504400D01*
X130325025Y-75185472D01*
X130376134Y-75112480D01*
X130472266Y-74906326D01*
X130531141Y-74686602D01*
X130550966Y-74460000D01*
X130531141Y-74233397D01*
X130472266Y-74013673D01*
X130459784Y-73986905D01*
X130449292Y-73917828D01*
X130477811Y-73854044D01*
X130536288Y-73815804D01*
X130572166Y-73810500D01*
X134827500Y-73810500D01*
X134894539Y-73830185D01*
X134940294Y-73882989D01*
X134951500Y-73934500D01*
X134951500Y-75704560D01*
X134951500Y-75704578D01*
X134951501Y-75707872D01*
X134951853Y-75711152D01*
X134951854Y-75711159D01*
X134957638Y-75764966D01*
X134957909Y-75767483D01*
X135008204Y-75902331D01*
X135094454Y-76017546D01*
X135209669Y-76103796D01*
X135344517Y-76154091D01*
X135404127Y-76160500D01*
X137899872Y-76160499D01*
X137959483Y-76154091D01*
X138094331Y-76103796D01*
X138209546Y-76017546D01*
X138295796Y-75902331D01*
X138346091Y-75767483D01*
X138352500Y-75707873D01*
X138352499Y-74459999D01*
X139947232Y-74459999D01*
X139966273Y-74714080D01*
X140022971Y-74962491D01*
X140116057Y-75199668D01*
X140243456Y-75420331D01*
X140285452Y-75472993D01*
X140285453Y-75472993D01*
X141089226Y-74669219D01*
X141127901Y-74762588D01*
X141224075Y-74887925D01*
X141349412Y-74984099D01*
X141442779Y-75022772D01*
X140638813Y-75826737D01*
X140799619Y-75936372D01*
X141029179Y-76046922D01*
X141272654Y-76122025D01*
X141524603Y-76160000D01*
X141779397Y-76160000D01*
X142031345Y-76122025D01*
X142274823Y-76046921D01*
X142504383Y-75936372D01*
X142665185Y-75826737D01*
X141861220Y-75022772D01*
X141954588Y-74984099D01*
X142079925Y-74887925D01*
X142176099Y-74762589D01*
X142214772Y-74669220D01*
X143018545Y-75472993D01*
X143018546Y-75472992D01*
X143060545Y-75420328D01*
X143187942Y-75199669D01*
X143281028Y-74962491D01*
X143337726Y-74714080D01*
X143356767Y-74460000D01*
X143337726Y-74205919D01*
X143281028Y-73957508D01*
X143187942Y-73720330D01*
X143060545Y-73499671D01*
X143018546Y-73447005D01*
X142214772Y-74250779D01*
X142176099Y-74157412D01*
X142079925Y-74032075D01*
X141954588Y-73935901D01*
X141861220Y-73897227D01*
X142665185Y-73093261D01*
X142504379Y-72983625D01*
X142274823Y-72873078D01*
X142031345Y-72797974D01*
X141779397Y-72760000D01*
X141524603Y-72760000D01*
X141272654Y-72797974D01*
X141029179Y-72873077D01*
X140799615Y-72983628D01*
X140638813Y-73093261D01*
X141442779Y-73897227D01*
X141349412Y-73935901D01*
X141224075Y-74032075D01*
X141127901Y-74157411D01*
X141089226Y-74250779D01*
X140285453Y-73447006D01*
X140243453Y-73499673D01*
X140116057Y-73720331D01*
X140022971Y-73957508D01*
X139966273Y-74205919D01*
X139947232Y-74459999D01*
X138352499Y-74459999D01*
X138352499Y-73801517D01*
X138372184Y-73734479D01*
X138388813Y-73713842D01*
X141865837Y-70236819D01*
X141927161Y-70203334D01*
X141953519Y-70200500D01*
X152213327Y-70200500D01*
X152280366Y-70220185D01*
X152314902Y-70253377D01*
X152374953Y-70339140D01*
X152535859Y-70500046D01*
X152722264Y-70630567D01*
X152722265Y-70630567D01*
X152722266Y-70630568D01*
X152928504Y-70726739D01*
X153148308Y-70785635D01*
X153299436Y-70798856D01*
X153374999Y-70805468D01*
X153374999Y-70805467D01*
X153375000Y-70805468D01*
X153506641Y-70793950D01*
X153606882Y-70785181D01*
X153675382Y-70798948D01*
X153705371Y-70821028D01*
X156552058Y-73667715D01*
X156557178Y-73673153D01*
X156597071Y-73718183D01*
X156646577Y-73752355D01*
X156652597Y-73756785D01*
X156699941Y-73793877D01*
X156699942Y-73793877D01*
X156699943Y-73793878D01*
X156709184Y-73798037D01*
X156728730Y-73809061D01*
X156737070Y-73814818D01*
X156793322Y-73836151D01*
X156800218Y-73839009D01*
X156855068Y-73863695D01*
X156865035Y-73865521D01*
X156886651Y-73871546D01*
X156896128Y-73875140D01*
X156955840Y-73882390D01*
X156963185Y-73883507D01*
X157022394Y-73894358D01*
X157079102Y-73890927D01*
X157082434Y-73890726D01*
X157089921Y-73890500D01*
X159728327Y-73890500D01*
X159795366Y-73910185D01*
X159829902Y-73943377D01*
X159889953Y-74029140D01*
X160050859Y-74190046D01*
X160237263Y-74320566D01*
X160237266Y-74320568D01*
X160295275Y-74347618D01*
X160347714Y-74393791D01*
X160366865Y-74460985D01*
X160346649Y-74527866D01*
X160295275Y-74572382D01*
X160237263Y-74599433D01*
X160050859Y-74729953D01*
X159889953Y-74890859D01*
X159759432Y-75077264D01*
X159663261Y-75283502D01*
X159604364Y-75503310D01*
X159584531Y-75730000D01*
X159604364Y-75956689D01*
X159663262Y-76176500D01*
X159686857Y-76227100D01*
X159697349Y-76296177D01*
X159668829Y-76359961D01*
X159662156Y-76367185D01*
X141659810Y-94369531D01*
X141657253Y-94370926D01*
X141648814Y-94380527D01*
X138687290Y-97342051D01*
X138681838Y-97347183D01*
X138636816Y-97387070D01*
X138602649Y-97436568D01*
X138598213Y-97442597D01*
X138561121Y-97489942D01*
X138556961Y-97499186D01*
X138545941Y-97518725D01*
X138540182Y-97527069D01*
X138518853Y-97583305D01*
X138515989Y-97590219D01*
X138491303Y-97645070D01*
X138489475Y-97655047D01*
X138483454Y-97676648D01*
X138479859Y-97686128D01*
X138472609Y-97745827D01*
X138471483Y-97753226D01*
X138460641Y-97812390D01*
X138464274Y-97872433D01*
X138464500Y-97879920D01*
X138464500Y-98082016D01*
X138444815Y-98149055D01*
X138394303Y-98193736D01*
X138312366Y-98233195D01*
X138101781Y-98376769D01*
X138022318Y-98450500D01*
X137914950Y-98550123D01*
X137780162Y-98719142D01*
X137756038Y-98749392D01*
X137628608Y-98970108D01*
X137535492Y-99207362D01*
X137478777Y-99455845D01*
X137459731Y-99710000D01*
X137478777Y-99964154D01*
X137535492Y-100212637D01*
X137628608Y-100449891D01*
X137703789Y-100580108D01*
X137756041Y-100670612D01*
X137914950Y-100869877D01*
X138101783Y-101043232D01*
X138312366Y-101186805D01*
X138541996Y-101297389D01*
X138785542Y-101372513D01*
X139037565Y-101410500D01*
X139292435Y-101410500D01*
X139544458Y-101372513D01*
X139788004Y-101297389D01*
X140017634Y-101186805D01*
X140228217Y-101043232D01*
X140415050Y-100869877D01*
X140573959Y-100670612D01*
X140701393Y-100449888D01*
X140794508Y-100212637D01*
X140851222Y-99964157D01*
X140870268Y-99710000D01*
X140851222Y-99455843D01*
X140794508Y-99207363D01*
X140701393Y-98970112D01*
X140683846Y-98939720D01*
X140629026Y-98844767D01*
X140573959Y-98749388D01*
X140415050Y-98550123D01*
X140228217Y-98376768D01*
X140017634Y-98233195D01*
X140017630Y-98233193D01*
X140017627Y-98233191D01*
X140012976Y-98230951D01*
X139961119Y-98184125D01*
X139942810Y-98116697D01*
X139963862Y-98050074D01*
X139979098Y-98031558D01*
X159433394Y-78577261D01*
X159494715Y-78543778D01*
X159564407Y-78548762D01*
X159620340Y-78590634D01*
X159640848Y-78632850D01*
X159663262Y-78716500D01*
X159686857Y-78767100D01*
X159697349Y-78836177D01*
X159668829Y-78899961D01*
X159662156Y-78907185D01*
X148847290Y-89722051D01*
X148841838Y-89727183D01*
X148796816Y-89767070D01*
X148762649Y-89816568D01*
X148758213Y-89822597D01*
X148721121Y-89869942D01*
X148716961Y-89879186D01*
X148705941Y-89898725D01*
X148700182Y-89907069D01*
X148678853Y-89963305D01*
X148675989Y-89970219D01*
X148651303Y-90025070D01*
X148649475Y-90035047D01*
X148643454Y-90056648D01*
X148639859Y-90066128D01*
X148632609Y-90125827D01*
X148631483Y-90133226D01*
X148620641Y-90192390D01*
X148624274Y-90252433D01*
X148624500Y-90259920D01*
X148624500Y-98082016D01*
X148604815Y-98149055D01*
X148554303Y-98193736D01*
X148472366Y-98233195D01*
X148261781Y-98376769D01*
X148182318Y-98450500D01*
X148074950Y-98550123D01*
X147940162Y-98719142D01*
X147916038Y-98749392D01*
X147788608Y-98970108D01*
X147695492Y-99207362D01*
X147638777Y-99455845D01*
X147619731Y-99709999D01*
X147638777Y-99964154D01*
X147695492Y-100212637D01*
X147788608Y-100449891D01*
X147863789Y-100580108D01*
X147916041Y-100670612D01*
X148074950Y-100869877D01*
X148261783Y-101043232D01*
X148472366Y-101186805D01*
X148701996Y-101297389D01*
X148945542Y-101372513D01*
X149197565Y-101410500D01*
X149452435Y-101410500D01*
X149704458Y-101372513D01*
X149948004Y-101297389D01*
X150177634Y-101186805D01*
X150388217Y-101043232D01*
X150575050Y-100869877D01*
X150733959Y-100670612D01*
X150861393Y-100449888D01*
X150954508Y-100212637D01*
X151011222Y-99964157D01*
X151030268Y-99710000D01*
X151011222Y-99455843D01*
X150954508Y-99207363D01*
X150861393Y-98970112D01*
X150843846Y-98939720D01*
X150789026Y-98844767D01*
X150733959Y-98749388D01*
X150575050Y-98550123D01*
X150388217Y-98376768D01*
X150177634Y-98233195D01*
X150095697Y-98193736D01*
X150043838Y-98146913D01*
X150025500Y-98082016D01*
X150025500Y-90576518D01*
X150045185Y-90509479D01*
X150061814Y-90488842D01*
X159433394Y-81117261D01*
X159494715Y-81083778D01*
X159564407Y-81088762D01*
X159620340Y-81130634D01*
X159640848Y-81172850D01*
X159663261Y-81256497D01*
X159759432Y-81462735D01*
X159889953Y-81649140D01*
X160050859Y-81810046D01*
X160219215Y-81927929D01*
X160237266Y-81940568D01*
X160295275Y-81967618D01*
X160347714Y-82013791D01*
X160366865Y-82080985D01*
X160346649Y-82147866D01*
X160295275Y-82192382D01*
X160237263Y-82219433D01*
X160050860Y-82349953D01*
X159889956Y-82510857D01*
X159889955Y-82510859D01*
X159889953Y-82510861D01*
X159864913Y-82546621D01*
X159794617Y-82647015D01*
X159743932Y-82688967D01*
X159717226Y-82700986D01*
X159710310Y-82703851D01*
X159654070Y-82725181D01*
X159645723Y-82730943D01*
X159626187Y-82741961D01*
X159616944Y-82746121D01*
X159569608Y-82783205D01*
X159563582Y-82787639D01*
X159514072Y-82821816D01*
X159474184Y-82866838D01*
X159469052Y-82872289D01*
X153563757Y-88777584D01*
X153502434Y-88811069D01*
X153439528Y-88808394D01*
X153287458Y-88761487D01*
X153035435Y-88723500D01*
X152780565Y-88723500D01*
X152528542Y-88761487D01*
X152284996Y-88836611D01*
X152055366Y-88947195D01*
X151983523Y-88996177D01*
X151844781Y-89090769D01*
X151716703Y-89209608D01*
X151657950Y-89264123D01*
X151525631Y-89430046D01*
X151499038Y-89463392D01*
X151371608Y-89684108D01*
X151278492Y-89921362D01*
X151221777Y-90169845D01*
X151202731Y-90423999D01*
X151221777Y-90678154D01*
X151278492Y-90926637D01*
X151371608Y-91163891D01*
X151482040Y-91355165D01*
X151499041Y-91384612D01*
X151657950Y-91583877D01*
X151844783Y-91757232D01*
X152055366Y-91900805D01*
X152284996Y-92011389D01*
X152528542Y-92086513D01*
X152780565Y-92124500D01*
X153035435Y-92124500D01*
X153287458Y-92086513D01*
X153531004Y-92011389D01*
X153760634Y-91900805D01*
X153971217Y-91757232D01*
X154158050Y-91583877D01*
X154316959Y-91384612D01*
X154444393Y-91163888D01*
X154537508Y-90926637D01*
X154594222Y-90678157D01*
X154613268Y-90424000D01*
X154594222Y-90169843D01*
X154537508Y-89921363D01*
X154528776Y-89899116D01*
X154522607Y-89829521D01*
X154555043Y-89767637D01*
X154556463Y-89766192D01*
X159931264Y-84391391D01*
X159992585Y-84357908D01*
X160062277Y-84362892D01*
X160090066Y-84377499D01*
X160224908Y-84471915D01*
X160237266Y-84480568D01*
X160295275Y-84507618D01*
X160347714Y-84553791D01*
X160366865Y-84620985D01*
X160346649Y-84687866D01*
X160295275Y-84732382D01*
X160237263Y-84759433D01*
X160050859Y-84889953D01*
X159889953Y-85050859D01*
X159759432Y-85237264D01*
X159663261Y-85443502D01*
X159604364Y-85663310D01*
X159584531Y-85889999D01*
X159604364Y-86116689D01*
X159663261Y-86336497D01*
X159759432Y-86542735D01*
X159889953Y-86729140D01*
X160050859Y-86890046D01*
X160237263Y-87020566D01*
X160237266Y-87020568D01*
X160295275Y-87047618D01*
X160347714Y-87093791D01*
X160366865Y-87160985D01*
X160346649Y-87227866D01*
X160295275Y-87272382D01*
X160237263Y-87299433D01*
X160050859Y-87429953D01*
X159889953Y-87590859D01*
X159759432Y-87777264D01*
X159663261Y-87983502D01*
X159604364Y-88203310D01*
X159584531Y-88429999D01*
X159604364Y-88656689D01*
X159663261Y-88876497D01*
X159759432Y-89082735D01*
X159889953Y-89269140D01*
X160050859Y-89430046D01*
X160110655Y-89471915D01*
X160237266Y-89560568D01*
X160295275Y-89587618D01*
X160347714Y-89633791D01*
X160366865Y-89700985D01*
X160346649Y-89767866D01*
X160295275Y-89812381D01*
X160286298Y-89816568D01*
X160237263Y-89839433D01*
X160050859Y-89969953D01*
X159889953Y-90130859D01*
X159759432Y-90317264D01*
X159663261Y-90523502D01*
X159604364Y-90743310D01*
X159584531Y-90970000D01*
X159604364Y-91196689D01*
X159663262Y-91416500D01*
X159686857Y-91467100D01*
X159697349Y-91536177D01*
X159668829Y-91599961D01*
X159662156Y-91607185D01*
X159062290Y-92207051D01*
X159056838Y-92212183D01*
X159011816Y-92252070D01*
X158977649Y-92301568D01*
X158973213Y-92307597D01*
X158936121Y-92354942D01*
X158931961Y-92364186D01*
X158920941Y-92383725D01*
X158915182Y-92392069D01*
X158893853Y-92448305D01*
X158890989Y-92455219D01*
X158866303Y-92510070D01*
X158864475Y-92520047D01*
X158858454Y-92541648D01*
X158854859Y-92551128D01*
X158847609Y-92610827D01*
X158846483Y-92618226D01*
X158835641Y-92677390D01*
X158839274Y-92737433D01*
X158839500Y-92744920D01*
X158839500Y-99495500D01*
X158819815Y-99562539D01*
X158767011Y-99608294D01*
X158715500Y-99619500D01*
X157586519Y-99619500D01*
X157519480Y-99599815D01*
X157498838Y-99583181D01*
X154451503Y-96535846D01*
X154418018Y-96474523D01*
X154415865Y-96461143D01*
X154410674Y-96411744D01*
X154371496Y-96291166D01*
X154352179Y-96231715D01*
X154257533Y-96067783D01*
X154130870Y-95927110D01*
X153977730Y-95815848D01*
X153804802Y-95738855D01*
X153619648Y-95699500D01*
X153619646Y-95699500D01*
X153430354Y-95699500D01*
X153430352Y-95699500D01*
X153245197Y-95738855D01*
X153072269Y-95815848D01*
X152919129Y-95927110D01*
X152792466Y-96067783D01*
X152697820Y-96231715D01*
X152639326Y-96411742D01*
X152619540Y-96600000D01*
X152639326Y-96788257D01*
X152697820Y-96968284D01*
X152792466Y-97132216D01*
X152919129Y-97272889D01*
X153072269Y-97384151D01*
X153245197Y-97461144D01*
X153400126Y-97494075D01*
X153461608Y-97527267D01*
X153462027Y-97527684D01*
X155997181Y-100062838D01*
X156030666Y-100124161D01*
X156033500Y-100150519D01*
X156033500Y-102564560D01*
X156033500Y-102564578D01*
X156033501Y-102567872D01*
X156033853Y-102571152D01*
X156033854Y-102571159D01*
X156039909Y-102627484D01*
X156065056Y-102694906D01*
X156090204Y-102762331D01*
X156176454Y-102877546D01*
X156291669Y-102963796D01*
X156426517Y-103014091D01*
X156486127Y-103020500D01*
X156909500Y-103020499D01*
X156976539Y-103040183D01*
X157022294Y-103092987D01*
X157033500Y-103144499D01*
X157033500Y-106385500D01*
X157013815Y-106452539D01*
X156961011Y-106498294D01*
X156909500Y-106509500D01*
X156489439Y-106509500D01*
X156489420Y-106509500D01*
X156486128Y-106509501D01*
X156482848Y-106509853D01*
X156482840Y-106509854D01*
X156426515Y-106515909D01*
X156291669Y-106566204D01*
X156176454Y-106652454D01*
X156090204Y-106767668D01*
X156049513Y-106876768D01*
X156039909Y-106902517D01*
X156033500Y-106962127D01*
X156033500Y-106965448D01*
X156033500Y-106965449D01*
X156033500Y-109454560D01*
X156033500Y-109454578D01*
X156033501Y-109457872D01*
X156039909Y-109517483D01*
X156090204Y-109652331D01*
X156176454Y-109767546D01*
X156291669Y-109853796D01*
X156426517Y-109904091D01*
X156486127Y-109910500D01*
X156909500Y-109910499D01*
X156976539Y-109930183D01*
X157022294Y-109982987D01*
X157033500Y-110034499D01*
X157033500Y-113275500D01*
X157013815Y-113342539D01*
X156961011Y-113388294D01*
X156909500Y-113399500D01*
X156489439Y-113399500D01*
X156489420Y-113399500D01*
X156486128Y-113399501D01*
X156482848Y-113399853D01*
X156482840Y-113399854D01*
X156426515Y-113405909D01*
X156291669Y-113456204D01*
X156176454Y-113542454D01*
X156090204Y-113657668D01*
X156049513Y-113766768D01*
X156039909Y-113792517D01*
X156033500Y-113852127D01*
X156033500Y-113855448D01*
X156033500Y-113855449D01*
X156033500Y-116344560D01*
X156033500Y-116344578D01*
X156033501Y-116347872D01*
X156033853Y-116351152D01*
X156033854Y-116351159D01*
X156039909Y-116407484D01*
X156062887Y-116469090D01*
X156090204Y-116542331D01*
X156176454Y-116657546D01*
X156291669Y-116743796D01*
X156426517Y-116794091D01*
X156486127Y-116800500D01*
X156909500Y-116800499D01*
X156976539Y-116820183D01*
X157022294Y-116872987D01*
X157033500Y-116924499D01*
X157033500Y-120165500D01*
X157013815Y-120232539D01*
X156961011Y-120278294D01*
X156909500Y-120289500D01*
X156489439Y-120289500D01*
X156489420Y-120289500D01*
X156486128Y-120289501D01*
X156482848Y-120289853D01*
X156482840Y-120289854D01*
X156426515Y-120295909D01*
X156291669Y-120346204D01*
X156176454Y-120432454D01*
X156090204Y-120547668D01*
X156048732Y-120658862D01*
X156039909Y-120682517D01*
X156033500Y-120742127D01*
X156033500Y-120745448D01*
X156033500Y-120745449D01*
X156033500Y-123234560D01*
X156033500Y-123234578D01*
X156033501Y-123237872D01*
X156039909Y-123297483D01*
X156090204Y-123432331D01*
X156176454Y-123547546D01*
X156291669Y-123633796D01*
X156426517Y-123684091D01*
X156486127Y-123690500D01*
X158712873Y-123690499D01*
X158779912Y-123710184D01*
X158825667Y-123762987D01*
X158836647Y-123821985D01*
X158835641Y-123838606D01*
X158846483Y-123897771D01*
X158847610Y-123905172D01*
X158854860Y-123964873D01*
X158858450Y-123974339D01*
X158864475Y-123995952D01*
X158866303Y-124005929D01*
X158890991Y-124060783D01*
X158893856Y-124067701D01*
X158915180Y-124123926D01*
X158915182Y-124123930D01*
X158920941Y-124132273D01*
X158931961Y-124151813D01*
X158936120Y-124161054D01*
X158973216Y-124208405D01*
X158977651Y-124214432D01*
X159011817Y-124263929D01*
X159056847Y-124303822D01*
X159062283Y-124308940D01*
X160031058Y-125277715D01*
X160036178Y-125283153D01*
X160076071Y-125328183D01*
X160076072Y-125328184D01*
X160125569Y-125362349D01*
X160131602Y-125366788D01*
X160178943Y-125403877D01*
X160188174Y-125408031D01*
X160207726Y-125419058D01*
X160216070Y-125424818D01*
X160272322Y-125446151D01*
X160279228Y-125449012D01*
X160334068Y-125473694D01*
X160344030Y-125475519D01*
X160365650Y-125481546D01*
X160375125Y-125485139D01*
X160375128Y-125485140D01*
X160434856Y-125492392D01*
X160442201Y-125493509D01*
X160501394Y-125504357D01*
X160561421Y-125500726D01*
X160568909Y-125500500D01*
X168173480Y-125500500D01*
X168240519Y-125520185D01*
X168286274Y-125572989D01*
X168296218Y-125642147D01*
X168267193Y-125705703D01*
X168261161Y-125712181D01*
X166573162Y-127400181D01*
X166511839Y-127433666D01*
X166485481Y-127436500D01*
X153261820Y-127436500D01*
X153194781Y-127416815D01*
X153149026Y-127364011D01*
X153146391Y-127357800D01*
X153144743Y-127353601D01*
X153077279Y-127236750D01*
X153009815Y-127119898D01*
X152841561Y-126908915D01*
X152841560Y-126908914D01*
X152643743Y-126725366D01*
X152586205Y-126686137D01*
X152420775Y-126573349D01*
X152177641Y-126456262D01*
X152029625Y-126410605D01*
X151919771Y-126376719D01*
X151652929Y-126336500D01*
X151383071Y-126336500D01*
X151116226Y-126376720D01*
X150906490Y-126441414D01*
X150836627Y-126442364D01*
X150782260Y-126410604D01*
X141618940Y-117247283D01*
X141613822Y-117241847D01*
X141573929Y-117196817D01*
X141524432Y-117162651D01*
X141518405Y-117158216D01*
X141488680Y-117134929D01*
X141471057Y-117121122D01*
X141471055Y-117121121D01*
X141471054Y-117121120D01*
X141461813Y-117116961D01*
X141442273Y-117105941D01*
X141433930Y-117100182D01*
X141433927Y-117100181D01*
X141433926Y-117100180D01*
X141377701Y-117078856D01*
X141370783Y-117075991D01*
X141315929Y-117051303D01*
X141305952Y-117049475D01*
X141284339Y-117043450D01*
X141274873Y-117039860D01*
X141215172Y-117032610D01*
X141207771Y-117031483D01*
X141148607Y-117020641D01*
X141088566Y-117024274D01*
X141081079Y-117024500D01*
X127766519Y-117024500D01*
X127699480Y-117004815D01*
X127678838Y-116988181D01*
X127361819Y-116671162D01*
X127328334Y-116609839D01*
X127325500Y-116583481D01*
X127325500Y-114524999D01*
X130078967Y-114524999D01*
X130078968Y-114525000D01*
X131219118Y-114525000D01*
X131180444Y-114618369D01*
X131159823Y-114775000D01*
X131180444Y-114931631D01*
X131219118Y-115025000D01*
X130078968Y-115025000D01*
X130079273Y-115029080D01*
X130135971Y-115277491D01*
X130229057Y-115514669D01*
X130356454Y-115735328D01*
X130515317Y-115934536D01*
X130702095Y-116107841D01*
X130912615Y-116251371D01*
X131142179Y-116361922D01*
X131385654Y-116437025D01*
X131515000Y-116456520D01*
X131515000Y-115320881D01*
X131608369Y-115359556D01*
X131725677Y-115375000D01*
X131804323Y-115375000D01*
X131921631Y-115359556D01*
X132015000Y-115320881D01*
X132015000Y-116456519D01*
X132144345Y-116437025D01*
X132387823Y-116361921D01*
X132617379Y-116251374D01*
X132827907Y-116107839D01*
X133014682Y-115934536D01*
X133173545Y-115735328D01*
X133300942Y-115514669D01*
X133394028Y-115277491D01*
X133450726Y-115029080D01*
X133451032Y-115025000D01*
X132310882Y-115025000D01*
X132349556Y-114931631D01*
X132370177Y-114775000D01*
X132360303Y-114699999D01*
X137478967Y-114699999D01*
X137478968Y-114700000D01*
X138619118Y-114700000D01*
X138580444Y-114793369D01*
X138559823Y-114950000D01*
X138580444Y-115106631D01*
X138619118Y-115200000D01*
X137478968Y-115200000D01*
X137479273Y-115204080D01*
X137535971Y-115452491D01*
X137629057Y-115689669D01*
X137756454Y-115910328D01*
X137915317Y-116109536D01*
X138102095Y-116282841D01*
X138312615Y-116426371D01*
X138542179Y-116536922D01*
X138785654Y-116612025D01*
X138915000Y-116631520D01*
X138915000Y-115495881D01*
X139008369Y-115534556D01*
X139125677Y-115550000D01*
X139204323Y-115550000D01*
X139321631Y-115534556D01*
X139415000Y-115495881D01*
X139415000Y-116631519D01*
X139544345Y-116612025D01*
X139787823Y-116536921D01*
X140017379Y-116426374D01*
X140227907Y-116282839D01*
X140414682Y-116109536D01*
X140573545Y-115910328D01*
X140700942Y-115689669D01*
X140794028Y-115452491D01*
X140850726Y-115204080D01*
X140851032Y-115200000D01*
X139710882Y-115200000D01*
X139749556Y-115106631D01*
X139770177Y-114950000D01*
X139749556Y-114793369D01*
X139710882Y-114700000D01*
X140851032Y-114700000D01*
X140851032Y-114699999D01*
X147638967Y-114699999D01*
X147638968Y-114700000D01*
X148779118Y-114700000D01*
X148740444Y-114793369D01*
X148719823Y-114950000D01*
X148740444Y-115106631D01*
X148779118Y-115200000D01*
X147638968Y-115200000D01*
X147639273Y-115204080D01*
X147695971Y-115452491D01*
X147789057Y-115689669D01*
X147916454Y-115910328D01*
X148075317Y-116109536D01*
X148262095Y-116282841D01*
X148472615Y-116426371D01*
X148702179Y-116536922D01*
X148945654Y-116612025D01*
X149075000Y-116631520D01*
X149075000Y-115495881D01*
X149168369Y-115534556D01*
X149285677Y-115550000D01*
X149364323Y-115550000D01*
X149481631Y-115534556D01*
X149575000Y-115495881D01*
X149575000Y-116631519D01*
X149704345Y-116612025D01*
X149947823Y-116536921D01*
X150177379Y-116426374D01*
X150387907Y-116282839D01*
X150574682Y-116109536D01*
X150733545Y-115910328D01*
X150860942Y-115689669D01*
X150954028Y-115452491D01*
X151010726Y-115204080D01*
X151011032Y-115200000D01*
X149870882Y-115200000D01*
X149909556Y-115106631D01*
X149930177Y-114950000D01*
X149909556Y-114793369D01*
X149870882Y-114700000D01*
X151011032Y-114700000D01*
X151011032Y-114699999D01*
X151010726Y-114695919D01*
X150954028Y-114447508D01*
X150860942Y-114210330D01*
X150733545Y-113989671D01*
X150574682Y-113790463D01*
X150387907Y-113617160D01*
X150177379Y-113473625D01*
X149947823Y-113363078D01*
X149704345Y-113287974D01*
X149575000Y-113268479D01*
X149575000Y-114404118D01*
X149481631Y-114365444D01*
X149364323Y-114350000D01*
X149285677Y-114350000D01*
X149168369Y-114365444D01*
X149075000Y-114404118D01*
X149075000Y-113268479D01*
X148945654Y-113287974D01*
X148702179Y-113363077D01*
X148472615Y-113473628D01*
X148262095Y-113617158D01*
X148075317Y-113790463D01*
X147916454Y-113989671D01*
X147789057Y-114210330D01*
X147695971Y-114447508D01*
X147639273Y-114695919D01*
X147638967Y-114699999D01*
X140851032Y-114699999D01*
X140850726Y-114695919D01*
X140794028Y-114447508D01*
X140700942Y-114210330D01*
X140573545Y-113989671D01*
X140414682Y-113790463D01*
X140227907Y-113617160D01*
X140017379Y-113473625D01*
X139787823Y-113363078D01*
X139544345Y-113287974D01*
X139415000Y-113268479D01*
X139415000Y-114404118D01*
X139321631Y-114365444D01*
X139204323Y-114350000D01*
X139125677Y-114350000D01*
X139008369Y-114365444D01*
X138915000Y-114404118D01*
X138915000Y-113268479D01*
X138785654Y-113287974D01*
X138542179Y-113363077D01*
X138312615Y-113473628D01*
X138102095Y-113617158D01*
X137915317Y-113790463D01*
X137756454Y-113989671D01*
X137629057Y-114210330D01*
X137535971Y-114447508D01*
X137479273Y-114695919D01*
X137478967Y-114699999D01*
X132360303Y-114699999D01*
X132349556Y-114618369D01*
X132310882Y-114525000D01*
X133451032Y-114525000D01*
X133451032Y-114524999D01*
X133450726Y-114520919D01*
X133394028Y-114272508D01*
X133300942Y-114035330D01*
X133173545Y-113814671D01*
X133014682Y-113615463D01*
X132827907Y-113442160D01*
X132617379Y-113298625D01*
X132387823Y-113188078D01*
X132144345Y-113112974D01*
X132015000Y-113093479D01*
X132015000Y-114229118D01*
X131921631Y-114190444D01*
X131804323Y-114175000D01*
X131725677Y-114175000D01*
X131608369Y-114190444D01*
X131515000Y-114229118D01*
X131515000Y-113093479D01*
X131385654Y-113112974D01*
X131142179Y-113188077D01*
X130912615Y-113298628D01*
X130702095Y-113442158D01*
X130515317Y-113615463D01*
X130356454Y-113814671D01*
X130229057Y-114035330D01*
X130135971Y-114272508D01*
X130079273Y-114520919D01*
X130078967Y-114524999D01*
X127325500Y-114524999D01*
X127325500Y-108574919D01*
X127325726Y-108567432D01*
X127329358Y-108507394D01*
X127318507Y-108448185D01*
X127317390Y-108440841D01*
X127310140Y-108381128D01*
X127306547Y-108371656D01*
X127300522Y-108350044D01*
X127298695Y-108340069D01*
X127274009Y-108285220D01*
X127271152Y-108278326D01*
X127249818Y-108222070D01*
X127244053Y-108213719D01*
X127233036Y-108194183D01*
X127228878Y-108184944D01*
X127191788Y-108137603D01*
X127187352Y-108131574D01*
X127171769Y-108108998D01*
X127153183Y-108082071D01*
X127108145Y-108042171D01*
X127102707Y-108037051D01*
X125482322Y-106416666D01*
X130078967Y-106416666D01*
X130078968Y-106416667D01*
X131219118Y-106416667D01*
X131180444Y-106510036D01*
X131159823Y-106666667D01*
X131180444Y-106823298D01*
X131219118Y-106916667D01*
X130078968Y-106916667D01*
X130079273Y-106920747D01*
X130135971Y-107169158D01*
X130229057Y-107406336D01*
X130356454Y-107626995D01*
X130515317Y-107826203D01*
X130702095Y-107999508D01*
X130912615Y-108143038D01*
X131142179Y-108253589D01*
X131385654Y-108328692D01*
X131515000Y-108348187D01*
X131515000Y-107212548D01*
X131608369Y-107251223D01*
X131725677Y-107266667D01*
X131804323Y-107266667D01*
X131921631Y-107251223D01*
X132015000Y-107212548D01*
X132015000Y-108348186D01*
X132144345Y-108328692D01*
X132387823Y-108253588D01*
X132617379Y-108143041D01*
X132827907Y-107999506D01*
X133014682Y-107826203D01*
X133173545Y-107626995D01*
X133300942Y-107406336D01*
X133394028Y-107169158D01*
X133450726Y-106920747D01*
X133451032Y-106916667D01*
X132310882Y-106916667D01*
X132349556Y-106823298D01*
X132370177Y-106666667D01*
X132349556Y-106510036D01*
X132310882Y-106416667D01*
X133451032Y-106416667D01*
X133451032Y-106416666D01*
X133450726Y-106412586D01*
X133394028Y-106164175D01*
X133300942Y-105926997D01*
X133173545Y-105706338D01*
X133014682Y-105507130D01*
X132827907Y-105333827D01*
X132617379Y-105190292D01*
X132387823Y-105079745D01*
X132144345Y-105004641D01*
X132015000Y-104985146D01*
X132015000Y-106120785D01*
X131921631Y-106082111D01*
X131804323Y-106066667D01*
X131725677Y-106066667D01*
X131608369Y-106082111D01*
X131515000Y-106120785D01*
X131515000Y-104985146D01*
X131385654Y-105004641D01*
X131142179Y-105079744D01*
X130912615Y-105190295D01*
X130702095Y-105333825D01*
X130515317Y-105507130D01*
X130356454Y-105706338D01*
X130229057Y-105926997D01*
X130135971Y-106164175D01*
X130079273Y-106412586D01*
X130078967Y-106416666D01*
X125482322Y-106416666D01*
X121637940Y-102572283D01*
X121632822Y-102566847D01*
X121592929Y-102521817D01*
X121543432Y-102487651D01*
X121537405Y-102483216D01*
X121507680Y-102459929D01*
X121490057Y-102446122D01*
X121490055Y-102446121D01*
X121490054Y-102446120D01*
X121480813Y-102441961D01*
X121461273Y-102430941D01*
X121452930Y-102425182D01*
X121452927Y-102425181D01*
X121452926Y-102425180D01*
X121396701Y-102403856D01*
X121389783Y-102400991D01*
X121334929Y-102376303D01*
X121324952Y-102374475D01*
X121303339Y-102368450D01*
X121293873Y-102364860D01*
X121234172Y-102357610D01*
X121226771Y-102356483D01*
X121167607Y-102345641D01*
X121107566Y-102349274D01*
X121100079Y-102349500D01*
X117666519Y-102349500D01*
X117599480Y-102329815D01*
X117578838Y-102313181D01*
X117261819Y-101996161D01*
X117228334Y-101934838D01*
X117225500Y-101908480D01*
X117225500Y-100382833D01*
X117245185Y-100315794D01*
X117297989Y-100270039D01*
X117349500Y-100258833D01*
X117769561Y-100258833D01*
X117772872Y-100258833D01*
X117832483Y-100252425D01*
X117967331Y-100202130D01*
X118082546Y-100115880D01*
X118168796Y-100000665D01*
X118219091Y-99865817D01*
X118225500Y-99806207D01*
X118225499Y-98308333D01*
X130078967Y-98308333D01*
X130078968Y-98308334D01*
X131219118Y-98308334D01*
X131180444Y-98401703D01*
X131159823Y-98558334D01*
X131180444Y-98714965D01*
X131219118Y-98808334D01*
X130078968Y-98808334D01*
X130079273Y-98812414D01*
X130135971Y-99060825D01*
X130229057Y-99298003D01*
X130356454Y-99518662D01*
X130515317Y-99717870D01*
X130702095Y-99891175D01*
X130912615Y-100034705D01*
X131142179Y-100145256D01*
X131385654Y-100220359D01*
X131515000Y-100239854D01*
X131515000Y-99104215D01*
X131608369Y-99142890D01*
X131725677Y-99158334D01*
X131804323Y-99158334D01*
X131921631Y-99142890D01*
X132015000Y-99104215D01*
X132015000Y-100239853D01*
X132144345Y-100220359D01*
X132387823Y-100145255D01*
X132617379Y-100034708D01*
X132827907Y-99891173D01*
X133014682Y-99717870D01*
X133173545Y-99518662D01*
X133300942Y-99298003D01*
X133394028Y-99060825D01*
X133450726Y-98812414D01*
X133451032Y-98808334D01*
X132310882Y-98808334D01*
X132349556Y-98714965D01*
X132370177Y-98558334D01*
X132349556Y-98401703D01*
X132310882Y-98308334D01*
X133451032Y-98308334D01*
X133451032Y-98308333D01*
X133450726Y-98304253D01*
X133394028Y-98055842D01*
X133300942Y-97818664D01*
X133173545Y-97598005D01*
X133014682Y-97398797D01*
X132827907Y-97225494D01*
X132617379Y-97081959D01*
X132387823Y-96971412D01*
X132144345Y-96896308D01*
X132015000Y-96876813D01*
X132015000Y-98012452D01*
X131921631Y-97973778D01*
X131804323Y-97958334D01*
X131725677Y-97958334D01*
X131608369Y-97973778D01*
X131515000Y-98012452D01*
X131515000Y-96876813D01*
X131385654Y-96896308D01*
X131142179Y-96971411D01*
X130912615Y-97081962D01*
X130702095Y-97225492D01*
X130515317Y-97398797D01*
X130356454Y-97598005D01*
X130229057Y-97818664D01*
X130135971Y-98055842D01*
X130079273Y-98304253D01*
X130078967Y-98308333D01*
X118225499Y-98308333D01*
X118225499Y-97310462D01*
X118219091Y-97250851D01*
X118168796Y-97116003D01*
X118082546Y-97000788D01*
X117967331Y-96914538D01*
X117832483Y-96864243D01*
X117772873Y-96857834D01*
X117769550Y-96857834D01*
X115280439Y-96857834D01*
X115280420Y-96857834D01*
X115277128Y-96857835D01*
X115273848Y-96858187D01*
X115273840Y-96858188D01*
X115217515Y-96864243D01*
X115082669Y-96914538D01*
X114967454Y-97000788D01*
X114881204Y-97116002D01*
X114830909Y-97250850D01*
X114828540Y-97272889D01*
X114824500Y-97310461D01*
X114824500Y-97313782D01*
X114824500Y-97313783D01*
X114824500Y-99802894D01*
X114824500Y-99802912D01*
X114824501Y-99806206D01*
X114824853Y-99809486D01*
X114824854Y-99809493D01*
X114830909Y-99865818D01*
X114856056Y-99933241D01*
X114881204Y-100000665D01*
X114967454Y-100115880D01*
X115082669Y-100202130D01*
X115217517Y-100252425D01*
X115277127Y-100258834D01*
X115700500Y-100258833D01*
X115767539Y-100278517D01*
X115813294Y-100331321D01*
X115824500Y-100382833D01*
X115824500Y-102225079D01*
X115824274Y-102232566D01*
X115820641Y-102292607D01*
X115831483Y-102351771D01*
X115832610Y-102359172D01*
X115839860Y-102418873D01*
X115843450Y-102428339D01*
X115849475Y-102449952D01*
X115851303Y-102459929D01*
X115875991Y-102514783D01*
X115878856Y-102521701D01*
X115897614Y-102571159D01*
X115900182Y-102577930D01*
X115905941Y-102586273D01*
X115916961Y-102605813D01*
X115921120Y-102615054D01*
X115958216Y-102662405D01*
X115962651Y-102668432D01*
X115996817Y-102717929D01*
X116041847Y-102757822D01*
X116047283Y-102762940D01*
X116812058Y-103527715D01*
X116817178Y-103533153D01*
X116857071Y-103578183D01*
X116857072Y-103578184D01*
X116906573Y-103612352D01*
X116912591Y-103616780D01*
X116959944Y-103653878D01*
X116969180Y-103658034D01*
X116988731Y-103669062D01*
X116997066Y-103674816D01*
X116997068Y-103674816D01*
X116997070Y-103674818D01*
X117053326Y-103696152D01*
X117060220Y-103699009D01*
X117115069Y-103723695D01*
X117125044Y-103725522D01*
X117146656Y-103731547D01*
X117156128Y-103735140D01*
X117215841Y-103742390D01*
X117223185Y-103743507D01*
X117282394Y-103754358D01*
X117339102Y-103750927D01*
X117342434Y-103750726D01*
X117349921Y-103750500D01*
X120783481Y-103750500D01*
X120850520Y-103770185D01*
X120871162Y-103786819D01*
X125888181Y-108803837D01*
X125921666Y-108865160D01*
X125924500Y-108891518D01*
X125924500Y-116900079D01*
X125924274Y-116907566D01*
X125920641Y-116967607D01*
X125931483Y-117026771D01*
X125932610Y-117034172D01*
X125939860Y-117093873D01*
X125943450Y-117103339D01*
X125949475Y-117124952D01*
X125951303Y-117134929D01*
X125975991Y-117189783D01*
X125978856Y-117196701D01*
X125998040Y-117247283D01*
X126000182Y-117252930D01*
X126005941Y-117261273D01*
X126016961Y-117280813D01*
X126021120Y-117290054D01*
X126058216Y-117337405D01*
X126062651Y-117343432D01*
X126096817Y-117392929D01*
X126141847Y-117432822D01*
X126147283Y-117437940D01*
X126597162Y-117887819D01*
X126630647Y-117949142D01*
X126625663Y-118018834D01*
X126583791Y-118074767D01*
X126518327Y-118099184D01*
X126509481Y-118099500D01*
X123074500Y-118099500D01*
X123007461Y-118079815D01*
X122961706Y-118027011D01*
X122950500Y-117975500D01*
X122950500Y-113049919D01*
X122950726Y-113042432D01*
X122951617Y-113027707D01*
X122954358Y-112982394D01*
X122943507Y-112923185D01*
X122942390Y-112915841D01*
X122935140Y-112856128D01*
X122931547Y-112846656D01*
X122925522Y-112825044D01*
X122923695Y-112815069D01*
X122899009Y-112760220D01*
X122896152Y-112753326D01*
X122874818Y-112697070D01*
X122874816Y-112697068D01*
X122874816Y-112697066D01*
X122869062Y-112688731D01*
X122858033Y-112669177D01*
X122853878Y-112659944D01*
X122816780Y-112612591D01*
X122812352Y-112606573D01*
X122778184Y-112557072D01*
X122778183Y-112557071D01*
X122733153Y-112517178D01*
X122727715Y-112512058D01*
X121162940Y-110947283D01*
X121157822Y-110941847D01*
X121117929Y-110896817D01*
X121068432Y-110862651D01*
X121062405Y-110858216D01*
X121015054Y-110821120D01*
X121005813Y-110816961D01*
X120986273Y-110805941D01*
X120977930Y-110800182D01*
X120977927Y-110800181D01*
X120977926Y-110800180D01*
X120921701Y-110778856D01*
X120914783Y-110775991D01*
X120859929Y-110751303D01*
X120849952Y-110749475D01*
X120828339Y-110743450D01*
X120818873Y-110739860D01*
X120759172Y-110732610D01*
X120751771Y-110731483D01*
X120692607Y-110720641D01*
X120632566Y-110724274D01*
X120625079Y-110724500D01*
X117416519Y-110724500D01*
X117349480Y-110704815D01*
X117328838Y-110688181D01*
X117261819Y-110621162D01*
X117228334Y-110559839D01*
X117225500Y-110533481D01*
X117225500Y-108491166D01*
X117245185Y-108424127D01*
X117297989Y-108378372D01*
X117349500Y-108367166D01*
X117769561Y-108367166D01*
X117772872Y-108367166D01*
X117832483Y-108360758D01*
X117967331Y-108310463D01*
X118082546Y-108224213D01*
X118168796Y-108108998D01*
X118219091Y-107974150D01*
X118225500Y-107914540D01*
X118225499Y-105418795D01*
X118219091Y-105359184D01*
X118168796Y-105224336D01*
X118082546Y-105109121D01*
X117967331Y-105022871D01*
X117832483Y-104972576D01*
X117772873Y-104966167D01*
X117769550Y-104966167D01*
X115280439Y-104966167D01*
X115280420Y-104966167D01*
X115277128Y-104966168D01*
X115273848Y-104966520D01*
X115273840Y-104966521D01*
X115217515Y-104972576D01*
X115082669Y-105022871D01*
X114967454Y-105109121D01*
X114881204Y-105224335D01*
X114830910Y-105359182D01*
X114830909Y-105359184D01*
X114824500Y-105418794D01*
X114824500Y-105422115D01*
X114824500Y-105422116D01*
X114824500Y-107911227D01*
X114824500Y-107911245D01*
X113030457Y-107911245D01*
X113030457Y-78999999D01*
X116269858Y-78999999D01*
X116290386Y-79247732D01*
X116351413Y-79488721D01*
X116451268Y-79716370D01*
X116551563Y-79869882D01*
X116551564Y-79869882D01*
X117291923Y-79129523D01*
X117315507Y-79209844D01*
X117393239Y-79330798D01*
X117501900Y-79424952D01*
X117632685Y-79484680D01*
X117642466Y-79486086D01*
X116904942Y-80223609D01*
X116904942Y-80223610D01*
X116951766Y-80260055D01*
X117170393Y-80378368D01*
X117405506Y-80459083D01*
X117650707Y-80500000D01*
X117899293Y-80500000D01*
X118144493Y-80459083D01*
X118379606Y-80378368D01*
X118598233Y-80260053D01*
X118645056Y-80223609D01*
X117907533Y-79486086D01*
X117917315Y-79484680D01*
X118048100Y-79424952D01*
X118156761Y-79330798D01*
X118234493Y-79209844D01*
X118258076Y-79129524D01*
X118998434Y-79869882D01*
X119098730Y-79716369D01*
X119198586Y-79488721D01*
X119259613Y-79247732D01*
X119280141Y-79000000D01*
X119259613Y-78752267D01*
X119198586Y-78511278D01*
X119098730Y-78283630D01*
X118998434Y-78130116D01*
X118258076Y-78870474D01*
X118234493Y-78790156D01*
X118156761Y-78669202D01*
X118048100Y-78575048D01*
X117917315Y-78515320D01*
X117907534Y-78513913D01*
X118645057Y-77776390D01*
X118645056Y-77776388D01*
X118598235Y-77739947D01*
X118379606Y-77621631D01*
X118144493Y-77540916D01*
X117899293Y-77500000D01*
X117650707Y-77500000D01*
X117405506Y-77540916D01*
X117170393Y-77621631D01*
X116951764Y-77739946D01*
X116904942Y-77776388D01*
X116904942Y-77776390D01*
X117642466Y-78513913D01*
X117632685Y-78515320D01*
X117501900Y-78575048D01*
X117393239Y-78669202D01*
X117315507Y-78790156D01*
X117291923Y-78870475D01*
X116551564Y-78130116D01*
X116451266Y-78283634D01*
X116351413Y-78511278D01*
X116290386Y-78752267D01*
X116269858Y-78999999D01*
X113030457Y-78999999D01*
X113030457Y-71500000D01*
X116269356Y-71500000D01*
X116289891Y-71747816D01*
X116289892Y-71747818D01*
X116289892Y-71747821D01*
X116350937Y-71988881D01*
X116381884Y-72059432D01*
X116450825Y-72216604D01*
X116450827Y-72216607D01*
X116586836Y-72424785D01*
X116755256Y-72607738D01*
X116807601Y-72648480D01*
X116951485Y-72760470D01*
X116951487Y-72760471D01*
X116951491Y-72760474D01*
X117170190Y-72878828D01*
X117405386Y-72959571D01*
X117650665Y-73000500D01*
X117899335Y-73000500D01*
X118144614Y-72959571D01*
X118145321Y-72959328D01*
X118146350Y-72959281D01*
X118154750Y-72957880D01*
X118154919Y-72958894D01*
X118215121Y-72956176D01*
X118273270Y-72988927D01*
X119788181Y-74503838D01*
X119821666Y-74565161D01*
X119824500Y-74591519D01*
X119824500Y-93735059D01*
X119832919Y-93769220D01*
X119835617Y-93783942D01*
X119839858Y-93818867D01*
X119852337Y-93851772D01*
X119856785Y-93866048D01*
X119865210Y-93900225D01*
X119865210Y-93900226D01*
X119865211Y-93900227D01*
X119881559Y-93931377D01*
X119887702Y-93945026D01*
X119900181Y-93977929D01*
X119920172Y-94006891D01*
X119927918Y-94019705D01*
X119944265Y-94050851D01*
X119967590Y-94077180D01*
X119976823Y-94088965D01*
X119996814Y-94117925D01*
X119996817Y-94117929D01*
X120023156Y-94141263D01*
X120033739Y-94151847D01*
X120057068Y-94178181D01*
X120057071Y-94178183D01*
X120086038Y-94198178D01*
X120097802Y-94207394D01*
X120124148Y-94230734D01*
X120155297Y-94247082D01*
X120168113Y-94254830D01*
X120197068Y-94274817D01*
X120197069Y-94274817D01*
X120197070Y-94274818D01*
X120229975Y-94287297D01*
X120243610Y-94293433D01*
X120274775Y-94309790D01*
X120303180Y-94316791D01*
X120308937Y-94318210D01*
X120323233Y-94322665D01*
X120342439Y-94329948D01*
X120356128Y-94335140D01*
X120391055Y-94339380D01*
X120405779Y-94342078D01*
X120439944Y-94350500D01*
X120482628Y-94350500D01*
X140488783Y-94350500D01*
X140539219Y-94361221D01*
X140595197Y-94386144D01*
X140780352Y-94425500D01*
X140780354Y-94425500D01*
X140969648Y-94425500D01*
X141093084Y-94399262D01*
X141154803Y-94386144D01*
X141327730Y-94309151D01*
X141480871Y-94197888D01*
X141607533Y-94057216D01*
X141702179Y-93893284D01*
X141760674Y-93713256D01*
X141780460Y-93525000D01*
X141760674Y-93336744D01*
X141702179Y-93156716D01*
X141702179Y-93156715D01*
X141607533Y-92992783D01*
X141480870Y-92852110D01*
X141327730Y-92740848D01*
X141154802Y-92663855D01*
X140969648Y-92624500D01*
X140969646Y-92624500D01*
X140780354Y-92624500D01*
X140780352Y-92624500D01*
X140595197Y-92663855D01*
X140422269Y-92740848D01*
X140269129Y-92852110D01*
X140218382Y-92908472D01*
X140158895Y-92945121D01*
X140126232Y-92949500D01*
X121349500Y-92949500D01*
X121282461Y-92929815D01*
X121236706Y-92877011D01*
X121225500Y-92825500D01*
X121225500Y-74274908D01*
X121225726Y-74267421D01*
X121227789Y-74233308D01*
X121229357Y-74207394D01*
X121218509Y-74148201D01*
X121217392Y-74140856D01*
X121210140Y-74081128D01*
X121210139Y-74081125D01*
X121206546Y-74071650D01*
X121200519Y-74050029D01*
X121198694Y-74040068D01*
X121174012Y-73985228D01*
X121171151Y-73978322D01*
X121149818Y-73922070D01*
X121144058Y-73913726D01*
X121133030Y-73894172D01*
X121131479Y-73890726D01*
X121128877Y-73884943D01*
X121100788Y-73849090D01*
X121091788Y-73837602D01*
X121087349Y-73831569D01*
X121053184Y-73782072D01*
X121053183Y-73782071D01*
X121008153Y-73742178D01*
X121002715Y-73737058D01*
X119260092Y-71994435D01*
X119226607Y-71933112D01*
X119227567Y-71876316D01*
X119260108Y-71747821D01*
X119280643Y-71500000D01*
X119260108Y-71252179D01*
X119199063Y-71011119D01*
X119105996Y-70798948D01*
X119099174Y-70783395D01*
X119099173Y-70783393D01*
X118963164Y-70575215D01*
X118794744Y-70392262D01*
X118767729Y-70371235D01*
X118598514Y-70239529D01*
X118598510Y-70239526D01*
X118598509Y-70239526D01*
X118379810Y-70121172D01*
X118379806Y-70121170D01*
X118379805Y-70121170D01*
X118144615Y-70040429D01*
X117899335Y-69999500D01*
X117650665Y-69999500D01*
X117405384Y-70040429D01*
X117170194Y-70121170D01*
X116951485Y-70239529D01*
X116755259Y-70392259D01*
X116755256Y-70392261D01*
X116755256Y-70392262D01*
X116586836Y-70575215D01*
X116550673Y-70630567D01*
X116450825Y-70783395D01*
X116369368Y-70969100D01*
X116350937Y-71011119D01*
X116324337Y-71116161D01*
X116289891Y-71252183D01*
X116269356Y-71500000D01*
X113030457Y-71500000D01*
X113030457Y-56874335D01*
X115674500Y-56874335D01*
X115685603Y-56940874D01*
X115715429Y-57119615D01*
X115795169Y-57351889D01*
X115796172Y-57354810D01*
X115914526Y-57573509D01*
X115914529Y-57573514D01*
X116039894Y-57734582D01*
X116067262Y-57769744D01*
X116250215Y-57938164D01*
X116437926Y-58060801D01*
X116458395Y-58074174D01*
X116480833Y-58084016D01*
X116686119Y-58174063D01*
X116927179Y-58235108D01*
X117112933Y-58250500D01*
X117115503Y-58250500D01*
X117234497Y-58250500D01*
X117237067Y-58250500D01*
X117422821Y-58235108D01*
X117663881Y-58174063D01*
X117891607Y-58074173D01*
X118099785Y-57938164D01*
X118282738Y-57769744D01*
X118435474Y-57573509D01*
X118450902Y-57545000D01*
X123059952Y-57545000D01*
X123080113Y-57814026D01*
X123140146Y-58077049D01*
X123238708Y-58328178D01*
X123373598Y-58561816D01*
X123427295Y-58629150D01*
X124262452Y-57793993D01*
X124272188Y-57823956D01*
X124360186Y-57962619D01*
X124479903Y-58075040D01*
X124614510Y-58149041D01*
X123779848Y-58983702D01*
X123962479Y-59108217D01*
X124205542Y-59225270D01*
X124463339Y-59304791D01*
X124730109Y-59345000D01*
X124999891Y-59345000D01*
X125266660Y-59304791D01*
X125524460Y-59225270D01*
X125767523Y-59108217D01*
X125950150Y-58983702D01*
X125112534Y-58146086D01*
X125180629Y-58119126D01*
X125313492Y-58022595D01*
X125418175Y-57896055D01*
X125466631Y-57793079D01*
X126302703Y-58629151D01*
X126302704Y-58629150D01*
X126356400Y-58561818D01*
X126491291Y-58328178D01*
X126589853Y-58077049D01*
X126649886Y-57814026D01*
X126670047Y-57545000D01*
X126649886Y-57275973D01*
X126589853Y-57012950D01*
X126491291Y-56761821D01*
X126356398Y-56528178D01*
X126302704Y-56460847D01*
X125467546Y-57296004D01*
X125457812Y-57266044D01*
X125369814Y-57127381D01*
X125250097Y-57014960D01*
X125115489Y-56940958D01*
X125950150Y-56106296D01*
X125767519Y-55981780D01*
X125524460Y-55864729D01*
X125266660Y-55785208D01*
X124999891Y-55745000D01*
X124730109Y-55745000D01*
X124463339Y-55785208D01*
X124205542Y-55864729D01*
X123962476Y-55981783D01*
X123779848Y-56106296D01*
X124617465Y-56943913D01*
X124549371Y-56970874D01*
X124416508Y-57067405D01*
X124311825Y-57193945D01*
X124263368Y-57296920D01*
X123427295Y-56460848D01*
X123373598Y-56528182D01*
X123238708Y-56761821D01*
X123140146Y-57012950D01*
X123080113Y-57275973D01*
X123059952Y-57545000D01*
X118450902Y-57545000D01*
X118553828Y-57354810D01*
X118634571Y-57119614D01*
X118675500Y-56874335D01*
X118675500Y-56625665D01*
X118634571Y-56380386D01*
X118553828Y-56145190D01*
X118435474Y-55926491D01*
X118435471Y-55926487D01*
X118435470Y-55926485D01*
X118298813Y-55750909D01*
X118282738Y-55730256D01*
X118099785Y-55561836D01*
X117891607Y-55425827D01*
X117891604Y-55425825D01*
X117723957Y-55352289D01*
X117663881Y-55325937D01*
X117483866Y-55280351D01*
X117422822Y-55264892D01*
X117388854Y-55262077D01*
X117237067Y-55249500D01*
X117112933Y-55249500D01*
X116995111Y-55259262D01*
X116927177Y-55264892D01*
X116805086Y-55295810D01*
X116686119Y-55325937D01*
X116686116Y-55325938D01*
X116686117Y-55325938D01*
X116458395Y-55425825D01*
X116319607Y-55516499D01*
X116250215Y-55561836D01*
X116083835Y-55715000D01*
X116067259Y-55730259D01*
X115914529Y-55926485D01*
X115843513Y-56057710D01*
X115800325Y-56137517D01*
X115796170Y-56145194D01*
X115715429Y-56380384D01*
X115695773Y-56498178D01*
X115674500Y-56625665D01*
X115674500Y-56874335D01*
X113030457Y-56874335D01*
X113030457Y-55413284D01*
X113030627Y-55406797D01*
X113037231Y-55280751D01*
X113048192Y-55085977D01*
X113049519Y-55073570D01*
X113073008Y-54925257D01*
X113073649Y-54921484D01*
X113101963Y-54754828D01*
X113104418Y-54743591D01*
X113144922Y-54592421D01*
X113191273Y-54431525D01*
X113194623Y-54421536D01*
X113251187Y-54274177D01*
X113252345Y-54271276D01*
X113315048Y-54119891D01*
X113319109Y-54111083D01*
X113391343Y-53969312D01*
X113393194Y-53965826D01*
X113471892Y-53823430D01*
X113476373Y-53815960D01*
X113563407Y-53681937D01*
X113566188Y-53677843D01*
X113659931Y-53545721D01*
X113664644Y-53539507D01*
X113765383Y-53415104D01*
X113769241Y-53410569D01*
X113876985Y-53290002D01*
X113881685Y-53285030D01*
X113994984Y-53171729D01*
X113999974Y-53167011D01*
X114120553Y-53059254D01*
X114125052Y-53055426D01*
X114249490Y-52954656D01*
X114255665Y-52949973D01*
X114387810Y-52856210D01*
X114391944Y-52853403D01*
X114525915Y-52766400D01*
X114533379Y-52761921D01*
X114675744Y-52683239D01*
X114679340Y-52681329D01*
X114821053Y-52609122D01*
X114829839Y-52605072D01*
X114981271Y-52542346D01*
X114984082Y-52541225D01*
X115131479Y-52484644D01*
X115141522Y-52481276D01*
X115302319Y-52434950D01*
X115453557Y-52394425D01*
X115464823Y-52391965D01*
X115635226Y-52363012D01*
X115783500Y-52339528D01*
X115795902Y-52338201D01*
X115998272Y-52326836D01*
X116115926Y-52320670D01*
X116122415Y-52320500D01*
X183596714Y-52320500D01*
X183603201Y-52320669D01*
G37*
%TD.AperFunction*%
%TD*%
M02*
