%TF.GenerationSoftware,KiCad,Pcbnew,7.0.2*%
%TF.CreationDate,2023-06-26T18:32:19+02:00*%
%TF.ProjectId,Two_phese_bipolar_stepper_motor,54776f5f-7068-4657-9365-5f6269706f6c,REV1*%
%TF.SameCoordinates,Original*%
%TF.FileFunction,Copper,L2,Bot*%
%TF.FilePolarity,Positive*%
%FSLAX46Y46*%
G04 Gerber Fmt 4.6, Leading zero omitted, Abs format (unit mm)*
G04 Created by KiCad (PCBNEW 7.0.2) date 2023-06-26 18:32:19*
%MOMM*%
%LPD*%
G01*
G04 APERTURE LIST*
%TA.AperFunction,ComponentPad*%
%ADD10R,1.800000X1.800000*%
%TD*%
%TA.AperFunction,ComponentPad*%
%ADD11O,1.800000X1.800000*%
%TD*%
%TA.AperFunction,ComponentPad*%
%ADD12R,2.400000X2.400000*%
%TD*%
%TA.AperFunction,ComponentPad*%
%ADD13C,2.400000*%
%TD*%
%TA.AperFunction,ComponentPad*%
%ADD14O,2.400000X2.400000*%
%TD*%
%TA.AperFunction,ComponentPad*%
%ADD15C,1.600000*%
%TD*%
%TA.AperFunction,ComponentPad*%
%ADD16C,2.000000*%
%TD*%
%TA.AperFunction,ComponentPad*%
%ADD17R,2.600000X2.600000*%
%TD*%
%TA.AperFunction,ComponentPad*%
%ADD18C,2.600000*%
%TD*%
%TA.AperFunction,ComponentPad*%
%ADD19R,2.400000X1.600000*%
%TD*%
%TA.AperFunction,ComponentPad*%
%ADD20O,2.400000X1.600000*%
%TD*%
%TA.AperFunction,ViaPad*%
%ADD21C,0.800000*%
%TD*%
%TA.AperFunction,Conductor*%
%ADD22C,0.400000*%
%TD*%
G04 APERTURE END LIST*
D10*
%TO.P,U2,1,SENSE_A*%
%TO.N,/Rs1*%
X154210000Y-62360000D03*
D11*
%TO.P,U2,2,OUT1*%
%TO.N,Net-(D1-A)*%
X155480000Y-57280000D03*
%TO.P,U2,3,OUT2*%
%TO.N,Net-(D2-A)*%
X156750000Y-62360000D03*
%TO.P,U2,4,Vs*%
%TO.N,VS*%
X158020000Y-57280000D03*
%TO.P,U2,5,IN1*%
%TO.N,Net-(U1-A)*%
X159290000Y-62360000D03*
%TO.P,U2,6,EnA*%
%TO.N,Net-(U1-INH1)*%
X160560000Y-57280000D03*
%TO.P,U2,7,IN2*%
%TO.N,Net-(U1-B)*%
X161830000Y-62360000D03*
%TO.P,U2,8,GND*%
%TO.N,GND*%
X163100000Y-57280000D03*
%TO.P,U2,9,Vss*%
%TO.N,VS*%
X164370000Y-62360000D03*
%TO.P,U2,10,IN3*%
%TO.N,Net-(U1-C)*%
X165640000Y-57280000D03*
%TO.P,U2,11,EnB*%
%TO.N,Net-(U1-INH2)*%
X166910000Y-62360000D03*
%TO.P,U2,12,IN4*%
%TO.N,Net-(U1-D)*%
X168180000Y-57280000D03*
%TO.P,U2,13,OUT3*%
%TO.N,Net-(D3-A)*%
X169450000Y-62360000D03*
%TO.P,U2,14,OUT4*%
%TO.N,Net-(D4-A)*%
X170720000Y-57280000D03*
%TO.P,U2,15,SENSE_B*%
%TO.N,/Rs2*%
X171990000Y-62360000D03*
%TD*%
D12*
%TO.P,C4,1*%
%TO.N,VS*%
X136652000Y-74460000D03*
D13*
%TO.P,C4,2*%
%TO.N,GND*%
X141652000Y-74460000D03*
%TD*%
D12*
%TO.P,D3,1,K*%
%TO.N,VS*%
X157734000Y-115100000D03*
D14*
%TO.P,D3,2,A*%
%TO.N,Net-(D3-A)*%
X172974000Y-115100000D03*
%TD*%
D12*
%TO.P,D4,1,K*%
%TO.N,VS*%
X157734000Y-121990000D03*
D14*
%TO.P,D4,2,A*%
%TO.N,Net-(D4-A)*%
X172974000Y-121990000D03*
%TD*%
D13*
%TO.P,Rs2,1*%
%TO.N,/Rs2*%
X139165000Y-99710000D03*
D14*
%TO.P,Rs2,2*%
%TO.N,GND*%
X139165000Y-114950000D03*
%TD*%
D15*
%TO.P,C3,1*%
%TO.N,VS*%
X124246000Y-74460000D03*
%TO.P,C3,2*%
%TO.N,GND*%
X129246000Y-74460000D03*
%TD*%
D16*
%TO.P,C1,1*%
%TO.N,/OSC*%
X117775000Y-71500000D03*
%TO.P,C1,2*%
%TO.N,GND*%
X117775000Y-79000000D03*
%TD*%
D17*
%TO.P,J1,1,Pin_1*%
%TO.N,VS*%
X143205000Y-57515000D03*
D18*
%TO.P,J1,2,Pin_2*%
%TO.N,GND*%
X138125000Y-57515000D03*
%TD*%
D17*
%TO.P,J4,1,Pin_1*%
%TO.N,Net-(D1-A)*%
X136518000Y-128137000D03*
D18*
%TO.P,J4,2,Pin_2*%
%TO.N,Net-(D2-A)*%
X141518000Y-128137000D03*
%TO.P,J4,3,Pin_3*%
%TO.N,Net-(D3-A)*%
X146518000Y-128137000D03*
%TO.P,J4,4,Pin_4*%
%TO.N,Net-(D4-A)*%
X151518000Y-128137000D03*
%TD*%
D13*
%TO.P,R1,1*%
%TO.N,/OSC*%
X152908000Y-90424000D03*
D14*
%TO.P,R1,2*%
%TO.N,VS*%
X127508000Y-90424000D03*
%TD*%
D12*
%TO.P,D1,1,K*%
%TO.N,VS*%
X157734000Y-101320000D03*
D14*
%TO.P,D1,2,A*%
%TO.N,Net-(D1-A)*%
X172974000Y-101320000D03*
%TD*%
D12*
%TO.P,D8,1,K*%
%TO.N,Net-(D4-A)*%
X116525000Y-98558334D03*
D14*
%TO.P,D8,2,A*%
%TO.N,GND*%
X131765000Y-98558334D03*
%TD*%
D12*
%TO.P,D5,1,K*%
%TO.N,Net-(D1-A)*%
X116525000Y-122883334D03*
D14*
%TO.P,D5,2,A*%
%TO.N,GND*%
X131765000Y-122883334D03*
%TD*%
D12*
%TO.P,D2,1,K*%
%TO.N,VS*%
X157734000Y-108210000D03*
D14*
%TO.P,D2,2,A*%
%TO.N,Net-(D2-A)*%
X172974000Y-108210000D03*
%TD*%
D12*
%TO.P,D7,1,K*%
%TO.N,Net-(D3-A)*%
X116525000Y-106666667D03*
D14*
%TO.P,D7,2,A*%
%TO.N,GND*%
X131765000Y-106666667D03*
%TD*%
D19*
%TO.P,U1,1,SYNC*%
%TO.N,/SYNC*%
X168910000Y-93510000D03*
D20*
%TO.P,U1,2,GND*%
%TO.N,GND*%
X168910000Y-90970000D03*
%TO.P,U1,3,HOME*%
%TO.N,/HOME*%
X168910000Y-88430000D03*
%TO.P,U1,4,A*%
%TO.N,Net-(U1-A)*%
X168910000Y-85890000D03*
%TO.P,U1,5,INH1*%
%TO.N,Net-(U1-INH1)*%
X168910000Y-83350000D03*
%TO.P,U1,6,B*%
%TO.N,Net-(U1-B)*%
X168910000Y-80810000D03*
%TO.P,U1,7,C*%
%TO.N,Net-(U1-C)*%
X168910000Y-78270000D03*
%TO.P,U1,8,INH2*%
%TO.N,Net-(U1-INH2)*%
X168910000Y-75730000D03*
%TO.P,U1,9,D*%
%TO.N,Net-(U1-D)*%
X168910000Y-73190000D03*
%TO.P,U1,10,ENABLE*%
%TO.N,/ENA*%
X168910000Y-70650000D03*
%TO.P,U1,11,CONTROL*%
%TO.N,/CTRL*%
X161290000Y-70650000D03*
%TO.P,U1,12,Vs*%
%TO.N,VS*%
X161290000Y-73190000D03*
%TO.P,U1,13,SENS2*%
%TO.N,/Rs2*%
X161290000Y-75730000D03*
%TO.P,U1,14,SENS1*%
%TO.N,/Rs1*%
X161290000Y-78270000D03*
%TO.P,U1,15,Vref*%
%TO.N,/Vref*%
X161290000Y-80810000D03*
%TO.P,U1,16,OSC*%
%TO.N,/OSC*%
X161290000Y-83350000D03*
%TO.P,U1,17,CW*%
%TO.N,/CW*%
X161290000Y-85890000D03*
%TO.P,U1,18,CLOCK*%
%TO.N,/CLK*%
X161290000Y-88430000D03*
%TO.P,U1,19,HALF*%
%TO.N,/HALF*%
X161290000Y-90970000D03*
%TO.P,U1,20,RESET*%
%TO.N,/RESET*%
X161290000Y-93510000D03*
%TD*%
D12*
%TO.P,D6,1,K*%
%TO.N,Net-(D2-A)*%
X116525000Y-114775000D03*
D14*
%TO.P,D6,2,A*%
%TO.N,GND*%
X131765000Y-114775000D03*
%TD*%
D17*
%TO.P,J2,1,Pin_1*%
%TO.N,VS*%
X129945000Y-57545000D03*
D18*
%TO.P,J2,2,Pin_2*%
%TO.N,GND*%
X124865000Y-57545000D03*
%TD*%
D17*
%TO.P,J3,1,Pin_1*%
%TO.N,GND*%
X181450000Y-120700000D03*
D18*
%TO.P,J3,2,Pin_2*%
%TO.N,/HALF*%
X181450000Y-115700000D03*
%TO.P,J3,3,Pin_3*%
%TO.N,/HOME*%
X181450000Y-110700000D03*
%TO.P,J3,4,Pin_4*%
%TO.N,/Vref*%
X181450000Y-105700000D03*
%TO.P,J3,5,Pin_5*%
%TO.N,/CLK*%
X181450000Y-100700000D03*
%TO.P,J3,6,Pin_6*%
%TO.N,/CW*%
X181450000Y-95700000D03*
%TO.P,J3,7,Pin_7*%
%TO.N,/ENA*%
X181450000Y-90700000D03*
%TO.P,J3,8,Pin_8*%
%TO.N,/RESET*%
X181450000Y-85700000D03*
%TO.P,J3,9,Pin_9*%
%TO.N,/CTRL*%
X181450000Y-80700000D03*
%TO.P,J3,10,Pin_10*%
%TO.N,/OSC*%
X181450000Y-75700000D03*
%TO.P,J3,11,Pin_11*%
%TO.N,/SYNC*%
X181450000Y-70700000D03*
%TO.P,J3,12,Pin_12*%
%TO.N,unconnected-(J3-Pin_12-Pad12)*%
X181450000Y-65700000D03*
%TD*%
D15*
%TO.P,C2,1*%
%TO.N,VS*%
X153375000Y-69500000D03*
%TO.P,C2,2*%
%TO.N,GND*%
X153375000Y-74500000D03*
%TD*%
D13*
%TO.P,Rs1,1*%
%TO.N,/Rs1*%
X149325000Y-99710000D03*
D14*
%TO.P,Rs1,2*%
%TO.N,GND*%
X149325000Y-114950000D03*
%TD*%
D21*
%TO.N,/OSC*%
X140875000Y-93525000D03*
X166700000Y-97525000D03*
X177450000Y-97325000D03*
X170175000Y-97550000D03*
%TO.N,VS*%
X153525000Y-96600000D03*
%TO.N,Net-(D1-A)*%
X168075000Y-123850000D03*
%TO.N,Net-(D2-A)*%
X151000000Y-71550000D03*
X169050000Y-120550000D03*
X145175000Y-83100000D03*
%TO.N,Net-(D3-A)*%
X170350000Y-115125000D03*
%TO.N,/CLK*%
X164225000Y-93500000D03*
%TO.N,/CW*%
X164225000Y-89825000D03*
%TO.N,/ENA*%
X166790602Y-70525000D03*
%TO.N,/CTRL*%
X161175000Y-65900000D03*
%TO.N,/Rs1*%
X147950000Y-62550000D03*
%TO.N,Net-(U1-A)*%
X175889500Y-59750000D03*
%TO.N,Net-(U1-B)*%
X164850000Y-73950000D03*
%TO.N,Net-(U1-INH2)*%
X165841102Y-67166102D03*
%TD*%
D22*
%TO.N,/OSC*%
X149807000Y-93525000D02*
X152908000Y-90424000D01*
X140875000Y-93525000D02*
X149807000Y-93525000D01*
X177450000Y-97325000D02*
X177225000Y-97550000D01*
X177225000Y-97550000D02*
X170175000Y-97550000D01*
X166700000Y-97525000D02*
X163275000Y-94100000D01*
X163275000Y-85335000D02*
X161290000Y-83350000D01*
X163275000Y-94100000D02*
X163275000Y-85335000D01*
%TO.N,GND*%
X153335000Y-74460000D02*
X153375000Y-74500000D01*
X168350000Y-90970000D02*
X168910000Y-90970000D01*
X181450000Y-121250000D02*
X181450000Y-120700000D01*
%TO.N,VS*%
X133684000Y-96600000D02*
X127508000Y-90424000D01*
X153525000Y-96600000D02*
X133684000Y-96600000D01*
%TO.N,Net-(D1-A)*%
X168075000Y-123850000D02*
X160438000Y-131487000D01*
X155480000Y-57280000D02*
X151876497Y-57280000D01*
X144382497Y-78911685D02*
X166790812Y-101320000D01*
X160438000Y-131487000D02*
X139868000Y-131487000D01*
X144382497Y-64774000D02*
X144382497Y-78911685D01*
X151876497Y-57280000D02*
X144382497Y-64774000D01*
X139868000Y-131487000D02*
X136518000Y-128137000D01*
X166790812Y-101320000D02*
X172974000Y-101320000D01*
%TO.N,Net-(D2-A)*%
X144118000Y-130737000D02*
X141518000Y-128137000D01*
X151000000Y-71550000D02*
X151000000Y-69382792D01*
X172974000Y-108210000D02*
X161124000Y-108210000D01*
X154475000Y-96206497D02*
X152743503Y-94475000D01*
X161124000Y-108210000D02*
X154475000Y-101561000D01*
X169050000Y-120550000D02*
X158863000Y-130737000D01*
X151000000Y-69382792D02*
X156750000Y-63632792D01*
X154475000Y-101561000D02*
X154475000Y-96206497D01*
X139900000Y-93893503D02*
X139900000Y-88375000D01*
X158863000Y-130737000D02*
X144118000Y-130737000D01*
X140481497Y-94475000D02*
X139900000Y-93893503D01*
X139900000Y-88375000D02*
X145175000Y-83100000D01*
X156750000Y-63632792D02*
X156750000Y-62360000D01*
X152743503Y-94475000D02*
X140481497Y-94475000D01*
%TO.N,Net-(D3-A)*%
X180785305Y-125525000D02*
X185450000Y-125525000D01*
X172974000Y-115100000D02*
X172974000Y-117713695D01*
X155488000Y-129987000D02*
X148368000Y-129987000D01*
X185450000Y-125525000D02*
X185450000Y-63225000D01*
X172974000Y-117713695D02*
X180785305Y-125525000D01*
X170900000Y-60910000D02*
X169450000Y-62360000D01*
X170350000Y-115125000D02*
X155488000Y-129987000D01*
X183135000Y-60910000D02*
X170900000Y-60910000D01*
X185450000Y-63225000D02*
X183135000Y-60910000D01*
X148368000Y-129987000D02*
X146518000Y-128137000D01*
%TO.N,Net-(D4-A)*%
X172974000Y-121990000D02*
X177259000Y-126275000D01*
X186200000Y-125835660D02*
X186200000Y-62625000D01*
X177259000Y-126275000D02*
X185760660Y-126275000D01*
X186200000Y-62625000D02*
X182025000Y-58450000D01*
X182025000Y-58450000D02*
X171890000Y-58450000D01*
X171890000Y-58450000D02*
X170720000Y-57280000D01*
X185760660Y-126275000D02*
X186200000Y-125835660D01*
%TO.N,/CLK*%
X164225000Y-93500000D02*
X170295000Y-99570000D01*
X180320000Y-99570000D02*
X181450000Y-100700000D01*
X170295000Y-99570000D02*
X180320000Y-99570000D01*
%TO.N,/CW*%
X164225000Y-91925000D02*
X168000000Y-95700000D01*
X164225000Y-89825000D02*
X164225000Y-91925000D01*
X168000000Y-95700000D02*
X181450000Y-95700000D01*
%TO.N,/ENA*%
X166790602Y-70525000D02*
X168554188Y-70525000D01*
X168554188Y-70525000D02*
X176125000Y-78095812D01*
X176125000Y-78095812D02*
X176125000Y-88200000D01*
X178625000Y-90700000D02*
X181450000Y-90700000D01*
X176125000Y-88200000D02*
X178625000Y-90700000D01*
%TO.N,/CTRL*%
X161175000Y-65900000D02*
X166650000Y-65900000D01*
X166650000Y-65900000D02*
X181450000Y-80700000D01*
%TO.N,/Rs1*%
X154210000Y-62360000D02*
X154725000Y-62875000D01*
X149770000Y-78270000D02*
X161290000Y-78270000D01*
X147950000Y-62550000D02*
X147950000Y-76450000D01*
X147950000Y-76450000D02*
X149770000Y-78270000D01*
%TO.N,Net-(U1-A)*%
X175889500Y-59750000D02*
X161900000Y-59750000D01*
X161900000Y-59750000D02*
X159290000Y-62360000D01*
%TO.N,Net-(U1-B)*%
X164850000Y-73950000D02*
X164850000Y-71900812D01*
X164850000Y-71900812D02*
X160225000Y-67275812D01*
X160225000Y-67275812D02*
X160225000Y-63965000D01*
X160225000Y-63965000D02*
X161830000Y-62360000D01*
%TO.N,Net-(U1-INH2)*%
X165841102Y-67166102D02*
X165841102Y-72661102D01*
X165841102Y-72661102D02*
X168910000Y-75730000D01*
%TD*%
%TA.AperFunction,Conductor*%
%TO.N,GND*%
G36*
X183603201Y-52320669D02*
G01*
X183733376Y-52327490D01*
X183923612Y-52338171D01*
X183936028Y-52339499D01*
X184088529Y-52363651D01*
X184254672Y-52391878D01*
X184265989Y-52394350D01*
X184419802Y-52435563D01*
X184430344Y-52438599D01*
X184577979Y-52481131D01*
X184588001Y-52484492D01*
X184737338Y-52541816D01*
X184740292Y-52542994D01*
X184889616Y-52604845D01*
X184898414Y-52608900D01*
X185040520Y-52681306D01*
X185041690Y-52681902D01*
X185045376Y-52683859D01*
X185186016Y-52761587D01*
X185193570Y-52766119D01*
X185328861Y-52853977D01*
X185333069Y-52856835D01*
X185463708Y-52949528D01*
X185469988Y-52954292D01*
X185595536Y-53055958D01*
X185600128Y-53059864D01*
X185719419Y-53166469D01*
X185724473Y-53171248D01*
X185838750Y-53285525D01*
X185843529Y-53290579D01*
X185950134Y-53409870D01*
X185954040Y-53414462D01*
X186055706Y-53540010D01*
X186060470Y-53546290D01*
X186153163Y-53676929D01*
X186156029Y-53681149D01*
X186243879Y-53816428D01*
X186248411Y-53823982D01*
X186326139Y-53964622D01*
X186328096Y-53968308D01*
X186401085Y-54111557D01*
X186405161Y-54120400D01*
X186466992Y-54269677D01*
X186468195Y-54272692D01*
X186525494Y-54421964D01*
X186528884Y-54432075D01*
X186574436Y-54590197D01*
X186615650Y-54744015D01*
X186618119Y-54755321D01*
X186646350Y-54921484D01*
X186670502Y-55073989D01*
X186671831Y-55086411D01*
X186682156Y-55269879D01*
X186689330Y-55406799D01*
X186689500Y-55413286D01*
X186689500Y-55461567D01*
X186689543Y-55461947D01*
X186689543Y-61824524D01*
X186669858Y-61891563D01*
X186617054Y-61937318D01*
X186547896Y-61947262D01*
X186484340Y-61918237D01*
X186477862Y-61912205D01*
X182537940Y-57972283D01*
X182532822Y-57966847D01*
X182492929Y-57921817D01*
X182443432Y-57887651D01*
X182437405Y-57883216D01*
X182390054Y-57846120D01*
X182380813Y-57841961D01*
X182361273Y-57830941D01*
X182352930Y-57825182D01*
X182352927Y-57825181D01*
X182352926Y-57825180D01*
X182296701Y-57803856D01*
X182289783Y-57800991D01*
X182243783Y-57780288D01*
X182190728Y-57734823D01*
X182170676Y-57667893D01*
X182189992Y-57600746D01*
X182196815Y-57591057D01*
X182210474Y-57573509D01*
X182328828Y-57354810D01*
X182409571Y-57119614D01*
X182450500Y-56874335D01*
X182450500Y-56625665D01*
X182409571Y-56380386D01*
X182328828Y-56145190D01*
X182210474Y-55926491D01*
X182210471Y-55926487D01*
X182210470Y-55926485D01*
X182073813Y-55750909D01*
X182057738Y-55730256D01*
X181874785Y-55561836D01*
X181666607Y-55425827D01*
X181666604Y-55425825D01*
X181541523Y-55370960D01*
X181438881Y-55325937D01*
X181258866Y-55280351D01*
X181197822Y-55264892D01*
X181163854Y-55262077D01*
X181012067Y-55249500D01*
X180887933Y-55249500D01*
X180770111Y-55259262D01*
X180702177Y-55264892D01*
X180580087Y-55295810D01*
X180461119Y-55325937D01*
X180461116Y-55325938D01*
X180461117Y-55325938D01*
X180233395Y-55425825D01*
X180094607Y-55516499D01*
X180025215Y-55561836D01*
X179858835Y-55715000D01*
X179842259Y-55730259D01*
X179689529Y-55926485D01*
X179618513Y-56057710D01*
X179575325Y-56137517D01*
X179571170Y-56145194D01*
X179490429Y-56380384D01*
X179455850Y-56587608D01*
X179449500Y-56625665D01*
X179449500Y-56874335D01*
X179460603Y-56940874D01*
X179490429Y-57119615D01*
X179570169Y-57351889D01*
X179571172Y-57354810D01*
X179685724Y-57566484D01*
X179700319Y-57634811D01*
X179675656Y-57700183D01*
X179619566Y-57741844D01*
X179576669Y-57749500D01*
X172231519Y-57749500D01*
X172164480Y-57729815D01*
X172143838Y-57713181D01*
X172122780Y-57692123D01*
X172089295Y-57630800D01*
X172090255Y-57574004D01*
X172106134Y-57511305D01*
X172125300Y-57280000D01*
X172106134Y-57048695D01*
X172049157Y-56823700D01*
X171955924Y-56611151D01*
X171828979Y-56416847D01*
X171671784Y-56246087D01*
X171488626Y-56103530D01*
X171284503Y-55993064D01*
X171284499Y-55993062D01*
X171284498Y-55993062D01*
X171064984Y-55917702D01*
X170883715Y-55887454D01*
X170836049Y-55879500D01*
X170603951Y-55879500D01*
X170558164Y-55887140D01*
X170375015Y-55917702D01*
X170155501Y-55993062D01*
X170155497Y-55993063D01*
X170155497Y-55993064D01*
X170137749Y-56002669D01*
X169951372Y-56103531D01*
X169768215Y-56246087D01*
X169611018Y-56416849D01*
X169553808Y-56504417D01*
X169500662Y-56549773D01*
X169431431Y-56559197D01*
X169368095Y-56529695D01*
X169346192Y-56504417D01*
X169288981Y-56416849D01*
X169131784Y-56246087D01*
X169030336Y-56167127D01*
X168948626Y-56103530D01*
X168744503Y-55993064D01*
X168744499Y-55993062D01*
X168744498Y-55993062D01*
X168524984Y-55917702D01*
X168343715Y-55887454D01*
X168296049Y-55879500D01*
X168063951Y-55879500D01*
X168018164Y-55887140D01*
X167835015Y-55917702D01*
X167615501Y-55993062D01*
X167615497Y-55993063D01*
X167615497Y-55993064D01*
X167597749Y-56002669D01*
X167411372Y-56103531D01*
X167228215Y-56246087D01*
X167071018Y-56416849D01*
X167013808Y-56504417D01*
X166960662Y-56549773D01*
X166891431Y-56559197D01*
X166828095Y-56529695D01*
X166806192Y-56504417D01*
X166748981Y-56416849D01*
X166591784Y-56246087D01*
X166490336Y-56167127D01*
X166408626Y-56103530D01*
X166204503Y-55993064D01*
X166204499Y-55993062D01*
X166204498Y-55993062D01*
X165984984Y-55917702D01*
X165803715Y-55887454D01*
X165756049Y-55879500D01*
X165523951Y-55879500D01*
X165478164Y-55887140D01*
X165295015Y-55917702D01*
X165075501Y-55993062D01*
X165075497Y-55993063D01*
X165075497Y-55993064D01*
X165057749Y-56002669D01*
X164871372Y-56103531D01*
X164688215Y-56246087D01*
X164531018Y-56416850D01*
X164473509Y-56504874D01*
X164420363Y-56550231D01*
X164351131Y-56559654D01*
X164287796Y-56530152D01*
X164265892Y-56504874D01*
X164208581Y-56417154D01*
X164051443Y-56246456D01*
X163868353Y-56103951D01*
X163664296Y-55993521D01*
X163444860Y-55918188D01*
X163350000Y-55902358D01*
X163350000Y-56844498D01*
X163242315Y-56795320D01*
X163135763Y-56780000D01*
X163064237Y-56780000D01*
X162957685Y-56795320D01*
X162850000Y-56844498D01*
X162850000Y-55902359D01*
X162849999Y-55902358D01*
X162755139Y-55918188D01*
X162535703Y-55993521D01*
X162331646Y-56103951D01*
X162148556Y-56246456D01*
X161991414Y-56417158D01*
X161934106Y-56504874D01*
X161880959Y-56550231D01*
X161811728Y-56559654D01*
X161748393Y-56530151D01*
X161726489Y-56504873D01*
X161697726Y-56460848D01*
X161668979Y-56416847D01*
X161511784Y-56246087D01*
X161328626Y-56103530D01*
X161124503Y-55993064D01*
X161124499Y-55993062D01*
X161124498Y-55993062D01*
X160904984Y-55917702D01*
X160723715Y-55887454D01*
X160676049Y-55879500D01*
X160443951Y-55879500D01*
X160398164Y-55887140D01*
X160215015Y-55917702D01*
X159995501Y-55993062D01*
X159995497Y-55993063D01*
X159995497Y-55993064D01*
X159977749Y-56002669D01*
X159791372Y-56103531D01*
X159608215Y-56246087D01*
X159451018Y-56416849D01*
X159393808Y-56504417D01*
X159340662Y-56549773D01*
X159271431Y-56559197D01*
X159208095Y-56529695D01*
X159186192Y-56504417D01*
X159128981Y-56416849D01*
X158971784Y-56246087D01*
X158870336Y-56167127D01*
X158788626Y-56103530D01*
X158584503Y-55993064D01*
X158584499Y-55993062D01*
X158584498Y-55993062D01*
X158364984Y-55917702D01*
X158183715Y-55887454D01*
X158136049Y-55879500D01*
X157903951Y-55879500D01*
X157858164Y-55887140D01*
X157675015Y-55917702D01*
X157455501Y-55993062D01*
X157455497Y-55993063D01*
X157455497Y-55993064D01*
X157437749Y-56002669D01*
X157251372Y-56103531D01*
X157068215Y-56246087D01*
X156911018Y-56416849D01*
X156853808Y-56504417D01*
X156800662Y-56549773D01*
X156731431Y-56559197D01*
X156668095Y-56529695D01*
X156646192Y-56504417D01*
X156588981Y-56416849D01*
X156431784Y-56246087D01*
X156330336Y-56167127D01*
X156248626Y-56103530D01*
X156044503Y-55993064D01*
X156044499Y-55993062D01*
X156044498Y-55993062D01*
X155824984Y-55917702D01*
X155643715Y-55887454D01*
X155596049Y-55879500D01*
X155363951Y-55879500D01*
X155318164Y-55887140D01*
X155135015Y-55917702D01*
X154915501Y-55993062D01*
X154915497Y-55993063D01*
X154915497Y-55993064D01*
X154897749Y-56002669D01*
X154711372Y-56103531D01*
X154528215Y-56246087D01*
X154382590Y-56404279D01*
X154371021Y-56416847D01*
X154301458Y-56523322D01*
X154248311Y-56568678D01*
X154197649Y-56579500D01*
X151901406Y-56579500D01*
X151893919Y-56579274D01*
X151833888Y-56575642D01*
X151774739Y-56586481D01*
X151767340Y-56587608D01*
X151707619Y-56594860D01*
X151698138Y-56598456D01*
X151676533Y-56604479D01*
X151666566Y-56606305D01*
X151611731Y-56630984D01*
X151604815Y-56633848D01*
X151548566Y-56655181D01*
X151540222Y-56660941D01*
X151520680Y-56671963D01*
X151511441Y-56676121D01*
X151464091Y-56713216D01*
X151458063Y-56717652D01*
X151408564Y-56751819D01*
X151368680Y-56796838D01*
X151363548Y-56802290D01*
X143904787Y-64261051D01*
X143899335Y-64266183D01*
X143854313Y-64306070D01*
X143820146Y-64355568D01*
X143815710Y-64361597D01*
X143778618Y-64408942D01*
X143774458Y-64418186D01*
X143763438Y-64437725D01*
X143757679Y-64446069D01*
X143736350Y-64502305D01*
X143733486Y-64509219D01*
X143708800Y-64564070D01*
X143706972Y-64574047D01*
X143700951Y-64595648D01*
X143697356Y-64605128D01*
X143690106Y-64664827D01*
X143688980Y-64672226D01*
X143678138Y-64731390D01*
X143681771Y-64791433D01*
X143681997Y-64798920D01*
X143681997Y-78886764D01*
X143681771Y-78894251D01*
X143678138Y-78954292D01*
X143688980Y-79013456D01*
X143690107Y-79020857D01*
X143697357Y-79080558D01*
X143700947Y-79090024D01*
X143706972Y-79111637D01*
X143708800Y-79121614D01*
X143733488Y-79176468D01*
X143736353Y-79183386D01*
X143746388Y-79209844D01*
X143757679Y-79239615D01*
X143763438Y-79247958D01*
X143774458Y-79267498D01*
X143778617Y-79276739D01*
X143815713Y-79324090D01*
X143820148Y-79330117D01*
X143854314Y-79379614D01*
X143899344Y-79419507D01*
X143904780Y-79424625D01*
X152991974Y-88511819D01*
X153025459Y-88573142D01*
X153020475Y-88642834D01*
X152978603Y-88698767D01*
X152913139Y-88723184D01*
X152904293Y-88723500D01*
X152780565Y-88723500D01*
X152528542Y-88761487D01*
X152284996Y-88836611D01*
X152055366Y-88947195D01*
X152030929Y-88963856D01*
X151844781Y-89090769D01*
X151657949Y-89264122D01*
X151657950Y-89264123D01*
X151525631Y-89430046D01*
X151499038Y-89463392D01*
X151371608Y-89684108D01*
X151278492Y-89921362D01*
X151221777Y-90169845D01*
X151202731Y-90423999D01*
X151221777Y-90678154D01*
X151278492Y-90926639D01*
X151287223Y-90948885D01*
X151293390Y-91018482D01*
X151260951Y-91080365D01*
X151259475Y-91081866D01*
X149553162Y-92788181D01*
X149491839Y-92821666D01*
X149465481Y-92824500D01*
X141483156Y-92824500D01*
X141416117Y-92804815D01*
X141410270Y-92800818D01*
X141327727Y-92740847D01*
X141154802Y-92663855D01*
X140969648Y-92624500D01*
X140969646Y-92624500D01*
X140780354Y-92624500D01*
X140750279Y-92630892D01*
X140680612Y-92625574D01*
X140624879Y-92583436D01*
X140600775Y-92517856D01*
X140600500Y-92509601D01*
X140600500Y-88716518D01*
X140620185Y-88649479D01*
X140636819Y-88628837D01*
X142929160Y-86336496D01*
X145237973Y-84027682D01*
X145299294Y-83994199D01*
X145299516Y-83994150D01*
X145454803Y-83961144D01*
X145627730Y-83884151D01*
X145748376Y-83796497D01*
X145780870Y-83772889D01*
X145907533Y-83632216D01*
X146002179Y-83468284D01*
X146040612Y-83349999D01*
X146060674Y-83288256D01*
X146080460Y-83100000D01*
X146060674Y-82911744D01*
X146002179Y-82731716D01*
X146002179Y-82731715D01*
X145907533Y-82567783D01*
X145780870Y-82427110D01*
X145627730Y-82315848D01*
X145454802Y-82238855D01*
X145269648Y-82199500D01*
X145269646Y-82199500D01*
X145080354Y-82199500D01*
X145080352Y-82199500D01*
X144895197Y-82238855D01*
X144722269Y-82315848D01*
X144569129Y-82427110D01*
X144442466Y-82567783D01*
X144347820Y-82731715D01*
X144289325Y-82911746D01*
X144284134Y-82961130D01*
X144257549Y-83025744D01*
X144248495Y-83035847D01*
X139422290Y-87862051D01*
X139416838Y-87867183D01*
X139371816Y-87907070D01*
X139337649Y-87956568D01*
X139333213Y-87962597D01*
X139296121Y-88009942D01*
X139291961Y-88019186D01*
X139280941Y-88038725D01*
X139275182Y-88047069D01*
X139253853Y-88103305D01*
X139250989Y-88110219D01*
X139226303Y-88165070D01*
X139224475Y-88175047D01*
X139218454Y-88196648D01*
X139214859Y-88206128D01*
X139207609Y-88265827D01*
X139206483Y-88273226D01*
X139195641Y-88332390D01*
X139199274Y-88392433D01*
X139199500Y-88399920D01*
X139199500Y-93868582D01*
X139199274Y-93876069D01*
X139195641Y-93936110D01*
X139206483Y-93995274D01*
X139207610Y-94002675D01*
X139214860Y-94062376D01*
X139218450Y-94071842D01*
X139224475Y-94093455D01*
X139226303Y-94103432D01*
X139250991Y-94158286D01*
X139253856Y-94165204D01*
X139275180Y-94221429D01*
X139275182Y-94221433D01*
X139280941Y-94229776D01*
X139291961Y-94249316D01*
X139296120Y-94258557D01*
X139333216Y-94305908D01*
X139337654Y-94311939D01*
X139367066Y-94354550D01*
X139371817Y-94361432D01*
X139416847Y-94401325D01*
X139422283Y-94406443D01*
X139968555Y-94952715D01*
X139973675Y-94958153D01*
X140013568Y-95003183D01*
X140063074Y-95037355D01*
X140069094Y-95041785D01*
X140116438Y-95078877D01*
X140116439Y-95078877D01*
X140116440Y-95078878D01*
X140125681Y-95083037D01*
X140145227Y-95094061D01*
X140153567Y-95099818D01*
X140209810Y-95121147D01*
X140216714Y-95124007D01*
X140271566Y-95148695D01*
X140281541Y-95150522D01*
X140303153Y-95156547D01*
X140312625Y-95160140D01*
X140372338Y-95167390D01*
X140379682Y-95168507D01*
X140438891Y-95179358D01*
X140495599Y-95175927D01*
X140498931Y-95175726D01*
X140506418Y-95175500D01*
X152401984Y-95175500D01*
X152469023Y-95195185D01*
X152489665Y-95211819D01*
X152965665Y-95687819D01*
X152999150Y-95749142D01*
X152994166Y-95818834D01*
X152952294Y-95874767D01*
X152886830Y-95899184D01*
X152877984Y-95899500D01*
X134025519Y-95899500D01*
X133958480Y-95879815D01*
X133937838Y-95863181D01*
X129156523Y-91081866D01*
X129123038Y-91020543D01*
X129128022Y-90950851D01*
X129128744Y-90948964D01*
X129137508Y-90926637D01*
X129194222Y-90678157D01*
X129213268Y-90424000D01*
X129194222Y-90169843D01*
X129137508Y-89921363D01*
X129044393Y-89684112D01*
X129028589Y-89656739D01*
X128955182Y-89529593D01*
X128916959Y-89463388D01*
X128758050Y-89264123D01*
X128571217Y-89090768D01*
X128360634Y-88947195D01*
X128131004Y-88836611D01*
X127887458Y-88761487D01*
X127635435Y-88723500D01*
X127380565Y-88723500D01*
X127128542Y-88761487D01*
X126884996Y-88836611D01*
X126655366Y-88947195D01*
X126630929Y-88963856D01*
X126444781Y-89090769D01*
X126257950Y-89264122D01*
X126257950Y-89264123D01*
X126125631Y-89430046D01*
X126099038Y-89463392D01*
X125971608Y-89684108D01*
X125878492Y-89921362D01*
X125821777Y-90169845D01*
X125802731Y-90424000D01*
X125821777Y-90678154D01*
X125878492Y-90926637D01*
X125971608Y-91163891D01*
X126097272Y-91381548D01*
X126099041Y-91384612D01*
X126257950Y-91583877D01*
X126444783Y-91757232D01*
X126655366Y-91900805D01*
X126884996Y-92011389D01*
X127128542Y-92086513D01*
X127380565Y-92124500D01*
X127635435Y-92124500D01*
X127887458Y-92086513D01*
X128039528Y-92039604D01*
X128109390Y-92038655D01*
X128163758Y-92070415D01*
X133171058Y-97077715D01*
X133176178Y-97083153D01*
X133216071Y-97128183D01*
X133265577Y-97162355D01*
X133271597Y-97166785D01*
X133318941Y-97203877D01*
X133318942Y-97203877D01*
X133318943Y-97203878D01*
X133328184Y-97208037D01*
X133347730Y-97219061D01*
X133356070Y-97224818D01*
X133412313Y-97246147D01*
X133419217Y-97249007D01*
X133474069Y-97273695D01*
X133484044Y-97275522D01*
X133505656Y-97281547D01*
X133515128Y-97285140D01*
X133574841Y-97292390D01*
X133582185Y-97293507D01*
X133641394Y-97304358D01*
X133698102Y-97300927D01*
X133701434Y-97300726D01*
X133708921Y-97300500D01*
X152916844Y-97300500D01*
X152983883Y-97320185D01*
X152989722Y-97324176D01*
X153072270Y-97384151D01*
X153072271Y-97384151D01*
X153072272Y-97384152D01*
X153245197Y-97461144D01*
X153430352Y-97500500D01*
X153430354Y-97500500D01*
X153619647Y-97500500D01*
X153624719Y-97499422D01*
X153694386Y-97504738D01*
X153750120Y-97546875D01*
X153774225Y-97612455D01*
X153774500Y-97620712D01*
X153774500Y-101536079D01*
X153774274Y-101543566D01*
X153770641Y-101603607D01*
X153781483Y-101662771D01*
X153782610Y-101670172D01*
X153789860Y-101729873D01*
X153793450Y-101739339D01*
X153799475Y-101760952D01*
X153801303Y-101770929D01*
X153825991Y-101825783D01*
X153828856Y-101832701D01*
X153849368Y-101886785D01*
X153850182Y-101888930D01*
X153855941Y-101897273D01*
X153866961Y-101916813D01*
X153871120Y-101926054D01*
X153908216Y-101973405D01*
X153912651Y-101979432D01*
X153946817Y-102028929D01*
X153991847Y-102068822D01*
X153997283Y-102073940D01*
X158221162Y-106297819D01*
X158254647Y-106359142D01*
X158249663Y-106428834D01*
X158207791Y-106484767D01*
X158142327Y-106509184D01*
X158133481Y-106509500D01*
X156489439Y-106509500D01*
X156489420Y-106509500D01*
X156486128Y-106509501D01*
X156482848Y-106509853D01*
X156482840Y-106509854D01*
X156426515Y-106515909D01*
X156291669Y-106566204D01*
X156176454Y-106652454D01*
X156090204Y-106767668D01*
X156049513Y-106876768D01*
X156039909Y-106902517D01*
X156033500Y-106962127D01*
X156033500Y-106965448D01*
X156033500Y-106965449D01*
X156033500Y-109454560D01*
X156033500Y-109454578D01*
X156033501Y-109457872D01*
X156033853Y-109461152D01*
X156033854Y-109461159D01*
X156039909Y-109517483D01*
X156090204Y-109652331D01*
X156176454Y-109767546D01*
X156291669Y-109853796D01*
X156426517Y-109904091D01*
X156486127Y-109910500D01*
X158981872Y-109910499D01*
X159041483Y-109904091D01*
X159176331Y-109853796D01*
X159291546Y-109767546D01*
X159377796Y-109652331D01*
X159428091Y-109517483D01*
X159434500Y-109457873D01*
X159434499Y-107810517D01*
X159454184Y-107743479D01*
X159506987Y-107697724D01*
X159576146Y-107687780D01*
X159639702Y-107716805D01*
X159646180Y-107722837D01*
X160611058Y-108687715D01*
X160616178Y-108693153D01*
X160656071Y-108738183D01*
X160705577Y-108772355D01*
X160711597Y-108776785D01*
X160758941Y-108813877D01*
X160758942Y-108813877D01*
X160758943Y-108813878D01*
X160768184Y-108818037D01*
X160787730Y-108829061D01*
X160796070Y-108834818D01*
X160852322Y-108856151D01*
X160859218Y-108859009D01*
X160914068Y-108883695D01*
X160924035Y-108885521D01*
X160945651Y-108891546D01*
X160955128Y-108895140D01*
X161014840Y-108902390D01*
X161022185Y-108903507D01*
X161081394Y-108914358D01*
X161138102Y-108910927D01*
X161141434Y-108910726D01*
X161148921Y-108910500D01*
X171343275Y-108910500D01*
X171410314Y-108930185D01*
X171450661Y-108972499D01*
X171565041Y-109170612D01*
X171723950Y-109369877D01*
X171910783Y-109543232D01*
X172121366Y-109686805D01*
X172350996Y-109797389D01*
X172594542Y-109872513D01*
X172846565Y-109910500D01*
X173101435Y-109910500D01*
X173353458Y-109872513D01*
X173597004Y-109797389D01*
X173826634Y-109686805D01*
X174037217Y-109543232D01*
X174224050Y-109369877D01*
X174382959Y-109170612D01*
X174510393Y-108949888D01*
X174603508Y-108712637D01*
X174660222Y-108464157D01*
X174679268Y-108210000D01*
X174660222Y-107955843D01*
X174603508Y-107707363D01*
X174510393Y-107470112D01*
X174382959Y-107249388D01*
X174224050Y-107050123D01*
X174037217Y-106876768D01*
X173826634Y-106733195D01*
X173597004Y-106622611D01*
X173353458Y-106547487D01*
X173101435Y-106509500D01*
X172846565Y-106509500D01*
X172594542Y-106547487D01*
X172350996Y-106622611D01*
X172121366Y-106733195D01*
X172070802Y-106767669D01*
X171910781Y-106876769D01*
X171723950Y-107050123D01*
X171565040Y-107249389D01*
X171450662Y-107447500D01*
X171400095Y-107495715D01*
X171343275Y-107509500D01*
X161465519Y-107509500D01*
X161398480Y-107489815D01*
X161377838Y-107473181D01*
X159604656Y-105699999D01*
X179644450Y-105699999D01*
X179664616Y-105969100D01*
X179664617Y-105969103D01*
X179724666Y-106232195D01*
X179823257Y-106483398D01*
X179958185Y-106717102D01*
X180126439Y-106928085D01*
X180324259Y-107111635D01*
X180547226Y-107263651D01*
X180790359Y-107380738D01*
X181048228Y-107460280D01*
X181315071Y-107500500D01*
X181584929Y-107500500D01*
X181851772Y-107460280D01*
X182109641Y-107380738D01*
X182352775Y-107263651D01*
X182575741Y-107111635D01*
X182773561Y-106928085D01*
X182941815Y-106717102D01*
X183076743Y-106483398D01*
X183175334Y-106232195D01*
X183235383Y-105969103D01*
X183255549Y-105700000D01*
X183235383Y-105430897D01*
X183175334Y-105167805D01*
X183076743Y-104916602D01*
X182941815Y-104682898D01*
X182773561Y-104471915D01*
X182773560Y-104471914D01*
X182575743Y-104288366D01*
X182518205Y-104249137D01*
X182352775Y-104136349D01*
X182109641Y-104019262D01*
X182030097Y-103994726D01*
X181851771Y-103939719D01*
X181584929Y-103899500D01*
X181315071Y-103899500D01*
X181048228Y-103939719D01*
X180790359Y-104019262D01*
X180547228Y-104136347D01*
X180324257Y-104288366D01*
X180126439Y-104471915D01*
X179958184Y-104682899D01*
X179823257Y-104916601D01*
X179724666Y-105167804D01*
X179664616Y-105430899D01*
X179644450Y-105699999D01*
X159604656Y-105699999D01*
X157136837Y-103232180D01*
X157103352Y-103170857D01*
X157108336Y-103101165D01*
X157150208Y-103045232D01*
X157215672Y-103020815D01*
X157224518Y-103020499D01*
X158978561Y-103020499D01*
X158981872Y-103020499D01*
X159041483Y-103014091D01*
X159176331Y-102963796D01*
X159291546Y-102877546D01*
X159377796Y-102762331D01*
X159428091Y-102627483D01*
X159434500Y-102567873D01*
X159434499Y-100072128D01*
X159428091Y-100012517D01*
X159377796Y-99877669D01*
X159291546Y-99762454D01*
X159176331Y-99676204D01*
X159041483Y-99625909D01*
X158981873Y-99619500D01*
X158978550Y-99619500D01*
X156489439Y-99619500D01*
X156489420Y-99619500D01*
X156486128Y-99619501D01*
X156482848Y-99619853D01*
X156482840Y-99619854D01*
X156426515Y-99625909D01*
X156291669Y-99676204D01*
X156176454Y-99762454D01*
X156090204Y-99877668D01*
X156039910Y-100012515D01*
X156039909Y-100012517D01*
X156033500Y-100072127D01*
X156033500Y-100075448D01*
X156033500Y-100075449D01*
X156033500Y-101829480D01*
X156013815Y-101896519D01*
X155961011Y-101942274D01*
X155891853Y-101952218D01*
X155828297Y-101923193D01*
X155821819Y-101917161D01*
X155211819Y-101307162D01*
X155178334Y-101245839D01*
X155175500Y-101219481D01*
X155175500Y-96231416D01*
X155175726Y-96223929D01*
X155179358Y-96163891D01*
X155168507Y-96104682D01*
X155167390Y-96097338D01*
X155160140Y-96037625D01*
X155156547Y-96028153D01*
X155150522Y-96006541D01*
X155148695Y-95996566D01*
X155124009Y-95941717D01*
X155121152Y-95934823D01*
X155099818Y-95878567D01*
X155094053Y-95870216D01*
X155083036Y-95850680D01*
X155078878Y-95841441D01*
X155041788Y-95794100D01*
X155037352Y-95788071D01*
X155003183Y-95738568D01*
X154958145Y-95698668D01*
X154952707Y-95693548D01*
X153256443Y-93997283D01*
X153251325Y-93991847D01*
X153211432Y-93946817D01*
X153201150Y-93939720D01*
X153161939Y-93912654D01*
X153155908Y-93908216D01*
X153108557Y-93871120D01*
X153099316Y-93866961D01*
X153079776Y-93855941D01*
X153071433Y-93850182D01*
X153071430Y-93850181D01*
X153071429Y-93850180D01*
X153015204Y-93828856D01*
X153008286Y-93825991D01*
X152953432Y-93801303D01*
X152943455Y-93799475D01*
X152921842Y-93793450D01*
X152912376Y-93789860D01*
X152852675Y-93782610D01*
X152845274Y-93781483D01*
X152786110Y-93770641D01*
X152726069Y-93774274D01*
X152718582Y-93774500D01*
X150847519Y-93774500D01*
X150780480Y-93754815D01*
X150734725Y-93702011D01*
X150724781Y-93632853D01*
X150753806Y-93569297D01*
X150759838Y-93562819D01*
X150916119Y-93406536D01*
X152252242Y-92070413D01*
X152313563Y-92036930D01*
X152376470Y-92039604D01*
X152528542Y-92086513D01*
X152780565Y-92124500D01*
X153035435Y-92124500D01*
X153287458Y-92086513D01*
X153531004Y-92011389D01*
X153760634Y-91900805D01*
X153971217Y-91757232D01*
X154158050Y-91583877D01*
X154316959Y-91384612D01*
X154444393Y-91163888D01*
X154537508Y-90926637D01*
X154594222Y-90678157D01*
X154613268Y-90424000D01*
X154613267Y-90423997D01*
X154613347Y-90422941D01*
X154637986Y-90357560D01*
X154694061Y-90315879D01*
X154763769Y-90311131D01*
X154824681Y-90344526D01*
X166277870Y-101797715D01*
X166282990Y-101803153D01*
X166322883Y-101848183D01*
X166372389Y-101882355D01*
X166378409Y-101886785D01*
X166425753Y-101923877D01*
X166425754Y-101923877D01*
X166425755Y-101923878D01*
X166434996Y-101928037D01*
X166454542Y-101939061D01*
X166462882Y-101944818D01*
X166519134Y-101966151D01*
X166526030Y-101969009D01*
X166580880Y-101993695D01*
X166590847Y-101995521D01*
X166612463Y-102001546D01*
X166621940Y-102005140D01*
X166681652Y-102012390D01*
X166688997Y-102013507D01*
X166748206Y-102024358D01*
X166804914Y-102020927D01*
X166808246Y-102020726D01*
X166815733Y-102020500D01*
X171343275Y-102020500D01*
X171410314Y-102040185D01*
X171450661Y-102082499D01*
X171565041Y-102280612D01*
X171723950Y-102479877D01*
X171910783Y-102653232D01*
X172121366Y-102796805D01*
X172350996Y-102907389D01*
X172594542Y-102982513D01*
X172846565Y-103020500D01*
X173101435Y-103020500D01*
X173353458Y-102982513D01*
X173597004Y-102907389D01*
X173826634Y-102796805D01*
X174037217Y-102653232D01*
X174224050Y-102479877D01*
X174382959Y-102280612D01*
X174510393Y-102059888D01*
X174603508Y-101822637D01*
X174660222Y-101574157D01*
X174679268Y-101320000D01*
X174660222Y-101065843D01*
X174603508Y-100817363D01*
X174510393Y-100580112D01*
X174497338Y-100557500D01*
X174439026Y-100456499D01*
X174422553Y-100388599D01*
X174445406Y-100322572D01*
X174500327Y-100279382D01*
X174546413Y-100270500D01*
X179545735Y-100270500D01*
X179612774Y-100290185D01*
X179658529Y-100342989D01*
X179668473Y-100412147D01*
X179666627Y-100422090D01*
X179664616Y-100430900D01*
X179644450Y-100700000D01*
X179664616Y-100969100D01*
X179664617Y-100969103D01*
X179724666Y-101232195D01*
X179823257Y-101483398D01*
X179958185Y-101717102D01*
X180126439Y-101928085D01*
X180324259Y-102111635D01*
X180547226Y-102263651D01*
X180790359Y-102380738D01*
X181048228Y-102460280D01*
X181315071Y-102500500D01*
X181584929Y-102500500D01*
X181851772Y-102460280D01*
X182109641Y-102380738D01*
X182352775Y-102263651D01*
X182575741Y-102111635D01*
X182773561Y-101928085D01*
X182941815Y-101717102D01*
X183076743Y-101483398D01*
X183175334Y-101232195D01*
X183235383Y-100969103D01*
X183255549Y-100700000D01*
X183235383Y-100430897D01*
X183175334Y-100167805D01*
X183076743Y-99916602D01*
X182941815Y-99682898D01*
X182773561Y-99471915D01*
X182756242Y-99455845D01*
X182575743Y-99288366D01*
X182456933Y-99207363D01*
X182352775Y-99136349D01*
X182109641Y-99019262D01*
X182002648Y-98986259D01*
X181851771Y-98939719D01*
X181584929Y-98899500D01*
X181315071Y-98899500D01*
X181048226Y-98939720D01*
X180825442Y-99008439D01*
X180755579Y-99009389D01*
X180712421Y-98987560D01*
X180690150Y-98970112D01*
X180685057Y-98966122D01*
X180685055Y-98966121D01*
X180685054Y-98966120D01*
X180675813Y-98961961D01*
X180656273Y-98950941D01*
X180647930Y-98945182D01*
X180647927Y-98945181D01*
X180647926Y-98945180D01*
X180591701Y-98923856D01*
X180584783Y-98920991D01*
X180529929Y-98896303D01*
X180519952Y-98894475D01*
X180498339Y-98888450D01*
X180488873Y-98884860D01*
X180429172Y-98877610D01*
X180421771Y-98876483D01*
X180362607Y-98865641D01*
X180302566Y-98869274D01*
X180295079Y-98869500D01*
X170636519Y-98869500D01*
X170569480Y-98849815D01*
X170548838Y-98833181D01*
X170345787Y-98630130D01*
X170312302Y-98568807D01*
X170317286Y-98499115D01*
X170359158Y-98443182D01*
X170407685Y-98421158D01*
X170454803Y-98411144D01*
X170454804Y-98411143D01*
X170454806Y-98411143D01*
X170541266Y-98372647D01*
X170627730Y-98334151D01*
X170710270Y-98274181D01*
X170776077Y-98250702D01*
X170783156Y-98250500D01*
X177200079Y-98250500D01*
X177207566Y-98250726D01*
X177210706Y-98250915D01*
X177267606Y-98254358D01*
X177326782Y-98243513D01*
X177334181Y-98242387D01*
X177393872Y-98235140D01*
X177397048Y-98233935D01*
X177398041Y-98233559D01*
X177442014Y-98225500D01*
X177544648Y-98225500D01*
X177674551Y-98197888D01*
X177729803Y-98186144D01*
X177902730Y-98109151D01*
X177987604Y-98047487D01*
X178055870Y-97997889D01*
X178182533Y-97857216D01*
X178277179Y-97693284D01*
X178335674Y-97513256D01*
X178355460Y-97325000D01*
X178335674Y-97136744D01*
X178277179Y-96956716D01*
X178277179Y-96956715D01*
X178182533Y-96792783D01*
X178055870Y-96652110D01*
X178018305Y-96624818D01*
X177975639Y-96569488D01*
X177969660Y-96499875D01*
X178002266Y-96438080D01*
X178063104Y-96403723D01*
X178091190Y-96400500D01*
X179706180Y-96400500D01*
X179773219Y-96420185D01*
X179818974Y-96472989D01*
X179821609Y-96479200D01*
X179823256Y-96483398D01*
X179893869Y-96605703D01*
X179958185Y-96717102D01*
X180126439Y-96928085D01*
X180324259Y-97111635D01*
X180547226Y-97263651D01*
X180790359Y-97380738D01*
X181048228Y-97460280D01*
X181315071Y-97500500D01*
X181584929Y-97500500D01*
X181851772Y-97460280D01*
X182109641Y-97380738D01*
X182352775Y-97263651D01*
X182575741Y-97111635D01*
X182773561Y-96928085D01*
X182941815Y-96717102D01*
X183076743Y-96483398D01*
X183175334Y-96232195D01*
X183235383Y-95969103D01*
X183255549Y-95700000D01*
X183235383Y-95430897D01*
X183175334Y-95167805D01*
X183076743Y-94916602D01*
X182941815Y-94682898D01*
X182773561Y-94471915D01*
X182745138Y-94445542D01*
X182575743Y-94288366D01*
X182503402Y-94239045D01*
X182352775Y-94136349D01*
X182109641Y-94019262D01*
X182020702Y-93991828D01*
X181851771Y-93939719D01*
X181584929Y-93899500D01*
X181315071Y-93899500D01*
X181048228Y-93939719D01*
X180790359Y-94019262D01*
X180547228Y-94136347D01*
X180324257Y-94288366D01*
X180126439Y-94471915D01*
X179958184Y-94682899D01*
X179823256Y-94916601D01*
X179821609Y-94920800D01*
X179778794Y-94976015D01*
X179712924Y-94999316D01*
X179706180Y-94999500D01*
X170380858Y-94999500D01*
X170313819Y-94979815D01*
X170268064Y-94927011D01*
X170258120Y-94857853D01*
X170287145Y-94794297D01*
X170337521Y-94759319D01*
X170352331Y-94753796D01*
X170467546Y-94667546D01*
X170553796Y-94552331D01*
X170604091Y-94417483D01*
X170610500Y-94357873D01*
X170610499Y-92662128D01*
X170604091Y-92602517D01*
X170553796Y-92467669D01*
X170467546Y-92352454D01*
X170352331Y-92266204D01*
X170345486Y-92263651D01*
X170217479Y-92215907D01*
X170181647Y-92212055D01*
X170117096Y-92185317D01*
X170077248Y-92127924D01*
X170074755Y-92058099D01*
X170110408Y-91998010D01*
X170123782Y-91987190D01*
X170148816Y-91969661D01*
X170309658Y-91808819D01*
X170440134Y-91622480D01*
X170536266Y-91416326D01*
X170588872Y-91220000D01*
X169225686Y-91220000D01*
X169237641Y-91208045D01*
X169295165Y-91095148D01*
X169314986Y-90970000D01*
X169295165Y-90844852D01*
X169237641Y-90731955D01*
X169225686Y-90720000D01*
X170588872Y-90720000D01*
X170588871Y-90719999D01*
X170536266Y-90523673D01*
X170440134Y-90317519D01*
X170309658Y-90131180D01*
X170148819Y-89970341D01*
X169962482Y-89839866D01*
X169904133Y-89812657D01*
X169851694Y-89766484D01*
X169832543Y-89699290D01*
X169852759Y-89632409D01*
X169904134Y-89587893D01*
X169962734Y-89560568D01*
X170149139Y-89430047D01*
X170310047Y-89269139D01*
X170440568Y-89082734D01*
X170536739Y-88876496D01*
X170595635Y-88656692D01*
X170615468Y-88430000D01*
X170595635Y-88203308D01*
X170536739Y-87983504D01*
X170440568Y-87777266D01*
X170310047Y-87590861D01*
X170310046Y-87590859D01*
X170149140Y-87429953D01*
X169962733Y-87299431D01*
X169904725Y-87272382D01*
X169852285Y-87226210D01*
X169833133Y-87159017D01*
X169853348Y-87092135D01*
X169904725Y-87047618D01*
X169962734Y-87020568D01*
X170149139Y-86890047D01*
X170310047Y-86729139D01*
X170440568Y-86542734D01*
X170536739Y-86336496D01*
X170595635Y-86116692D01*
X170615468Y-85890000D01*
X170595635Y-85663308D01*
X170536739Y-85443504D01*
X170440568Y-85237266D01*
X170437737Y-85233222D01*
X170310046Y-85050859D01*
X170149140Y-84889953D01*
X169962733Y-84759431D01*
X169904725Y-84732382D01*
X169852285Y-84686210D01*
X169833133Y-84619017D01*
X169853348Y-84552135D01*
X169904725Y-84507618D01*
X169962734Y-84480568D01*
X170149139Y-84350047D01*
X170310047Y-84189139D01*
X170440568Y-84002734D01*
X170536739Y-83796496D01*
X170595635Y-83576692D01*
X170615468Y-83350000D01*
X170595635Y-83123308D01*
X170536739Y-82903504D01*
X170440568Y-82697266D01*
X170310047Y-82510861D01*
X170310046Y-82510859D01*
X170149140Y-82349953D01*
X169962733Y-82219431D01*
X169904725Y-82192382D01*
X169852285Y-82146210D01*
X169833133Y-82079017D01*
X169853348Y-82012135D01*
X169904725Y-81967618D01*
X169962734Y-81940568D01*
X170149139Y-81810047D01*
X170310047Y-81649139D01*
X170440568Y-81462734D01*
X170536739Y-81256496D01*
X170595635Y-81036692D01*
X170615468Y-80810000D01*
X170595635Y-80583308D01*
X170536739Y-80363504D01*
X170440568Y-80157266D01*
X170348871Y-80026307D01*
X170310046Y-79970859D01*
X170149140Y-79809953D01*
X169962733Y-79679431D01*
X169904725Y-79652382D01*
X169852285Y-79606210D01*
X169833133Y-79539017D01*
X169853348Y-79472135D01*
X169904725Y-79427618D01*
X169962734Y-79400568D01*
X170149139Y-79270047D01*
X170310047Y-79109139D01*
X170440568Y-78922734D01*
X170536739Y-78716496D01*
X170595635Y-78496692D01*
X170615468Y-78270000D01*
X170595635Y-78043308D01*
X170536739Y-77823504D01*
X170440568Y-77617266D01*
X170420080Y-77588005D01*
X170310046Y-77430859D01*
X170149140Y-77269953D01*
X169962733Y-77139431D01*
X169904725Y-77112382D01*
X169852285Y-77066210D01*
X169833133Y-76999017D01*
X169853348Y-76932135D01*
X169904725Y-76887618D01*
X169962734Y-76860568D01*
X170149139Y-76730047D01*
X170310047Y-76569139D01*
X170440568Y-76382734D01*
X170536739Y-76176496D01*
X170595635Y-75956692D01*
X170615468Y-75730000D01*
X170595635Y-75503308D01*
X170536739Y-75283504D01*
X170440568Y-75077266D01*
X170428479Y-75060000D01*
X170310046Y-74890859D01*
X170149140Y-74729953D01*
X169962733Y-74599431D01*
X169904725Y-74572382D01*
X169852285Y-74526210D01*
X169833133Y-74459017D01*
X169853348Y-74392135D01*
X169904725Y-74347618D01*
X169962734Y-74320568D01*
X170149139Y-74190047D01*
X170310047Y-74029139D01*
X170440568Y-73842734D01*
X170505875Y-73702682D01*
X170552047Y-73650244D01*
X170619241Y-73631092D01*
X170686122Y-73651308D01*
X170705938Y-73667407D01*
X175388181Y-78349649D01*
X175421666Y-78410972D01*
X175424500Y-78437330D01*
X175424500Y-88175079D01*
X175424274Y-88182566D01*
X175420641Y-88242607D01*
X175431483Y-88301771D01*
X175432610Y-88309172D01*
X175439860Y-88368873D01*
X175443450Y-88378339D01*
X175449475Y-88399952D01*
X175451303Y-88409929D01*
X175475991Y-88464783D01*
X175478856Y-88471701D01*
X175500180Y-88527926D01*
X175500182Y-88527930D01*
X175505941Y-88536273D01*
X175516961Y-88555813D01*
X175521120Y-88565054D01*
X175558216Y-88612405D01*
X175562654Y-88618436D01*
X175589060Y-88656692D01*
X175596817Y-88667929D01*
X175641847Y-88707822D01*
X175647283Y-88712940D01*
X178112058Y-91177715D01*
X178117178Y-91183153D01*
X178157071Y-91228183D01*
X178206577Y-91262355D01*
X178212597Y-91266785D01*
X178259941Y-91303877D01*
X178259942Y-91303877D01*
X178259943Y-91303878D01*
X178269184Y-91308037D01*
X178288730Y-91319061D01*
X178297070Y-91324818D01*
X178353313Y-91346147D01*
X178360217Y-91349007D01*
X178415069Y-91373695D01*
X178425044Y-91375522D01*
X178446656Y-91381547D01*
X178456128Y-91385140D01*
X178515841Y-91392390D01*
X178523185Y-91393507D01*
X178582394Y-91404358D01*
X178639102Y-91400927D01*
X178642434Y-91400726D01*
X178649921Y-91400500D01*
X179706180Y-91400500D01*
X179773219Y-91420185D01*
X179818974Y-91472989D01*
X179821609Y-91479200D01*
X179823256Y-91483398D01*
X179931661Y-91671161D01*
X179958185Y-91717102D01*
X180126439Y-91928085D01*
X180324259Y-92111635D01*
X180547226Y-92263651D01*
X180790359Y-92380738D01*
X181048228Y-92460280D01*
X181315071Y-92500500D01*
X181584929Y-92500500D01*
X181851772Y-92460280D01*
X182109641Y-92380738D01*
X182352775Y-92263651D01*
X182575741Y-92111635D01*
X182773561Y-91928085D01*
X182941815Y-91717102D01*
X183076743Y-91483398D01*
X183175334Y-91232195D01*
X183235383Y-90969103D01*
X183255549Y-90700000D01*
X183235383Y-90430897D01*
X183175334Y-90167805D01*
X183076743Y-89916602D01*
X182941815Y-89682898D01*
X182773561Y-89471915D01*
X182773560Y-89471914D01*
X182575743Y-89288366D01*
X182518205Y-89249137D01*
X182352775Y-89136349D01*
X182109641Y-89019262D01*
X182030097Y-88994726D01*
X181851771Y-88939719D01*
X181584929Y-88899500D01*
X181315071Y-88899500D01*
X181048228Y-88939719D01*
X180790359Y-89019262D01*
X180547228Y-89136347D01*
X180324257Y-89288366D01*
X180126439Y-89471915D01*
X179958184Y-89682899D01*
X179823256Y-89916601D01*
X179821609Y-89920800D01*
X179778794Y-89976015D01*
X179712924Y-89999316D01*
X179706180Y-89999500D01*
X178966519Y-89999500D01*
X178899480Y-89979815D01*
X178878838Y-89963181D01*
X176861819Y-87946162D01*
X176828334Y-87884839D01*
X176825500Y-87858481D01*
X176825500Y-85700000D01*
X179644450Y-85700000D01*
X179664616Y-85969100D01*
X179698303Y-86116692D01*
X179724666Y-86232195D01*
X179823257Y-86483398D01*
X179958185Y-86717102D01*
X180126439Y-86928085D01*
X180324259Y-87111635D01*
X180547226Y-87263651D01*
X180790359Y-87380738D01*
X181048228Y-87460280D01*
X181315071Y-87500500D01*
X181584929Y-87500500D01*
X181851772Y-87460280D01*
X182109641Y-87380738D01*
X182352775Y-87263651D01*
X182575741Y-87111635D01*
X182773561Y-86928085D01*
X182941815Y-86717102D01*
X183076743Y-86483398D01*
X183175334Y-86232195D01*
X183235383Y-85969103D01*
X183255549Y-85700000D01*
X183235383Y-85430897D01*
X183175334Y-85167805D01*
X183076743Y-84916602D01*
X182941815Y-84682898D01*
X182773561Y-84471915D01*
X182773560Y-84471914D01*
X182575743Y-84288366D01*
X182518205Y-84249137D01*
X182352775Y-84136349D01*
X182109641Y-84019262D01*
X182005650Y-83987185D01*
X181851771Y-83939719D01*
X181584929Y-83899500D01*
X181315071Y-83899500D01*
X181048228Y-83939719D01*
X180790359Y-84019262D01*
X180547228Y-84136347D01*
X180324257Y-84288366D01*
X180126439Y-84471915D01*
X179958184Y-84682899D01*
X179823257Y-84916601D01*
X179724666Y-85167804D01*
X179664616Y-85430899D01*
X179644450Y-85700000D01*
X176825500Y-85700000D01*
X176825500Y-78120731D01*
X176825726Y-78113244D01*
X176829358Y-78053206D01*
X176818507Y-77993997D01*
X176817390Y-77986652D01*
X176810140Y-77926940D01*
X176806546Y-77917463D01*
X176800521Y-77895846D01*
X176798695Y-77885880D01*
X176774009Y-77831030D01*
X176771151Y-77824134D01*
X176749818Y-77767882D01*
X176744061Y-77759542D01*
X176733035Y-77739993D01*
X176733014Y-77739947D01*
X176728878Y-77730755D01*
X176728877Y-77730754D01*
X176728877Y-77730753D01*
X176691785Y-77683409D01*
X176687355Y-77677389D01*
X176653183Y-77627883D01*
X176608153Y-77587990D01*
X176602715Y-77582870D01*
X170464440Y-71444595D01*
X170430955Y-71383272D01*
X170435939Y-71313580D01*
X170439739Y-71304508D01*
X170440562Y-71302741D01*
X170440568Y-71302734D01*
X170536739Y-71096496D01*
X170548584Y-71052286D01*
X170584950Y-70992625D01*
X170647797Y-70962096D01*
X170717172Y-70970391D01*
X170756041Y-70996698D01*
X179724327Y-79964984D01*
X179757812Y-80026307D01*
X179752828Y-80095999D01*
X179752075Y-80097966D01*
X179724666Y-80167805D01*
X179664616Y-80430899D01*
X179644450Y-80699999D01*
X179664616Y-80969100D01*
X179664617Y-80969103D01*
X179724666Y-81232195D01*
X179823257Y-81483398D01*
X179958185Y-81717102D01*
X180126439Y-81928085D01*
X180324259Y-82111635D01*
X180547226Y-82263651D01*
X180790359Y-82380738D01*
X181048228Y-82460280D01*
X181315071Y-82500500D01*
X181584929Y-82500500D01*
X181851772Y-82460280D01*
X182109641Y-82380738D01*
X182352775Y-82263651D01*
X182575741Y-82111635D01*
X182773561Y-81928085D01*
X182941815Y-81717102D01*
X183076743Y-81483398D01*
X183175334Y-81232195D01*
X183235383Y-80969103D01*
X183255549Y-80700000D01*
X183235383Y-80430897D01*
X183175334Y-80167805D01*
X183076743Y-79916602D01*
X182941815Y-79682898D01*
X182773561Y-79471915D01*
X182722947Y-79424952D01*
X182575743Y-79288366D01*
X182421765Y-79183386D01*
X182352775Y-79136349D01*
X182109641Y-79019262D01*
X182015376Y-78990185D01*
X181851771Y-78939719D01*
X181584929Y-78899500D01*
X181315071Y-78899500D01*
X181048228Y-78939719D01*
X180894341Y-78987187D01*
X180838491Y-79004415D01*
X180768630Y-79005365D01*
X180714262Y-78973605D01*
X177440657Y-75700000D01*
X179644450Y-75700000D01*
X179664616Y-75969100D01*
X179695360Y-76103796D01*
X179724666Y-76232195D01*
X179823257Y-76483398D01*
X179958185Y-76717102D01*
X180126439Y-76928085D01*
X180324259Y-77111635D01*
X180547226Y-77263651D01*
X180790359Y-77380738D01*
X181048228Y-77460280D01*
X181315071Y-77500500D01*
X181584929Y-77500500D01*
X181851772Y-77460280D01*
X182109641Y-77380738D01*
X182352775Y-77263651D01*
X182575741Y-77111635D01*
X182773561Y-76928085D01*
X182941815Y-76717102D01*
X183076743Y-76483398D01*
X183175334Y-76232195D01*
X183235383Y-75969103D01*
X183255549Y-75700000D01*
X183235383Y-75430897D01*
X183175334Y-75167805D01*
X183076743Y-74916602D01*
X182941815Y-74682898D01*
X182773561Y-74471915D01*
X182759660Y-74459017D01*
X182575743Y-74288366D01*
X182494987Y-74233308D01*
X182352775Y-74136349D01*
X182109641Y-74019262D01*
X182030097Y-73994726D01*
X181851771Y-73939719D01*
X181584929Y-73899500D01*
X181315071Y-73899500D01*
X181048228Y-73939719D01*
X180790359Y-74019262D01*
X180547228Y-74136347D01*
X180324257Y-74288366D01*
X180126439Y-74471915D01*
X179958184Y-74682899D01*
X179823257Y-74916601D01*
X179724666Y-75167804D01*
X179664616Y-75430899D01*
X179644450Y-75700000D01*
X177440657Y-75700000D01*
X172440656Y-70699999D01*
X179644450Y-70699999D01*
X179664616Y-70969100D01*
X179717490Y-71200757D01*
X179724666Y-71232195D01*
X179823257Y-71483398D01*
X179958185Y-71717102D01*
X180126439Y-71928085D01*
X180324259Y-72111635D01*
X180547226Y-72263651D01*
X180790359Y-72380738D01*
X181048228Y-72460280D01*
X181315071Y-72500500D01*
X181584929Y-72500500D01*
X181851772Y-72460280D01*
X182109641Y-72380738D01*
X182352775Y-72263651D01*
X182575741Y-72111635D01*
X182773561Y-71928085D01*
X182941815Y-71717102D01*
X183076743Y-71483398D01*
X183175334Y-71232195D01*
X183235383Y-70969103D01*
X183255549Y-70700000D01*
X183235383Y-70430897D01*
X183175334Y-70167805D01*
X183076743Y-69916602D01*
X182941815Y-69682898D01*
X182773561Y-69471915D01*
X182773560Y-69471914D01*
X182575743Y-69288366D01*
X182466550Y-69213920D01*
X182352775Y-69136349D01*
X182109641Y-69019262D01*
X182030098Y-68994726D01*
X181851771Y-68939719D01*
X181584929Y-68899500D01*
X181315071Y-68899500D01*
X181048228Y-68939719D01*
X180790359Y-69019262D01*
X180547228Y-69136347D01*
X180324257Y-69288366D01*
X180126439Y-69471915D01*
X179958184Y-69682899D01*
X179823257Y-69916601D01*
X179724666Y-70167804D01*
X179664616Y-70430899D01*
X179644450Y-70699999D01*
X172440656Y-70699999D01*
X167440656Y-65699999D01*
X179644450Y-65699999D01*
X179664616Y-65969100D01*
X179664617Y-65969103D01*
X179724666Y-66232195D01*
X179823257Y-66483398D01*
X179958185Y-66717102D01*
X180126439Y-66928085D01*
X180324259Y-67111635D01*
X180547226Y-67263651D01*
X180790359Y-67380738D01*
X181048228Y-67460280D01*
X181315071Y-67500500D01*
X181584929Y-67500500D01*
X181851772Y-67460280D01*
X182109641Y-67380738D01*
X182352775Y-67263651D01*
X182575741Y-67111635D01*
X182773561Y-66928085D01*
X182941815Y-66717102D01*
X183076743Y-66483398D01*
X183175334Y-66232195D01*
X183235383Y-65969103D01*
X183255549Y-65700000D01*
X183235383Y-65430897D01*
X183175334Y-65167805D01*
X183076743Y-64916602D01*
X182941815Y-64682898D01*
X182773561Y-64471915D01*
X182736713Y-64437725D01*
X182575743Y-64288366D01*
X182473762Y-64218837D01*
X182352775Y-64136349D01*
X182109641Y-64019262D01*
X182002353Y-63986168D01*
X181851771Y-63939719D01*
X181584929Y-63899500D01*
X181315071Y-63899500D01*
X181048228Y-63939719D01*
X180790359Y-64019262D01*
X180547228Y-64136347D01*
X180324257Y-64288366D01*
X180126439Y-64471915D01*
X179958184Y-64682899D01*
X179823257Y-64916601D01*
X179724666Y-65167804D01*
X179664616Y-65430899D01*
X179644450Y-65699999D01*
X167440656Y-65699999D01*
X167162940Y-65422283D01*
X167157822Y-65416847D01*
X167117929Y-65371817D01*
X167068432Y-65337651D01*
X167062405Y-65333216D01*
X167015054Y-65296120D01*
X167005813Y-65291961D01*
X166986273Y-65280941D01*
X166977930Y-65275182D01*
X166977927Y-65275181D01*
X166977926Y-65275180D01*
X166921701Y-65253856D01*
X166914783Y-65250991D01*
X166859929Y-65226303D01*
X166849952Y-65224475D01*
X166828339Y-65218450D01*
X166818873Y-65214860D01*
X166759172Y-65207610D01*
X166751771Y-65206483D01*
X166692607Y-65195641D01*
X166632566Y-65199274D01*
X166625079Y-65199500D01*
X161783156Y-65199500D01*
X161716117Y-65179815D01*
X161710270Y-65175818D01*
X161627727Y-65115847D01*
X161454802Y-65038855D01*
X161269648Y-64999500D01*
X161269646Y-64999500D01*
X161080354Y-64999500D01*
X161075277Y-65000579D01*
X161005610Y-64995261D01*
X160949878Y-64953123D01*
X160925774Y-64887543D01*
X160925500Y-64879318D01*
X160925500Y-64306518D01*
X160945185Y-64239478D01*
X160961819Y-64218837D01*
X161182807Y-63997849D01*
X161417039Y-63763616D01*
X161478360Y-63730133D01*
X161525122Y-63728990D01*
X161713951Y-63760500D01*
X161713953Y-63760500D01*
X161946048Y-63760500D01*
X161946049Y-63760500D01*
X162174981Y-63722298D01*
X162394503Y-63646936D01*
X162598626Y-63536470D01*
X162781784Y-63393913D01*
X162938979Y-63223153D01*
X162996191Y-63135582D01*
X163049337Y-63090226D01*
X163118569Y-63080802D01*
X163181905Y-63110304D01*
X163203807Y-63135581D01*
X163261021Y-63223153D01*
X163418216Y-63393913D01*
X163601374Y-63536470D01*
X163805497Y-63646936D01*
X163888404Y-63675398D01*
X164025015Y-63722297D01*
X164025017Y-63722297D01*
X164025019Y-63722298D01*
X164253951Y-63760500D01*
X164253952Y-63760500D01*
X164486048Y-63760500D01*
X164486049Y-63760500D01*
X164714981Y-63722298D01*
X164934503Y-63646936D01*
X165138626Y-63536470D01*
X165321784Y-63393913D01*
X165478979Y-63223153D01*
X165536191Y-63135582D01*
X165589337Y-63090226D01*
X165658569Y-63080802D01*
X165721905Y-63110304D01*
X165743807Y-63135581D01*
X165801021Y-63223153D01*
X165958216Y-63393913D01*
X166141374Y-63536470D01*
X166345497Y-63646936D01*
X166428404Y-63675398D01*
X166565015Y-63722297D01*
X166565017Y-63722297D01*
X166565019Y-63722298D01*
X166793951Y-63760500D01*
X166793952Y-63760500D01*
X167026048Y-63760500D01*
X167026049Y-63760500D01*
X167254981Y-63722298D01*
X167474503Y-63646936D01*
X167678626Y-63536470D01*
X167861784Y-63393913D01*
X168018979Y-63223153D01*
X168076191Y-63135582D01*
X168129337Y-63090226D01*
X168198569Y-63080802D01*
X168261905Y-63110304D01*
X168283807Y-63135581D01*
X168341021Y-63223153D01*
X168498216Y-63393913D01*
X168681374Y-63536470D01*
X168885497Y-63646936D01*
X168968404Y-63675398D01*
X169105015Y-63722297D01*
X169105017Y-63722297D01*
X169105019Y-63722298D01*
X169333951Y-63760500D01*
X169333952Y-63760500D01*
X169566048Y-63760500D01*
X169566049Y-63760500D01*
X169794981Y-63722298D01*
X170014503Y-63646936D01*
X170218626Y-63536470D01*
X170401784Y-63393913D01*
X170558979Y-63223153D01*
X170616191Y-63135582D01*
X170669337Y-63090226D01*
X170738569Y-63080802D01*
X170801905Y-63110304D01*
X170823807Y-63135581D01*
X170881021Y-63223153D01*
X171038216Y-63393913D01*
X171221374Y-63536470D01*
X171425497Y-63646936D01*
X171508404Y-63675398D01*
X171645015Y-63722297D01*
X171645017Y-63722297D01*
X171645019Y-63722298D01*
X171873951Y-63760500D01*
X171873952Y-63760500D01*
X172106048Y-63760500D01*
X172106049Y-63760500D01*
X172334981Y-63722298D01*
X172554503Y-63646936D01*
X172758626Y-63536470D01*
X172941784Y-63393913D01*
X173098979Y-63223153D01*
X173225924Y-63028849D01*
X173319157Y-62816300D01*
X173376134Y-62591305D01*
X173395300Y-62360000D01*
X173376134Y-62128695D01*
X173319157Y-61903700D01*
X173266786Y-61784308D01*
X173257884Y-61715010D01*
X173287861Y-61651898D01*
X173347200Y-61615011D01*
X173380343Y-61610500D01*
X182793481Y-61610500D01*
X182860520Y-61630185D01*
X182881162Y-61646819D01*
X184713181Y-63478837D01*
X184746666Y-63540160D01*
X184749500Y-63566518D01*
X184749500Y-124700500D01*
X184729815Y-124767539D01*
X184677011Y-124813294D01*
X184625500Y-124824500D01*
X181126823Y-124824500D01*
X181059784Y-124804815D01*
X181039142Y-124788181D01*
X178295479Y-122044518D01*
X179650000Y-122044518D01*
X179650354Y-122051132D01*
X179656400Y-122107371D01*
X179706647Y-122242089D01*
X179792811Y-122357188D01*
X179907910Y-122443352D01*
X180042628Y-122493599D01*
X180098867Y-122499645D01*
X180105482Y-122500000D01*
X181200000Y-122500000D01*
X181200000Y-121304310D01*
X181208817Y-121309158D01*
X181367886Y-121350000D01*
X181490894Y-121350000D01*
X181612933Y-121334583D01*
X181699999Y-121300110D01*
X181699999Y-122499999D01*
X181700000Y-122500000D01*
X182794518Y-122500000D01*
X182801132Y-122499645D01*
X182857371Y-122493599D01*
X182992089Y-122443352D01*
X183107188Y-122357188D01*
X183193352Y-122242089D01*
X183243599Y-122107371D01*
X183249645Y-122051132D01*
X183250000Y-122044518D01*
X183250000Y-120950000D01*
X182050728Y-120950000D01*
X182073100Y-120902457D01*
X182103873Y-120741138D01*
X182093561Y-120577234D01*
X182052220Y-120450000D01*
X183250000Y-120450000D01*
X183250000Y-119355481D01*
X183249645Y-119348867D01*
X183243599Y-119292628D01*
X183193352Y-119157910D01*
X183107188Y-119042811D01*
X182992089Y-118956647D01*
X182857371Y-118906400D01*
X182801132Y-118900354D01*
X182794518Y-118900000D01*
X181700000Y-118900000D01*
X181699999Y-120095688D01*
X181691183Y-120090842D01*
X181532114Y-120050000D01*
X181409106Y-120050000D01*
X181287067Y-120065417D01*
X181200000Y-120099889D01*
X181200000Y-118900000D01*
X180105482Y-118900000D01*
X180098867Y-118900354D01*
X180042628Y-118906400D01*
X179907910Y-118956647D01*
X179792811Y-119042811D01*
X179706647Y-119157910D01*
X179656400Y-119292628D01*
X179650354Y-119348867D01*
X179650000Y-119355481D01*
X179650000Y-120450000D01*
X180849272Y-120450000D01*
X180826900Y-120497543D01*
X180796127Y-120658862D01*
X180806439Y-120822766D01*
X180847780Y-120950000D01*
X179650000Y-120950000D01*
X179650000Y-122044518D01*
X178295479Y-122044518D01*
X173710819Y-117459857D01*
X173677334Y-117398534D01*
X173674500Y-117372176D01*
X173674500Y-116727982D01*
X173694185Y-116660943D01*
X173744695Y-116616263D01*
X173826634Y-116576805D01*
X174037217Y-116433232D01*
X174224050Y-116259877D01*
X174382959Y-116060612D01*
X174510393Y-115839888D01*
X174565295Y-115700000D01*
X179644450Y-115700000D01*
X179664616Y-115969100D01*
X179696283Y-116107841D01*
X179724666Y-116232195D01*
X179823257Y-116483398D01*
X179958185Y-116717102D01*
X180126439Y-116928085D01*
X180324259Y-117111635D01*
X180547226Y-117263651D01*
X180790359Y-117380738D01*
X181048228Y-117460280D01*
X181315071Y-117500500D01*
X181584929Y-117500500D01*
X181851772Y-117460280D01*
X182109641Y-117380738D01*
X182352775Y-117263651D01*
X182575741Y-117111635D01*
X182773561Y-116928085D01*
X182941815Y-116717102D01*
X183076743Y-116483398D01*
X183175334Y-116232195D01*
X183235383Y-115969103D01*
X183255549Y-115700000D01*
X183235383Y-115430897D01*
X183175334Y-115167805D01*
X183076743Y-114916602D01*
X182941815Y-114682898D01*
X182773561Y-114471915D01*
X182773560Y-114471914D01*
X182575743Y-114288366D01*
X182482068Y-114224500D01*
X182352775Y-114136349D01*
X182109641Y-114019262D01*
X182013709Y-113989671D01*
X181851771Y-113939719D01*
X181584929Y-113899500D01*
X181315071Y-113899500D01*
X181048228Y-113939719D01*
X180790359Y-114019262D01*
X180547228Y-114136347D01*
X180324257Y-114288366D01*
X180126439Y-114471915D01*
X179958184Y-114682899D01*
X179823257Y-114916601D01*
X179724666Y-115167804D01*
X179664616Y-115430899D01*
X179644450Y-115700000D01*
X174565295Y-115700000D01*
X174603508Y-115602637D01*
X174660222Y-115354157D01*
X174679268Y-115100000D01*
X174660222Y-114845843D01*
X174603508Y-114597363D01*
X174510393Y-114360112D01*
X174382959Y-114139388D01*
X174224050Y-113940123D01*
X174037217Y-113766768D01*
X173826634Y-113623195D01*
X173597004Y-113512611D01*
X173353458Y-113437487D01*
X173101435Y-113399500D01*
X172846565Y-113399500D01*
X172594542Y-113437487D01*
X172350996Y-113512611D01*
X172121366Y-113623195D01*
X172070802Y-113657669D01*
X171910781Y-113766769D01*
X171818786Y-113852128D01*
X171723950Y-113940123D01*
X171567466Y-114136348D01*
X171565038Y-114139392D01*
X171437608Y-114360108D01*
X171344491Y-114597364D01*
X171341325Y-114611236D01*
X171307213Y-114672213D01*
X171245551Y-114705068D01*
X171175914Y-114699370D01*
X171120412Y-114656928D01*
X171113052Y-114645645D01*
X171082533Y-114592784D01*
X171018866Y-114522075D01*
X170955870Y-114452110D01*
X170802730Y-114340848D01*
X170629802Y-114263855D01*
X170444648Y-114224500D01*
X170444646Y-114224500D01*
X170255354Y-114224500D01*
X170255352Y-114224500D01*
X170070197Y-114263855D01*
X169897269Y-114340848D01*
X169744129Y-114452110D01*
X169617466Y-114592783D01*
X169522820Y-114756715D01*
X169464325Y-114936746D01*
X169459134Y-114986129D01*
X169432549Y-115050743D01*
X169423495Y-115060846D01*
X155234162Y-129250181D01*
X155172839Y-129283666D01*
X155146481Y-129286500D01*
X153148149Y-129286500D01*
X153081110Y-129266815D01*
X153035355Y-129214011D01*
X153025411Y-129144853D01*
X153040761Y-129100501D01*
X153144743Y-128920398D01*
X153243334Y-128669195D01*
X153303383Y-128406103D01*
X153323549Y-128137000D01*
X153303383Y-127867897D01*
X153243334Y-127604805D01*
X153144743Y-127353602D01*
X153009815Y-127119898D01*
X152841561Y-126908915D01*
X152809188Y-126878877D01*
X152643743Y-126725366D01*
X152512863Y-126636134D01*
X152420775Y-126573349D01*
X152177641Y-126456262D01*
X152098097Y-126431726D01*
X151919771Y-126376719D01*
X151652929Y-126336500D01*
X151383071Y-126336500D01*
X151116228Y-126376719D01*
X150858359Y-126456262D01*
X150615228Y-126573347D01*
X150392257Y-126725366D01*
X150194439Y-126908915D01*
X150026184Y-127119899D01*
X149891257Y-127353601D01*
X149792666Y-127604804D01*
X149732616Y-127867899D01*
X149712450Y-128137000D01*
X149732616Y-128406100D01*
X149732617Y-128406103D01*
X149792666Y-128669195D01*
X149891257Y-128920398D01*
X149995239Y-129100501D01*
X150011711Y-129168401D01*
X149988858Y-129234428D01*
X149933936Y-129277618D01*
X149887851Y-129286500D01*
X148709519Y-129286500D01*
X148642480Y-129266815D01*
X148621838Y-129250181D01*
X148243671Y-128872014D01*
X148210186Y-128810691D01*
X148215170Y-128740999D01*
X148215888Y-128739123D01*
X148243334Y-128669195D01*
X148303383Y-128406103D01*
X148323549Y-128137000D01*
X148303383Y-127867897D01*
X148243334Y-127604805D01*
X148144743Y-127353602D01*
X148009815Y-127119898D01*
X147841561Y-126908915D01*
X147809188Y-126878877D01*
X147643743Y-126725366D01*
X147512863Y-126636134D01*
X147420775Y-126573349D01*
X147177641Y-126456262D01*
X147098098Y-126431726D01*
X146919771Y-126376719D01*
X146652929Y-126336500D01*
X146383071Y-126336500D01*
X146116228Y-126376719D01*
X145858359Y-126456262D01*
X145615228Y-126573347D01*
X145392257Y-126725366D01*
X145194439Y-126908915D01*
X145026184Y-127119899D01*
X144891257Y-127353601D01*
X144792666Y-127604804D01*
X144732616Y-127867899D01*
X144712450Y-128137000D01*
X144732616Y-128406100D01*
X144732617Y-128406103D01*
X144792666Y-128669195D01*
X144891257Y-128920398D01*
X145026185Y-129154102D01*
X145194439Y-129365085D01*
X145392259Y-129548635D01*
X145615226Y-129700651D01*
X145823146Y-129800780D01*
X145875005Y-129847602D01*
X145893318Y-129915030D01*
X145872270Y-129981653D01*
X145818544Y-130026322D01*
X145769344Y-130036500D01*
X144459519Y-130036500D01*
X144392480Y-130016815D01*
X144371838Y-130000181D01*
X143243671Y-128872014D01*
X143210186Y-128810691D01*
X143215170Y-128740999D01*
X143215888Y-128739123D01*
X143243334Y-128669195D01*
X143303383Y-128406103D01*
X143323549Y-128137000D01*
X143303383Y-127867897D01*
X143243334Y-127604805D01*
X143144743Y-127353602D01*
X143009815Y-127119898D01*
X142841561Y-126908915D01*
X142809188Y-126878877D01*
X142643743Y-126725366D01*
X142512863Y-126636134D01*
X142420775Y-126573349D01*
X142177641Y-126456262D01*
X142098097Y-126431726D01*
X141919771Y-126376719D01*
X141652929Y-126336500D01*
X141383071Y-126336500D01*
X141116228Y-126376719D01*
X140858359Y-126456262D01*
X140615228Y-126573347D01*
X140392257Y-126725366D01*
X140194439Y-126908915D01*
X140026184Y-127119899D01*
X139891257Y-127353601D01*
X139792666Y-127604804D01*
X139732616Y-127867899D01*
X139712450Y-128137000D01*
X139732616Y-128406100D01*
X139732617Y-128406103D01*
X139792666Y-128669195D01*
X139891257Y-128920398D01*
X140026185Y-129154102D01*
X140194439Y-129365085D01*
X140392259Y-129548635D01*
X140615226Y-129700651D01*
X140858359Y-129817738D01*
X141116228Y-129897280D01*
X141383071Y-129937500D01*
X141652929Y-129937500D01*
X141919772Y-129897280D01*
X142129508Y-129832584D01*
X142199370Y-129831635D01*
X142253738Y-129863395D01*
X142965162Y-130574819D01*
X142998647Y-130636142D01*
X142993663Y-130705834D01*
X142951791Y-130761767D01*
X142886327Y-130786184D01*
X142877481Y-130786500D01*
X140209519Y-130786500D01*
X140142480Y-130766815D01*
X140121838Y-130750181D01*
X138354818Y-128983161D01*
X138321333Y-128921838D01*
X138318499Y-128895480D01*
X138318499Y-126792439D01*
X138318499Y-126789128D01*
X138312091Y-126729517D01*
X138261796Y-126594669D01*
X138175546Y-126479454D01*
X138060331Y-126393204D01*
X137925483Y-126342909D01*
X137925483Y-126342908D01*
X137869166Y-126336854D01*
X137869165Y-126336853D01*
X137865873Y-126336500D01*
X137862550Y-126336500D01*
X135173439Y-126336500D01*
X135173420Y-126336500D01*
X135170128Y-126336501D01*
X135166848Y-126336853D01*
X135166840Y-126336854D01*
X135110515Y-126342909D01*
X134975669Y-126393204D01*
X134860454Y-126479454D01*
X134774204Y-126594668D01*
X134723910Y-126729515D01*
X134723909Y-126729517D01*
X134717500Y-126789127D01*
X134717500Y-126792448D01*
X134717500Y-126792449D01*
X134717500Y-129481560D01*
X134717500Y-129481578D01*
X134717501Y-129484872D01*
X134717853Y-129488152D01*
X134717854Y-129488159D01*
X134723909Y-129544484D01*
X134749056Y-129611906D01*
X134774204Y-129679331D01*
X134860454Y-129794546D01*
X134975669Y-129880796D01*
X135110517Y-129931091D01*
X135170127Y-129937500D01*
X137276480Y-129937499D01*
X137343519Y-129957184D01*
X137364161Y-129973818D01*
X139355058Y-131964715D01*
X139360178Y-131970153D01*
X139400071Y-132015183D01*
X139400072Y-132015184D01*
X139449569Y-132049349D01*
X139455602Y-132053788D01*
X139502943Y-132090877D01*
X139512174Y-132095031D01*
X139531726Y-132106058D01*
X139540070Y-132111818D01*
X139596322Y-132133151D01*
X139603228Y-132136012D01*
X139658068Y-132160694D01*
X139668030Y-132162519D01*
X139689650Y-132168546D01*
X139699125Y-132172139D01*
X139699128Y-132172140D01*
X139758856Y-132179392D01*
X139766201Y-132180509D01*
X139825394Y-132191357D01*
X139885421Y-132187726D01*
X139892909Y-132187500D01*
X160413079Y-132187500D01*
X160420566Y-132187726D01*
X160423706Y-132187915D01*
X160480606Y-132191358D01*
X160539782Y-132180513D01*
X160547181Y-132179387D01*
X160606872Y-132172140D01*
X160616335Y-132168550D01*
X160637958Y-132162522D01*
X160647932Y-132160695D01*
X160702808Y-132135996D01*
X160709673Y-132133152D01*
X160765930Y-132111818D01*
X160774270Y-132106060D01*
X160793819Y-132095035D01*
X160803057Y-132090878D01*
X160850413Y-132053775D01*
X160856420Y-132049355D01*
X160905929Y-132015183D01*
X160945823Y-131970150D01*
X160950924Y-131964731D01*
X163766320Y-129149335D01*
X180199500Y-129149335D01*
X180210292Y-129214011D01*
X180240429Y-129394615D01*
X180321170Y-129629805D01*
X180321172Y-129629810D01*
X180439035Y-129847602D01*
X180439529Y-129848514D01*
X180524111Y-129957184D01*
X180592262Y-130044744D01*
X180775215Y-130213164D01*
X180983393Y-130349173D01*
X181211119Y-130449063D01*
X181452179Y-130510108D01*
X181637933Y-130525500D01*
X181640503Y-130525500D01*
X181759497Y-130525500D01*
X181762067Y-130525500D01*
X181947821Y-130510108D01*
X182188881Y-130449063D01*
X182416607Y-130349173D01*
X182624785Y-130213164D01*
X182807738Y-130044744D01*
X182960474Y-129848509D01*
X183078828Y-129629810D01*
X183159571Y-129394614D01*
X183200500Y-129149335D01*
X183200500Y-128900665D01*
X183159571Y-128655386D01*
X183078828Y-128420190D01*
X182960474Y-128201491D01*
X182960471Y-128201487D01*
X182960470Y-128201485D01*
X182807740Y-128005259D01*
X182807738Y-128005256D01*
X182624785Y-127836836D01*
X182416607Y-127700827D01*
X182416604Y-127700825D01*
X182291523Y-127645960D01*
X182188881Y-127600937D01*
X182008867Y-127555351D01*
X181947822Y-127539892D01*
X181913854Y-127537077D01*
X181762067Y-127524500D01*
X181637933Y-127524500D01*
X181520111Y-127534262D01*
X181452177Y-127539892D01*
X181330087Y-127570810D01*
X181211119Y-127600937D01*
X181211116Y-127600938D01*
X181211117Y-127600938D01*
X180983395Y-127700825D01*
X180844607Y-127791499D01*
X180775215Y-127836836D01*
X180775213Y-127836837D01*
X180775214Y-127836837D01*
X180592259Y-128005259D01*
X180439529Y-128201485D01*
X180321170Y-128420194D01*
X180240429Y-128655384D01*
X180226472Y-128739028D01*
X180199500Y-128900665D01*
X180199500Y-129149335D01*
X163766320Y-129149335D01*
X168137974Y-124777682D01*
X168199295Y-124744199D01*
X168199818Y-124744086D01*
X168354803Y-124711144D01*
X168527730Y-124634151D01*
X168605807Y-124577425D01*
X168680870Y-124522889D01*
X168807533Y-124382216D01*
X168902179Y-124218284D01*
X168929402Y-124134500D01*
X168960674Y-124038256D01*
X168980460Y-123850000D01*
X168960674Y-123661744D01*
X168902179Y-123481716D01*
X168902179Y-123481715D01*
X168807533Y-123317783D01*
X168680870Y-123177110D01*
X168527730Y-123065848D01*
X168354802Y-122988855D01*
X168169648Y-122949500D01*
X168169646Y-122949500D01*
X167980354Y-122949500D01*
X167980352Y-122949500D01*
X167959061Y-122954025D01*
X167889394Y-122948707D01*
X167833661Y-122906568D01*
X167809558Y-122840988D01*
X167824737Y-122772787D01*
X167845598Y-122745057D01*
X169112973Y-121477682D01*
X169174294Y-121444199D01*
X169174516Y-121444150D01*
X169329803Y-121411144D01*
X169502730Y-121334151D01*
X169537130Y-121309158D01*
X169655870Y-121222889D01*
X169782533Y-121082216D01*
X169877179Y-120918284D01*
X169877178Y-120918283D01*
X169935674Y-120738256D01*
X169955460Y-120550000D01*
X169935674Y-120361744D01*
X169877179Y-120181716D01*
X169877179Y-120181715D01*
X169782533Y-120017783D01*
X169655870Y-119877110D01*
X169502730Y-119765848D01*
X169329802Y-119688855D01*
X169144648Y-119649500D01*
X169144646Y-119649500D01*
X168955354Y-119649500D01*
X168955352Y-119649500D01*
X168770197Y-119688855D01*
X168597269Y-119765848D01*
X168444129Y-119877110D01*
X168317466Y-120017783D01*
X168222820Y-120181715D01*
X168164325Y-120361746D01*
X168159134Y-120411130D01*
X168132549Y-120475744D01*
X168123495Y-120485847D01*
X158609162Y-130000181D01*
X158547839Y-130033666D01*
X158521481Y-130036500D01*
X156728519Y-130036500D01*
X156661480Y-130016815D01*
X156615725Y-129964011D01*
X156605781Y-129894853D01*
X156634806Y-129831297D01*
X156640838Y-129824819D01*
X163516950Y-122948707D01*
X170412974Y-116052682D01*
X170474295Y-116019199D01*
X170474818Y-116019086D01*
X170629803Y-115986144D01*
X170802730Y-115909151D01*
X170955871Y-115797888D01*
X171082533Y-115657216D01*
X171122490Y-115588007D01*
X171173055Y-115539794D01*
X171241662Y-115526570D01*
X171306527Y-115552538D01*
X171345304Y-115604706D01*
X171437608Y-115839891D01*
X171544769Y-116025500D01*
X171565041Y-116060612D01*
X171723950Y-116259877D01*
X171910783Y-116433232D01*
X172121366Y-116576805D01*
X172203304Y-116616263D01*
X172255161Y-116663083D01*
X172273500Y-116727982D01*
X172273500Y-117688774D01*
X172273274Y-117696261D01*
X172269641Y-117756302D01*
X172280483Y-117815466D01*
X172281610Y-117822867D01*
X172288860Y-117882568D01*
X172292450Y-117892034D01*
X172298475Y-117913647D01*
X172300303Y-117923624D01*
X172324991Y-117978478D01*
X172327856Y-117985396D01*
X172349180Y-118041621D01*
X172349182Y-118041625D01*
X172354941Y-118049968D01*
X172365961Y-118069508D01*
X172370120Y-118078749D01*
X172407216Y-118126100D01*
X172411651Y-118132127D01*
X172445817Y-118181624D01*
X172490847Y-118221517D01*
X172496283Y-118226635D01*
X179632468Y-125362819D01*
X179665953Y-125424142D01*
X179660969Y-125493834D01*
X179619097Y-125549767D01*
X179553633Y-125574184D01*
X179544787Y-125574500D01*
X177600519Y-125574500D01*
X177533480Y-125554815D01*
X177512838Y-125538181D01*
X174622523Y-122647866D01*
X174589038Y-122586543D01*
X174594022Y-122516851D01*
X174594744Y-122514964D01*
X174603508Y-122492637D01*
X174660222Y-122244157D01*
X174679268Y-121990000D01*
X174660222Y-121735843D01*
X174603508Y-121487363D01*
X174510393Y-121250112D01*
X174494675Y-121222888D01*
X174382961Y-121029392D01*
X174382959Y-121029388D01*
X174224050Y-120830123D01*
X174037217Y-120656768D01*
X173826634Y-120513195D01*
X173597004Y-120402611D01*
X173353458Y-120327487D01*
X173101435Y-120289500D01*
X172846565Y-120289500D01*
X172594542Y-120327487D01*
X172350996Y-120402611D01*
X172121366Y-120513195D01*
X172067383Y-120550000D01*
X171910781Y-120656769D01*
X171723950Y-120830123D01*
X171565038Y-121029392D01*
X171437608Y-121250108D01*
X171344492Y-121487362D01*
X171287777Y-121735845D01*
X171268731Y-121989999D01*
X171287777Y-122244154D01*
X171344492Y-122492637D01*
X171437608Y-122729891D01*
X171501750Y-122840988D01*
X171565041Y-122950612D01*
X171723950Y-123149877D01*
X171910783Y-123323232D01*
X172121366Y-123466805D01*
X172350996Y-123577389D01*
X172594542Y-123652513D01*
X172846565Y-123690500D01*
X173101435Y-123690500D01*
X173353458Y-123652513D01*
X173505528Y-123605604D01*
X173575390Y-123604655D01*
X173629758Y-123636415D01*
X176746058Y-126752715D01*
X176751178Y-126758153D01*
X176791071Y-126803183D01*
X176840577Y-126837354D01*
X176846596Y-126841785D01*
X176890178Y-126875928D01*
X176893943Y-126878878D01*
X176903190Y-126883039D01*
X176922726Y-126894058D01*
X176931070Y-126899818D01*
X176987334Y-126921155D01*
X176994195Y-126923997D01*
X177049068Y-126948694D01*
X177059036Y-126950520D01*
X177080652Y-126956546D01*
X177090128Y-126960140D01*
X177149856Y-126967392D01*
X177157201Y-126968509D01*
X177216394Y-126979357D01*
X177276422Y-126975726D01*
X177283910Y-126975500D01*
X185735739Y-126975500D01*
X185743226Y-126975726D01*
X185746366Y-126975915D01*
X185803266Y-126979358D01*
X185862442Y-126968513D01*
X185869841Y-126967387D01*
X185929532Y-126960140D01*
X185938995Y-126956550D01*
X185960618Y-126950522D01*
X185970592Y-126948695D01*
X186025468Y-126923996D01*
X186032333Y-126921152D01*
X186088590Y-126899818D01*
X186096930Y-126894060D01*
X186116479Y-126883035D01*
X186125717Y-126878878D01*
X186173073Y-126841775D01*
X186179080Y-126837355D01*
X186228589Y-126803183D01*
X186268483Y-126758150D01*
X186273585Y-126752730D01*
X186477863Y-126548452D01*
X186539185Y-126514968D01*
X186608877Y-126519952D01*
X186664810Y-126561824D01*
X186689227Y-126627288D01*
X186689543Y-126636134D01*
X186689543Y-130256712D01*
X186689373Y-130263201D01*
X186682781Y-130388999D01*
X186671807Y-130584010D01*
X186670477Y-130596437D01*
X186646994Y-130744722D01*
X186618044Y-130915123D01*
X186615572Y-130926441D01*
X186575083Y-131077557D01*
X186551598Y-131159080D01*
X186528740Y-131238424D01*
X186525359Y-131248508D01*
X186468841Y-131395744D01*
X186467638Y-131398759D01*
X186404951Y-131550102D01*
X186400876Y-131558943D01*
X186328714Y-131700574D01*
X186326756Y-131704261D01*
X186248127Y-131846532D01*
X186243595Y-131854087D01*
X186156640Y-131987988D01*
X186153774Y-131992207D01*
X186060099Y-132124233D01*
X186055335Y-132130514D01*
X185954628Y-132254878D01*
X185950722Y-132259469D01*
X185843052Y-132379954D01*
X185838274Y-132385009D01*
X185725046Y-132498238D01*
X185719992Y-132503016D01*
X185599490Y-132610705D01*
X185594899Y-132614611D01*
X185470551Y-132715308D01*
X185464269Y-132720073D01*
X185332252Y-132813744D01*
X185328034Y-132816608D01*
X185194125Y-132903572D01*
X185186569Y-132908106D01*
X185044299Y-132986735D01*
X185040613Y-132988692D01*
X184898973Y-133060862D01*
X184890131Y-133064938D01*
X184738827Y-133127611D01*
X184735812Y-133128814D01*
X184588553Y-133185342D01*
X184578443Y-133188732D01*
X184417632Y-133235062D01*
X184266469Y-133275566D01*
X184255163Y-133278035D01*
X184084750Y-133306990D01*
X183936493Y-133330472D01*
X183924070Y-133331802D01*
X183728969Y-133342784D01*
X183604064Y-133349330D01*
X183597575Y-133349500D01*
X183548495Y-133349500D01*
X183548095Y-133349543D01*
X116123288Y-133349543D01*
X116116799Y-133349373D01*
X115991000Y-133342781D01*
X115795989Y-133331807D01*
X115783560Y-133330477D01*
X115635276Y-133306994D01*
X115464875Y-133278044D01*
X115453557Y-133275572D01*
X115302442Y-133235083D01*
X115266591Y-133224755D01*
X115141560Y-133188736D01*
X115131495Y-133185360D01*
X115096244Y-133171829D01*
X114984254Y-133128841D01*
X114981239Y-133127638D01*
X114829896Y-133064951D01*
X114821055Y-133060876D01*
X114732856Y-133015938D01*
X114679406Y-132988704D01*
X114675737Y-132986756D01*
X114533466Y-132908127D01*
X114525920Y-132903600D01*
X114392005Y-132816636D01*
X114387791Y-132813774D01*
X114255765Y-132720099D01*
X114249484Y-132715335D01*
X114125120Y-132614628D01*
X114120529Y-132610722D01*
X114000044Y-132503052D01*
X113994989Y-132498274D01*
X113881760Y-132385046D01*
X113876982Y-132379992D01*
X113769293Y-132259490D01*
X113765387Y-132254899D01*
X113713930Y-132191356D01*
X113664680Y-132130538D01*
X113659951Y-132124303D01*
X113566223Y-131992207D01*
X113563390Y-131988034D01*
X113521413Y-131923398D01*
X113476416Y-131854109D01*
X113471907Y-131846594D01*
X113393263Y-131704299D01*
X113391306Y-131700613D01*
X113319136Y-131558973D01*
X113315060Y-131550131D01*
X113315048Y-131550102D01*
X113252360Y-131398759D01*
X113251203Y-131395861D01*
X113194649Y-131248534D01*
X113191272Y-131238462D01*
X113144943Y-131077653D01*
X113104428Y-130926451D01*
X113101963Y-130915163D01*
X113101956Y-130915123D01*
X113073007Y-130744738D01*
X113049522Y-130596464D01*
X113048198Y-130584091D01*
X113037221Y-130389077D01*
X113030670Y-130264064D01*
X113030500Y-130257576D01*
X113030500Y-130208494D01*
X113030457Y-130208095D01*
X113030457Y-129149335D01*
X115999500Y-129149335D01*
X116010292Y-129214011D01*
X116040429Y-129394615D01*
X116121170Y-129629805D01*
X116121172Y-129629810D01*
X116239035Y-129847602D01*
X116239529Y-129848514D01*
X116324111Y-129957184D01*
X116392262Y-130044744D01*
X116575215Y-130213164D01*
X116783393Y-130349173D01*
X117011119Y-130449063D01*
X117252179Y-130510108D01*
X117437933Y-130525500D01*
X117440503Y-130525500D01*
X117559497Y-130525500D01*
X117562067Y-130525500D01*
X117747821Y-130510108D01*
X117988881Y-130449063D01*
X118216607Y-130349173D01*
X118424785Y-130213164D01*
X118607738Y-130044744D01*
X118760474Y-129848509D01*
X118878828Y-129629810D01*
X118959571Y-129394614D01*
X119000500Y-129149335D01*
X119000500Y-128900665D01*
X118959571Y-128655386D01*
X118878828Y-128420190D01*
X118760474Y-128201491D01*
X118760471Y-128201487D01*
X118760470Y-128201485D01*
X118607740Y-128005259D01*
X118607738Y-128005256D01*
X118424785Y-127836836D01*
X118216607Y-127700827D01*
X118216604Y-127700825D01*
X118091523Y-127645960D01*
X117988881Y-127600937D01*
X117808866Y-127555351D01*
X117747822Y-127539892D01*
X117713854Y-127537077D01*
X117562067Y-127524500D01*
X117437933Y-127524500D01*
X117320111Y-127534262D01*
X117252177Y-127539892D01*
X117130086Y-127570810D01*
X117011119Y-127600937D01*
X117011116Y-127600938D01*
X117011117Y-127600938D01*
X116783395Y-127700825D01*
X116644607Y-127791499D01*
X116575215Y-127836836D01*
X116575213Y-127836837D01*
X116575214Y-127836837D01*
X116392259Y-128005259D01*
X116239529Y-128201485D01*
X116121170Y-128420194D01*
X116040429Y-128655384D01*
X116026472Y-128739028D01*
X115999500Y-128900665D01*
X115999500Y-129149335D01*
X113030457Y-129149335D01*
X113030457Y-124127912D01*
X114824500Y-124127912D01*
X114824501Y-124131206D01*
X114824853Y-124134486D01*
X114824854Y-124134493D01*
X114830909Y-124190818D01*
X114856056Y-124258240D01*
X114881204Y-124325665D01*
X114967454Y-124440880D01*
X115082669Y-124527130D01*
X115217517Y-124577425D01*
X115277127Y-124583834D01*
X117772872Y-124583833D01*
X117832483Y-124577425D01*
X117967331Y-124527130D01*
X118082546Y-124440880D01*
X118168796Y-124325665D01*
X118219091Y-124190817D01*
X118225500Y-124131207D01*
X118225499Y-122633333D01*
X130078967Y-122633333D01*
X130078968Y-122633334D01*
X131219118Y-122633334D01*
X131180444Y-122726703D01*
X131159823Y-122883334D01*
X131180444Y-123039965D01*
X131219118Y-123133334D01*
X130078968Y-123133334D01*
X130079273Y-123137414D01*
X130135971Y-123385825D01*
X130229057Y-123623003D01*
X130356454Y-123843662D01*
X130515317Y-124042870D01*
X130702095Y-124216175D01*
X130912615Y-124359705D01*
X131142179Y-124470256D01*
X131385654Y-124545359D01*
X131515000Y-124564854D01*
X131515000Y-123429215D01*
X131608369Y-123467890D01*
X131725677Y-123483334D01*
X131804323Y-123483334D01*
X131921631Y-123467890D01*
X132015000Y-123429215D01*
X132015000Y-124564853D01*
X132144345Y-124545359D01*
X132387823Y-124470255D01*
X132617379Y-124359708D01*
X132827907Y-124216173D01*
X133014682Y-124042870D01*
X133173545Y-123843662D01*
X133300942Y-123623003D01*
X133394028Y-123385825D01*
X133428549Y-123234578D01*
X156033500Y-123234578D01*
X156033501Y-123237872D01*
X156039909Y-123297483D01*
X156090204Y-123432331D01*
X156176454Y-123547546D01*
X156291669Y-123633796D01*
X156426517Y-123684091D01*
X156486127Y-123690500D01*
X158981872Y-123690499D01*
X159041483Y-123684091D01*
X159176331Y-123633796D01*
X159291546Y-123547546D01*
X159377796Y-123432331D01*
X159428091Y-123297483D01*
X159434500Y-123237873D01*
X159434499Y-120742128D01*
X159428091Y-120682517D01*
X159377796Y-120547669D01*
X159291546Y-120432454D01*
X159176331Y-120346204D01*
X159041483Y-120295909D01*
X158981873Y-120289500D01*
X158978550Y-120289500D01*
X156489439Y-120289500D01*
X156489420Y-120289500D01*
X156486128Y-120289501D01*
X156482848Y-120289853D01*
X156482840Y-120289854D01*
X156426515Y-120295909D01*
X156291669Y-120346204D01*
X156176454Y-120432454D01*
X156090204Y-120547668D01*
X156039910Y-120682515D01*
X156039909Y-120682517D01*
X156033500Y-120742127D01*
X156033500Y-120745448D01*
X156033500Y-120745449D01*
X156033500Y-123234560D01*
X156033500Y-123234578D01*
X133428549Y-123234578D01*
X133450726Y-123137414D01*
X133451032Y-123133334D01*
X132310882Y-123133334D01*
X132349556Y-123039965D01*
X132370177Y-122883334D01*
X132349556Y-122726703D01*
X132310882Y-122633334D01*
X133451032Y-122633334D01*
X133451032Y-122633333D01*
X133450726Y-122629253D01*
X133394028Y-122380842D01*
X133300942Y-122143664D01*
X133173545Y-121923005D01*
X133014682Y-121723797D01*
X132827907Y-121550494D01*
X132617379Y-121406959D01*
X132387823Y-121296412D01*
X132144345Y-121221308D01*
X132015000Y-121201813D01*
X132015000Y-122337452D01*
X131921631Y-122298778D01*
X131804323Y-122283334D01*
X131725677Y-122283334D01*
X131608369Y-122298778D01*
X131515000Y-122337452D01*
X131515000Y-121201813D01*
X131385654Y-121221308D01*
X131142179Y-121296411D01*
X130912615Y-121406962D01*
X130702095Y-121550492D01*
X130515317Y-121723797D01*
X130356454Y-121923005D01*
X130229057Y-122143664D01*
X130135971Y-122380842D01*
X130079273Y-122629253D01*
X130078967Y-122633333D01*
X118225499Y-122633333D01*
X118225499Y-121635462D01*
X118219091Y-121575851D01*
X118168796Y-121441003D01*
X118082546Y-121325788D01*
X117967331Y-121239538D01*
X117832483Y-121189243D01*
X117772873Y-121182834D01*
X117769550Y-121182834D01*
X115280439Y-121182834D01*
X115280420Y-121182834D01*
X115277128Y-121182835D01*
X115273848Y-121183187D01*
X115273840Y-121183188D01*
X115217515Y-121189243D01*
X115082669Y-121239538D01*
X114967454Y-121325788D01*
X114881204Y-121441002D01*
X114830910Y-121575849D01*
X114830909Y-121575851D01*
X114824500Y-121635461D01*
X114824500Y-121638782D01*
X114824500Y-121638783D01*
X114824500Y-124127894D01*
X114824500Y-124127912D01*
X113030457Y-124127912D01*
X113030457Y-116019578D01*
X114824500Y-116019578D01*
X114824501Y-116022872D01*
X114824853Y-116026152D01*
X114824854Y-116026159D01*
X114828557Y-116060607D01*
X114830909Y-116082483D01*
X114881204Y-116217331D01*
X114967454Y-116332546D01*
X115082669Y-116418796D01*
X115217517Y-116469091D01*
X115277127Y-116475500D01*
X117772872Y-116475499D01*
X117832483Y-116469091D01*
X117967331Y-116418796D01*
X118082546Y-116332546D01*
X118168796Y-116217331D01*
X118219091Y-116082483D01*
X118225500Y-116022873D01*
X118225499Y-114524999D01*
X130078967Y-114524999D01*
X130078968Y-114525000D01*
X131219118Y-114525000D01*
X131180444Y-114618369D01*
X131159823Y-114775000D01*
X131180444Y-114931631D01*
X131219118Y-115025000D01*
X130078968Y-115025000D01*
X130079273Y-115029080D01*
X130135971Y-115277491D01*
X130229057Y-115514669D01*
X130356454Y-115735328D01*
X130515317Y-115934536D01*
X130702095Y-116107841D01*
X130912615Y-116251371D01*
X131142179Y-116361922D01*
X131385654Y-116437025D01*
X131515000Y-116456520D01*
X131515000Y-115320881D01*
X131608369Y-115359556D01*
X131725677Y-115375000D01*
X131804323Y-115375000D01*
X131921631Y-115359556D01*
X132015000Y-115320881D01*
X132015000Y-116456519D01*
X132144345Y-116437025D01*
X132387823Y-116361921D01*
X132617379Y-116251374D01*
X132827907Y-116107839D01*
X133014682Y-115934536D01*
X133173545Y-115735328D01*
X133300942Y-115514669D01*
X133394028Y-115277491D01*
X133450726Y-115029080D01*
X133451032Y-115025000D01*
X132310882Y-115025000D01*
X132349556Y-114931631D01*
X132370177Y-114775000D01*
X132360303Y-114699999D01*
X137478967Y-114699999D01*
X137478968Y-114700000D01*
X138619118Y-114700000D01*
X138580444Y-114793369D01*
X138559823Y-114950000D01*
X138580444Y-115106631D01*
X138619118Y-115200000D01*
X137478968Y-115200000D01*
X137479273Y-115204080D01*
X137535971Y-115452491D01*
X137629057Y-115689669D01*
X137756454Y-115910328D01*
X137915317Y-116109536D01*
X138102095Y-116282841D01*
X138312615Y-116426371D01*
X138542179Y-116536922D01*
X138785654Y-116612025D01*
X138915000Y-116631520D01*
X138915000Y-115495881D01*
X139008369Y-115534556D01*
X139125677Y-115550000D01*
X139204323Y-115550000D01*
X139321631Y-115534556D01*
X139415000Y-115495881D01*
X139415000Y-116631519D01*
X139544345Y-116612025D01*
X139787823Y-116536921D01*
X140017379Y-116426374D01*
X140227907Y-116282839D01*
X140414682Y-116109536D01*
X140573545Y-115910328D01*
X140700942Y-115689669D01*
X140794028Y-115452491D01*
X140850726Y-115204080D01*
X140851032Y-115200000D01*
X139710882Y-115200000D01*
X139749556Y-115106631D01*
X139770177Y-114950000D01*
X139749556Y-114793369D01*
X139710882Y-114700000D01*
X140851032Y-114700000D01*
X140851032Y-114699999D01*
X147638967Y-114699999D01*
X147638968Y-114700000D01*
X148779118Y-114700000D01*
X148740444Y-114793369D01*
X148719823Y-114950000D01*
X148740444Y-115106631D01*
X148779118Y-115200000D01*
X147638968Y-115200000D01*
X147639273Y-115204080D01*
X147695971Y-115452491D01*
X147789057Y-115689669D01*
X147916454Y-115910328D01*
X148075317Y-116109536D01*
X148262095Y-116282841D01*
X148472615Y-116426371D01*
X148702179Y-116536922D01*
X148945654Y-116612025D01*
X149075000Y-116631520D01*
X149075000Y-115495881D01*
X149168369Y-115534556D01*
X149285677Y-115550000D01*
X149364323Y-115550000D01*
X149481631Y-115534556D01*
X149575000Y-115495881D01*
X149575000Y-116631519D01*
X149704345Y-116612025D01*
X149947823Y-116536921D01*
X150177379Y-116426374D01*
X150297352Y-116344578D01*
X156033500Y-116344578D01*
X156033501Y-116347872D01*
X156033853Y-116351152D01*
X156033854Y-116351159D01*
X156039909Y-116407484D01*
X156062887Y-116469090D01*
X156090204Y-116542331D01*
X156176454Y-116657546D01*
X156291669Y-116743796D01*
X156426517Y-116794091D01*
X156486127Y-116800500D01*
X158981872Y-116800499D01*
X159041483Y-116794091D01*
X159176331Y-116743796D01*
X159291546Y-116657546D01*
X159377796Y-116542331D01*
X159428091Y-116407483D01*
X159434500Y-116347873D01*
X159434499Y-113852128D01*
X159428091Y-113792517D01*
X159377796Y-113657669D01*
X159291546Y-113542454D01*
X159176331Y-113456204D01*
X159041483Y-113405909D01*
X158981873Y-113399500D01*
X158978550Y-113399500D01*
X156489439Y-113399500D01*
X156489420Y-113399500D01*
X156486128Y-113399501D01*
X156482848Y-113399853D01*
X156482840Y-113399854D01*
X156426515Y-113405909D01*
X156291669Y-113456204D01*
X156176454Y-113542454D01*
X156090204Y-113657668D01*
X156039910Y-113792515D01*
X156039909Y-113792517D01*
X156033500Y-113852127D01*
X156033500Y-113855448D01*
X156033500Y-113855449D01*
X156033500Y-116344560D01*
X156033500Y-116344578D01*
X150297352Y-116344578D01*
X150387907Y-116282839D01*
X150574682Y-116109536D01*
X150733545Y-115910328D01*
X150860942Y-115689669D01*
X150954028Y-115452491D01*
X151010726Y-115204080D01*
X151011032Y-115200000D01*
X149870882Y-115200000D01*
X149909556Y-115106631D01*
X149930177Y-114950000D01*
X149909556Y-114793369D01*
X149870882Y-114700000D01*
X151011032Y-114700000D01*
X151011032Y-114699999D01*
X151010726Y-114695919D01*
X150954028Y-114447508D01*
X150860942Y-114210330D01*
X150733545Y-113989671D01*
X150574682Y-113790463D01*
X150387907Y-113617160D01*
X150177379Y-113473625D01*
X149947823Y-113363078D01*
X149704345Y-113287974D01*
X149575000Y-113268479D01*
X149575000Y-114404118D01*
X149481631Y-114365444D01*
X149364323Y-114350000D01*
X149285677Y-114350000D01*
X149168369Y-114365444D01*
X149075000Y-114404118D01*
X149075000Y-113268479D01*
X148945654Y-113287974D01*
X148702179Y-113363077D01*
X148472615Y-113473628D01*
X148262095Y-113617158D01*
X148075317Y-113790463D01*
X147916454Y-113989671D01*
X147789057Y-114210330D01*
X147695971Y-114447508D01*
X147639273Y-114695919D01*
X147638967Y-114699999D01*
X140851032Y-114699999D01*
X140850726Y-114695919D01*
X140794028Y-114447508D01*
X140700942Y-114210330D01*
X140573545Y-113989671D01*
X140414682Y-113790463D01*
X140227907Y-113617160D01*
X140017379Y-113473625D01*
X139787823Y-113363078D01*
X139544345Y-113287974D01*
X139415000Y-113268479D01*
X139415000Y-114404118D01*
X139321631Y-114365444D01*
X139204323Y-114350000D01*
X139125677Y-114350000D01*
X139008369Y-114365444D01*
X138915000Y-114404118D01*
X138915000Y-113268479D01*
X138785654Y-113287974D01*
X138542179Y-113363077D01*
X138312615Y-113473628D01*
X138102095Y-113617158D01*
X137915317Y-113790463D01*
X137756454Y-113989671D01*
X137629057Y-114210330D01*
X137535971Y-114447508D01*
X137479273Y-114695919D01*
X137478967Y-114699999D01*
X132360303Y-114699999D01*
X132349556Y-114618369D01*
X132310882Y-114525000D01*
X133451032Y-114525000D01*
X133451032Y-114524999D01*
X133450726Y-114520919D01*
X133394028Y-114272508D01*
X133300942Y-114035330D01*
X133173545Y-113814671D01*
X133014682Y-113615463D01*
X132827907Y-113442160D01*
X132617379Y-113298625D01*
X132387823Y-113188078D01*
X132144345Y-113112974D01*
X132015000Y-113093479D01*
X132015000Y-114229118D01*
X131921631Y-114190444D01*
X131804323Y-114175000D01*
X131725677Y-114175000D01*
X131608369Y-114190444D01*
X131515000Y-114229118D01*
X131515000Y-113093479D01*
X131385654Y-113112974D01*
X131142179Y-113188077D01*
X130912615Y-113298628D01*
X130702095Y-113442158D01*
X130515317Y-113615463D01*
X130356454Y-113814671D01*
X130229057Y-114035330D01*
X130135971Y-114272508D01*
X130079273Y-114520919D01*
X130078967Y-114524999D01*
X118225499Y-114524999D01*
X118225499Y-113527128D01*
X118219091Y-113467517D01*
X118168796Y-113332669D01*
X118082546Y-113217454D01*
X117967331Y-113131204D01*
X117832483Y-113080909D01*
X117772873Y-113074500D01*
X117769550Y-113074500D01*
X115280439Y-113074500D01*
X115280420Y-113074500D01*
X115277128Y-113074501D01*
X115273848Y-113074853D01*
X115273840Y-113074854D01*
X115217515Y-113080909D01*
X115082669Y-113131204D01*
X114967454Y-113217454D01*
X114881204Y-113332668D01*
X114830910Y-113467515D01*
X114830909Y-113467517D01*
X114824500Y-113527127D01*
X114824500Y-113530448D01*
X114824500Y-113530449D01*
X114824500Y-116019560D01*
X114824500Y-116019578D01*
X113030457Y-116019578D01*
X113030457Y-110699999D01*
X179644450Y-110699999D01*
X179664616Y-110969100D01*
X179664617Y-110969103D01*
X179724666Y-111232195D01*
X179823257Y-111483398D01*
X179958185Y-111717102D01*
X180126439Y-111928085D01*
X180324259Y-112111635D01*
X180547226Y-112263651D01*
X180790359Y-112380738D01*
X181048228Y-112460280D01*
X181315071Y-112500500D01*
X181584929Y-112500500D01*
X181851772Y-112460280D01*
X182109641Y-112380738D01*
X182352775Y-112263651D01*
X182575741Y-112111635D01*
X182773561Y-111928085D01*
X182941815Y-111717102D01*
X183076743Y-111483398D01*
X183175334Y-111232195D01*
X183235383Y-110969103D01*
X183255549Y-110700000D01*
X183235383Y-110430897D01*
X183175334Y-110167805D01*
X183076743Y-109916602D01*
X182941815Y-109682898D01*
X182773561Y-109471915D01*
X182754846Y-109454550D01*
X182575743Y-109288366D01*
X182518205Y-109249137D01*
X182352775Y-109136349D01*
X182109641Y-109019262D01*
X182030097Y-108994726D01*
X181851771Y-108939719D01*
X181584929Y-108899500D01*
X181315071Y-108899500D01*
X181048228Y-108939719D01*
X180790359Y-109019262D01*
X180547228Y-109136347D01*
X180324257Y-109288366D01*
X180126439Y-109471915D01*
X179958184Y-109682899D01*
X179823257Y-109916601D01*
X179724666Y-110167804D01*
X179664616Y-110430899D01*
X179644450Y-110699999D01*
X113030457Y-110699999D01*
X113030457Y-107911245D01*
X114824500Y-107911245D01*
X114824501Y-107914539D01*
X114830909Y-107974150D01*
X114881204Y-108108998D01*
X114967454Y-108224213D01*
X115082669Y-108310463D01*
X115217517Y-108360758D01*
X115277127Y-108367167D01*
X117772872Y-108367166D01*
X117832483Y-108360758D01*
X117967331Y-108310463D01*
X118082546Y-108224213D01*
X118168796Y-108108998D01*
X118219091Y-107974150D01*
X118225500Y-107914540D01*
X118225499Y-106416666D01*
X130078967Y-106416666D01*
X130078968Y-106416667D01*
X131219118Y-106416667D01*
X131180444Y-106510036D01*
X131159823Y-106666667D01*
X131180444Y-106823298D01*
X131219118Y-106916667D01*
X130078968Y-106916667D01*
X130079273Y-106920747D01*
X130135971Y-107169158D01*
X130229057Y-107406336D01*
X130356454Y-107626995D01*
X130515317Y-107826203D01*
X130702095Y-107999508D01*
X130912615Y-108143038D01*
X131142179Y-108253589D01*
X131385654Y-108328692D01*
X131515000Y-108348187D01*
X131515000Y-107212548D01*
X131608369Y-107251223D01*
X131725677Y-107266667D01*
X131804323Y-107266667D01*
X131921631Y-107251223D01*
X132015000Y-107212548D01*
X132015000Y-108348186D01*
X132144345Y-108328692D01*
X132387823Y-108253588D01*
X132617379Y-108143041D01*
X132827907Y-107999506D01*
X133014682Y-107826203D01*
X133173545Y-107626995D01*
X133300942Y-107406336D01*
X133394028Y-107169158D01*
X133450726Y-106920747D01*
X133451032Y-106916667D01*
X132310882Y-106916667D01*
X132349556Y-106823298D01*
X132370177Y-106666667D01*
X132349556Y-106510036D01*
X132310882Y-106416667D01*
X133451032Y-106416667D01*
X133451032Y-106416666D01*
X133450726Y-106412586D01*
X133394028Y-106164175D01*
X133300942Y-105926997D01*
X133173545Y-105706338D01*
X133014682Y-105507130D01*
X132827907Y-105333827D01*
X132617379Y-105190292D01*
X132387823Y-105079745D01*
X132144345Y-105004641D01*
X132015000Y-104985146D01*
X132015000Y-106120785D01*
X131921631Y-106082111D01*
X131804323Y-106066667D01*
X131725677Y-106066667D01*
X131608369Y-106082111D01*
X131515000Y-106120785D01*
X131515000Y-104985146D01*
X131385654Y-105004641D01*
X131142179Y-105079744D01*
X130912615Y-105190295D01*
X130702095Y-105333825D01*
X130515317Y-105507130D01*
X130356454Y-105706338D01*
X130229057Y-105926997D01*
X130135971Y-106164175D01*
X130079273Y-106412586D01*
X130078967Y-106416666D01*
X118225499Y-106416666D01*
X118225499Y-105418795D01*
X118219091Y-105359184D01*
X118168796Y-105224336D01*
X118082546Y-105109121D01*
X117967331Y-105022871D01*
X117832483Y-104972576D01*
X117772873Y-104966167D01*
X117769550Y-104966167D01*
X115280439Y-104966167D01*
X115280420Y-104966167D01*
X115277128Y-104966168D01*
X115273848Y-104966520D01*
X115273840Y-104966521D01*
X115217515Y-104972576D01*
X115082669Y-105022871D01*
X114967454Y-105109121D01*
X114881204Y-105224335D01*
X114830910Y-105359182D01*
X114830909Y-105359184D01*
X114824500Y-105418794D01*
X114824500Y-105422115D01*
X114824500Y-105422116D01*
X114824500Y-107911227D01*
X114824500Y-107911245D01*
X113030457Y-107911245D01*
X113030457Y-99802912D01*
X114824500Y-99802912D01*
X114824501Y-99806206D01*
X114824853Y-99809486D01*
X114824854Y-99809493D01*
X114830909Y-99865818D01*
X114856056Y-99933241D01*
X114881204Y-100000665D01*
X114967454Y-100115880D01*
X115082669Y-100202130D01*
X115217517Y-100252425D01*
X115277127Y-100258834D01*
X117772872Y-100258833D01*
X117832483Y-100252425D01*
X117967331Y-100202130D01*
X118082546Y-100115880D01*
X118168796Y-100000665D01*
X118219091Y-99865817D01*
X118225500Y-99806207D01*
X118225499Y-98308333D01*
X130078967Y-98308333D01*
X130078968Y-98308334D01*
X131219118Y-98308334D01*
X131180444Y-98401703D01*
X131159823Y-98558334D01*
X131180444Y-98714965D01*
X131219118Y-98808334D01*
X130078968Y-98808334D01*
X130079273Y-98812414D01*
X130135971Y-99060825D01*
X130229057Y-99298003D01*
X130356454Y-99518662D01*
X130515317Y-99717870D01*
X130702095Y-99891175D01*
X130912615Y-100034705D01*
X131142179Y-100145256D01*
X131385654Y-100220359D01*
X131515000Y-100239854D01*
X131515000Y-99104215D01*
X131608369Y-99142890D01*
X131725677Y-99158334D01*
X131804323Y-99158334D01*
X131921631Y-99142890D01*
X132015000Y-99104215D01*
X132015000Y-100239853D01*
X132144345Y-100220359D01*
X132387823Y-100145255D01*
X132617379Y-100034708D01*
X132827907Y-99891173D01*
X133014682Y-99717870D01*
X133020958Y-99710000D01*
X137459731Y-99710000D01*
X137478777Y-99964154D01*
X137535492Y-100212637D01*
X137628608Y-100449891D01*
X137756038Y-100670607D01*
X137756041Y-100670612D01*
X137914950Y-100869877D01*
X138101783Y-101043232D01*
X138312366Y-101186805D01*
X138541996Y-101297389D01*
X138785542Y-101372513D01*
X139037565Y-101410500D01*
X139292435Y-101410500D01*
X139544458Y-101372513D01*
X139788004Y-101297389D01*
X140017634Y-101186805D01*
X140228217Y-101043232D01*
X140415050Y-100869877D01*
X140573959Y-100670612D01*
X140701393Y-100449888D01*
X140794508Y-100212637D01*
X140851222Y-99964157D01*
X140870268Y-99710000D01*
X140870268Y-99709999D01*
X147619731Y-99709999D01*
X147638777Y-99964154D01*
X147695492Y-100212637D01*
X147788608Y-100449891D01*
X147916038Y-100670607D01*
X147916041Y-100670612D01*
X148074950Y-100869877D01*
X148261783Y-101043232D01*
X148472366Y-101186805D01*
X148701996Y-101297389D01*
X148945542Y-101372513D01*
X149197565Y-101410500D01*
X149452435Y-101410500D01*
X149704458Y-101372513D01*
X149948004Y-101297389D01*
X150177634Y-101186805D01*
X150388217Y-101043232D01*
X150575050Y-100869877D01*
X150733959Y-100670612D01*
X150861393Y-100449888D01*
X150954508Y-100212637D01*
X151011222Y-99964157D01*
X151030268Y-99710000D01*
X151011222Y-99455843D01*
X150954508Y-99207363D01*
X150861393Y-98970112D01*
X150859089Y-98966122D01*
X150791940Y-98849815D01*
X150733959Y-98749388D01*
X150575050Y-98550123D01*
X150388217Y-98376768D01*
X150177634Y-98233195D01*
X149948004Y-98122611D01*
X149704458Y-98047487D01*
X149452435Y-98009500D01*
X149197565Y-98009500D01*
X148945542Y-98047487D01*
X148701996Y-98122611D01*
X148472366Y-98233195D01*
X148439290Y-98255746D01*
X148261781Y-98376769D01*
X148074950Y-98550123D01*
X147916038Y-98749392D01*
X147788608Y-98970108D01*
X147695492Y-99207362D01*
X147638777Y-99455845D01*
X147619731Y-99709999D01*
X140870268Y-99709999D01*
X140851222Y-99455843D01*
X140794508Y-99207363D01*
X140701393Y-98970112D01*
X140699089Y-98966122D01*
X140631940Y-98849815D01*
X140573959Y-98749388D01*
X140415050Y-98550123D01*
X140228217Y-98376768D01*
X140017634Y-98233195D01*
X139788004Y-98122611D01*
X139544458Y-98047487D01*
X139292435Y-98009500D01*
X139037565Y-98009500D01*
X138785542Y-98047487D01*
X138541996Y-98122611D01*
X138312366Y-98233195D01*
X138279290Y-98255746D01*
X138101781Y-98376769D01*
X137914950Y-98550123D01*
X137756038Y-98749392D01*
X137628608Y-98970108D01*
X137535492Y-99207362D01*
X137478777Y-99455845D01*
X137459731Y-99710000D01*
X133020958Y-99710000D01*
X133173545Y-99518662D01*
X133300942Y-99298003D01*
X133394028Y-99060825D01*
X133450726Y-98812414D01*
X133451032Y-98808334D01*
X132310882Y-98808334D01*
X132349556Y-98714965D01*
X132370177Y-98558334D01*
X132349556Y-98401703D01*
X132310882Y-98308334D01*
X133451032Y-98308334D01*
X133451032Y-98308333D01*
X133450726Y-98304253D01*
X133394028Y-98055842D01*
X133300942Y-97818664D01*
X133173545Y-97598005D01*
X133014682Y-97398797D01*
X132827907Y-97225494D01*
X132617379Y-97081959D01*
X132387823Y-96971412D01*
X132144345Y-96896308D01*
X132015000Y-96876813D01*
X132015000Y-98012452D01*
X131921631Y-97973778D01*
X131804323Y-97958334D01*
X131725677Y-97958334D01*
X131608369Y-97973778D01*
X131515000Y-98012452D01*
X131515000Y-96876813D01*
X131385654Y-96896308D01*
X131142179Y-96971411D01*
X130912615Y-97081962D01*
X130702095Y-97225492D01*
X130515317Y-97398797D01*
X130356454Y-97598005D01*
X130229057Y-97818664D01*
X130135971Y-98055842D01*
X130079273Y-98304253D01*
X130078967Y-98308333D01*
X118225499Y-98308333D01*
X118225499Y-97310462D01*
X118219091Y-97250851D01*
X118168796Y-97116003D01*
X118082546Y-97000788D01*
X117967331Y-96914538D01*
X117832483Y-96864243D01*
X117772873Y-96857834D01*
X117769550Y-96857834D01*
X115280439Y-96857834D01*
X115280420Y-96857834D01*
X115277128Y-96857835D01*
X115273848Y-96858187D01*
X115273840Y-96858188D01*
X115217515Y-96864243D01*
X115082669Y-96914538D01*
X114967454Y-97000788D01*
X114881204Y-97116002D01*
X114830909Y-97250850D01*
X114826395Y-97292839D01*
X114824500Y-97310461D01*
X114824500Y-97313782D01*
X114824500Y-97313783D01*
X114824500Y-99802894D01*
X114824500Y-99802912D01*
X113030457Y-99802912D01*
X113030457Y-78999999D01*
X116269858Y-78999999D01*
X116290386Y-79247732D01*
X116351413Y-79488721D01*
X116451268Y-79716370D01*
X116551563Y-79869882D01*
X116551564Y-79869882D01*
X117291923Y-79129523D01*
X117315507Y-79209844D01*
X117393239Y-79330798D01*
X117501900Y-79424952D01*
X117632685Y-79484680D01*
X117642466Y-79486086D01*
X116904942Y-80223609D01*
X116904942Y-80223610D01*
X116951766Y-80260055D01*
X117170393Y-80378368D01*
X117405506Y-80459083D01*
X117650707Y-80500000D01*
X117899293Y-80500000D01*
X118144493Y-80459083D01*
X118379606Y-80378368D01*
X118598233Y-80260053D01*
X118645056Y-80223609D01*
X117907533Y-79486086D01*
X117917315Y-79484680D01*
X118048100Y-79424952D01*
X118156761Y-79330798D01*
X118234493Y-79209844D01*
X118258076Y-79129524D01*
X118998434Y-79869882D01*
X119098730Y-79716369D01*
X119198586Y-79488721D01*
X119259613Y-79247732D01*
X119280141Y-79000000D01*
X119259613Y-78752267D01*
X119198586Y-78511278D01*
X119098730Y-78283630D01*
X118998434Y-78130116D01*
X118258076Y-78870474D01*
X118234493Y-78790156D01*
X118156761Y-78669202D01*
X118048100Y-78575048D01*
X117917315Y-78515320D01*
X117907534Y-78513913D01*
X118645057Y-77776390D01*
X118645056Y-77776388D01*
X118598235Y-77739947D01*
X118379606Y-77621631D01*
X118144493Y-77540916D01*
X117899293Y-77500000D01*
X117650707Y-77500000D01*
X117405506Y-77540916D01*
X117170393Y-77621631D01*
X116951764Y-77739946D01*
X116904942Y-77776388D01*
X116904942Y-77776390D01*
X117642466Y-78513913D01*
X117632685Y-78515320D01*
X117501900Y-78575048D01*
X117393239Y-78669202D01*
X117315507Y-78790156D01*
X117291923Y-78870475D01*
X116551564Y-78130116D01*
X116451266Y-78283634D01*
X116351413Y-78511278D01*
X116290386Y-78752267D01*
X116269858Y-78999999D01*
X113030457Y-78999999D01*
X113030457Y-74459999D01*
X122940531Y-74459999D01*
X122960364Y-74686689D01*
X123019261Y-74906497D01*
X123115432Y-75112735D01*
X123245953Y-75299140D01*
X123406859Y-75460046D01*
X123593264Y-75590567D01*
X123593265Y-75590567D01*
X123593266Y-75590568D01*
X123799504Y-75686739D01*
X124019308Y-75745635D01*
X124170435Y-75758856D01*
X124245999Y-75765468D01*
X124245999Y-75765467D01*
X124246000Y-75765468D01*
X124472692Y-75745635D01*
X124692496Y-75686739D01*
X124898734Y-75590568D01*
X125085139Y-75460047D01*
X125246047Y-75299139D01*
X125376568Y-75112734D01*
X125472739Y-74906496D01*
X125531635Y-74686692D01*
X125551468Y-74460000D01*
X127941033Y-74460000D01*
X127960858Y-74686602D01*
X128019733Y-74906326D01*
X128115866Y-75112484D01*
X128166972Y-75185471D01*
X128166974Y-75185472D01*
X128848046Y-74504399D01*
X128860835Y-74585148D01*
X128918359Y-74698045D01*
X129007955Y-74787641D01*
X129120852Y-74845165D01*
X129201599Y-74857953D01*
X128520526Y-75539025D01*
X128520526Y-75539026D01*
X128593515Y-75590133D01*
X128799673Y-75686266D01*
X129019397Y-75745141D01*
X129245999Y-75764966D01*
X129472602Y-75745141D01*
X129623985Y-75704578D01*
X134951500Y-75704578D01*
X134951501Y-75707872D01*
X134951853Y-75711152D01*
X134951854Y-75711159D01*
X134955507Y-75745141D01*
X134957909Y-75767483D01*
X135008204Y-75902331D01*
X135094454Y-76017546D01*
X135209669Y-76103796D01*
X135344517Y-76154091D01*
X135404127Y-76160500D01*
X137899872Y-76160499D01*
X137959483Y-76154091D01*
X138094331Y-76103796D01*
X138209546Y-76017546D01*
X138295796Y-75902331D01*
X138346091Y-75767483D01*
X138352500Y-75707873D01*
X138352499Y-74459999D01*
X139947232Y-74459999D01*
X139966273Y-74714080D01*
X140022971Y-74962491D01*
X140116057Y-75199668D01*
X140243456Y-75420331D01*
X140285452Y-75472993D01*
X140285453Y-75472993D01*
X141089226Y-74669219D01*
X141127901Y-74762588D01*
X141224075Y-74887925D01*
X141349412Y-74984099D01*
X141442779Y-75022772D01*
X140638813Y-75826737D01*
X140799619Y-75936372D01*
X141029179Y-76046922D01*
X141272654Y-76122025D01*
X141524603Y-76160000D01*
X141779397Y-76160000D01*
X142031345Y-76122025D01*
X142274823Y-76046921D01*
X142504383Y-75936372D01*
X142665185Y-75826737D01*
X141861220Y-75022772D01*
X141954588Y-74984099D01*
X142079925Y-74887925D01*
X142176099Y-74762589D01*
X142214772Y-74669220D01*
X143018545Y-75472993D01*
X143018546Y-75472992D01*
X143060545Y-75420328D01*
X143187942Y-75199669D01*
X143281028Y-74962491D01*
X143337726Y-74714080D01*
X143356767Y-74460000D01*
X143337726Y-74205919D01*
X143281028Y-73957508D01*
X143187942Y-73720330D01*
X143060545Y-73499671D01*
X143018546Y-73447005D01*
X142214772Y-74250779D01*
X142176099Y-74157412D01*
X142079925Y-74032075D01*
X141954588Y-73935901D01*
X141861220Y-73897227D01*
X142665185Y-73093261D01*
X142504379Y-72983625D01*
X142274823Y-72873078D01*
X142031345Y-72797974D01*
X141779397Y-72760000D01*
X141524603Y-72760000D01*
X141272654Y-72797974D01*
X141029179Y-72873077D01*
X140799615Y-72983628D01*
X140638813Y-73093261D01*
X141442779Y-73897227D01*
X141349412Y-73935901D01*
X141224075Y-74032075D01*
X141127901Y-74157411D01*
X141089226Y-74250779D01*
X140285453Y-73447006D01*
X140243453Y-73499673D01*
X140116057Y-73720331D01*
X140022971Y-73957508D01*
X139966273Y-74205919D01*
X139947232Y-74459999D01*
X138352499Y-74459999D01*
X138352499Y-73212128D01*
X138346091Y-73152517D01*
X138295796Y-73017669D01*
X138209546Y-72902454D01*
X138094331Y-72816204D01*
X137959483Y-72765909D01*
X137959483Y-72765908D01*
X137903166Y-72759854D01*
X137903165Y-72759853D01*
X137899873Y-72759500D01*
X137896550Y-72759500D01*
X135407439Y-72759500D01*
X135407420Y-72759500D01*
X135404128Y-72759501D01*
X135400848Y-72759853D01*
X135400840Y-72759854D01*
X135344515Y-72765909D01*
X135209669Y-72816204D01*
X135094454Y-72902454D01*
X135008204Y-73017668D01*
X134957910Y-73152515D01*
X134957909Y-73152517D01*
X134951500Y-73212127D01*
X134951500Y-73215448D01*
X134951500Y-73215449D01*
X134951500Y-75704560D01*
X134951500Y-75704578D01*
X129623985Y-75704578D01*
X129692326Y-75686266D01*
X129898480Y-75590134D01*
X129971472Y-75539025D01*
X129290401Y-74857953D01*
X129371148Y-74845165D01*
X129484045Y-74787641D01*
X129573641Y-74698045D01*
X129631165Y-74585148D01*
X129643953Y-74504400D01*
X130325025Y-75185472D01*
X130376134Y-75112480D01*
X130472266Y-74906326D01*
X130531141Y-74686602D01*
X130550966Y-74460000D01*
X130531141Y-74233397D01*
X130472266Y-74013673D01*
X130376133Y-73807515D01*
X130325025Y-73734526D01*
X129643953Y-74415598D01*
X129631165Y-74334852D01*
X129573641Y-74221955D01*
X129484045Y-74132359D01*
X129371148Y-74074835D01*
X129290399Y-74062045D01*
X129971472Y-73380973D01*
X129971471Y-73380972D01*
X129898484Y-73329866D01*
X129692326Y-73233733D01*
X129472602Y-73174858D01*
X129246000Y-73155033D01*
X129019397Y-73174858D01*
X128799672Y-73233733D01*
X128593516Y-73329865D01*
X128520526Y-73380973D01*
X129201598Y-74062046D01*
X129120852Y-74074835D01*
X129007955Y-74132359D01*
X128918359Y-74221955D01*
X128860835Y-74334852D01*
X128848046Y-74415599D01*
X128166973Y-73734526D01*
X128166973Y-73734527D01*
X128115865Y-73807516D01*
X128019733Y-74013672D01*
X127960858Y-74233397D01*
X127941033Y-74460000D01*
X125551468Y-74460000D01*
X125531635Y-74233308D01*
X125472739Y-74013504D01*
X125376568Y-73807266D01*
X125371864Y-73800547D01*
X125246046Y-73620859D01*
X125085140Y-73459953D01*
X124898735Y-73329432D01*
X124692497Y-73233261D01*
X124472689Y-73174364D01*
X124245999Y-73154531D01*
X124019310Y-73174364D01*
X123799502Y-73233261D01*
X123593264Y-73329432D01*
X123406859Y-73459953D01*
X123245953Y-73620859D01*
X123115432Y-73807264D01*
X123019261Y-74013502D01*
X122960364Y-74233310D01*
X122940531Y-74459999D01*
X113030457Y-74459999D01*
X113030457Y-71500000D01*
X116269356Y-71500000D01*
X116289891Y-71747816D01*
X116289891Y-71747819D01*
X116289892Y-71747821D01*
X116350937Y-71988881D01*
X116381883Y-72059431D01*
X116450825Y-72216604D01*
X116450827Y-72216607D01*
X116586836Y-72424785D01*
X116755256Y-72607738D01*
X116755259Y-72607740D01*
X116951485Y-72760470D01*
X116951487Y-72760471D01*
X116951491Y-72760474D01*
X117170190Y-72878828D01*
X117405386Y-72959571D01*
X117650665Y-73000500D01*
X117899335Y-73000500D01*
X118144614Y-72959571D01*
X118379810Y-72878828D01*
X118598509Y-72760474D01*
X118794744Y-72607738D01*
X118963164Y-72424785D01*
X119099173Y-72216607D01*
X119199063Y-71988881D01*
X119260108Y-71747821D01*
X119280643Y-71500000D01*
X119260108Y-71252179D01*
X119199063Y-71011119D01*
X119108856Y-70805468D01*
X119099174Y-70783395D01*
X119062159Y-70726739D01*
X118963164Y-70575215D01*
X118794744Y-70392262D01*
X118726492Y-70339139D01*
X118598514Y-70239529D01*
X118598510Y-70239526D01*
X118598509Y-70239526D01*
X118379810Y-70121172D01*
X118379806Y-70121170D01*
X118379805Y-70121170D01*
X118144615Y-70040429D01*
X117899335Y-69999500D01*
X117650665Y-69999500D01*
X117405384Y-70040429D01*
X117170194Y-70121170D01*
X116951485Y-70239529D01*
X116755259Y-70392259D01*
X116755256Y-70392261D01*
X116755256Y-70392262D01*
X116719690Y-70430897D01*
X116586837Y-70575214D01*
X116450825Y-70783395D01*
X116369661Y-70968433D01*
X116350937Y-71011119D01*
X116325835Y-71110244D01*
X116289891Y-71252183D01*
X116269356Y-71500000D01*
X113030457Y-71500000D01*
X113030457Y-56874335D01*
X115674500Y-56874335D01*
X115685603Y-56940874D01*
X115715429Y-57119615D01*
X115795169Y-57351889D01*
X115796172Y-57354810D01*
X115910723Y-57566482D01*
X115914529Y-57573514D01*
X115987889Y-57667766D01*
X116067262Y-57769744D01*
X116250215Y-57938164D01*
X116429939Y-58055583D01*
X116458395Y-58074174D01*
X116480833Y-58084016D01*
X116686119Y-58174063D01*
X116927179Y-58235108D01*
X117112933Y-58250500D01*
X117115503Y-58250500D01*
X117234497Y-58250500D01*
X117237067Y-58250500D01*
X117422821Y-58235108D01*
X117663881Y-58174063D01*
X117891607Y-58074173D01*
X118099785Y-57938164D01*
X118282738Y-57769744D01*
X118435474Y-57573509D01*
X118450902Y-57545000D01*
X123059952Y-57545000D01*
X123080113Y-57814026D01*
X123140146Y-58077049D01*
X123238708Y-58328178D01*
X123373598Y-58561816D01*
X123427295Y-58629150D01*
X124262452Y-57793993D01*
X124272188Y-57823956D01*
X124360186Y-57962619D01*
X124479903Y-58075040D01*
X124614510Y-58149041D01*
X123779848Y-58983702D01*
X123962479Y-59108217D01*
X124205542Y-59225270D01*
X124463339Y-59304791D01*
X124730109Y-59345000D01*
X124999891Y-59345000D01*
X125266660Y-59304791D01*
X125524460Y-59225270D01*
X125767523Y-59108217D01*
X125950150Y-58983702D01*
X125856026Y-58889578D01*
X128144500Y-58889578D01*
X128144501Y-58892872D01*
X128144853Y-58896152D01*
X128144854Y-58896159D01*
X128150909Y-58952484D01*
X128160494Y-58978183D01*
X128201204Y-59087331D01*
X128287454Y-59202546D01*
X128402669Y-59288796D01*
X128537517Y-59339091D01*
X128597127Y-59345500D01*
X131292872Y-59345499D01*
X131352483Y-59339091D01*
X131487331Y-59288796D01*
X131602546Y-59202546D01*
X131688796Y-59087331D01*
X131739091Y-58952483D01*
X131745500Y-58892873D01*
X131745499Y-57515000D01*
X136319952Y-57515000D01*
X136340113Y-57784026D01*
X136400146Y-58047049D01*
X136498708Y-58298178D01*
X136633598Y-58531816D01*
X136687295Y-58599150D01*
X137522452Y-57763993D01*
X137532188Y-57793956D01*
X137620186Y-57932619D01*
X137739903Y-58045040D01*
X137874510Y-58119041D01*
X137039848Y-58953702D01*
X137222479Y-59078217D01*
X137465542Y-59195270D01*
X137723339Y-59274791D01*
X137990109Y-59315000D01*
X138259891Y-59315000D01*
X138526660Y-59274791D01*
X138784460Y-59195270D01*
X139027523Y-59078217D01*
X139210150Y-58953702D01*
X139116026Y-58859578D01*
X141404500Y-58859578D01*
X141404501Y-58862872D01*
X141404853Y-58866152D01*
X141404854Y-58866159D01*
X141410909Y-58922484D01*
X141422553Y-58953702D01*
X141461204Y-59057331D01*
X141547454Y-59172546D01*
X141662669Y-59258796D01*
X141797517Y-59309091D01*
X141857127Y-59315500D01*
X144552872Y-59315499D01*
X144612483Y-59309091D01*
X144747331Y-59258796D01*
X144862546Y-59172546D01*
X144948796Y-59057331D01*
X144999091Y-58922483D01*
X145005500Y-58862873D01*
X145005499Y-56167128D01*
X144999091Y-56107517D01*
X144948796Y-55972669D01*
X144862546Y-55857454D01*
X144747331Y-55771204D01*
X144612483Y-55720909D01*
X144612483Y-55720908D01*
X144556166Y-55714854D01*
X144556165Y-55714853D01*
X144552873Y-55714500D01*
X144549550Y-55714500D01*
X141860439Y-55714500D01*
X141860420Y-55714500D01*
X141857128Y-55714501D01*
X141853848Y-55714853D01*
X141853840Y-55714854D01*
X141797515Y-55720909D01*
X141662669Y-55771204D01*
X141547454Y-55857454D01*
X141461204Y-55972668D01*
X141410909Y-56107516D01*
X141406859Y-56145190D01*
X141404500Y-56167127D01*
X141404500Y-56170448D01*
X141404500Y-56170449D01*
X141404500Y-58859560D01*
X141404500Y-58859578D01*
X139116026Y-58859578D01*
X138372534Y-58116086D01*
X138440629Y-58089126D01*
X138573492Y-57992595D01*
X138678175Y-57866055D01*
X138726631Y-57763079D01*
X139562703Y-58599151D01*
X139562704Y-58599150D01*
X139616400Y-58531818D01*
X139751291Y-58298178D01*
X139849853Y-58047049D01*
X139909886Y-57784026D01*
X139930047Y-57515000D01*
X139909886Y-57245973D01*
X139849853Y-56982950D01*
X139751291Y-56731821D01*
X139616398Y-56498178D01*
X139562704Y-56430847D01*
X138727546Y-57266004D01*
X138717812Y-57236044D01*
X138629814Y-57097381D01*
X138510097Y-56984960D01*
X138375487Y-56910957D01*
X139210150Y-56076296D01*
X139027519Y-55951780D01*
X138784460Y-55834729D01*
X138526660Y-55755208D01*
X138259891Y-55715000D01*
X137990109Y-55715000D01*
X137723339Y-55755208D01*
X137465542Y-55834729D01*
X137222476Y-55951783D01*
X137039848Y-56076296D01*
X137877465Y-56913913D01*
X137809371Y-56940874D01*
X137676508Y-57037405D01*
X137571825Y-57163945D01*
X137523368Y-57266920D01*
X136687295Y-56430848D01*
X136633598Y-56498182D01*
X136498708Y-56731821D01*
X136400146Y-56982950D01*
X136340113Y-57245973D01*
X136319952Y-57515000D01*
X131745499Y-57515000D01*
X131745499Y-56197128D01*
X131739091Y-56137517D01*
X131688796Y-56002669D01*
X131602546Y-55887454D01*
X131487331Y-55801204D01*
X131352483Y-55750909D01*
X131352483Y-55750908D01*
X131296166Y-55744854D01*
X131296165Y-55744853D01*
X131292873Y-55744500D01*
X131289550Y-55744500D01*
X128600439Y-55744500D01*
X128600420Y-55744500D01*
X128597128Y-55744501D01*
X128593848Y-55744853D01*
X128593840Y-55744854D01*
X128537515Y-55750909D01*
X128402669Y-55801204D01*
X128287454Y-55887454D01*
X128201204Y-56002668D01*
X128150909Y-56137516D01*
X128148080Y-56163833D01*
X128144500Y-56197127D01*
X128144500Y-56200448D01*
X128144500Y-56200449D01*
X128144500Y-58889560D01*
X128144500Y-58889578D01*
X125856026Y-58889578D01*
X125112534Y-58146086D01*
X125180629Y-58119126D01*
X125313492Y-58022595D01*
X125418175Y-57896055D01*
X125466631Y-57793079D01*
X126302703Y-58629151D01*
X126302704Y-58629150D01*
X126356400Y-58561818D01*
X126491291Y-58328178D01*
X126589853Y-58077049D01*
X126649886Y-57814026D01*
X126670047Y-57545000D01*
X126649886Y-57275973D01*
X126589853Y-57012950D01*
X126491291Y-56761821D01*
X126356398Y-56528178D01*
X126302704Y-56460847D01*
X125467546Y-57296004D01*
X125457812Y-57266044D01*
X125369814Y-57127381D01*
X125250097Y-57014960D01*
X125115489Y-56940958D01*
X125950150Y-56106296D01*
X125767519Y-55981780D01*
X125524460Y-55864729D01*
X125266660Y-55785208D01*
X124999891Y-55745000D01*
X124730109Y-55745000D01*
X124463339Y-55785208D01*
X124205542Y-55864729D01*
X123962476Y-55981783D01*
X123779848Y-56106296D01*
X124617465Y-56943913D01*
X124549371Y-56970874D01*
X124416508Y-57067405D01*
X124311825Y-57193945D01*
X124263368Y-57296920D01*
X123427295Y-56460848D01*
X123373598Y-56528182D01*
X123238708Y-56761821D01*
X123140146Y-57012950D01*
X123080113Y-57275973D01*
X123059952Y-57545000D01*
X118450902Y-57545000D01*
X118553828Y-57354810D01*
X118634571Y-57119614D01*
X118675500Y-56874335D01*
X118675500Y-56625665D01*
X118634571Y-56380386D01*
X118553828Y-56145190D01*
X118435474Y-55926491D01*
X118435471Y-55926487D01*
X118435470Y-55926485D01*
X118298813Y-55750909D01*
X118282738Y-55730256D01*
X118099785Y-55561836D01*
X117891607Y-55425827D01*
X117891604Y-55425825D01*
X117766523Y-55370960D01*
X117663881Y-55325937D01*
X117483866Y-55280351D01*
X117422822Y-55264892D01*
X117388854Y-55262077D01*
X117237067Y-55249500D01*
X117112933Y-55249500D01*
X116995111Y-55259262D01*
X116927177Y-55264892D01*
X116805086Y-55295810D01*
X116686119Y-55325937D01*
X116686116Y-55325938D01*
X116686117Y-55325938D01*
X116458395Y-55425825D01*
X116319607Y-55516499D01*
X116250215Y-55561836D01*
X116083835Y-55715000D01*
X116067259Y-55730259D01*
X115914529Y-55926485D01*
X115843513Y-56057710D01*
X115800325Y-56137517D01*
X115796170Y-56145194D01*
X115715429Y-56380384D01*
X115680850Y-56587608D01*
X115674500Y-56625665D01*
X115674500Y-56874335D01*
X113030457Y-56874335D01*
X113030457Y-55413284D01*
X113030627Y-55406797D01*
X113037231Y-55280751D01*
X113048192Y-55085977D01*
X113049519Y-55073570D01*
X113073008Y-54925257D01*
X113073649Y-54921484D01*
X113101963Y-54754828D01*
X113104418Y-54743591D01*
X113144922Y-54592421D01*
X113191273Y-54431525D01*
X113194623Y-54421536D01*
X113251187Y-54274177D01*
X113252345Y-54271276D01*
X113315048Y-54119891D01*
X113319109Y-54111083D01*
X113391343Y-53969312D01*
X113393194Y-53965826D01*
X113471892Y-53823430D01*
X113476373Y-53815960D01*
X113563407Y-53681937D01*
X113566188Y-53677843D01*
X113659931Y-53545721D01*
X113664644Y-53539507D01*
X113765383Y-53415104D01*
X113769241Y-53410569D01*
X113876985Y-53290002D01*
X113881685Y-53285030D01*
X113994984Y-53171729D01*
X113999974Y-53167011D01*
X114120553Y-53059254D01*
X114125052Y-53055426D01*
X114249490Y-52954656D01*
X114255665Y-52949973D01*
X114387810Y-52856210D01*
X114391944Y-52853403D01*
X114525915Y-52766400D01*
X114533379Y-52761921D01*
X114675744Y-52683239D01*
X114679340Y-52681329D01*
X114821053Y-52609122D01*
X114829839Y-52605072D01*
X114981271Y-52542346D01*
X114984082Y-52541225D01*
X115131479Y-52484644D01*
X115141522Y-52481276D01*
X115302319Y-52434950D01*
X115453557Y-52394425D01*
X115464823Y-52391965D01*
X115635226Y-52363012D01*
X115783500Y-52339528D01*
X115795902Y-52338201D01*
X115998272Y-52326836D01*
X116115926Y-52320670D01*
X116122415Y-52320500D01*
X183596714Y-52320500D01*
X183603201Y-52320669D01*
G37*
%TD.AperFunction*%
%TA.AperFunction,Conductor*%
G36*
X163350000Y-58657640D02*
G01*
X163444859Y-58641811D01*
X163664296Y-58566478D01*
X163868353Y-58456048D01*
X164051443Y-58313543D01*
X164208583Y-58142843D01*
X164265892Y-58055126D01*
X164319038Y-58009769D01*
X164388269Y-58000345D01*
X164451605Y-58029847D01*
X164473507Y-58055122D01*
X164531021Y-58143153D01*
X164688216Y-58313913D01*
X164871374Y-58456470D01*
X165075497Y-58566936D01*
X165169333Y-58599150D01*
X165295015Y-58642297D01*
X165295017Y-58642297D01*
X165295019Y-58642298D01*
X165523951Y-58680500D01*
X165523952Y-58680500D01*
X165756048Y-58680500D01*
X165756049Y-58680500D01*
X165984981Y-58642298D01*
X166204503Y-58566936D01*
X166408626Y-58456470D01*
X166591784Y-58313913D01*
X166748979Y-58143153D01*
X166806192Y-58055580D01*
X166859336Y-58010226D01*
X166928567Y-58000802D01*
X166991903Y-58030303D01*
X167013807Y-58055582D01*
X167070817Y-58142841D01*
X167071021Y-58143153D01*
X167228216Y-58313913D01*
X167411374Y-58456470D01*
X167615497Y-58566936D01*
X167709333Y-58599150D01*
X167835015Y-58642297D01*
X167835017Y-58642297D01*
X167835019Y-58642298D01*
X168063951Y-58680500D01*
X168063952Y-58680500D01*
X168296048Y-58680500D01*
X168296049Y-58680500D01*
X168524981Y-58642298D01*
X168744503Y-58566936D01*
X168948626Y-58456470D01*
X169131784Y-58313913D01*
X169288979Y-58143153D01*
X169346191Y-58055582D01*
X169399337Y-58010226D01*
X169468569Y-58000802D01*
X169531905Y-58030304D01*
X169553807Y-58055581D01*
X169611021Y-58143153D01*
X169768216Y-58313913D01*
X169951374Y-58456470D01*
X170155497Y-58566936D01*
X170249333Y-58599150D01*
X170375015Y-58642297D01*
X170375017Y-58642297D01*
X170375019Y-58642298D01*
X170603951Y-58680500D01*
X170603952Y-58680500D01*
X170836047Y-58680500D01*
X170836049Y-58680500D01*
X171024874Y-58648990D01*
X171094235Y-58657372D01*
X171132961Y-58683618D01*
X171287162Y-58837819D01*
X171320647Y-58899142D01*
X171315663Y-58968834D01*
X171273791Y-59024767D01*
X171208327Y-59049184D01*
X171199481Y-59049500D01*
X161924910Y-59049500D01*
X161917423Y-59049274D01*
X161857391Y-59045642D01*
X161798242Y-59056481D01*
X161790843Y-59057608D01*
X161731122Y-59064860D01*
X161721641Y-59068456D01*
X161700036Y-59074479D01*
X161690069Y-59076305D01*
X161635234Y-59100984D01*
X161628318Y-59103848D01*
X161572069Y-59125181D01*
X161563725Y-59130941D01*
X161544183Y-59141963D01*
X161534944Y-59146121D01*
X161487594Y-59183216D01*
X161481566Y-59187652D01*
X161432067Y-59221819D01*
X161392183Y-59266838D01*
X161387051Y-59272290D01*
X159702961Y-60956380D01*
X159641638Y-60989865D01*
X159594871Y-60991008D01*
X159406049Y-60959500D01*
X159173951Y-60959500D01*
X159135544Y-60965909D01*
X158945015Y-60997702D01*
X158725501Y-61073062D01*
X158521372Y-61183531D01*
X158338215Y-61326087D01*
X158181018Y-61496849D01*
X158123808Y-61584417D01*
X158070662Y-61629773D01*
X158001431Y-61639197D01*
X157938095Y-61609695D01*
X157916192Y-61584417D01*
X157858981Y-61496849D01*
X157701784Y-61326087D01*
X157562488Y-61217669D01*
X157518626Y-61183530D01*
X157314503Y-61073064D01*
X157314499Y-61073062D01*
X157314498Y-61073062D01*
X157094984Y-60997702D01*
X156904456Y-60965909D01*
X156866049Y-60959500D01*
X156633951Y-60959500D01*
X156595544Y-60965909D01*
X156405015Y-60997702D01*
X156185501Y-61073062D01*
X155981372Y-61183531D01*
X155798213Y-61326089D01*
X155789863Y-61335160D01*
X155729975Y-61371148D01*
X155660137Y-61369046D01*
X155602522Y-61329520D01*
X155582455Y-61294510D01*
X155553796Y-61217669D01*
X155467546Y-61102454D01*
X155352331Y-61016204D01*
X155217483Y-60965909D01*
X155157873Y-60959500D01*
X155154550Y-60959500D01*
X153265439Y-60959500D01*
X153265420Y-60959500D01*
X153262128Y-60959501D01*
X153258848Y-60959853D01*
X153258840Y-60959854D01*
X153202515Y-60965909D01*
X153067669Y-61016204D01*
X152952454Y-61102454D01*
X152866204Y-61217668D01*
X152822383Y-61335160D01*
X152815909Y-61352517D01*
X152809500Y-61412127D01*
X152809500Y-61415448D01*
X152809500Y-61415449D01*
X152809500Y-63304560D01*
X152809500Y-63304578D01*
X152809501Y-63307872D01*
X152815909Y-63367483D01*
X152866204Y-63502331D01*
X152952454Y-63617546D01*
X153067669Y-63703796D01*
X153202517Y-63754091D01*
X153262127Y-63760500D01*
X155157872Y-63760499D01*
X155217483Y-63754091D01*
X155352331Y-63703796D01*
X155352334Y-63703793D01*
X155354132Y-63703123D01*
X155423824Y-63698139D01*
X155485147Y-63731624D01*
X155518632Y-63792947D01*
X155513648Y-63862638D01*
X155485147Y-63906986D01*
X150522290Y-68869843D01*
X150516838Y-68874975D01*
X150471816Y-68914862D01*
X150437649Y-68964360D01*
X150433213Y-68970389D01*
X150396121Y-69017734D01*
X150391961Y-69026978D01*
X150380941Y-69046517D01*
X150375182Y-69054861D01*
X150353853Y-69111097D01*
X150350989Y-69118011D01*
X150326303Y-69172862D01*
X150324475Y-69182839D01*
X150318454Y-69204440D01*
X150314859Y-69213920D01*
X150307609Y-69273619D01*
X150306483Y-69281018D01*
X150295641Y-69340182D01*
X150299274Y-69400225D01*
X150299500Y-69407712D01*
X150299500Y-70934608D01*
X150279815Y-71001647D01*
X150267655Y-71017575D01*
X150267467Y-71017783D01*
X150172820Y-71181715D01*
X150114326Y-71361742D01*
X150094540Y-71550000D01*
X150114326Y-71738257D01*
X150172820Y-71918284D01*
X150267466Y-72082216D01*
X150394129Y-72222889D01*
X150547269Y-72334151D01*
X150720197Y-72411144D01*
X150905352Y-72450500D01*
X150905354Y-72450500D01*
X151094648Y-72450500D01*
X151218084Y-72424262D01*
X151279803Y-72411144D01*
X151452730Y-72334151D01*
X151549764Y-72263652D01*
X151605870Y-72222889D01*
X151732533Y-72082216D01*
X151827179Y-71918284D01*
X151848672Y-71852135D01*
X151885674Y-71738256D01*
X151905460Y-71550000D01*
X151885674Y-71361744D01*
X151827179Y-71181716D01*
X151827179Y-71181715D01*
X151772534Y-71087069D01*
X151732533Y-71017784D01*
X151732345Y-71017575D01*
X151732013Y-71016884D01*
X151726017Y-71006498D01*
X151726810Y-71006040D01*
X151702119Y-70954582D01*
X151700500Y-70934608D01*
X151700500Y-69724310D01*
X151720185Y-69657271D01*
X151736813Y-69636634D01*
X151865726Y-69507721D01*
X151927045Y-69474239D01*
X151996737Y-69479223D01*
X152052671Y-69521094D01*
X152076932Y-69584597D01*
X152089364Y-69726689D01*
X152148261Y-69946497D01*
X152244432Y-70152735D01*
X152374953Y-70339140D01*
X152535859Y-70500046D01*
X152722264Y-70630567D01*
X152722265Y-70630567D01*
X152722266Y-70630568D01*
X152928504Y-70726739D01*
X153148308Y-70785635D01*
X153375000Y-70805468D01*
X153601692Y-70785635D01*
X153821496Y-70726739D01*
X154027734Y-70630568D01*
X154214139Y-70500047D01*
X154375047Y-70339139D01*
X154505568Y-70152734D01*
X154601739Y-69946496D01*
X154660635Y-69726692D01*
X154680468Y-69500000D01*
X154660635Y-69273308D01*
X154601739Y-69053504D01*
X154505568Y-68847266D01*
X154375047Y-68660861D01*
X154375046Y-68660859D01*
X154214140Y-68499953D01*
X154027735Y-68369432D01*
X153821497Y-68273261D01*
X153601689Y-68214364D01*
X153459597Y-68201932D01*
X153394528Y-68176479D01*
X153353550Y-68119888D01*
X153349672Y-68050126D01*
X153382722Y-67990725D01*
X157227731Y-64145716D01*
X157233150Y-64140615D01*
X157278183Y-64100721D01*
X157312355Y-64051212D01*
X157316775Y-64045205D01*
X157353878Y-63997849D01*
X157358035Y-63988611D01*
X157369060Y-63969062D01*
X157374818Y-63960722D01*
X157396152Y-63904465D01*
X157398996Y-63897600D01*
X157423695Y-63842724D01*
X157425522Y-63832750D01*
X157431552Y-63811123D01*
X157435140Y-63801663D01*
X157440798Y-63755068D01*
X157442387Y-63741973D01*
X157443514Y-63734570D01*
X157445763Y-63722297D01*
X157454358Y-63675398D01*
X157453031Y-63653465D01*
X157468632Y-63585360D01*
X157511093Y-63543521D01*
X157510517Y-63542781D01*
X157516837Y-63537861D01*
X157517791Y-63536921D01*
X157518626Y-63536470D01*
X157701784Y-63393913D01*
X157858979Y-63223153D01*
X157916192Y-63135580D01*
X157969336Y-63090226D01*
X158038567Y-63080802D01*
X158101903Y-63110303D01*
X158123807Y-63135582D01*
X158163944Y-63197015D01*
X158181021Y-63223153D01*
X158338216Y-63393913D01*
X158521374Y-63536470D01*
X158725497Y-63646936D01*
X158808404Y-63675398D01*
X158945015Y-63722297D01*
X158945017Y-63722297D01*
X158945019Y-63722298D01*
X159173951Y-63760500D01*
X159173952Y-63760500D01*
X159401521Y-63760500D01*
X159468560Y-63780185D01*
X159514315Y-63832989D01*
X159524259Y-63902147D01*
X159523490Y-63906850D01*
X159520641Y-63922392D01*
X159524274Y-63982433D01*
X159524500Y-63989920D01*
X159524500Y-67250891D01*
X159524274Y-67258378D01*
X159520641Y-67318419D01*
X159531483Y-67377583D01*
X159532610Y-67384984D01*
X159539860Y-67444685D01*
X159543450Y-67454151D01*
X159549475Y-67475764D01*
X159551303Y-67485741D01*
X159575991Y-67540595D01*
X159578856Y-67547513D01*
X159600180Y-67603738D01*
X159600182Y-67603742D01*
X159605941Y-67612085D01*
X159616961Y-67631625D01*
X159621120Y-67640866D01*
X159658216Y-67688217D01*
X159662651Y-67694244D01*
X159696817Y-67743741D01*
X159741847Y-67783634D01*
X159747283Y-67788752D01*
X161096350Y-69137819D01*
X161129835Y-69199142D01*
X161124851Y-69268834D01*
X161082979Y-69324767D01*
X161017515Y-69349184D01*
X161008669Y-69349500D01*
X160833216Y-69349500D01*
X160830521Y-69349735D01*
X160830515Y-69349736D01*
X160663310Y-69364364D01*
X160443502Y-69423261D01*
X160237264Y-69519432D01*
X160050859Y-69649953D01*
X159889953Y-69810859D01*
X159759432Y-69997264D01*
X159663261Y-70203502D01*
X159604364Y-70423310D01*
X159584531Y-70650000D01*
X159604364Y-70876689D01*
X159663261Y-71096497D01*
X159759432Y-71302735D01*
X159889953Y-71489140D01*
X160050859Y-71650046D01*
X160176839Y-71738257D01*
X160237266Y-71780568D01*
X160295275Y-71807618D01*
X160347714Y-71853791D01*
X160366865Y-71920985D01*
X160346649Y-71987866D01*
X160295275Y-72032382D01*
X160237263Y-72059433D01*
X160050859Y-72189953D01*
X159889953Y-72350859D01*
X159759432Y-72537264D01*
X159663261Y-72743502D01*
X159604364Y-72963310D01*
X159584531Y-73189999D01*
X159604364Y-73416689D01*
X159663261Y-73636497D01*
X159759432Y-73842735D01*
X159889953Y-74029140D01*
X160050859Y-74190046D01*
X160153557Y-74261955D01*
X160237266Y-74320568D01*
X160295275Y-74347618D01*
X160347714Y-74393791D01*
X160366865Y-74460985D01*
X160346649Y-74527866D01*
X160295275Y-74572382D01*
X160237263Y-74599433D01*
X160050859Y-74729953D01*
X159889953Y-74890859D01*
X159759432Y-75077264D01*
X159663261Y-75283502D01*
X159604364Y-75503310D01*
X159584531Y-75730000D01*
X159604364Y-75956689D01*
X159663261Y-76176497D01*
X159759432Y-76382735D01*
X159889953Y-76569140D01*
X160050859Y-76730046D01*
X160172269Y-76815057D01*
X160237266Y-76860568D01*
X160295275Y-76887618D01*
X160347714Y-76933791D01*
X160366865Y-77000985D01*
X160346649Y-77067866D01*
X160295275Y-77112382D01*
X160237263Y-77139433D01*
X160050859Y-77269953D01*
X159889953Y-77430859D01*
X159829902Y-77516623D01*
X159775326Y-77560248D01*
X159728327Y-77569500D01*
X150111519Y-77569500D01*
X150044480Y-77549815D01*
X150023838Y-77533181D01*
X148686819Y-76196161D01*
X148653334Y-76134838D01*
X148650500Y-76108480D01*
X148650500Y-74500000D01*
X152070033Y-74500000D01*
X152089858Y-74726602D01*
X152148733Y-74946326D01*
X152244866Y-75152484D01*
X152295972Y-75225471D01*
X152295974Y-75225472D01*
X152977046Y-74544399D01*
X152989835Y-74625148D01*
X153047359Y-74738045D01*
X153136955Y-74827641D01*
X153249852Y-74885165D01*
X153330599Y-74897953D01*
X152649526Y-75579025D01*
X152649526Y-75579026D01*
X152722515Y-75630133D01*
X152928673Y-75726266D01*
X153148397Y-75785141D01*
X153374999Y-75804966D01*
X153601602Y-75785141D01*
X153821326Y-75726266D01*
X154027480Y-75630134D01*
X154100472Y-75579025D01*
X153419401Y-74897953D01*
X153500148Y-74885165D01*
X153613045Y-74827641D01*
X153702641Y-74738045D01*
X153760165Y-74625148D01*
X153772953Y-74544400D01*
X154454025Y-75225472D01*
X154505134Y-75152480D01*
X154601266Y-74946326D01*
X154660141Y-74726602D01*
X154679966Y-74500000D01*
X154660141Y-74273397D01*
X154601266Y-74053673D01*
X154505133Y-73847515D01*
X154454025Y-73774526D01*
X153772953Y-74455598D01*
X153760165Y-74374852D01*
X153702641Y-74261955D01*
X153613045Y-74172359D01*
X153500148Y-74114835D01*
X153419400Y-74102046D01*
X154100472Y-73420974D01*
X154100471Y-73420972D01*
X154027484Y-73369866D01*
X153821326Y-73273733D01*
X153601602Y-73214858D01*
X153374999Y-73195033D01*
X153148397Y-73214858D01*
X152928672Y-73273733D01*
X152722516Y-73369865D01*
X152649527Y-73420973D01*
X152649526Y-73420973D01*
X153330600Y-74102046D01*
X153249852Y-74114835D01*
X153136955Y-74172359D01*
X153047359Y-74261955D01*
X152989835Y-74374852D01*
X152977046Y-74455599D01*
X152295973Y-73774526D01*
X152295973Y-73774527D01*
X152244865Y-73847516D01*
X152148733Y-74053672D01*
X152089858Y-74273397D01*
X152070033Y-74500000D01*
X148650500Y-74500000D01*
X148650500Y-63165391D01*
X148670185Y-63098352D01*
X148682354Y-63082415D01*
X148682387Y-63082377D01*
X148682533Y-63082216D01*
X148777179Y-62918284D01*
X148835674Y-62738256D01*
X148855460Y-62550000D01*
X148835674Y-62361744D01*
X148777179Y-62181716D01*
X148777179Y-62181715D01*
X148682533Y-62017783D01*
X148555871Y-61877112D01*
X148507777Y-61842169D01*
X148465111Y-61786838D01*
X148459133Y-61717225D01*
X148491739Y-61655430D01*
X148492906Y-61654246D01*
X152130334Y-58016819D01*
X152191658Y-57983334D01*
X152218016Y-57980500D01*
X154197649Y-57980500D01*
X154264688Y-58000185D01*
X154301457Y-58036677D01*
X154371021Y-58143153D01*
X154528216Y-58313913D01*
X154711374Y-58456470D01*
X154915497Y-58566936D01*
X155009333Y-58599150D01*
X155135015Y-58642297D01*
X155135017Y-58642297D01*
X155135019Y-58642298D01*
X155363951Y-58680500D01*
X155363952Y-58680500D01*
X155596048Y-58680500D01*
X155596049Y-58680500D01*
X155824981Y-58642298D01*
X156044503Y-58566936D01*
X156248626Y-58456470D01*
X156431784Y-58313913D01*
X156588979Y-58143153D01*
X156646191Y-58055582D01*
X156699337Y-58010226D01*
X156768569Y-58000802D01*
X156831905Y-58030304D01*
X156853807Y-58055581D01*
X156911021Y-58143153D01*
X157068216Y-58313913D01*
X157251374Y-58456470D01*
X157455497Y-58566936D01*
X157549333Y-58599150D01*
X157675015Y-58642297D01*
X157675017Y-58642297D01*
X157675019Y-58642298D01*
X157903951Y-58680500D01*
X157903952Y-58680500D01*
X158136048Y-58680500D01*
X158136049Y-58680500D01*
X158364981Y-58642298D01*
X158584503Y-58566936D01*
X158788626Y-58456470D01*
X158971784Y-58313913D01*
X159128979Y-58143153D01*
X159186191Y-58055582D01*
X159239337Y-58010226D01*
X159308569Y-58000802D01*
X159371905Y-58030304D01*
X159393807Y-58055581D01*
X159451021Y-58143153D01*
X159608216Y-58313913D01*
X159791374Y-58456470D01*
X159995497Y-58566936D01*
X160089333Y-58599150D01*
X160215015Y-58642297D01*
X160215017Y-58642297D01*
X160215019Y-58642298D01*
X160443951Y-58680500D01*
X160443952Y-58680500D01*
X160676048Y-58680500D01*
X160676049Y-58680500D01*
X160904981Y-58642298D01*
X161124503Y-58566936D01*
X161328626Y-58456470D01*
X161511784Y-58313913D01*
X161668979Y-58143153D01*
X161726490Y-58055124D01*
X161779635Y-58009769D01*
X161848866Y-58000345D01*
X161912202Y-58029846D01*
X161934106Y-58055125D01*
X161991414Y-58142841D01*
X162148556Y-58313543D01*
X162331646Y-58456048D01*
X162535703Y-58566478D01*
X162755140Y-58641811D01*
X162849999Y-58657640D01*
X162850000Y-58657639D01*
X162850000Y-57715501D01*
X162957685Y-57764680D01*
X163064237Y-57780000D01*
X163135763Y-57780000D01*
X163242315Y-57764680D01*
X163350000Y-57715501D01*
X163350000Y-58657640D01*
G37*
%TD.AperFunction*%
%TA.AperFunction,Conductor*%
G36*
X163066122Y-71111308D02*
G01*
X163085938Y-71127407D01*
X164113182Y-72154651D01*
X164146666Y-72215972D01*
X164149500Y-72242330D01*
X164149500Y-73334608D01*
X164129815Y-73401647D01*
X164117655Y-73417575D01*
X164117467Y-73417783D01*
X164022820Y-73581715D01*
X163964326Y-73761742D01*
X163944540Y-73950000D01*
X163964326Y-74138257D01*
X164022820Y-74318284D01*
X164117466Y-74482216D01*
X164244129Y-74622889D01*
X164397269Y-74734151D01*
X164570197Y-74811144D01*
X164755352Y-74850500D01*
X164755354Y-74850500D01*
X164944648Y-74850500D01*
X165118469Y-74813553D01*
X165129803Y-74811144D01*
X165302730Y-74734151D01*
X165313120Y-74726602D01*
X165455870Y-74622889D01*
X165542921Y-74526210D01*
X165582533Y-74482216D01*
X165677179Y-74318284D01*
X165735674Y-74138256D01*
X165755460Y-73950000D01*
X165746975Y-73869273D01*
X165759544Y-73800547D01*
X165807276Y-73749523D01*
X165875016Y-73732405D01*
X165941258Y-73754627D01*
X165957977Y-73768634D01*
X167282157Y-75092814D01*
X167315642Y-75154137D01*
X167310658Y-75223829D01*
X167306858Y-75232899D01*
X167283262Y-75283500D01*
X167224364Y-75503310D01*
X167204531Y-75730000D01*
X167224364Y-75956689D01*
X167283261Y-76176497D01*
X167379432Y-76382735D01*
X167509953Y-76569140D01*
X167670859Y-76730046D01*
X167792269Y-76815057D01*
X167857266Y-76860568D01*
X167915275Y-76887618D01*
X167967714Y-76933791D01*
X167986865Y-77000985D01*
X167966649Y-77067866D01*
X167915275Y-77112382D01*
X167857263Y-77139433D01*
X167670859Y-77269953D01*
X167509953Y-77430859D01*
X167379432Y-77617264D01*
X167283261Y-77823502D01*
X167224364Y-78043310D01*
X167204531Y-78270000D01*
X167224364Y-78496689D01*
X167283261Y-78716497D01*
X167379432Y-78922735D01*
X167509953Y-79109140D01*
X167670859Y-79270046D01*
X167756656Y-79330121D01*
X167857266Y-79400568D01*
X167915275Y-79427618D01*
X167967714Y-79473791D01*
X167986865Y-79540985D01*
X167966649Y-79607866D01*
X167915275Y-79652382D01*
X167857263Y-79679433D01*
X167670859Y-79809953D01*
X167509953Y-79970859D01*
X167379432Y-80157264D01*
X167283261Y-80363502D01*
X167224364Y-80583310D01*
X167204531Y-80809999D01*
X167224364Y-81036689D01*
X167283261Y-81256497D01*
X167379432Y-81462735D01*
X167509953Y-81649140D01*
X167670859Y-81810046D01*
X167839437Y-81928084D01*
X167857266Y-81940568D01*
X167915275Y-81967618D01*
X167967714Y-82013791D01*
X167986865Y-82080985D01*
X167966649Y-82147866D01*
X167915275Y-82192382D01*
X167857263Y-82219433D01*
X167670859Y-82349953D01*
X167509953Y-82510859D01*
X167379432Y-82697264D01*
X167283261Y-82903502D01*
X167224364Y-83123310D01*
X167204531Y-83350000D01*
X167224364Y-83576689D01*
X167283261Y-83796497D01*
X167379432Y-84002735D01*
X167509953Y-84189140D01*
X167670859Y-84350046D01*
X167844907Y-84471914D01*
X167857266Y-84480568D01*
X167915275Y-84507618D01*
X167967714Y-84553791D01*
X167986865Y-84620985D01*
X167966649Y-84687866D01*
X167915275Y-84732382D01*
X167857263Y-84759433D01*
X167670859Y-84889953D01*
X167509953Y-85050859D01*
X167379432Y-85237264D01*
X167283261Y-85443502D01*
X167224364Y-85663310D01*
X167204531Y-85889999D01*
X167224364Y-86116689D01*
X167283261Y-86336497D01*
X167379432Y-86542735D01*
X167509953Y-86729140D01*
X167670859Y-86890046D01*
X167820622Y-86994910D01*
X167857266Y-87020568D01*
X167915275Y-87047618D01*
X167967714Y-87093791D01*
X167986865Y-87160985D01*
X167966649Y-87227866D01*
X167915275Y-87272382D01*
X167857263Y-87299433D01*
X167670859Y-87429953D01*
X167509953Y-87590859D01*
X167379432Y-87777264D01*
X167283261Y-87983502D01*
X167224364Y-88203310D01*
X167204531Y-88429999D01*
X167224364Y-88656689D01*
X167283261Y-88876497D01*
X167379432Y-89082735D01*
X167509953Y-89269140D01*
X167670859Y-89430046D01*
X167857264Y-89560567D01*
X167857265Y-89560567D01*
X167857266Y-89560568D01*
X167915865Y-89587893D01*
X167968304Y-89634065D01*
X167987456Y-89701259D01*
X167967240Y-89768140D01*
X167915866Y-89812656D01*
X167857522Y-89839863D01*
X167671180Y-89970341D01*
X167510341Y-90131180D01*
X167379865Y-90317519D01*
X167283733Y-90523673D01*
X167231128Y-90719999D01*
X167231128Y-90720000D01*
X168594314Y-90720000D01*
X168582359Y-90731955D01*
X168524835Y-90844852D01*
X168505014Y-90970000D01*
X168524835Y-91095148D01*
X168582359Y-91208045D01*
X168594314Y-91220000D01*
X167231128Y-91220000D01*
X167283733Y-91416326D01*
X167379865Y-91622480D01*
X167510341Y-91808819D01*
X167671182Y-91969660D01*
X167696221Y-91987193D01*
X167739845Y-92041770D01*
X167747037Y-92111269D01*
X167715514Y-92173623D01*
X167655284Y-92209036D01*
X167638350Y-92212057D01*
X167602515Y-92215909D01*
X167467669Y-92266204D01*
X167352454Y-92352454D01*
X167266204Y-92467668D01*
X167215910Y-92602515D01*
X167215909Y-92602517D01*
X167209500Y-92662127D01*
X167209500Y-92665448D01*
X167209500Y-92665449D01*
X167209500Y-93619480D01*
X167189815Y-93686519D01*
X167137011Y-93732274D01*
X167067853Y-93742218D01*
X167004297Y-93713193D01*
X166997819Y-93707161D01*
X164961819Y-91671161D01*
X164928334Y-91609838D01*
X164925500Y-91583480D01*
X164925500Y-90440391D01*
X164945185Y-90373352D01*
X164957354Y-90357415D01*
X164957387Y-90357377D01*
X164957533Y-90357216D01*
X165052179Y-90193284D01*
X165110674Y-90013256D01*
X165130460Y-89825000D01*
X165110674Y-89636744D01*
X165075858Y-89529593D01*
X165052179Y-89456715D01*
X164957533Y-89292783D01*
X164830870Y-89152110D01*
X164677730Y-89040848D01*
X164504802Y-88963855D01*
X164319648Y-88924500D01*
X164319646Y-88924500D01*
X164130354Y-88924500D01*
X164125278Y-88925578D01*
X164055613Y-88920262D01*
X163999880Y-88878124D01*
X163975775Y-88812544D01*
X163975500Y-88804288D01*
X163975500Y-85359919D01*
X163975726Y-85352432D01*
X163979358Y-85292394D01*
X163968507Y-85233185D01*
X163967390Y-85225841D01*
X163960140Y-85166128D01*
X163956547Y-85156656D01*
X163950522Y-85135044D01*
X163948695Y-85125069D01*
X163924007Y-85070217D01*
X163921147Y-85063313D01*
X163899818Y-85007070D01*
X163894061Y-84998730D01*
X163883035Y-84979181D01*
X163878877Y-84969941D01*
X163841785Y-84922597D01*
X163837355Y-84916577D01*
X163803183Y-84867071D01*
X163758153Y-84827178D01*
X163752715Y-84822058D01*
X162917842Y-83987185D01*
X162884357Y-83925862D01*
X162889341Y-83856170D01*
X162893134Y-83847115D01*
X162916739Y-83796496D01*
X162975635Y-83576692D01*
X162995468Y-83350000D01*
X162975635Y-83123308D01*
X162916739Y-82903504D01*
X162820568Y-82697266D01*
X162690047Y-82510861D01*
X162690046Y-82510859D01*
X162529140Y-82349953D01*
X162342733Y-82219431D01*
X162284725Y-82192382D01*
X162232285Y-82146210D01*
X162213133Y-82079017D01*
X162233348Y-82012135D01*
X162284725Y-81967618D01*
X162342734Y-81940568D01*
X162529139Y-81810047D01*
X162690047Y-81649139D01*
X162820568Y-81462734D01*
X162916739Y-81256496D01*
X162975635Y-81036692D01*
X162995468Y-80810000D01*
X162975635Y-80583308D01*
X162916739Y-80363504D01*
X162820568Y-80157266D01*
X162728871Y-80026307D01*
X162690046Y-79970859D01*
X162529140Y-79809953D01*
X162342733Y-79679431D01*
X162284725Y-79652382D01*
X162232285Y-79606210D01*
X162213133Y-79539017D01*
X162233348Y-79472135D01*
X162284725Y-79427618D01*
X162342734Y-79400568D01*
X162529139Y-79270047D01*
X162690047Y-79109139D01*
X162820568Y-78922734D01*
X162916739Y-78716496D01*
X162975635Y-78496692D01*
X162995468Y-78270000D01*
X162975635Y-78043308D01*
X162916739Y-77823504D01*
X162820568Y-77617266D01*
X162800080Y-77588005D01*
X162690046Y-77430859D01*
X162529140Y-77269953D01*
X162342733Y-77139431D01*
X162284725Y-77112382D01*
X162232285Y-77066210D01*
X162213133Y-76999017D01*
X162233348Y-76932135D01*
X162284725Y-76887618D01*
X162342734Y-76860568D01*
X162529139Y-76730047D01*
X162690047Y-76569139D01*
X162820568Y-76382734D01*
X162916739Y-76176496D01*
X162975635Y-75956692D01*
X162995468Y-75730000D01*
X162975635Y-75503308D01*
X162916739Y-75283504D01*
X162820568Y-75077266D01*
X162808479Y-75060000D01*
X162690046Y-74890859D01*
X162529140Y-74729953D01*
X162342733Y-74599431D01*
X162284725Y-74572382D01*
X162232285Y-74526210D01*
X162213133Y-74459017D01*
X162233348Y-74392135D01*
X162284725Y-74347618D01*
X162342734Y-74320568D01*
X162529139Y-74190047D01*
X162690047Y-74029139D01*
X162820568Y-73842734D01*
X162916739Y-73636496D01*
X162975635Y-73416692D01*
X162995468Y-73190000D01*
X162975635Y-72963308D01*
X162916739Y-72743504D01*
X162820568Y-72537266D01*
X162794825Y-72500500D01*
X162690046Y-72350859D01*
X162529140Y-72189953D01*
X162342733Y-72059431D01*
X162284725Y-72032382D01*
X162232285Y-71986210D01*
X162213133Y-71919017D01*
X162233348Y-71852135D01*
X162284725Y-71807618D01*
X162342734Y-71780568D01*
X162529139Y-71650047D01*
X162690047Y-71489139D01*
X162820568Y-71302734D01*
X162885875Y-71162682D01*
X162932047Y-71110244D01*
X162999241Y-71091092D01*
X163066122Y-71111308D01*
G37*
%TD.AperFunction*%
%TD*%
M02*
