M48
; DRILL file {KiCad 7.0.2} date Mon Jun 26 18:34:23 2023
; FORMAT={-:-/ absolute / inch / decimal}
; #@! TF.CreationDate,2023-06-26T18:34:23+02:00
; #@! TF.GenerationSoftware,Kicad,Pcbnew,7.0.2
; #@! TF.FileFunction,Plated,1,2,PTH
FMAT,2
INCH
; #@! TA.AperFunction,Plated,PTH,ViaDrill
T1C0.0157
; #@! TA.AperFunction,Plated,PTH,ComponentDrill
T2C0.0315
; #@! TA.AperFunction,Plated,PTH,ComponentDrill
T3C0.0394
; #@! TA.AperFunction,Plated,PTH,ComponentDrill
T4C0.0472
; #@! TA.AperFunction,Plated,PTH,ComponentDrill
T5C0.0512
%
G90
G05
T1
X5.5463Y-3.6821
X5.7156Y-3.2717
X5.8248Y-2.4626
X5.9449Y-2.8169
X6.0443Y-3.8031
X6.3455Y-2.5945
X6.4656Y-3.5364
X6.4656Y-3.6811
X6.4902Y-2.9114
X6.5292Y-2.6443
X6.563Y-3.8396
X6.5666Y-2.7766
X6.6171Y-4.876
X6.6555Y-4.7461
X6.6998Y-3.8406
X6.7067Y-4.5325
X6.9248Y-2.3524
X6.9862Y-3.8317
T2
X4.8916Y-2.9315
X5.0884Y-2.9315
X6.0384Y-2.7362
X6.0384Y-2.9331
X6.35Y-2.7815
X6.35Y-2.8815
X6.35Y-2.9815
X6.35Y-3.0815
X6.35Y-3.1815
X6.35Y-3.2815
X6.35Y-3.3815
X6.35Y-3.4815
X6.35Y-3.5815
X6.35Y-3.6815
X6.65Y-2.7815
X6.65Y-2.8815
X6.65Y-2.9815
X6.65Y-3.0815
X6.65Y-3.1815
X6.65Y-3.2815
X6.65Y-3.3815
X6.65Y-3.4815
X6.65Y-3.5815
X6.65Y-3.6815
T3
X4.6368Y-2.815
X4.6368Y-3.1102
X6.0713Y-2.4551
X6.1213Y-2.2551
X6.1713Y-2.4551
X6.2213Y-2.2551
X6.2713Y-2.4551
X6.3213Y-2.2551
X6.3713Y-2.4551
X6.4213Y-2.2551
X6.4713Y-2.4551
X6.5213Y-2.2551
X6.5713Y-2.4551
X6.6213Y-2.2551
X6.6713Y-2.4551
X6.7213Y-2.2551
X6.7713Y-2.4551
T4
X4.5876Y-3.8802
X4.5876Y-4.1995
X4.5876Y-4.5187
X4.5876Y-4.8379
X5.02Y-3.56
X5.1876Y-3.8802
X5.1876Y-4.1995
X5.1876Y-4.5187
X5.1876Y-4.8379
X5.38Y-2.9315
X5.4789Y-3.9256
X5.4789Y-4.5256
X5.5769Y-2.9315
X5.8789Y-3.9256
X5.8789Y-4.5256
X6.02Y-3.56
X6.21Y-3.989
X6.21Y-4.2602
X6.21Y-4.5315
X6.21Y-4.8028
X6.81Y-3.989
X6.81Y-4.2602
X6.81Y-4.5315
X6.81Y-4.8028
T5
X4.9159Y-2.2656
X5.1159Y-2.2656
X5.3747Y-5.0448
X5.438Y-2.2644
X5.5716Y-5.0448
X5.638Y-2.2644
X5.7684Y-5.0448
X5.9653Y-5.0448
X7.1437Y-2.5866
X7.1437Y-2.7835
X7.1437Y-2.9803
X7.1437Y-3.1772
X7.1437Y-3.374
X7.1437Y-3.5709
X7.1437Y-3.7677
X7.1437Y-3.9646
X7.1437Y-4.1614
X7.1437Y-4.3583
X7.1437Y-4.5551
X7.1437Y-4.752
T0
M30
